<svg width="285" height="213" viewBox="0 0 285 213" fill="none" xmlns="http://www.w3.org/2000/svg">
<g clip-path="url(#clip0_449_32016)">
<path d="M60.0333 158.296H53.9814C45.9388 158.296 39.3693 151.717 39.3693 143.662V96.6931C39.3693 88.639 45.9388 82.0601 53.9814 82.0601H60.0333C68.0759 82.0601 74.6454 88.639 74.6454 96.6931V143.676C74.6454 151.717 68.0626 158.296 60.0333 158.296Z" fill="#FCD559"/>
<path d="M137.181 63.9182L117.645 186.963C116.729 192.705 120.207 198.074 125.369 198.899C130.532 199.723 135.496 195.695 136.411 189.954L155.947 66.9086" fill="white"/>
<path d="M126.725 199.669C126.234 199.669 125.757 199.63 125.266 199.55C122.585 199.124 120.236 197.556 118.67 195.137C117.117 192.732 116.52 189.794 116.984 186.857L136.52 63.8118L137.834 64.0245L118.298 187.07C117.887 189.688 118.417 192.293 119.784 194.42C121.138 196.52 123.169 197.875 125.478 198.247C127.787 198.619 130.123 197.955 132.074 196.373C134.038 194.778 135.352 192.466 135.763 189.848L155.299 66.8022L156.613 67.0149L137.064 190.06C136.6 192.997 135.113 195.616 132.897 197.41C131.065 198.899 128.915 199.669 126.725 199.669Z" fill="black"/>
<path d="M113.187 213C109.218 213 105.967 209.823 105.887 205.836C105.808 201.796 109.006 198.46 113.041 198.38L173.573 197.157L169.644 139.914C169.366 135.887 172.405 132.392 176.426 132.126C180.421 131.847 183.938 134.89 184.203 138.918L188.304 198.659C189.14 201.597 188.729 204.587 187.136 207.059C185.278 209.93 182.12 211.618 178.47 211.697L113.333 213.013C113.28 213 113.226 213 113.187 213Z" fill="black"/>
<path d="M228.442 195.443C221.819 195.35 216.285 203.364 216.179 209.996L262.338 210.687C262.417 205.637 211.162 33.4825 211.162 33.4825H176.218L237.002 195.563L228.442 195.443Z" fill="white"/>
<path d="M262.987 211.365L215.501 210.661L215.514 209.996C215.62 203.059 221.34 194.778 228.321 194.778C228.361 194.778 228.414 194.778 228.454 194.778L236.032 194.885L175.248 32.8179H211.652L211.785 33.2964C213.882 40.3272 263.066 205.597 262.987 210.701V211.365ZM216.868 209.345L261.58 210.01C259.695 199.869 227.857 91.9483 210.657 34.147H177.159L237.943 196.24L228.414 196.094C222.561 196.014 217.306 203.152 216.868 209.345Z" fill="black"/>
<path d="M197.742 8.84149L168.504 62.2568L57.0093 195.762L34.9385 195.443C28.316 195.35 22.7817 203.364 22.6755 209.996L68.8343 210.687L70.3208 209.824L199.865 76.0526C226.727 46.8396 206.926 18.6367 197.742 8.84149Z" fill="white"/>
<path d="M69.0082 211.352L22 210.648L22.0133 209.983C22.1194 203.005 27.9324 194.685 34.9531 194.765L56.7187 195.084L167.988 61.8315L197.597 7.7251L198.221 8.38963C201.658 12.0579 209.966 21.986 212.953 35.0242C216.337 49.7636 212.09 63.7188 200.345 76.5178L70.7335 210.355L69.0082 211.352ZM23.367 209.345L68.6631 210.023L69.9107 209.305L199.389 75.6007C206.303 68.0782 226.503 41.2177 197.889 9.97123L169.09 62.5758L57.3159 196.44L34.9266 196.107C28.9942 196.068 23.8049 203.152 23.367 209.345Z" fill="black"/>
<path d="M166.099 64.277L69.481 102.754C46.2954 52.4749 92.6135 39.8354 92.6135 39.8354C92.6135 39.8354 158.667 9.77184 168.912 4.5353C179.158 -0.701232 197.367 8.9744 197.367 8.9744L166.099 64.277Z" fill="black"/>
<path d="M69.496 104.747C68.7395 104.747 68.0228 104.309 67.691 103.591C60.02 86.9775 58.945 72.5305 64.466 60.6486C72.1768 44.0884 89.9078 38.5462 91.9383 37.9614C95.3359 36.4197 158.151 7.80481 168.025 2.76763C179.08 -2.86762 197.528 6.79472 198.311 7.20673C198.788 7.45925 199.133 7.89784 199.293 8.40289C199.439 8.92123 199.386 9.47944 199.12 9.94461L167.852 65.2472C167.627 65.6459 167.282 65.9516 166.857 66.1111L70.2259 104.601C69.987 104.694 69.7348 104.747 69.496 104.747ZM176.333 4.9606C173.97 4.9606 171.728 5.34603 169.83 6.31625C159.65 11.5129 96.1454 40.4202 93.438 41.6562C93.3451 41.6961 93.2389 41.736 93.146 41.7625C92.9735 41.8157 75.2558 46.8396 68.0626 62.3631C63.2583 72.7166 64.0944 85.4358 70.5311 100.188L164.72 62.6821L194.595 9.83829C191.078 8.21682 183.194 4.9606 176.333 4.9606Z" fill="black"/>
<path d="M64.8406 70.3509L46.9238 89.649C40.9118 96.1348 41.2834 106.369 47.7467 112.389C54.2232 118.41 64.4424 118.038 70.4545 111.565L88.3845 92.2539" fill="white"/>
<path d="M58.6804 117.36C54.5928 117.36 50.5051 115.872 47.2934 112.881C40.5381 106.595 40.1532 95.9621 46.4307 89.1971L64.3607 69.8857L65.3295 70.7895L47.4128 90.1009C41.6264 96.3342 41.9847 106.116 48.2091 111.911C54.4335 117.706 64.2015 117.347 69.9879 111.113L87.9179 91.8021L88.8867 92.7058L70.9435 112.031C67.6521 115.566 63.1663 117.36 58.6804 117.36Z" fill="black"/>
<path d="M106.274 70.6964L134.25 191.974C135.551 197.636 140.793 201.304 145.89 200.121C150.986 198.938 154.078 193.343 152.778 187.694L124.788 66.4168" fill="white"/>
<path d="M143.942 201.012C139.218 201.012 134.811 197.383 133.604 192.12L105.627 70.8427L106.914 70.5503L134.891 191.828C136.112 197.144 140.983 200.587 145.734 199.483C150.485 198.38 153.352 193.17 152.118 187.841L124.141 66.5631L125.428 66.2707L153.405 187.548C154.799 193.582 151.481 199.51 146.026 200.786C145.336 200.945 144.632 201.012 143.942 201.012Z" fill="black"/>
<path d="M57.0117 195.762C57.0117 200.347 57.0117 200.347 78.472 200.347L57.0117 195.762Z" fill="white"/>
<path d="M78.4744 201.012C56.762 201.012 56.3505 201.012 56.3505 195.762H57.6777C57.6777 199.683 57.6777 199.683 78.4744 199.683V201.012Z" fill="black"/>
<path d="M256.389 187.455C256.389 195.576 256.389 195.576 236.986 195.576L256.389 187.455Z" fill="white"/>
<path d="M236.986 196.227V194.898C246.581 194.898 251.412 194.898 253.708 193.941C255.632 193.13 255.725 191.735 255.725 187.455H257.052C257.052 196.227 256.296 196.227 236.986 196.227Z" fill="black"/>
<path d="M88.5963 95.0451C88.0389 95.0451 87.4948 94.8191 87.0966 94.3672C86.3667 93.5432 86.4596 92.2806 87.2824 91.5496C89.9633 89.1972 91.5692 85.9409 91.7948 82.379C92.0337 78.8171 90.8658 75.3881 88.5167 72.7034C86.1676 70.0187 82.9161 68.4105 79.3593 68.1846C75.8024 67.9586 72.3784 69.1149 69.6975 71.4674C68.8746 72.1983 67.6138 72.1053 66.8839 71.2813C66.1539 70.4573 66.2468 69.1946 67.0697 68.4637C74.2497 62.1639 85.2121 62.8816 91.5028 70.0718C94.5553 73.554 96.0683 78.0197 95.763 82.6448C95.4578 87.27 93.3741 91.4964 89.8969 94.54C89.5253 94.8856 89.0608 95.0451 88.5963 95.0451Z" fill="black"/>
<path d="M132.592 100.228H106.274V61.1538H137.9L132.592 100.228Z" fill="black"/>
<path d="M132.592 102.222H106.274C105.172 102.222 104.283 101.332 104.283 100.228V61.1538C104.283 60.0506 105.172 59.1602 106.274 59.1602H137.9C138.471 59.1602 139.028 59.4127 139.4 59.838C139.772 60.2766 139.957 60.8481 139.878 61.4196L134.569 100.494C134.423 101.478 133.587 102.222 132.592 102.222ZM108.265 98.2348H130.853L135.618 63.1474H108.265V98.2348Z" fill="black"/>
<path d="M60.1815 110.848C56.5981 110.848 53.6916 106.581 53.6916 106.581C53.6916 106.581 56.5981 102.315 60.1815 102.315C63.7648 102.315 66.6713 106.581 66.6713 106.581C66.6713 106.581 63.7648 110.848 60.1815 110.848Z" fill="white"/>
<path d="M60.1801 111.512C56.2915 111.512 53.2788 107.14 53.1461 106.954L52.8939 106.581L53.1461 106.209C53.2788 106.023 56.2915 101.651 60.1801 101.651C64.0687 101.651 67.0813 106.023 67.2141 106.209L67.4662 106.581L67.2141 106.954C67.0946 107.14 64.0687 111.512 60.1801 111.512ZM54.5263 106.581C55.2961 107.565 57.5921 110.183 60.1801 110.183C62.7813 110.183 65.064 107.578 65.8338 106.581C65.064 105.598 62.768 102.98 60.1801 102.98C57.5788 102.98 55.2961 105.585 54.5263 106.581Z" fill="black"/>
<path d="M61.7467 109.173C63.1393 109.173 64.2683 108.138 64.2683 106.86C64.2683 105.583 63.1393 104.548 61.7467 104.548C60.354 104.548 59.2251 105.583 59.2251 106.86C59.2251 108.138 60.354 109.173 61.7467 109.173Z" fill="black"/>
<path d="M73.4351 101.916V117.493C73.4351 119.593 71.723 121.294 69.6394 121.294C67.5424 121.294 65.8437 119.58 65.8437 117.493V101.916" fill="white"/>
<path d="M69.6418 121.959C67.1865 121.959 65.1825 119.952 65.1825 117.493V101.916H66.5097V117.493C66.5097 119.221 67.9165 120.63 69.6418 120.63C71.3671 120.63 72.7739 119.221 72.7739 117.493V101.916H74.1011V117.493C74.1011 119.952 72.0971 121.959 69.6418 121.959Z" fill="black"/>
<path d="M72.101 89.812L71.2046 90.7921L81.226 99.984L82.1224 99.004L72.101 89.812Z" fill="black"/>
<path d="M51.0849 89.049L41.4247 88.9904L41.2489 117.971L50.9092 118.03L51.0849 89.049Z" fill="#FCD559"/>
<path d="M50.9824 90.2338C48.3546 90.2338 46.2179 88.094 46.2179 85.4624C46.2179 82.8309 48.3546 80.6911 50.9824 80.6911C53.6102 80.6911 55.7469 82.8309 55.7469 85.4624" fill="white"/>
<path d="M50.9848 90.8983C47.9854 90.8983 45.5567 88.4661 45.5567 85.4624C45.5567 82.4587 47.9854 80.0266 50.9848 80.0266C53.9842 80.0266 56.4129 82.4587 56.4129 85.4624H55.0858C55.0858 83.203 53.241 81.3556 50.9848 81.3556C48.7286 81.3556 46.8839 83.203 46.8839 85.4624C46.8839 87.7219 48.7286 89.5693 50.9848 89.5693V90.8983Z" fill="black"/>
<path d="M68.2818 108.894C67.7642 108.894 67.3528 108.469 67.3528 107.964V105.199C67.3528 104.681 67.7775 104.269 68.2818 104.269C68.7994 104.269 69.2108 104.694 69.2108 105.199V107.964C69.2108 108.469 68.7994 108.894 68.2818 108.894Z" fill="black"/>
<path d="M70.9982 108.894C70.4806 108.894 70.0692 108.469 70.0692 107.964V105.199C70.0692 104.681 70.4939 104.269 70.9982 104.269C71.5158 104.269 71.9272 104.694 71.9272 105.199V107.964C71.9272 108.469 71.5158 108.894 70.9982 108.894Z" fill="black"/>
</g>
<defs>
<clipPath id="clip0_449_32016">
<rect width="241" height="212" fill="white" transform="translate(22 1)"/>
</clipPath>
</defs>
</svg>
