<svg width="451" height="244" viewBox="0 0 451 244" fill="none" xmlns="http://www.w3.org/2000/svg">
<g clip-path="url(#clip0_312_39973)">
<path d="M32.0621 171.204L73.8594 184.632L94.6567 119.895L52.8594 106.467L32.0621 171.204Z" fill="white"/>
<path d="M74.6415 186.092L30.6681 171.965L52.1875 104.98L96.2359 119.131L74.7165 186.116L74.6415 186.092ZM33.6414 170.44L73.1875 183.145L93.2626 120.656L53.7166 107.951L33.6414 170.44Z" fill="black"/>
<path d="M306.308 208.111C301.655 206.616 296.601 209.208 295.108 213.853C293.616 218.499 296.215 223.549 300.868 225.044C305.52 226.539 310.575 223.947 312.067 219.301C313.56 214.656 310.96 209.605 306.308 208.111Z" fill="black"/>
<path d="M405.825 228.179L314.051 198.696C303.02 195.152 291.127 201.251 287.589 212.265C284.05 223.279 290.167 235.163 301.197 238.707L392.971 268.19C404.002 271.734 415.895 265.636 419.434 254.621C422.948 243.682 416.856 231.723 405.825 228.179ZM300.17 227.218C294.242 225.313 290.98 218.975 292.881 213.056C294.783 207.137 301.126 203.884 307.054 205.789C312.982 207.693 316.244 214.031 314.343 219.951C312.441 225.87 306.098 229.122 300.17 227.218Z" fill="black"/>
<path d="M338.698 115.027C334.046 113.532 328.991 116.124 327.499 120.769C326.006 125.415 328.606 130.465 333.258 131.96C337.911 133.455 342.965 130.863 344.458 126.217C345.95 121.572 343.351 116.521 338.698 115.027Z" fill="black"/>
<path d="M438.424 133.673L346.575 104.166C335.544 100.622 323.651 106.72 320.112 117.735C316.574 128.749 322.69 140.633 333.721 144.177L425.495 173.66C436.526 177.204 448.419 171.105 451.957 160.091C455.571 149.101 449.454 137.217 438.424 133.673ZM332.56 134.133C326.632 132.228 323.37 125.89 325.271 119.971C327.173 114.052 333.492 110.874 339.42 112.779C345.348 114.683 348.61 121.021 346.709 126.94C344.807 132.86 338.488 136.037 332.56 134.133Z" fill="black"/>
<path d="M443.338 271.97L391.035 255.167C379.479 251.454 373.057 238.976 376.764 227.437L399.487 156.706C403.194 145.167 415.682 138.764 427.238 142.477L479.541 159.279" fill="black"/>
<path d="M344.233 166.66L336.867 189.588L346.848 192.794L354.213 169.866L344.233 166.66Z" fill="white"/>
<path d="M347.597 194.265L335.366 190.335L343.43 165.235L355.661 169.164L347.597 194.265ZM338.339 188.811L346.068 191.294L352.688 170.689L344.959 168.206L338.339 188.811Z" fill="black"/>
<path d="M380.499 178.469L373.133 201.396L383.113 204.603L390.479 181.675L380.499 178.469Z" fill="white"/>
<path d="M383.948 206.105L371.717 202.176L379.805 177L392.036 180.93L383.948 206.105ZM374.615 200.627L382.344 203.11L388.988 182.43L381.259 179.947L374.615 200.627Z" fill="black"/>
<path d="M387.295 174.533L376.367 208.55C375.838 210.198 374.054 211.113 372.403 210.583L342.312 200.916C340.661 200.385 339.743 198.603 340.273 196.954L351.201 162.937C351.731 161.289 353.515 160.374 355.166 160.904L385.257 170.571C386.908 171.102 387.825 172.884 387.295 174.533Z" fill="white"/>
<path d="M372.048 211.707L341.957 202.04C339.706 201.317 338.432 198.841 339.154 196.593L350.082 162.577C350.804 160.329 353.282 159.058 355.533 159.781L385.624 169.448C387.876 170.172 389.15 172.648 388.428 174.895L377.5 208.912C376.777 211.16 374.3 212.431 372.048 211.707ZM354.811 162.029C353.761 161.692 352.671 162.251 352.334 163.3L341.405 197.317C341.068 198.366 341.629 199.455 342.68 199.793L372.771 209.459C373.821 209.797 374.911 209.238 375.248 208.189L386.177 174.172C386.514 173.123 385.953 172.034 384.902 171.696L354.811 162.029Z" fill="black"/>
<path d="M183.114 157.127C180.112 156.162 176.941 157.789 175.978 160.786C175.015 163.783 176.646 166.952 179.648 167.916C184.975 169.628 187.881 175.273 186.172 180.592C184.463 185.912 178.813 188.809 173.485 187.097C170.484 186.133 167.312 187.759 166.349 190.756C165.387 193.754 167.018 196.923 170.019 197.887C179.699 200.997 190.045 196.881 195.059 188.49L216.595 195.409L219.604 186.043L198.068 179.124C198.732 169.583 192.794 160.236 183.114 157.127Z" fill="white"/>
<path d="M169.61 199.161C166.008 198.004 164.02 194.142 165.176 190.545C166.331 186.949 170.197 184.967 173.799 186.124C178.451 187.619 183.506 185.027 184.998 180.381C186.49 175.736 183.891 170.685 179.239 169.191C175.637 168.033 173.649 164.171 174.804 160.575C175.96 156.978 179.825 154.996 183.427 156.153C193.182 159.287 199.541 168.356 199.182 178.491L221.019 185.506L217.288 197.12L195.526 190.128C190.014 198.525 179.44 202.319 169.61 199.161ZM182.753 158.251C180.352 157.48 177.85 158.825 177.104 161.148C176.333 163.546 177.683 166.046 180.009 166.793C185.937 168.697 189.199 175.036 187.297 180.955C185.396 186.874 179.053 190.126 173.125 188.222C170.723 187.451 168.221 188.796 167.475 191.119C166.705 193.516 168.054 196.016 170.38 196.764C179.31 199.632 189.211 195.87 194.03 187.829L194.544 187.002L215.855 193.849L218.142 186.731L196.83 179.884L196.894 178.913C197.513 169.771 191.758 161.144 182.753 158.251Z" fill="black"/>
<path d="M218.818 196.206C221.594 197.098 224.568 195.574 225.458 192.802C226.349 190.029 224.82 187.058 222.043 186.166C219.267 185.274 216.294 186.799 215.403 189.571C214.512 192.344 216.041 195.314 218.818 196.206Z" fill="white"/>
<path d="M218.463 197.331C215.087 196.246 213.201 192.582 214.284 189.21C215.367 185.839 219.034 183.958 222.411 185.043C225.788 186.128 227.674 189.792 226.591 193.164C225.507 196.536 221.915 198.44 218.463 197.331ZM221.713 187.216C219.537 186.517 217.233 187.761 216.559 189.859C215.885 191.957 217.109 194.333 219.21 195.008C221.386 195.708 223.689 194.464 224.363 192.366C225.037 190.268 223.889 187.915 221.713 187.216Z" fill="black"/>
<path d="M208.575 59.8319C205.573 58.8676 202.402 60.4939 201.439 63.4909C200.476 66.488 202.107 69.6571 205.109 70.6214C210.436 72.333 213.342 77.978 211.633 83.2978C209.924 88.6176 204.274 91.5143 198.946 89.8027C195.945 88.8384 192.773 90.4647 191.81 93.4618C190.848 96.4588 192.479 99.6279 195.48 100.592C205.16 103.702 215.506 99.5863 220.52 91.1951L242.056 98.1139L245.041 88.8229L223.505 81.9042C224.217 72.2138 218.255 62.9417 208.575 59.8319Z" fill="white"/>
<path d="M195.095 101.791C191.493 100.634 189.505 96.7718 190.66 93.1753C191.816 89.5788 195.681 87.5968 199.283 88.7539C203.935 90.2486 208.99 87.6568 210.482 83.0113C211.975 78.3658 209.375 73.3151 204.723 71.8204C201.121 70.6633 199.133 66.8009 200.289 63.2044C201.444 59.6079 205.309 57.626 208.911 58.7831C218.666 61.9171 225.025 70.9859 224.667 81.1206L246.503 88.1357L242.772 99.7494L221.011 92.7584C215.474 101.23 204.925 104.949 195.095 101.791ZM208.213 60.956C205.812 60.1846 203.31 61.53 202.564 63.8527C201.818 66.1755 203.143 68.7504 205.469 69.4977C211.397 71.4022 214.659 77.7403 212.758 83.6596C210.856 89.5788 204.513 92.8313 198.585 90.9268C196.184 90.1554 193.682 91.5008 192.936 93.8236C192.189 96.1463 193.515 98.7212 195.841 99.4685C204.771 102.337 214.672 98.5747 219.49 90.534L220.004 89.7072L241.315 96.5536L243.602 89.4356L222.291 82.5891L222.354 81.6177C222.997 72.401 217.218 63.8489 208.213 60.956Z" fill="black"/>
<path d="M244.31 98.8358C247.087 99.7279 250.06 98.2034 250.95 95.4309C251.841 92.6584 250.312 89.6876 247.535 88.7956C244.759 87.9036 241.786 89.428 240.895 92.2005C240.004 94.9731 241.533 97.9438 244.31 98.8358Z" fill="white"/>
<path d="M243.924 100.036C240.548 98.9508 238.662 95.2865 239.745 91.9148C240.828 88.5431 244.495 86.6627 247.872 87.7475C251.249 88.8324 253.135 92.4966 252.051 95.8683C250.968 99.2401 247.376 101.145 243.924 100.036ZM247.174 89.9204C244.998 89.2213 242.694 90.4651 242.02 92.5631C241.346 94.661 242.569 97.0378 244.671 97.7128C246.847 98.4119 249.15 97.1682 249.824 95.0702C250.498 92.9722 249.35 90.6195 247.174 89.9204Z" fill="black"/>
<path d="M110.034 40.576L87.0716 33.1992L90.7415 31.5677C95.4535 29.5271 97.6581 23.9532 95.5359 19.2211C93.4886 14.513 87.9059 12.3063 83.1699 14.4218L58.3214 25.2855C56.8829 25.898 55.6482 26.9065 54.7888 28.0357C54.4674 28.263 54.146 28.4904 53.8246 28.7178C49.8743 31.9951 49.2696 38.0003 52.6293 41.9728L69.9888 62.9244C73.2735 66.8727 79.2866 67.4819 83.261 64.1298C86.7667 61.2057 87.6078 56.2683 85.5209 52.4568L104.356 58.5077C109.309 60.0987 114.586 57.3304 116.15 52.4601C117.715 47.5898 114.986 42.1671 110.034 40.576Z" fill="white"/>
<path d="M73.9255 66.9155C72.0495 66.3128 70.342 65.1857 69.0282 63.6063L51.6687 42.6547C47.9791 38.163 48.5512 31.486 53.0452 27.8048C53.2916 27.5533 53.5889 27.4008 53.9103 27.1735C54.9921 25.8678 56.3017 24.8833 57.7643 24.1959L82.7869 13.3055C85.3157 12.134 88.2309 12.0787 90.8842 13.0964C93.5375 14.1141 95.6287 16.1085 96.7047 18.686C97.7807 21.2634 97.8628 24.1003 96.8462 26.7494C95.8295 29.3986 93.8345 31.4854 91.2548 32.5579L90.3869 32.9403L110.348 39.3528C115.9 41.1368 118.959 47.0788 117.177 52.6234C115.396 58.168 109.449 61.2172 103.897 59.4333L87.3877 54.1297C88.3788 58.0025 87.1058 62.2225 83.8706 64.8202C81.7227 66.61 78.966 67.4602 76.147 67.2159C75.4504 67.3227 74.6759 67.1566 73.9255 66.9155ZM89.4867 15.1272C87.6107 14.5245 85.5932 14.6203 83.6831 15.4119L58.8106 26.3506C57.5703 26.8614 56.558 27.6934 55.7226 28.7476L55.5994 28.8733L55.4012 28.975C55.0798 29.2024 54.7824 29.3548 54.5601 29.5314C52.8809 30.8931 51.8317 32.8705 51.608 35.1131C51.3842 37.3557 52.0312 39.4648 53.4952 41.0923L70.9297 62.068C72.2945 63.7464 74.2753 64.796 76.5208 65.0215C78.6913 65.2228 80.8774 64.6026 82.5057 63.1418C85.5428 60.6458 86.3414 56.356 84.4584 52.9406L83.0581 50.3416L104.67 57.2845C109.022 58.6827 113.605 56.2701 114.977 51.9992C116.373 47.6535 113.954 43.0738 109.676 41.6997L83.7876 33.3827L90.3346 30.5264C92.3437 29.6839 93.87 28.0251 94.6941 25.9754C95.5181 23.9256 95.4927 21.6856 94.5724 19.6541C93.5502 17.4246 91.6629 15.8263 89.4867 15.1272Z" fill="black"/>
<path d="M107.893 59.067C110.919 60.0389 114.621 56.9355 116.164 52.1353C117.706 47.3351 116.503 42.6558 113.478 41.6839C110.453 40.712 106.75 43.8154 105.208 48.6156C103.666 53.4158 104.868 58.0951 107.893 59.067Z" fill="white"/>
<path d="M107.539 60.1918C103.787 58.9864 102.332 53.7246 104.089 48.2549C105.846 42.7852 110.169 39.3796 113.846 40.5609C117.523 41.7421 119.053 47.0281 117.296 52.4978C115.614 57.9915 111.291 61.3971 107.539 60.1918ZM113.124 42.8087C110.722 42.0373 107.664 44.8571 106.34 48.9781C105.016 53.0991 105.935 57.1966 108.261 57.944C110.663 58.7154 113.721 55.8955 115.045 51.7745C116.444 47.6777 115.525 43.5801 113.124 42.8087Z" fill="black"/>
<path d="M34.1324 164.731L75.9297 178.158L96.727 113.421L54.9297 99.9938L34.1324 164.731Z" fill="white"/>
<path d="M76.704 179.648L32.7306 165.521L54.25 98.5366L98.2984 112.688L76.779 179.672L76.704 179.648ZM35.7039 163.997L75.25 176.701L95.3251 114.212L55.7791 101.508L35.7039 163.997Z" fill="black"/>
<path d="M35.5838 67.9886L40.0083 69.162L49.9088 100.447L31.02 170.839L13.1768 129.233L35.5838 67.9886Z" fill="white"/>
<path d="M30.6585 171.964C30.3584 171.867 30.1063 171.621 29.9534 171.324L12.1102 129.717C11.9572 129.42 11.9785 129.096 12.0507 128.871L34.4577 67.6272C34.6503 67.0277 35.245 66.7228 35.8453 66.9157L40.3449 68.1132C40.7201 68.2338 41.0471 68.5042 41.176 68.8762L51.0765 100.161C51.1784 100.359 51.1812 100.608 51.109 100.833L32.2202 171.225C32.0758 171.675 31.7062 172.052 31.1838 172.132C30.9587 172.06 30.8086 172.012 30.6585 171.964ZM14.4223 129.22L30.7549 167.283L48.7375 100.484L39.0975 70.1923L36.2728 69.4502L14.4223 129.22Z" fill="black"/>
<path d="M40.002 69.1601L55.4372 98.4208L33.3755 163.744L19.0505 131.285L40.002 69.1601Z" fill="white"/>
<path d="M33.0181 164.867C32.7179 164.771 32.4659 164.525 32.313 164.228L17.9129 131.745C17.8351 131.472 17.7572 131.199 17.8535 130.899L38.8801 68.7984C39.0245 68.3488 39.445 68.0706 39.8924 67.9664C40.3908 67.9612 40.817 68.1807 41.0209 68.5769L56.405 97.7385C56.5579 98.0356 56.6117 98.3836 56.5154 98.6833L34.4538 164.006C34.3094 164.456 33.8648 164.809 33.3664 164.814C33.3423 164.889 33.1682 164.916 33.0181 164.867ZM20.3001 131.272L33.2674 160.484L54.1708 98.5087L40.2647 72.219L20.3001 131.272Z" fill="black"/>
<path d="M38.8972 85.2549L49.0853 104.564L34.497 147.655L25.0579 126.272L38.8972 85.2549Z" fill="white"/>
<path d="M34.1396 148.779C33.8394 148.683 33.5874 148.436 33.4345 148.139L23.9203 126.732C23.8425 126.459 23.7646 126.186 23.8609 125.887L37.7002 84.8695C37.8446 84.4199 38.2651 84.1417 38.7125 84.0375C39.2109 84.0323 39.6371 84.2518 39.841 84.648L50.0291 103.957C50.182 104.254 50.2358 104.602 50.1395 104.902L35.6262 148.017C35.4818 148.466 35.0372 148.819 34.5388 148.825C34.4638 148.801 34.2896 148.827 34.1396 148.779ZM26.3315 126.184L34.3888 144.396L47.819 104.652L39.1839 88.2393L26.3315 126.184Z" fill="black"/>
<path d="M30.242 173.733C33.8891 174.905 37.7939 172.903 38.9638 169.261C40.1337 165.619 38.1255 161.718 34.4785 160.546C30.8315 159.374 26.9266 161.377 25.7568 165.018C24.5869 168.66 26.595 172.562 30.242 173.733Z" fill="white"/>
<path d="M29.8877 174.858C25.6104 173.484 23.2658 168.928 24.6379 164.657C26.0099 160.387 30.569 158.049 34.8463 159.423C39.1236 160.797 41.4682 165.353 40.0961 169.624C38.7241 173.894 34.0899 176.208 29.8877 174.858ZM34.1001 161.746C31.0985 160.781 27.8278 162.458 26.865 165.456C25.9022 168.453 27.5842 171.721 30.5858 172.685C33.5873 173.649 36.858 171.972 37.8208 168.975C38.7837 165.978 37.1017 162.71 34.1001 161.746Z" fill="black"/>
<path d="M71.2447 173.678L40.6284 163.842C40.028 163.649 39.6713 162.956 39.8638 162.357L58.0374 105.787C58.2299 105.187 58.9237 104.832 59.524 105.024L90.1403 114.86C90.7407 115.053 91.0974 115.746 90.9049 116.346L72.7313 172.916C72.5388 173.515 71.845 173.871 71.2447 173.678ZM42.4761 161.956L70.8412 171.069L88.2926 116.746L59.9275 107.634L42.4761 161.956Z" fill="black"/>
<path d="M86.8166 125.2L56.2003 115.365C55.6 115.172 55.2432 114.478 55.4358 113.879C55.6284 113.28 56.3222 112.924 56.9225 113.117L87.5388 122.952C88.1391 123.145 88.4959 123.839 88.3033 124.438C88.1107 125.037 87.417 125.393 86.8166 125.2Z" fill="black"/>
<path d="M84.2229 133.292L53.6066 123.457C53.0063 123.264 52.6495 122.57 52.8421 121.971C53.0346 121.372 53.7284 121.016 54.3287 121.209L84.945 131.045C85.5453 131.237 85.9021 131.931 85.7096 132.53C85.517 133.129 84.8232 133.485 84.2229 133.292Z" fill="black"/>
<path d="M81.6448 141.309L51.0285 131.474C50.4282 131.281 50.0714 130.588 50.2639 129.988C50.4565 129.389 51.1503 129.033 51.7506 129.226L82.3669 139.062C82.9672 139.254 83.324 139.948 83.1314 140.547C82.9389 141.147 82.2451 141.502 81.6448 141.309Z" fill="black"/>
<path d="M79.0432 149.401L48.4269 139.566C47.8266 139.373 47.4698 138.68 47.6624 138.08C47.8549 137.481 48.5487 137.125 49.149 137.318L79.7653 147.154C80.3657 147.346 80.7224 148.04 80.5299 148.639C80.3373 149.239 79.6435 149.594 79.0432 149.401Z" fill="black"/>
<path d="M76.4495 157.494L45.8332 147.658C45.2328 147.465 44.8761 146.772 45.0686 146.172C45.2612 145.573 45.955 145.217 46.5553 145.41L77.1716 155.246C77.7719 155.439 78.1287 156.132 77.9361 156.731C77.7435 157.331 77.0498 157.687 76.4495 157.494Z" fill="black"/>
<path d="M73.8479 165.586L43.2316 155.75C42.6313 155.557 42.2745 154.864 42.4671 154.265C42.6596 153.665 43.3534 153.309 43.9537 153.502L74.57 163.338C75.1703 163.531 75.5271 164.224 75.3346 164.823C75.142 165.423 74.4482 165.779 73.8479 165.586Z" fill="black"/>
<path d="M46.7846 165.818C46.1843 165.625 45.8275 164.932 46.0201 164.333L64.1936 107.763C64.3862 107.163 65.08 106.808 65.6803 107.001C66.2806 107.193 66.6374 107.887 66.4448 108.486L48.2713 165.056C48.0787 165.655 47.3849 166.011 46.7846 165.818Z" fill="black"/>
<path d="M52.8627 167.773C52.2624 167.58 51.9056 166.887 52.0982 166.287L70.2717 109.717C70.4643 109.118 71.1581 108.762 71.7584 108.955C72.3587 109.148 72.7155 109.841 72.5229 110.44L54.3494 167.01C54.1568 167.61 53.4631 167.965 52.8627 167.773Z" fill="black"/>
<path d="M59.019 169.749C58.4187 169.556 58.0619 168.863 58.2545 168.263L76.428 111.693C76.6206 111.094 77.3143 110.738 77.9147 110.931C78.515 111.124 78.8718 111.817 78.6792 112.417L60.5057 168.987C60.3131 169.586 59.6193 169.942 59.019 169.749Z" fill="black"/>
<path d="M65.0971 171.703C64.4968 171.51 64.14 170.817 64.3326 170.218L82.5061 113.648C82.6987 113.048 83.3925 112.693 83.9928 112.886C84.5931 113.078 84.9499 113.772 84.7573 114.371L66.5838 170.941C66.3912 171.54 65.6974 171.896 65.0971 171.703Z" fill="black"/>
<path d="M357.102 181.941C353.5 180.784 351.588 176.945 352.719 173.424C353.85 169.902 357.716 167.92 361.243 169.053C364.769 170.186 366.757 174.049 365.626 177.57C364.495 181.092 360.704 183.098 357.102 181.941ZM360.544 171.226C358.218 170.479 355.74 171.749 354.994 174.072C354.248 176.395 355.522 178.871 357.849 179.618C360.175 180.365 362.653 179.095 363.399 176.772C364.145 174.449 362.871 171.973 360.544 171.226Z" fill="black"/>
<path d="M368.884 192.421C368.284 192.229 367.927 191.535 368.119 190.936C368.312 190.336 369.006 189.981 369.606 190.174C371.932 190.921 374.41 189.65 375.156 187.328C375.902 185.005 374.628 182.529 372.302 181.782C371.702 181.589 371.345 180.896 371.537 180.296C371.73 179.697 372.424 179.341 373.024 179.534C376.626 180.691 378.539 184.529 377.407 188.051C376.276 191.572 372.486 193.579 368.884 192.421Z" fill="black"/>
<path d="M353.548 173.69C352.609 176.612 354.24 179.781 357.167 180.721L360.609 170.007C357.683 169.066 354.511 170.693 353.548 173.69Z" fill="black"/>
<path d="M352.055 198.672C348.453 197.515 346.541 193.677 347.672 190.155C348.803 186.634 352.669 184.652 356.196 185.785C359.722 186.918 361.71 190.78 360.579 194.302C359.448 197.823 355.657 199.829 352.055 198.672ZM355.473 188.032C353.147 187.285 350.669 188.556 349.923 190.878C349.177 193.201 350.451 195.677 352.778 196.424C355.104 197.172 357.582 195.901 358.328 193.578C359.074 191.256 357.8 188.78 355.473 188.032Z" fill="black"/>
<path d="M348.502 190.421C347.563 193.344 349.194 196.513 352.121 197.453L355.539 186.813C352.612 185.873 349.441 187.499 348.502 190.421Z" fill="black"/>
<path d="M181.444 73.9313L134.844 58.9607L134.122 61.2085L180.721 76.1791L181.444 73.9313Z" fill="black"/>
<path d="M162.579 87.0486L161.434 84.9448L180.683 74.7619L170.47 55.5278L172.576 54.3856L183.933 75.7236L162.579 87.0486Z" fill="black"/>
<path d="M154.608 166.486L108.008 151.516L107.286 153.764L153.885 168.734L154.608 166.486Z" fill="black"/>
<path d="M135.743 179.601L134.598 177.497L153.847 167.314L143.635 148.08L145.74 146.938L157.073 168.351L135.743 179.601Z" fill="black"/>
<path d="M279.912 207.815L233.312 192.845L232.59 195.093L279.19 210.063L279.912 207.815Z" fill="black"/>
<path d="M260.973 220.909L259.903 218.829L279.151 208.646L268.939 189.412L271.045 188.27L282.378 209.683L260.973 220.909Z" fill="black"/>
<path d="M314.279 115.284L267.68 100.313L266.958 102.561L313.557 117.531L314.279 115.284Z" fill="black"/>
<path d="M295.431 128.321L294.261 126.292L313.609 116.058L303.322 96.8L305.427 95.6579L316.761 117.071L295.431 128.321Z" fill="black"/>
</g>
<defs>
<clipPath id="clip0_312_39973">
<rect width="454.381" height="172.665" fill="white" transform="translate(53.1406 0.970703) rotate(17.81)"/>
</clipPath>
</defs>
</svg>
