<svg width="488" height="264" viewBox="0 0 488 264" fill="none" xmlns="http://www.w3.org/2000/svg">
<g clip-path="url(#clip0_449_32588)">
<path d="M45.7731 175.488L90.2465 189.491L112.375 121.979L67.9019 107.975L45.7731 175.488Z" fill="white"/>
<path d="M91.0883 191.013L44.2994 176.281L67.1967 106.424L114.065 121.182L91.1682 191.038L91.0883 191.013ZM47.4631 174.691L89.5412 187.94L110.902 122.772L68.8236 109.523L47.4631 174.691Z" fill="black"/>
<path d="M337.586 213.976C332.636 212.417 327.257 215.12 325.669 219.964C324.081 224.809 326.847 230.076 331.798 231.635C336.748 233.194 342.126 230.491 343.714 225.646C345.302 220.802 342.536 215.534 337.586 213.976Z" fill="black"/>
<path d="M443.471 234.905L345.821 204.157C334.084 200.462 321.429 206.822 317.664 218.308C313.9 229.795 320.407 242.188 332.145 245.884L429.794 276.631C441.532 280.327 454.186 273.967 457.951 262.48C461.691 251.072 455.208 238.6 443.471 234.905ZM331.051 233.902C324.743 231.916 321.272 225.306 323.296 219.133C325.319 212.96 332.068 209.568 338.376 211.554C344.684 213.54 348.155 220.15 346.131 226.323C344.108 232.496 337.359 235.888 331.051 233.902Z" fill="black"/>
<path d="M372.048 116.901C367.097 115.342 361.719 118.045 360.131 122.89C358.543 127.735 361.309 133.002 366.259 134.561C371.21 136.119 376.588 133.416 378.176 128.572C379.764 123.727 376.998 118.46 372.048 116.901Z" fill="black"/>
<path d="M478.163 136.347L380.434 105.575C368.697 101.879 356.042 108.239 352.277 119.725C348.512 131.212 355.02 143.605 366.757 147.301L464.407 178.048C476.144 181.744 488.799 175.384 492.564 163.897C496.408 152.436 489.901 140.042 478.163 136.347ZM365.522 136.826C359.214 134.84 355.743 128.23 357.767 122.057C359.79 115.884 366.514 112.57 372.821 114.557C379.129 116.543 382.6 123.153 380.576 129.326C378.553 135.499 371.83 138.812 365.522 136.826Z" fill="black"/>
<path d="M483.393 280.572L427.741 263.049C415.445 259.177 408.612 246.164 412.556 234.131L436.734 160.367C440.678 148.334 453.966 141.656 466.262 145.528L521.913 163.051" fill="black"/>
<path d="M377.926 170.748L370.089 194.658L380.708 198.002L388.546 174.091L377.926 170.748Z" fill="#FCD559"/>
<path d="M381.506 199.536L368.492 195.438L377.072 169.261L390.086 173.359L381.506 199.536ZM371.655 193.848L379.879 196.437L386.923 174.949L378.699 172.36L371.655 193.848Z" fill="black"/>
<path d="M416.519 183.063L408.682 206.973L419.301 210.317L427.139 186.407L416.519 183.063Z" fill="#FCD559"/>
<path d="M420.191 211.884L407.176 207.786L415.782 181.531L428.797 185.629L420.191 211.884ZM410.26 206.171L418.484 208.76L425.553 187.194L417.329 184.604L410.26 206.171Z" fill="black"/>
<path d="M423.76 178.958L412.132 214.433C411.569 216.152 409.67 217.106 407.914 216.553L375.896 206.472C374.139 205.919 373.163 204.06 373.727 202.341L385.355 166.866C385.918 165.146 387.816 164.193 389.573 164.746L421.591 174.827C423.347 175.38 424.323 177.239 423.76 178.958Z" fill="#FCD559"/>
<path d="M407.531 217.726L375.513 207.645C373.118 206.891 371.762 204.309 372.53 201.965L384.158 166.489C384.927 164.145 387.563 162.82 389.958 163.575L421.976 173.656C424.371 174.41 425.727 176.992 424.959 179.336L413.331 214.812C412.563 217.156 409.926 218.481 407.531 217.726ZM389.19 165.919C388.072 165.567 386.912 166.15 386.554 167.244L374.926 202.719C374.567 203.813 375.164 204.949 376.282 205.301L408.299 215.382C409.417 215.734 410.577 215.151 410.936 214.057L422.564 178.582C422.922 177.488 422.326 176.352 421.208 176L389.19 165.919Z" fill="black"/>
<path d="M206.499 160.806C203.305 159.8 199.93 161.496 198.906 164.622C197.881 167.747 199.617 171.052 202.811 172.058C208.48 173.843 211.571 179.73 209.752 185.278C207.934 190.826 201.923 193.847 196.254 192.062C193.06 191.056 189.686 192.752 188.661 195.878C187.637 199.003 189.372 202.308 192.566 203.314C202.866 206.557 213.874 202.265 219.209 193.514L242.124 200.729L245.325 190.962L222.41 183.746C223.117 173.797 216.799 164.049 206.499 160.806Z" fill="#FCD559"/>
<path d="M192.133 204.643C188.3 203.436 186.185 199.408 187.414 195.658C188.644 191.907 192.757 189.84 196.589 191.047C201.54 192.606 206.918 189.903 208.506 185.058C210.094 180.213 207.328 174.946 202.378 173.387C198.545 172.181 196.43 168.153 197.659 164.402C198.889 160.651 203.002 158.584 206.834 159.791C217.214 163.059 223.979 172.517 223.598 183.086L246.833 190.402L242.863 202.514L219.708 195.223C213.843 203.979 202.592 207.936 192.133 204.643ZM206.117 161.979C203.562 161.175 200.9 162.578 200.106 165C199.286 167.5 200.722 170.108 203.197 170.887C209.505 172.873 212.976 179.483 210.952 185.656C208.929 191.829 202.18 195.221 195.872 193.235C193.317 192.43 190.655 193.833 189.861 196.256C189.041 198.756 190.477 201.363 192.952 202.143C202.454 205.134 212.989 201.21 218.116 192.825L218.663 191.963L241.338 199.103L243.772 191.68L221.096 184.54L221.164 183.526C221.822 173.993 215.698 164.996 206.117 161.979Z" fill="black"/>
<path d="M244.494 201.561C247.449 202.492 250.612 200.902 251.56 198.01C252.507 195.119 250.881 192.021 247.926 191.091C244.972 190.16 241.808 191.75 240.861 194.642C239.913 197.533 241.54 200.631 244.494 201.561Z" fill="white"/>
<path d="M244.111 202.734C240.518 201.603 238.512 197.782 239.664 194.266C240.817 190.749 244.719 188.788 248.312 189.92C251.905 191.051 253.911 194.872 252.759 198.389C251.606 201.905 247.784 203.891 244.111 202.734ZM247.569 192.186C245.253 191.457 242.802 192.754 242.085 194.942C241.368 197.129 242.67 199.608 244.905 200.312C247.221 201.041 249.672 199.744 250.389 197.556C251.106 195.368 249.884 192.915 247.569 192.186Z" fill="black"/>
<path d="M233.595 59.3397C230.402 58.3341 227.027 60.03 226.003 63.1556C224.978 66.2812 226.714 69.5861 229.907 70.5918C235.576 72.3768 238.668 78.2637 236.849 83.8116C235.031 89.3595 229.02 92.3804 223.351 90.5954C220.157 89.5898 216.782 91.2857 215.758 94.4113C214.733 97.5369 216.469 100.842 219.663 101.847C229.962 105.091 240.971 100.798 246.305 92.0475L269.221 99.2629L272.397 89.5736L249.481 82.3582C250.239 72.2524 243.895 62.5829 233.595 59.3397Z" fill="#FCD559"/>
<path d="M219.255 103.098C215.422 101.891 213.307 97.8634 214.536 94.1127C215.766 90.362 219.879 88.2951 223.711 89.5018C228.661 91.0605 234.04 88.3576 235.628 83.513C237.216 78.6683 234.45 73.4011 229.499 71.8424C225.667 70.6356 223.552 66.6077 224.781 62.857C226.011 59.1063 230.123 57.0394 233.956 58.2461C244.336 61.5144 251.101 70.972 250.72 81.5412L273.955 88.8571L269.985 100.969L246.83 93.6779C240.939 102.512 229.714 106.391 219.255 103.098ZM233.213 60.5122C230.658 59.7077 227.996 61.1108 227.202 63.5331C226.408 65.9554 227.818 68.6407 230.293 69.42C236.601 71.4062 240.072 78.0161 238.049 84.1891C236.025 90.3621 229.276 93.754 222.968 91.7679C220.413 90.9634 217.751 92.3665 216.957 94.7888C216.163 97.2111 217.573 99.8964 220.049 100.676C229.55 103.667 240.085 99.7435 245.212 91.3582L245.759 90.4959L268.435 97.6359L270.868 90.2127L248.192 83.0727L248.26 82.0596C248.944 72.4478 242.794 63.529 233.213 60.5122Z" fill="black"/>
<path d="M271.595 100.016C274.55 100.946 277.713 99.3562 278.661 96.4648C279.609 93.5734 277.982 90.4753 275.027 89.545C272.073 88.6147 268.909 90.2045 267.962 93.0959C267.014 95.9873 268.641 99.0854 271.595 100.016Z" fill="white"/>
<path d="M271.187 101.267C267.594 100.136 265.588 96.3144 266.74 92.7981C267.893 89.2818 271.795 87.3209 275.388 88.4522C278.981 89.5835 280.987 93.4049 279.835 96.9212C278.682 100.437 274.86 102.424 271.187 101.267ZM274.645 90.7182C272.329 89.9892 269.878 91.2863 269.161 93.4742C268.444 95.6621 269.746 98.1408 271.981 98.8447C274.297 99.5738 276.748 98.2767 277.465 96.0888C278.182 93.9009 276.96 91.4473 274.645 90.7182Z" fill="black"/>
<path d="M128.747 39.259L104.315 31.566L108.22 29.8646C113.233 27.7365 115.579 21.9236 113.321 16.9886C111.143 12.0787 105.202 9.77734 100.163 11.9836L73.7237 23.313C72.1931 23.9517 70.8794 25.0035 69.9649 26.1811C69.6229 26.4182 69.2809 26.6553 68.9389 26.8925C64.7357 30.3102 64.0923 36.5729 67.6672 40.7156L86.1381 62.5655C89.6331 66.6831 96.0313 67.3184 100.26 63.8225C103.99 60.7731 104.885 55.624 102.665 51.6491L122.706 57.9594C127.975 59.6187 133.59 56.7316 135.255 51.6526C136.92 46.5735 134.017 40.9183 128.747 39.259Z" fill="white"/>
<path d="M90.3293 66.7276C88.3332 66.0991 86.5164 64.9236 85.1184 63.2766L66.6475 41.4268C62.7216 36.7425 63.3304 29.7792 68.1121 25.9402C68.3742 25.678 68.6906 25.519 69.0326 25.2818C70.1836 23.9202 71.5771 22.8935 73.1334 22.1767L99.7581 10.8193C102.449 9.59766 105.551 9.53992 108.374 10.6013C111.197 11.6626 113.422 13.7425 114.567 16.4305C115.712 19.1185 115.799 22.0769 114.717 24.8396C113.636 27.6023 111.513 29.7787 108.768 30.8971L107.845 31.2959L129.083 37.9833C134.992 39.8438 138.246 46.0405 136.35 51.8228C134.455 57.6052 128.128 60.7851 122.219 58.9247L104.653 53.3937C105.708 57.4325 104.354 61.8334 100.911 64.5425C98.6257 66.409 95.6925 67.2957 92.693 67.0409C91.9518 67.1523 91.1278 66.979 90.3293 66.7276ZM106.887 12.7192C104.891 12.0907 102.744 12.1905 100.712 13.0161L74.2466 24.4237C72.9269 24.9564 71.8498 25.8241 70.9609 26.9234L70.8298 27.0546L70.6189 27.1606C70.2769 27.3977 69.9606 27.5567 69.724 27.7408C67.9373 29.1609 66.8209 31.2231 66.5829 33.5619C66.3448 35.9006 67.0332 38.1001 68.5909 39.7974L87.1417 61.6724C88.5939 63.4227 90.7015 64.5173 93.0908 64.7524C95.4003 64.9624 97.7263 64.3155 99.4588 62.7922C102.69 60.1891 103.54 55.7155 101.537 52.1537L100.047 49.4432L123.042 56.6838C127.673 58.1419 132.549 55.6258 134.009 51.1719C135.495 46.6398 132.92 41.8638 128.369 40.4308L100.823 31.7573L107.789 28.7785C109.927 27.8999 111.551 26.17 112.428 24.0324C113.304 21.8948 113.277 19.5587 112.298 17.4402C111.21 15.115 109.202 13.4482 106.887 12.7192Z" fill="black"/>
<path d="M126.467 58.5422C129.686 59.5558 133.626 56.3193 135.267 51.3134C136.907 46.3074 135.628 41.4275 132.409 40.4139C129.19 39.4004 125.25 42.6368 123.609 47.6428C121.968 52.6488 123.248 57.5286 126.467 58.5422Z" fill="white"/>
<path d="M126.084 59.7154C122.092 58.4583 120.543 52.9709 122.413 47.2668C124.283 41.5626 128.882 38.011 132.795 39.2429C136.707 40.4748 138.335 45.9874 136.466 51.6915C134.676 57.4208 130.076 60.9724 126.084 59.7154ZM132.026 41.5871C129.471 40.7826 126.217 43.7233 124.808 48.021C123.4 52.3186 124.377 56.5918 126.852 57.3712C129.408 58.1757 132.662 55.235 134.07 50.9373C135.559 46.6648 134.581 42.3916 132.026 41.5871Z" fill="black"/>
<path d="M47.9645 168.736L92.4379 182.739L114.567 115.227L70.0933 101.224L47.9645 168.736Z" fill="white"/>
<path d="M93.2713 184.293L46.4824 169.56L69.3796 99.7039L116.248 114.461L93.3511 184.318L93.2713 184.293ZM49.6461 167.97L91.7242 181.22L113.085 116.051L71.0066 102.802L49.6461 167.97Z" fill="black"/>
<path d="M49.5323 67.8463L54.2401 69.07L64.7745 101.696L44.6763 175.106L25.6906 131.716L49.5323 67.8463Z" fill="white"/>
<path d="M44.2939 176.279C43.9746 176.178 43.7064 175.921 43.5437 175.612L24.558 132.221C24.3953 131.911 24.4179 131.574 24.4947 131.339L48.3364 67.4695C48.5413 66.8444 49.1741 66.5264 49.8128 66.7275L54.6005 67.9764C54.9997 68.1021 55.3477 68.3841 55.4848 68.7721L66.0192 101.398C66.1277 101.605 66.1307 101.864 66.0538 102.099L45.9556 175.509C45.802 175.978 45.4088 176.371 44.8529 176.455C44.6133 176.379 44.4536 176.329 44.2939 176.279ZM27.0181 131.703L44.3965 171.397L63.5304 101.735L53.2732 70.1446L50.2677 69.3707L27.0181 131.703Z" fill="black"/>
<path d="M54.2234 69.0683L70.6468 99.5834L47.1726 167.707L31.9304 133.857L54.2234 69.0683Z" fill="white"/>
<path d="M46.7943 168.879C46.4749 168.778 46.2068 168.521 46.0441 168.211L30.722 134.336C30.6392 134.052 30.5563 133.767 30.6587 133.454L53.0316 68.6912C53.1853 68.2224 53.6327 67.9323 54.1088 67.8236C54.6391 67.8181 55.0925 68.0471 55.3095 68.4602L71.6786 98.8721C71.8413 99.1819 71.8986 99.5447 71.7961 99.8573L48.3219 167.98C48.1683 168.449 47.6952 168.818 47.1649 168.823C47.1393 168.901 46.954 168.929 46.7943 168.879ZM33.262 133.843L47.0595 164.307L69.3013 99.6752L54.5049 72.2585L33.262 133.843Z" fill="black"/>
<path d="M53.0476 85.8532L63.888 105.99L48.3656 150.928L38.3222 128.629L53.0476 85.8532Z" fill="white"/>
<path d="M47.9873 152.101C47.668 152 47.3998 151.743 47.2371 151.433L37.1138 129.109C37.0309 128.824 36.9481 128.539 37.0505 128.227L51.7759 85.4513C51.9296 84.9824 52.377 84.6923 52.8531 84.5836C53.3834 84.5782 53.8369 84.8071 54.0538 85.2203L64.8942 105.357C65.0569 105.667 65.1142 106.03 65.0117 106.342L49.5692 151.306C49.4155 151.775 48.9425 152.143 48.4122 152.148C48.3323 152.123 48.147 152.151 47.9873 152.101ZM39.6794 128.537L48.2526 147.529L62.5426 106.082L53.3547 88.9655L39.6794 128.537Z" fill="black"/>
<path d="M43.84 178.124C47.7205 179.346 51.8754 177.258 53.1202 173.46C54.365 169.662 52.2283 165.593 48.3477 164.371C44.4672 163.15 40.3123 165.238 39.0675 169.035C37.8228 172.833 39.9595 176.902 43.84 178.124Z" fill="white"/>
<path d="M43.4572 179.297C38.906 177.864 36.4113 173.113 37.8712 168.659C39.3311 164.205 44.1821 161.767 48.7333 163.2C53.2844 164.633 55.7791 169.384 54.3192 173.838C52.8593 178.292 47.9285 180.705 43.4572 179.297ZM47.9393 165.623C44.7455 164.617 41.2654 166.366 40.241 169.492C39.2165 172.617 41.0061 176.025 44.1999 177.031C47.3937 178.037 50.8738 176.288 51.8983 173.162C52.9227 170.037 51.1331 166.628 47.9393 165.623Z" fill="black"/>
<path d="M87.4679 178.067L54.8914 167.809C54.2526 167.608 53.873 166.885 54.0779 166.26L73.415 107.265C73.6199 106.64 74.3581 106.269 74.9969 106.47L107.573 116.728C108.212 116.929 108.592 117.652 108.387 118.277L89.0498 177.272C88.8449 177.897 88.1067 178.268 87.4679 178.067ZM56.8574 165.842L87.0386 175.346L105.607 118.695L75.4262 109.191L56.8574 165.842Z" fill="black"/>
<path d="M104.042 127.511L71.4656 117.253C70.8268 117.052 70.4472 116.329 70.6521 115.704C70.857 115.079 71.5952 114.708 72.2339 114.909L104.81 125.167C105.449 125.368 105.829 126.091 105.624 126.716C105.419 127.341 104.681 127.712 104.042 127.511Z" fill="black"/>
<path d="M101.288 135.95L68.711 125.693C68.0723 125.491 67.6927 124.768 67.8976 124.143C68.1025 123.518 68.8406 123.147 69.4794 123.348L102.056 133.606C102.695 133.807 103.074 134.53 102.869 135.155C102.665 135.78 101.926 136.151 101.288 135.95Z" fill="black"/>
<path d="M98.5497 144.31L65.9731 134.053C65.3344 133.852 64.9547 133.129 65.1596 132.504C65.3645 131.879 66.1027 131.508 66.7415 131.709L99.318 141.966C99.9568 142.167 100.336 142.89 100.132 143.515C99.9266 144.141 99.1884 144.512 98.5497 144.31Z" fill="black"/>
<path d="M95.77 152.75L63.1935 142.492C62.5547 142.291 62.1751 141.568 62.38 140.943C62.5849 140.318 63.3231 139.947 63.9618 140.148L96.5384 150.405C97.1771 150.606 97.5568 151.329 97.3519 151.955C97.147 152.58 96.4088 152.951 95.77 152.75Z" fill="black"/>
<path d="M93.0071 161.189L60.4305 150.932C59.7918 150.73 59.4121 150.007 59.617 149.382C59.8219 148.757 60.5601 148.386 61.1989 148.587L93.7754 158.845C94.4142 159.046 94.7938 159.769 94.5889 160.394C94.384 161.019 93.6458 161.39 93.0071 161.189Z" fill="black"/>
<path d="M90.244 169.628L57.6675 159.37C57.0287 159.169 56.6491 158.446 56.854 157.821C57.0589 157.196 57.7971 156.825 58.4358 157.026L91.0124 167.284C91.6511 167.485 92.0308 168.208 91.8259 168.833C91.621 169.458 90.8828 169.829 90.244 169.628Z" fill="black"/>
<path d="M61.4471 169.87C60.8084 169.669 60.4288 168.946 60.6337 168.321L79.9708 109.326C80.1757 108.701 80.9139 108.33 81.5526 108.531C82.1914 108.732 82.571 109.455 82.3661 110.08L63.029 169.075C62.8241 169.7 62.0859 170.071 61.4471 169.87Z" fill="black"/>
<path d="M67.9109 171.908C67.2721 171.707 66.8925 170.984 67.0974 170.359L86.4345 111.364C86.6394 110.739 87.3776 110.368 88.0164 110.569C88.6551 110.77 89.0348 111.493 88.8299 112.118L69.4927 171.113C69.2878 171.739 68.5497 172.109 67.9109 171.908Z" fill="black"/>
<path d="M74.475 173.969C73.8362 173.768 73.4566 173.045 73.6615 172.42L92.9986 113.425C93.2035 112.8 93.9417 112.429 94.5805 112.63C95.2192 112.831 95.5989 113.554 95.394 114.179L76.0568 173.174C75.8519 173.799 75.1137 174.17 74.475 173.969Z" fill="black"/>
<path d="M80.9303 176.007C80.2915 175.806 79.9119 175.083 80.1168 174.458L99.454 115.463C99.6589 114.838 100.397 114.467 101.036 114.668C101.675 114.869 102.054 115.592 101.849 116.217L82.5122 175.212C82.3073 175.837 81.5691 176.208 80.9303 176.007Z" fill="black"/>
<path d="M391.626 186.684C387.794 185.477 385.759 181.474 386.962 177.802C388.166 174.129 392.279 172.062 396.032 173.244C399.784 174.425 401.899 178.453 400.696 182.126C399.492 185.798 395.459 187.89 391.626 186.684ZM395.289 175.51C392.814 174.73 390.177 176.055 389.383 178.478C388.589 180.9 389.945 183.482 392.42 184.261C394.896 185.041 397.532 183.716 398.326 181.293C399.12 178.871 397.764 176.289 395.289 175.51Z" fill="black"/>
<path d="M404.168 197.614C403.529 197.413 403.149 196.69 403.354 196.065C403.559 195.44 404.297 195.069 404.936 195.27C407.411 196.049 410.048 194.724 410.842 192.302C411.636 189.879 410.28 187.297 407.805 186.518C407.166 186.317 406.786 185.594 406.991 184.969C407.196 184.344 407.934 183.973 408.573 184.174C412.406 185.381 414.441 189.383 413.237 193.056C412.033 196.728 408 198.821 404.168 197.614Z" fill="black"/>
<path d="M387.84 178.079C386.841 181.127 388.577 184.432 391.691 185.412L395.353 174.238C392.239 173.258 388.864 174.954 387.84 178.079Z" fill="black"/>
<path d="M386.259 204.132C382.427 202.926 380.392 198.923 381.596 195.25C382.799 191.578 386.912 189.511 390.665 190.693C394.417 191.874 396.533 195.902 395.329 199.575C394.125 203.247 390.092 205.339 386.259 204.132ZM389.896 193.037C387.421 192.257 384.785 193.582 383.991 196.005C383.197 198.427 384.553 201.009 387.028 201.788C389.503 202.568 392.139 201.243 392.933 198.82C393.727 196.398 392.372 193.816 389.896 193.037Z" fill="black"/>
<path d="M382.482 195.528C381.483 198.576 383.219 201.88 386.333 202.861L389.97 191.765C386.856 190.785 383.481 192.481 382.482 195.528Z" fill="black"/>
<path d="M204.725 74.0441L155.142 58.4317L154.374 60.7759L203.957 76.3882L204.725 74.0441Z" fill="black"/>
<path d="M184.646 87.7236L183.427 85.5296L203.908 74.9101L193.042 54.8514L195.282 53.6603L207.367 75.9131L184.646 87.7236Z" fill="black"/>
<path d="M176.175 170.567L126.591 154.955L125.823 157.299L175.406 172.911L176.175 170.567Z" fill="black"/>
<path d="M156.095 184.244L154.877 182.05L175.358 171.43L164.492 151.371L166.732 150.18L178.791 172.511L156.095 184.244Z" fill="black"/>
<path d="M309.5 213.668L259.917 198.055L259.149 200.4L308.732 216.012L309.5 213.668Z" fill="black"/>
<path d="M289.349 227.323L288.21 225.154L308.692 214.534L297.826 194.476L300.066 193.284L312.125 215.615L289.349 227.323Z" fill="black"/>
<path d="M346.064 117.169L296.48 101.557L295.712 103.901L345.295 119.513L346.064 117.169Z" fill="black"/>
<path d="M326.009 130.765L324.765 128.649L345.351 117.977L334.406 97.893L336.646 96.7019L348.705 119.033L326.009 130.765Z" fill="black"/>
</g>
<defs>
<clipPath id="clip0_449_32588">
<rect width="488" height="264" rx="15" fill="white"/>
</clipPath>
</defs>
</svg>
