<svg width="285" height="213" viewBox="0 0 285 213" fill="none" xmlns="http://www.w3.org/2000/svg">
<g clip-path="url(#clip0_449_32566)">
<path d="M120.04 182.378H118.842H117.643C117.643 177.969 118.362 173.801 119.641 169.953C119.801 169.392 120.04 168.831 120.28 168.27C120.36 167.949 120.52 167.709 120.6 167.388C120.76 166.987 120.92 166.586 121.159 166.185C121.319 165.785 121.559 165.384 121.719 164.983C126.194 156.406 134.267 149.512 146.015 144.462C161.76 137.648 180.382 135.724 192.77 135.323C193.09 130.032 197.486 125.784 202.92 125.784V126.986V128.189C198.924 128.189 195.567 131.315 195.168 135.243C195.168 135.483 195.168 135.724 195.168 135.964C195.168 136.125 195.168 136.285 195.168 136.445C195.168 136.846 195.248 137.247 195.328 137.648C196.127 141.175 199.164 143.74 202.92 143.74C207.156 143.74 210.593 140.373 210.673 136.125C208.994 135.323 207.476 134.041 206.357 132.357C206.197 132.036 206.037 131.716 205.877 131.475C205.718 131.075 205.558 130.674 205.398 130.273C205.238 129.872 205.158 129.471 205.078 129.071L204.998 128.99H205.078C204.759 127.547 204.759 126.105 205.158 124.662C205.798 122.016 207.396 119.772 209.634 118.329L210.273 119.371L210.913 120.413C209.154 121.535 207.955 123.219 207.476 125.303C207.316 125.864 207.316 126.505 207.316 127.066C207.316 127.547 207.396 128.028 207.476 128.59C207.556 128.99 207.716 129.471 207.876 129.872C208.035 130.353 208.275 130.754 208.515 131.235C210.833 134.842 215.628 135.964 219.225 133.64C220.903 132.598 222.022 130.914 222.581 129.151C219.544 128.349 216.907 126.185 215.628 123.058C215.628 122.978 215.548 122.898 215.548 122.818C215.388 122.417 215.308 121.936 215.149 121.535C215.069 121.215 214.989 120.814 214.989 120.493L214.589 120.413L214.909 120.092C214.589 115.764 217.067 111.435 221.303 109.751L221.702 110.874L222.102 111.996C219.544 113.038 217.786 115.283 217.306 117.768C217.227 118.329 217.147 118.89 217.147 119.531C217.147 120.012 217.227 120.493 217.306 120.974V121.054C217.386 121.375 217.466 121.776 217.626 122.096C218.505 124.421 220.423 126.024 222.581 126.666C222.981 126.826 223.381 126.906 223.78 126.906C224.18 126.986 224.579 126.986 224.979 126.986C225.858 126.986 226.817 126.826 227.696 126.425C230.094 125.463 231.772 123.379 232.412 121.054C229.535 120.653 226.817 119.13 225.219 116.565C224.819 115.924 224.499 115.283 224.26 114.561C224.1 114.16 224.02 113.679 223.94 113.279C223.86 112.798 223.78 112.317 223.78 111.836C223.78 110.794 223.86 109.832 224.1 108.79C224.819 106.064 226.577 103.739 229.055 102.216L229.694 103.258L230.334 104.3C228.416 105.503 226.977 107.347 226.418 109.511C226.258 110.152 226.178 110.794 226.178 111.355C226.178 111.836 226.178 112.397 226.258 112.878C226.258 112.958 226.258 112.958 226.258 113.038C226.418 113.92 226.737 114.722 227.217 115.443C228.416 117.367 230.414 118.489 232.572 118.81C232.971 118.89 233.371 118.89 233.771 118.89C234.17 118.89 234.57 118.89 234.969 118.81C236.168 118.649 237.447 118.168 238.566 117.527C241.203 115.844 244.64 107.347 243.121 102.858C242.562 101.254 241.523 100.533 239.765 100.613C239.605 100.613 239.445 100.613 239.285 100.613L239.205 99.4106L237.527 100.132L234.49 101.334C221.223 101.575 201.482 102.777 180.942 107.587C180.142 107.747 179.343 107.988 178.544 108.148C177.185 108.469 175.827 108.87 174.468 109.19C172.47 109.751 170.392 110.313 168.394 110.954C163.199 112.557 158.084 114.401 153.049 116.485C147.534 118.81 142.419 121.375 137.703 124.181C136.425 124.982 135.146 125.704 133.867 126.585C130.51 128.75 127.393 131.075 124.436 133.56C123.717 134.121 123.077 134.682 122.438 135.323C112.767 143.9 105.654 153.921 101.099 165.464C100.939 165.865 100.779 166.346 100.619 166.747C100.459 167.228 100.299 167.628 100.14 168.109C100.06 168.27 100.06 168.43 99.9798 168.51C98.8609 171.797 97.9018 175.244 97.1026 178.851C95.9037 184.462 95.2644 190.394 95.1045 196.567C95.1045 196.807 95.1045 197.048 95.1045 197.288H93.9057H92.7068C92.7868 191.517 93.3462 185.985 94.3852 180.695L64.0945 200.334H170.632L216.987 170.194H122.198C120.76 173.721 120.04 177.889 120.04 182.378Z" fill="white"/>
<path d="M183.9 203.781C180.064 206.266 173.43 208.27 169.034 208.27L41.7174 207.95C40.5985 207.95 39.7193 207.789 39 207.549V211.397C39.1598 212.198 40.3587 212.679 42.4367 212.679L169.754 213C173.91 213 180.303 211.076 183.98 208.751L233.452 176.687C235.29 175.484 236.09 174.442 235.93 173.64L235.45 170.194C234.971 170.755 234.331 171.236 233.452 171.797L183.9 203.781Z" fill="black"/>
<path d="M245.603 101.976C244.644 99.17 242.406 97.8073 239.209 98.1279L239.289 98.7692H238.73C225.542 98.7692 203.643 99.7312 180.785 105.022C180.066 100.934 178.388 97.5668 175.75 95.0016C171.355 90.753 165.6 89.7109 160.006 89.5506V91.9555C165.121 92.1158 170.316 93.0777 174.072 96.7652C176.31 99.0097 177.748 101.976 178.468 105.583C175.91 106.224 173.353 106.866 170.875 107.587C170.555 105.262 169.836 103.499 168.637 102.377C165.76 99.5708 159.606 99.7312 154.171 99.8113C153.532 99.8113 152.813 99.8113 152.173 99.8915C152.013 100.613 151.933 101.254 151.933 101.896H151.214H149.456H149.296C149.296 101.415 149.216 101.014 149.216 100.613C146.259 103.739 141.384 111.996 136.189 122.257C131.473 125.062 127.077 128.189 123.161 131.475C124.6 128.349 127.557 121.856 131.074 115.042C137.547 102.457 141.703 96.9255 144.341 94.3603C143.462 93.9595 142.502 93.7992 141.543 93.719C138.586 96.9255 134.67 102.697 128.916 113.92C124.04 123.299 120.204 132.117 120.044 132.437L119.565 133.56L120.284 133.88C110.374 142.858 103.101 153.52 98.6249 165.704C98.465 166.185 98.3052 166.586 98.1453 167.067C97.9855 167.468 97.9056 167.789 97.7457 168.189C97.7457 168.27 97.6658 168.35 97.6658 168.51C95.9874 168.991 94.3091 169.713 92.8704 170.434C92.2311 170.755 91.6716 171.075 91.1121 171.396L70.8118 184.543L41.4801 203.461C40.0415 204.343 39.6419 204.984 39.562 205.224C39.7218 205.304 40.3612 205.625 41.7998 205.625L169.117 205.946C173.033 205.946 179.267 204.102 182.704 201.857L232.176 169.793C233.614 168.911 234.014 168.27 234.094 168.029H234.014C233.774 167.869 233.215 167.708 231.856 167.708L123.321 167.468C123.481 167.067 123.721 166.666 123.88 166.266C124.12 165.865 124.28 165.464 124.52 165.063C128.836 157.448 136.348 151.355 146.978 146.786C162.403 140.133 180.706 138.289 192.934 137.888C193.733 142.698 197.889 146.385 202.924 146.385C208.199 146.385 212.515 142.377 213.074 137.167C213.714 137.327 214.353 137.407 215.072 137.407C216.911 137.407 218.829 136.926 220.507 135.804C222.825 134.361 224.343 132.117 224.983 129.632C225.063 129.632 225.063 129.632 225.143 129.632C226.341 129.632 227.62 129.391 228.819 128.91C232.176 127.547 234.414 124.662 235.053 121.295C236.811 121.134 238.49 120.573 240.088 119.531C243.765 117.046 247.361 107.266 245.603 101.976ZM150.735 102.296C151.853 102.296 153.052 102.296 154.251 102.216C158.967 102.056 164.721 101.976 166.959 104.06C167.758 104.862 168.318 106.304 168.477 108.228C163.043 109.912 157.608 111.755 152.253 114C147.857 115.844 143.701 117.848 139.785 120.012C144.66 110.954 148.657 104.541 150.735 102.296ZM238.73 117.367C237.611 118.088 236.332 118.489 235.133 118.649C234.733 118.73 234.334 118.73 233.934 118.73C233.535 118.73 233.135 118.73 232.735 118.649C230.577 118.329 228.579 117.206 227.38 115.283C226.901 114.561 226.581 113.679 226.421 112.878C226.421 112.798 226.421 112.798 226.421 112.717C226.341 112.236 226.262 111.675 226.341 111.194C226.341 110.553 226.421 109.912 226.581 109.351C227.141 107.186 228.579 105.342 230.497 104.14L229.858 103.098L229.219 102.056C226.741 103.579 224.983 105.984 224.263 108.629C224.024 109.671 223.864 110.633 223.944 111.675C223.944 112.156 224.024 112.637 224.104 113.118C224.184 113.599 224.263 114 224.423 114.401C224.663 115.122 224.983 115.764 225.382 116.405C226.981 118.97 229.618 120.493 232.575 120.894C232.016 123.219 230.338 125.303 227.86 126.265C226.981 126.585 226.022 126.746 225.143 126.826C224.743 126.826 224.343 126.826 223.944 126.746C223.544 126.666 223.145 126.585 222.745 126.505C220.587 125.864 218.669 124.181 217.79 121.936C217.63 121.615 217.55 121.215 217.47 120.894V120.814C217.39 120.333 217.31 119.852 217.31 119.371C217.31 118.81 217.31 118.168 217.47 117.607C217.95 115.042 219.708 112.798 222.265 111.836L221.866 110.713L221.466 109.591C217.23 111.274 214.673 115.523 215.072 119.932L214.753 120.253L215.152 120.333C215.232 120.653 215.232 121.054 215.312 121.375C215.392 121.776 215.552 122.257 215.712 122.657C215.712 122.738 215.792 122.818 215.792 122.898C216.991 126.024 219.628 128.269 222.745 128.99C222.265 130.754 221.146 132.437 219.388 133.479C215.792 135.804 210.996 134.682 208.679 131.074C208.439 130.674 208.199 130.193 208.039 129.712C207.879 129.311 207.719 128.83 207.64 128.429C207.56 127.948 207.48 127.467 207.48 126.906C207.48 126.345 207.56 125.704 207.64 125.142C208.119 123.138 209.318 121.375 211.076 120.253L210.437 119.211L209.797 118.168C207.48 119.611 205.881 121.856 205.322 124.501C205.002 125.944 205.002 127.387 205.242 128.83H205.162L205.242 128.91C205.322 129.311 205.402 129.712 205.562 130.113C205.721 130.513 205.881 130.914 206.041 131.315C206.201 131.636 206.361 131.956 206.521 132.197C207.56 133.88 209.078 135.163 210.836 135.964C210.757 140.133 207.32 143.58 203.084 143.58C199.408 143.58 196.291 140.934 195.491 137.487C195.411 137.087 195.331 136.686 195.331 136.285C195.331 136.125 195.331 135.964 195.331 135.804C195.331 135.564 195.331 135.323 195.331 135.083C195.731 131.155 199.008 128.028 203.084 128.028V126.826V125.623C197.729 125.623 193.333 129.872 192.934 135.163C180.546 135.564 161.924 137.487 146.179 144.301C134.51 149.351 126.358 156.245 121.882 164.823C121.643 165.223 121.483 165.624 121.323 166.025C121.163 166.426 120.923 166.827 120.763 167.228C120.604 167.468 120.524 167.789 120.444 168.109C120.204 168.67 120.044 169.232 119.804 169.793C118.526 173.64 117.806 177.729 117.806 182.218H119.005H120.204C120.204 177.809 120.923 173.64 122.362 169.793H217.31L170.955 199.934H64.2581L94.5488 180.294C93.5898 185.585 93.0303 191.116 92.8704 196.887H94.0693H95.2681C95.2681 196.647 95.2681 196.406 95.2681 196.166C95.428 189.994 96.1473 184.062 97.2662 178.45C97.9855 174.923 98.9446 171.476 100.143 168.109C100.223 167.949 100.223 167.789 100.303 167.708C100.463 167.228 100.623 166.827 100.783 166.346C100.943 165.945 101.102 165.464 101.262 165.063C105.818 153.52 112.931 143.5 122.602 134.922C123.241 134.361 123.96 133.72 124.6 133.159C127.557 130.754 130.674 128.429 134.031 126.185C135.309 125.383 136.588 124.581 137.867 123.78C142.582 120.974 147.697 118.409 153.212 116.084C158.247 113.92 163.362 112.156 168.557 110.553C170.555 109.912 172.633 109.351 174.631 108.789C175.99 108.389 177.349 108.068 178.708 107.747C179.507 107.587 180.306 107.347 181.105 107.186C201.565 102.457 221.306 101.174 234.653 100.934L237.691 99.7312L239.369 99.0097L239.449 100.212C239.609 100.212 239.769 100.212 239.928 100.212C241.687 100.212 242.806 100.934 243.285 102.457C244.804 107.186 241.367 115.683 238.73 117.367Z" fill="black"/>
<path d="M149.056 100.613C149.136 101.014 149.136 101.495 149.136 101.896H149.296H151.054H151.774C151.774 101.254 151.853 100.533 152.013 99.8915C152.892 96.0438 156.089 92.196 159.846 92.196V91.9555V89.5507V88.5887C159.606 88.9094 159.366 89.23 159.126 89.4705C158.008 90.6729 156.489 91.5547 154.811 91.8754C154.251 92.0357 153.612 92.0357 153.052 92.0357H151.694H149.296H148.017H147.857C146.499 92.0357 145.3 91.715 144.181 91.1539C142.982 90.5126 141.863 89.6308 141.064 88.5887V93.7191C141.144 93.7191 141.224 93.7191 141.384 93.7191C142.343 93.7191 143.302 93.9596 144.181 94.3604C146.738 95.4826 148.657 97.8073 149.056 100.613Z" fill="#FCD559"/>
<path d="M147.937 89.7911H149.376H153.132C153.612 89.7911 154.091 89.7109 154.571 89.6308C155.53 89.3903 156.409 88.9093 157.048 88.3482H143.861C144.98 89.23 146.419 89.7911 147.937 89.7911Z" fill="#FCD559"/>
<path d="M144.181 91.3142C145.3 91.8754 146.579 92.196 147.857 92.196H148.017H149.296H151.694H153.052C153.692 92.196 154.251 92.1158 154.811 92.0357C156.489 91.6349 158.008 90.8332 159.126 89.6308C159.366 89.3102 159.606 89.0697 159.846 88.749C160.805 87.3863 161.444 85.7029 161.444 83.8592V73.1175C169.596 79.9312 176.47 83.9393 183.023 85.8632C193.653 88.8292 203.164 85.9434 212.035 77.0454C213.314 75.7628 214.033 73.9992 214.033 72.1555C214.033 70.3118 213.314 68.6284 212.035 67.2656C209.398 64.6203 205.002 64.6203 202.365 67.2656C198.049 71.5944 194.133 74.0794 188.298 72.9571C181.185 71.5944 171.674 64.8608 159.286 52.3555C158.967 52.0349 158.087 51.1531 152.493 50.9126V46.664C156.409 45.9426 159.446 42.4956 159.446 38.4073V34.8H161.364C162.563 34.8 163.602 33.8381 163.602 32.5555V31.9142C163.602 30.7118 162.643 29.6697 161.364 29.6697H159.446V25.1005C159.446 17.8057 156.089 14.8397 147.697 14.8397V16.5231C145.859 15.4009 143.222 14.8397 139.785 14.8397V16.5231C138.107 15.962 136.109 15.6413 133.551 15.6413V18.0462C140.584 18.0462 142.902 19.9701 142.902 25.9021H145.3C145.3 21.6535 144.101 18.928 141.543 17.3247C147.218 17.6454 149.136 19.7296 149.136 25.1005H151.534C151.534 21.4932 150.655 18.928 148.816 17.3247C155.05 17.4851 157.048 19.4891 157.048 25.1005V29.83C156.489 30.0705 156.089 30.4713 155.85 30.9523H153.292C152.972 30.1507 152.173 29.6697 151.294 29.6697H147.777C146.898 29.6697 146.099 30.2308 145.779 30.9523C145.3 30.9523 144.82 30.9523 144.341 30.9523C143.382 30.9523 142.503 30.9523 141.703 30.9523V25.0203H139.306V31.1126C138.187 31.2729 137.308 31.6737 136.588 32.3952C135.629 33.3571 135.23 34.7199 135.23 36.9644C135.23 37.6057 135.789 38.1668 136.428 38.1668C137.068 38.1668 137.627 37.6057 137.627 36.9644C137.627 35.4413 137.867 34.5596 138.267 34.0786C138.506 33.8381 138.826 33.6778 139.306 33.5976V38.247C139.306 41.6138 141.304 44.5798 144.181 45.8624V50.9126C126.838 51.1531 115.489 53.3175 107.416 57.8065C97.8257 63.2575 93.1102 71.9952 93.1102 84.6608C93.1102 88.4284 96.1473 91.5547 99.9836 91.5547C103.82 91.5547 106.857 88.5085 106.857 84.6608C106.857 76.4041 106.857 66.2235 139.465 64.7806V83.4583C139.465 85.3021 140.105 87.0656 141.144 88.4284C141.943 89.7911 142.982 90.6729 144.181 91.3142ZM141.703 38.4073V33.5175C142.503 33.5175 143.302 33.5175 144.261 33.5175C144.74 33.5175 145.22 33.5175 145.699 33.5175C146.019 34.3191 146.818 34.8 147.697 34.8H151.214C152.093 34.8 152.892 34.2389 153.212 33.5175H155.85C156.089 34.0786 156.489 34.4794 157.048 34.6397V38.4073C157.048 41.694 154.331 44.4195 151.054 44.4195H147.697C144.341 44.4996 141.703 41.7741 141.703 38.4073ZM140.664 62.6162C107.257 63.8187 104.459 73.8389 104.459 84.9814C104.459 87.4664 102.461 89.4705 99.9836 89.4705C97.506 89.4705 95.5079 87.4664 95.5079 84.9814C95.5079 73.2778 99.7438 65.1814 108.615 60.2114C116.288 55.8826 127.317 53.8786 144.181 53.5579V57.566H146.579V46.8243C146.898 46.9045 147.298 46.9045 147.697 46.9045H150.255V57.6462H152.653V53.3976C156.009 53.5579 157.448 53.9588 157.688 54.1191C170.635 67.1053 180.306 73.8389 187.979 75.362C195.651 76.8049 200.367 72.877 204.203 69.0292C205.082 68.1474 206.201 67.7466 207.32 67.7466C208.519 67.7466 209.638 68.2276 210.437 69.0292C211.316 69.911 211.716 71.0332 211.716 72.1555C211.716 73.2778 211.236 74.4802 210.437 75.2818C202.205 83.5385 193.493 86.264 183.743 83.5385C177.029 81.6146 169.836 77.2057 161.125 69.5903L159.126 67.8268V83.6187C159.126 85.4624 158.327 87.0656 157.048 88.1879C156.329 88.8292 155.45 89.23 154.571 89.4705C154.091 89.5507 153.612 89.6308 153.132 89.6308H149.376H147.937C146.419 89.6308 145.06 89.0697 143.941 88.1077C142.662 86.9855 141.863 85.3822 141.863 83.5385V62.5361L140.664 62.6162Z" fill="black"/>
<path d="M154.649 67.5061C155.369 67.5061 155.928 66.945 155.928 66.2235C155.928 65.5021 155.369 64.9409 154.649 64.9409C153.93 64.9409 153.371 65.5021 153.371 66.2235C153.371 66.945 153.93 67.5061 154.649 67.5061Z" fill="black"/>
<path d="M150.572 84.5004C151.278 84.5004 151.851 83.9262 151.851 83.2178C151.851 82.5095 151.278 81.9352 150.572 81.9352C149.866 81.9352 149.293 82.5095 149.293 83.2178C149.293 83.9262 149.866 84.5004 150.572 84.5004Z" fill="black"/>
<path d="M146.657 67.5061C147.377 67.5061 147.936 66.945 147.936 66.2235C147.936 65.5021 147.377 64.9409 146.657 64.9409C145.938 64.9409 145.378 65.5021 145.378 66.2235C145.378 66.945 145.938 67.5061 146.657 67.5061Z" fill="black"/>
</g>
<defs>
<clipPath id="clip0_449_32566">
<rect width="207" height="198" fill="white" transform="translate(39 15)"/>
</clipPath>
</defs>
</svg>
