<svg width="692" height="798" viewBox="0 0 692 798" fill="none" xmlns="http://www.w3.org/2000/svg">
<path d="M301.867 85.7852C305.974 93.9964 313.539 100.047 321.536 104.585C334.288 111.931 348.985 116.037 363.682 116.685" stroke="#FCD559" stroke-width="8" stroke-miterlimit="10" stroke-linecap="round"/>
<path d="M237.246 783.739C216.497 783.739 199.422 766.668 199.422 745.924V715.024C199.422 694.28 216.497 677.209 237.246 677.209H320.458C341.207 677.209 358.282 694.28 358.282 715.024V745.924C358.282 766.668 341.207 783.739 320.458 783.739H237.246Z" fill="#FCD559"/>
<path d="M320.458 680.449C339.478 680.449 355.04 696.007 355.04 715.023V745.923C355.04 764.938 339.478 780.496 320.458 780.496H237.245C218.226 780.496 202.664 764.938 202.664 745.923V715.023C202.664 696.007 218.226 680.449 237.245 680.449H320.458ZM320.458 673.967H237.245C214.767 673.967 196.18 692.334 196.18 715.023V745.923C196.18 768.612 214.551 786.979 237.245 786.979H320.458C343.152 786.979 361.524 768.612 361.524 745.923V715.023C361.524 692.334 342.936 673.967 320.458 673.967Z" fill="black"/>
<path d="M380.544 786.979H297.331C274.853 786.979 256.266 768.612 256.266 745.923V715.023C256.266 692.334 274.853 673.967 297.331 673.967H380.544C403.022 673.967 421.61 692.334 421.61 715.023V745.923C421.61 768.612 403.238 786.979 380.544 786.979Z" fill="black"/>
<path d="M355.899 570.246H198.336V673.967H355.899V570.246Z" fill="black"/>
<path d="M388.324 573.488H358.93V670.726H388.324V573.488Z" fill="#FCD559"/>
<path d="M385.082 576.729V667.484H362.172V576.729H385.082ZM391.566 570.246H355.688V673.967H391.566V570.246Z" fill="black"/>
<path d="M174.352 566.79L200.504 498.508H279.394L305.546 566.79H174.352Z" fill="#FCD559"/>
<path d="M277.232 501.748L301.007 563.548H179.106L202.881 501.748H277.232ZM281.771 495.266H198.342L169.812 570.031H310.301L281.771 495.266Z" fill="black"/>
<path d="M361.525 570.248H220.82L249.566 495.482H332.995L361.525 570.248Z" fill="black"/>
<path d="M495.314 473.441H125.289V497.427H495.314V473.441Z" fill="#FCD559"/>
<path d="M492.072 476.682V494.185H128.531V476.682H492.072ZM498.556 470.199H122.047V500.667H498.556V470.199Z" fill="black"/>
<path d="M123.557 497.426C116.856 497.426 111.453 492.024 111.453 485.325C111.453 478.627 116.856 473.224 123.557 473.224C130.257 473.224 135.66 478.627 135.66 485.325C135.444 492.024 130.041 497.426 123.557 497.426Z" fill="#FCD559"/>
<path d="M123.557 476.682C128.312 476.682 132.418 480.571 132.418 485.541C132.418 490.295 128.528 494.401 123.557 494.401C118.802 494.401 114.695 490.511 114.695 485.541C114.695 480.571 118.585 476.682 123.557 476.682ZM123.557 470.199C115.127 470.199 108.211 477.114 108.211 485.541C108.211 493.968 115.127 500.883 123.557 500.883C131.986 500.883 138.902 493.968 138.902 485.541C138.686 477.114 131.77 470.199 123.557 470.199Z" fill="black"/>
<path d="M347.259 470.201H234.868C212.174 470.201 193.586 448.808 193.586 422.662V366.48C193.586 340.334 212.174 318.941 234.868 318.941H347.259C369.953 318.941 388.54 340.334 388.54 366.48V422.662C388.54 449.024 370.169 470.201 347.259 470.201ZM234.868 353.083C228.384 353.083 222.98 359.133 222.98 366.696V422.878C222.98 430.441 228.384 436.491 234.868 436.491H347.259C353.743 436.491 359.146 430.441 359.146 422.878V366.696C359.146 359.133 353.743 353.083 347.259 353.083H234.868Z" fill="black"/>
<path d="M264.048 466.958C243.082 466.958 226.008 447.078 226.008 422.661V366.479C226.008 342.061 243.082 322.181 264.048 322.181H376.438C397.403 322.181 414.478 342.061 414.478 366.479V422.661C414.478 447.078 397.403 466.958 376.438 466.958H264.048ZM264.048 349.84C255.618 349.84 248.918 357.403 248.918 366.695V422.877C248.918 432.168 255.618 439.731 264.048 439.731H376.438C384.868 439.731 391.568 432.168 391.568 422.877V366.695C391.568 357.403 384.868 349.84 376.438 349.84H264.048Z" fill="#FCD559"/>
<path d="M376.438 325.639C395.674 325.639 411.236 344.006 411.236 366.695V422.877C411.236 445.566 395.674 463.933 376.438 463.933H264.048C244.811 463.933 229.25 445.566 229.25 422.877V366.695C229.25 344.006 244.811 325.639 264.048 325.639H376.438ZM264.048 442.973H376.438C386.597 442.973 394.81 433.897 394.81 422.877V366.695C394.81 355.675 386.597 346.599 376.438 346.599H264.048C253.889 346.599 245.676 355.675 245.676 366.695V422.877C245.676 433.897 253.889 442.973 264.048 442.973ZM376.438 319.156H264.048C241.353 319.156 222.766 340.549 222.766 366.695V422.877C222.766 449.023 241.353 470.415 264.048 470.415H376.438C399.133 470.415 417.72 449.023 417.72 422.877V366.695C417.72 340.549 399.133 319.156 376.438 319.156ZM264.048 436.49C257.563 436.49 252.16 430.44 252.16 422.877V366.695C252.16 359.132 257.563 353.082 264.048 353.082H376.438C382.922 353.082 388.326 359.132 388.326 366.695V422.877C388.326 430.44 382.922 436.49 376.438 436.49H264.048Z" fill="black"/>
<path d="M236.814 275.443L177.242 250.961L96.2178 448.019L155.789 472.502L236.814 275.443Z" fill="#FCD559" stroke="black" stroke-width="3" stroke-miterlimit="10"/>
<path d="M247.372 279.659L217.586 267.418L136.562 464.477L166.347 476.718L247.372 279.659Z" fill="black"/>
<path d="M302.513 317.211L202.442 248.281C191.203 240.501 186.232 225.159 194.013 214.139C201.793 202.903 219.3 200.094 228.162 207.873L328.233 276.804C341.633 284.583 344.443 299.925 336.662 310.945C329.097 322.181 313.752 324.991 302.513 317.211Z" fill="black"/>
<path d="M311.159 304.678L211.089 235.747C195.959 225.375 195.311 215.435 204.821 201.606C212.602 190.37 227.947 187.56 236.809 195.339L336.88 264.27C350.28 272.049 353.09 287.391 345.309 298.412C337.744 309.432 322.399 312.241 311.159 304.678Z" fill="#FCD559" stroke="black" stroke-width="3" stroke-miterlimit="10"/>
<path d="M555.828 796.92L327.156 190.154" stroke="black" stroke-width="3" stroke-miterlimit="10"/>
<path d="M369.305 174.164L597.976 780.929" stroke="black" stroke-width="3" stroke-miterlimit="10"/>
<path d="M538.32 750.246L580.467 734.256" stroke="black" stroke-width="3" stroke-miterlimit="10"/>
<path d="M520.594 703.57L562.74 687.58" stroke="black" stroke-width="3" stroke-miterlimit="10"/>
<path d="M503.094 656.896L545.24 640.906" stroke="black" stroke-width="3" stroke-miterlimit="10"/>
<path d="M485.367 610.223L527.514 594.232" stroke="black" stroke-width="3" stroke-miterlimit="10"/>
<path d="M467.859 563.549L510.006 547.559" stroke="black" stroke-width="3" stroke-miterlimit="10"/>
<path d="M450.352 516.875L492.498 500.885" stroke="black" stroke-width="3" stroke-miterlimit="10"/>
<path d="M432.633 470.199L474.779 454.209" stroke="black" stroke-width="3" stroke-miterlimit="10"/>
<path d="M415.125 423.525L457.271 407.535" stroke="black" stroke-width="3" stroke-miterlimit="10"/>
<path d="M397.398 376.852L439.545 360.861" stroke="black" stroke-width="3" stroke-miterlimit="10"/>
<path d="M379.891 330.178L422.037 314.188" stroke="black" stroke-width="3" stroke-miterlimit="10"/>
<path d="M362.383 283.502L404.529 267.512" stroke="black" stroke-width="3" stroke-miterlimit="10"/>
<path d="M344.664 236.828L386.811 220.838" stroke="black" stroke-width="3" stroke-miterlimit="10"/>
<path d="M163.109 159.685L265.99 10.3711V159.685H163.109Z" fill="#FCD559"/>
<path d="M262.745 20.7441V156.229H169.374L262.745 20.7441ZM269.229 0L157.055 162.928H269.229V0Z" fill="black"/>
<path d="M339.479 0H269.234V162.928H339.479V0Z" fill="black"/>
<path d="M289.117 104.152C293.224 112.364 300.789 118.414 308.786 122.952C321.538 130.299 336.235 134.404 350.932 135.052" stroke="#FCD559" stroke-width="8" stroke-miterlimit="10" stroke-linecap="round"/>
<path d="M367.141 111.932C368.87 152.339 379.244 192.531 397.4 228.833" stroke="#FCD559" stroke-width="16" stroke-miterlimit="10" stroke-linecap="round"/>
<path d="M398.045 235.965C388.751 237.694 379.457 239.854 370.163 242.447C366.921 243.312 363.679 244.392 361.302 246.769C358.492 249.794 357.844 254.548 358.708 258.654C359.573 262.759 361.734 266.433 363.895 270.106C368.867 278.533 383.564 310.73 388.535 319.157" stroke="#FCD559" stroke-width="8" stroke-miterlimit="10" stroke-linecap="round"/>
<path d="M403.672 239.422C412.966 279.614 421.395 319.805 428.96 360.429" stroke="#FCD559" stroke-width="8" stroke-miterlimit="10" stroke-linecap="round"/>
<path d="M384.434 103.288C397.445 103.288 407.993 92.7429 407.993 79.7349C407.993 66.7268 397.445 56.1816 384.434 56.1816C371.423 56.1816 360.875 66.7268 360.875 79.7349C360.875 92.7429 371.423 103.288 384.434 103.288Z" fill="#FCD559"/>
<path d="M403.67 56.6134C393.512 48.4022 378.815 50.1309 370.602 60.2868L407.345 89.6743C415.558 79.5184 413.829 64.6085 403.67 56.6134Z" fill="#FCD559"/>
<path d="M403.67 56.6134C393.512 48.4022 378.815 50.1309 370.602 60.2868L407.345 89.6743C415.558 79.5184 413.829 64.6085 403.67 56.6134Z" stroke="black" stroke-width="3" stroke-miterlimit="10"/>
<path d="M345.094 39.7598L406.26 88.8109" stroke="black" stroke-width="3" stroke-miterlimit="10" stroke-linecap="round"/>
<path d="M404.098 58.7754L388.969 76.7104L407.773 91.8363C415.986 81.6803 414.257 66.7705 404.098 58.7754Z" fill="black"/>
</svg>
