<svg width="180" height="147" viewBox="0 0 180 147" fill="none" xmlns="http://www.w3.org/2000/svg">
<path d="M85.6261 135.82C50.774 131.495 37.6154 120.294 39.5973 108.731C41.5791 97.169 57.9487 89.6307 92.8007 93.9554C127.653 98.2802 168.216 112.877 166.238 124.439C164.261 136.002 120.483 140.142 85.6261 135.82Z" fill="black"/>
<path d="M94.3648 131.38C60.6633 140.093 40.519 127.353 33.2832 107.088C26.0474 86.8231 34.4566 66.7047 68.1537 57.9916C101.851 49.2785 148.508 55.1682 155.734 75.4395C162.96 95.7108 128.061 122.671 94.3648 131.38Z" fill="#AACCF1"/>
<path d="M94.3648 131.38C60.6633 140.093 40.519 127.353 33.2832 107.088C26.0474 86.8231 34.4566 66.7047 68.1537 57.9916C101.851 49.2785 148.508 55.1682 155.734 75.4395C162.96 95.7108 128.061 122.671 94.3648 131.38Z" stroke="black" stroke-width="4" stroke-linecap="round" stroke-linejoin="round"/>
<path d="M53.0391 63.4043L114.859 88.2427" stroke="black" stroke-width="1.01517" stroke-linecap="round" stroke-linejoin="round"/>
<path d="M59.4609 66.7842L68.1016 107.867" stroke="black" stroke-width="1.01517" stroke-linecap="round" stroke-linejoin="round"/>
<path d="M89.1 77.7133L115.601 71.9278" stroke="black" stroke-width="1.01517" stroke-linecap="round" stroke-linejoin="round"/>
<path d="M109.598 62.6503L106.704 73.8675" stroke="black" stroke-width="1.01517" stroke-linecap="round" stroke-linejoin="round"/>
<path d="M66.8038 101.428L59.4219 66.1445L97.5138 80.8968L66.8038 101.428Z" fill="black"/>
<path d="M62.3438 68.6348L92.9912 81.6773" stroke="white" stroke-width="1.01517" stroke-linecap="round" stroke-linejoin="round"/>
<path d="M77.9238 77.3874C74.5701 77.0467 69.3693 72.479 65.7401 60.7233C61.9024 48.2758 61.11 31.9928 63.5089 14.9036C63.7717 13.0316 63.1496 11.1474 61.7795 9.66561C60.4093 8.18378 58.4034 7.22569 56.2029 7.00212C54.0024 6.77854 51.7877 7.30781 50.0459 8.47346C48.3041 9.63911 47.1779 11.3456 46.9151 13.2177C46.8254 13.8567 46.7357 14.4957 46.6465 15.1309L24.8126 12.9126C22.3323 12.7065 19.8559 13.335 17.9138 14.6637C15.9718 15.9923 14.7187 17.9152 14.4232 20.0204C14.1277 22.1256 14.8132 24.2455 16.3329 25.9258C17.8525 27.6061 20.0853 28.7132 22.5529 29.0098L45.4698 31.3382C45.2575 43.4835 46.6426 54.819 49.576 64.3374C54.6082 80.6442 63.9678 90.2917 75.9415 91.5083C78.142 91.7318 80.3567 91.2026 82.0985 90.0369C83.8403 88.8713 84.9665 87.1647 85.2293 85.2927C85.4921 83.4206 84.8699 81.5364 83.4998 80.0546C82.1296 78.5728 80.1237 77.6147 77.9232 77.3912L77.9238 77.3874Z" fill="black"/>
<path d="M81.5653 77.7999C78.2799 77.5063 73.2752 72.9653 69.9737 61.1298C66.483 48.5976 66.0678 32.1395 68.8042 14.8174C69.104 12.9198 68.5352 11.0234 67.2229 9.54545C65.9106 8.06746 63.9623 7.12891 61.8066 6.93629C59.651 6.74368 57.4646 7.31277 55.7283 8.51836C53.9921 9.72394 52.8483 11.4673 52.5485 13.3648C52.4462 14.0125 52.3439 14.6602 52.2421 15.3042L30.853 13.3929C28.4223 13.2222 25.9766 13.8958 24.0401 15.2693C22.1037 16.6428 20.8304 18.6069 20.4933 20.7408C20.1562 22.8746 20.7821 25.0085 22.2368 26.685C23.6915 28.3615 25.8592 29.4472 28.2754 29.7096L50.7255 31.7157C50.2463 44.0039 51.3536 55.4486 54.0218 65.0317C58.5993 81.4493 67.5744 91.0651 79.3042 92.1133C81.4598 92.3059 83.6462 91.7368 85.3825 90.5312C87.1187 89.3256 88.2625 87.5823 88.5623 85.6847C88.8621 83.7872 88.2932 81.8908 86.9809 80.4128C85.6686 78.9348 83.7203 77.9963 81.5647 77.8037L81.5653 77.7999Z" fill="#AACCF1" stroke="black" stroke-width="1.01517" stroke-linecap="round" stroke-linejoin="round"/>
<path d="M77.9238 77.3874C74.5701 77.0467 69.3693 72.479 65.7401 60.7233C61.9024 48.2758 61.11 31.9928 63.5089 14.9036C63.7717 13.0316 63.1496 11.1474 61.7795 9.66561C60.4093 8.18378 58.4034 7.22569 56.2029 7.00212C54.0024 6.77854 51.7877 7.30781 50.0459 8.47346C48.3041 9.63911 47.1779 11.3456 46.9151 13.2177C46.8254 13.8567 46.7357 14.4957 46.6465 15.1309L24.8126 12.9126C22.3323 12.7065 19.8559 13.335 17.9138 14.6637C15.9718 15.9923 14.7187 17.9152 14.4232 20.0204C14.1277 22.1256 14.8132 24.2455 16.3329 25.9258C17.8525 27.6061 20.0853 28.7132 22.5529 29.0098L45.4698 31.3382C45.2575 43.4835 46.6426 54.819 49.576 64.3374C54.6082 80.6442 63.9678 90.2917 75.9415 91.5083C78.142 91.7318 80.3567 91.2026 82.0985 90.0369C83.8403 88.8713 84.9665 87.1647 85.2293 85.2927C85.4921 83.4206 84.8699 81.5364 83.4998 80.0546C82.1296 78.5728 80.1237 77.6147 77.9233 77.3912L77.9238 77.3874Z" stroke="black" stroke-width="1.01517" stroke-linecap="round" stroke-linejoin="round"/>
<path d="M60.2833 14.5524C60.16 15.2157 59.7394 15.8126 59.1098 16.2178C58.4802 16.6229 57.6906 16.8047 56.9068 16.7251C56.1229 16.6455 55.4058 16.3105 54.9061 15.7907C54.4063 15.2708 54.1628 14.6064 54.2266 13.937" fill="#AACCF1"/>
<path d="M60.2833 14.5524C60.16 15.2157 59.7394 15.8126 59.1098 16.2178C58.4802 16.6229 57.6906 16.8047 56.9068 16.7251C56.1229 16.6455 55.4058 16.3105 54.9061 15.7907C54.4063 15.2708 54.1628 14.6064 54.2266 13.937" stroke="black" stroke-width="1.01517" stroke-linecap="round" stroke-linejoin="round"/>
<path d="M14.2957 22.6314C42.5313 25.5002 43.4178 19.1846 43.47 18.8131" stroke="black" stroke-width="1.01517" stroke-linecap="round" stroke-linejoin="round"/>
<path d="M23.4283 16.7758L23.4239 16.7754C22.9223 16.7244 22.4671 17.0291 22.4072 17.4558L22.4066 17.4595C22.3467 17.8863 22.7048 18.2736 23.2064 18.3246L23.2108 18.325C23.7125 18.376 24.1677 18.0713 24.2276 17.6446L24.2281 17.6408C24.288 17.2141 23.9299 16.8268 23.4283 16.7758Z" fill="black"/>
</svg>
