<svg width="285" height="195" viewBox="0 0 285 195" fill="none" xmlns="http://www.w3.org/2000/svg">
<path d="M-367.012 12C-433.208 12 -464.313 25.8745 -533.433 25.8745C-540.985 25.7503 -548.505 25.1163 -556.058 25.0846C-563.081 25.0556 -570.105 25.5443 -576.979 26.4609C-581.757 27.0975 -586.571 27.9692 -590.592 29.7391C-594.612 31.5089 -597.768 34.3143 -597.988 37.4287C-598.219 40.7042 -595.187 43.7922 -591.204 45.858C-587.221 47.9237 -580.698 48.415 -575.912 49.6011M-374.968 12.072C-229.402 8.8571 -373.392 183 -75.6334 183C-36.6786 183 -23.6575 133.68 -104.883 133.68C-147.81 133.68 -202.681 98.9461 -64.2194 98.9461C91.8873 101.257 87.5267 52.8711 176.645 52.8711M173.816 52.8323C259.766 52.8323 192.189 144.208 264.842 144.208C320.492 144.208 304.453 122.056 304.453 98.3369C304.453 64.0338 368.047 66.1803 368.047 95.9522C368.047 119.77 370.395 136.339 411.854 136.339C472.211 136.339 579 110.788 579 26.7037" stroke="#FCD559" stroke-width="22.5" stroke-miterlimit="10" stroke-linecap="round"/>
</svg>
