<svg width="285" height="195" viewBox="0 0 285 195" fill="none" xmlns="http://www.w3.org/2000/svg">
<path d="M-62.012 12C-128.208 12 -159.313 25.8745 -228.433 25.8745C-235.985 25.7503 -243.505 25.1163 -251.058 25.0846C-258.081 25.0556 -265.105 25.5443 -271.979 26.4609C-276.757 27.0975 -281.571 27.9692 -285.592 29.7391C-289.612 31.5089 -292.768 34.3143 -292.988 37.4287C-293.219 40.7042 -290.187 43.7922 -286.204 45.858C-282.221 47.9237 -275.698 48.415 -270.912 49.6011M-69.9683 12.072C75.5985 8.8571 -68.3919 183 229.367 183C268.321 183 281.342 133.68 200.117 133.68C157.19 133.68 102.319 98.9461 240.781 98.9461C396.887 101.257 392.527 52.8711 481.645 52.8711M478.816 52.8323C564.766 52.8323 497.189 144.208 569.842 144.208C625.492 144.208 609.453 122.056 609.453 98.3369C609.453 64.0338 673.047 66.1803 673.047 95.9522C673.047 119.77 675.395 136.339 716.854 136.339C777.211 136.339 884 110.788 884 26.7037" stroke="#FCD559" stroke-width="22.5" stroke-miterlimit="10" stroke-linecap="round"/>
</svg>
