<svg width="162" height="186" viewBox="0 0 162 186" fill="none" xmlns="http://www.w3.org/2000/svg">
<path d="M8.84143 177.27L5.80469 166.262C9.60062 165.25 13.1435 164.364 16.4333 163.478C37.3109 158.29 46.8007 156.013 46.8007 126.784H58.1885C58.1885 164.87 40.0946 169.299 19.0904 174.486C15.8006 175.372 12.3843 176.258 8.84143 177.27Z" fill="black"/>
<path d="M92.3509 186L80.9631 185.367C82.1019 165.375 79.8243 162.339 74.1304 155C70.0814 149.812 64.514 142.726 58.1875 128.049L68.6896 123.494C74.51 136.779 79.3182 142.979 83.2406 148.041C90.3264 157.277 93.7427 162.718 92.3509 186Z" fill="black"/>
<path d="M137.395 93.3799H23.8972C10.738 93.3799 0.109375 82.8778 0.109375 69.8451V37.4532C0.109375 24.5471 10.8645 13.9185 23.8972 13.9185V25.3062C17.0645 25.3062 11.4972 30.7471 11.4972 37.4532V69.9717C11.4972 76.6778 17.0645 82.1186 23.8972 82.1186H137.395C144.228 82.1186 149.795 76.6778 149.795 69.9717V37.4532C149.795 30.7471 144.228 25.3062 137.395 25.3062V13.9185C150.555 13.9185 161.183 24.4205 161.183 37.4532V69.9717C161.31 82.8778 150.555 93.3799 137.395 93.3799Z" fill="black"/>
<path d="M75.7724 87.686H40.3438V128.302H75.7724V87.686Z" fill="black"/>
<path d="M138.156 1.89844H23.2656V37.4536H138.156V1.89844Z" fill="white"/>
<path d="M140.053 39.3511H21.3672V0H140.053V39.3511ZM25.1631 35.5552H136.257V3.79593H25.1631V35.5552Z" fill="black"/>
<path d="M53.6293 69.4656C54.5377 69.4656 55.2742 68.7291 55.2742 67.8207C55.2742 66.9122 54.5377 66.1758 53.6293 66.1758C52.7208 66.1758 51.9844 66.9122 51.9844 67.8207C51.9844 68.7291 52.7208 69.4656 53.6293 69.4656Z" fill="white"/>
<path d="M80.3335 68.9595C80.0804 68.9595 79.9539 68.9595 79.8273 68.833L51.2313 54.4085C50.5987 54.1554 50.3456 53.3962 50.7252 52.7636C51.1048 52.1309 51.7375 51.8779 52.3701 52.2575L80.9661 66.682C81.5988 66.935 81.8518 67.6942 81.4722 68.3269C81.2192 68.7065 80.7131 68.9595 80.3335 68.9595Z" fill="black"/>
<path d="M72.4855 65.1634C72.2325 65.1634 72.1059 65.1634 71.9794 65.0368C71.3468 64.7838 71.0937 64.0246 71.4733 63.3919L75.0161 56.4327C75.6488 55.0409 76.0284 53.6491 75.7753 52.3837C75.6488 51.7511 75.3957 50.6123 74.3835 50.1062C73.3712 49.6001 72.2325 49.9797 71.7264 50.3592L70.208 51.245L69.9549 49.4735C69.8284 48.8409 69.5753 47.7021 68.5631 47.196C67.5508 46.6898 66.412 47.0694 65.9059 47.449C64.7671 48.0817 63.7549 49.2205 63.1222 50.4858L59.5794 57.445C59.3263 58.0776 58.5671 58.3307 57.9345 57.9511C57.3018 57.698 57.0488 56.9389 57.4284 56.3062L60.9712 49.347C61.8569 47.5756 63.2488 46.0572 64.8937 45.1715C66.6651 44.2858 68.4365 44.1592 69.9549 44.9184C71.0937 45.4245 71.8529 46.4368 72.359 47.5756C73.6243 47.196 74.8896 47.3225 75.9019 47.8286C77.4202 48.5878 78.4325 50.1062 78.6856 52.0041C78.9386 53.7756 78.559 55.8001 77.6733 57.5715L74.1304 64.5307C73.4978 64.9103 72.9917 65.1634 72.4855 65.1634Z" fill="black"/>
<rect x="43.125" y="69.5918" width="10.1225" height="3.79593" rx="1.89796" fill="black"/>
<path fill-rule="evenodd" clip-rule="evenodd" d="M60.5877 81.6102C67.0866 81.6102 72.3551 76.455 72.3551 70.0959C72.3551 63.7367 67.0866 58.5815 60.5877 58.5815C54.0888 58.5815 48.8203 63.7367 48.8203 70.0959C48.8203 72.8837 49.8329 75.4401 51.5177 77.4322C51.8844 77.4201 52.2232 77.3663 52.5348 77.2815C54.2837 76.8052 55.4169 75.287 55.9118 73.9806C56.0293 73.6707 56.3756 73.5147 56.6855 73.6321C56.9954 73.7495 57.1514 74.0959 57.034 74.4058C56.4591 75.9229 55.1002 77.8265 52.8501 78.4393C52.7532 78.4657 52.655 78.4896 52.5557 78.5109C54.6586 80.4334 57.4827 81.6102 60.5877 81.6102ZM54.8317 67.6924C55.7052 67.6924 56.4134 66.9842 56.4134 66.1107C56.4134 65.2372 55.7052 64.5291 54.8317 64.5291C53.9582 64.5291 53.2501 65.2372 53.2501 66.1107C53.2501 66.9842 53.9582 67.6924 54.8317 67.6924Z" fill="black"/>
</svg>
