<svg width="268" height="124" viewBox="0 0 268 124" fill="none" xmlns="http://www.w3.org/2000/svg">
<g clip-path="url(#clip0_323_23122)">
<path d="M31.0265 74.0595C28.6837 74.0595 26.412 72.8536 25.1341 70.6545C23.2883 67.3913 24.4242 63.2769 27.6898 61.4325L130.63 2.97943C141.42 -3.19219 155.264 0.638472 161.44 11.4211C164.422 16.6705 165.203 22.7003 163.57 28.5172C161.937 34.3341 158.246 39.1579 152.992 42.1373C149.727 43.9817 145.609 42.8467 143.763 39.5835C141.917 36.3204 143.053 32.206 146.319 30.3616C148.378 29.1556 149.94 27.2403 150.579 24.8993C151.218 22.5584 150.934 20.0755 149.727 18.0183C148.52 15.9611 146.603 14.4005 144.26 13.762C141.917 13.1236 139.433 13.4073 137.374 14.6133L34.4342 73.1373C33.2983 73.7758 32.1624 74.0595 31.0265 74.0595Z" fill="black"/>
<path d="M37.5609 117.26C20.5936 117.26 6.75 103.428 6.75 86.4733V84.4161C6.75 67.4619 20.5936 53.6289 37.5609 53.6289C54.5282 53.6289 68.3719 67.4619 68.3719 84.4161V86.4733C68.3719 103.428 54.5282 117.26 37.5609 117.26Z" fill="white"/>
<path d="M37.5553 124C16.8253 124 0 107.188 0 86.4737V84.4165C0 63.7025 16.8253 46.8901 37.5553 46.8901C58.2852 46.8901 75.1105 63.7025 75.1105 84.4165V86.4737C75.1105 107.188 58.2852 124 37.5553 124ZM37.5553 60.3684C24.2796 60.3684 13.4887 71.151 13.4887 84.4165V86.4737C13.4887 99.7391 24.2796 110.522 37.5553 110.522C50.8309 110.522 61.6219 99.7391 61.6219 86.4737V84.4165C61.6219 71.2219 50.8309 60.3684 37.5553 60.3684Z" fill="black"/>
<path d="M101.237 83.4234H87.748V82.5721C87.748 78.9542 84.7663 75.9748 81.1457 75.9748C77.525 75.9748 74.5433 78.9542 74.5433 82.5721V83.4234H61.0547V82.5721C61.0547 71.5057 70.0708 62.4966 81.1457 62.4966C92.2206 62.4966 101.237 71.5057 101.237 82.5721V83.4234Z" fill="black"/>
<path d="M37.411 53.4165H35.2812V114.423H37.411V53.4165Z" fill="black"/>
<path d="M68.3657 83.707H9.01562V85.8352H68.3657V83.707Z" fill="black"/>
<path d="M36.5626 94.9154C31.1672 94.9154 26.7656 90.5172 26.7656 85.1259C26.7656 79.7346 31.1672 75.3364 36.5626 75.3364C41.9581 75.3364 46.3597 79.7346 46.3597 85.1259C46.3597 90.5172 41.9581 94.9154 36.5626 94.9154ZM36.5626 77.3936C32.3031 77.3936 28.8954 80.8696 28.8954 85.055C28.8954 89.3113 32.3741 92.7163 36.5626 92.7163C40.8222 92.7163 44.2299 89.2403 44.2299 85.055C44.2299 80.8696 40.7512 77.3936 36.5626 77.3936Z" fill="black"/>
<path d="M125.092 115.843C108.125 115.843 94.2812 102.01 94.2812 85.0553V82.9981C94.2812 66.0439 108.125 52.2109 125.092 52.2109C142.059 52.2109 155.903 66.0439 155.903 82.9981V85.0553C155.903 102.01 142.059 115.843 125.092 115.843Z" fill="white"/>
<path d="M125.087 122.582C104.357 122.582 87.5312 105.769 87.5312 85.0552V82.998C87.5312 62.284 104.357 45.4717 125.087 45.4717C145.816 45.4717 162.642 62.284 162.642 82.998V85.0552C162.642 105.769 145.816 122.582 125.087 122.582ZM125.087 58.9499C111.811 58.9499 101.02 69.7326 101.02 82.998V85.0552C101.02 98.3207 111.811 109.103 125.087 109.103C138.362 109.103 149.153 98.3207 149.153 85.0552V82.998C149.153 69.7326 138.362 58.9499 125.087 58.9499Z" fill="black"/>
<path d="M124.942 51.998H122.812V113.005H124.942V51.998Z" fill="black"/>
<path d="M155.897 82.2881H96.5469V84.4162H155.897V82.2881Z" fill="black"/>
<path d="M124.094 93.4256C118.698 93.4256 114.297 89.0275 114.297 83.6362C114.297 78.2449 118.698 73.8467 124.094 73.8467C129.489 73.8467 133.891 78.2449 133.891 83.6362C133.891 89.0275 129.489 93.4256 124.094 93.4256ZM124.094 75.9748C119.834 75.9748 116.427 79.4508 116.427 83.6362C116.427 87.8924 119.905 91.2975 124.094 91.2975C128.353 91.2975 131.761 87.8215 131.761 83.6362C131.761 79.4508 128.353 75.9748 124.094 75.9748Z" fill="black"/>
<path d="M157.675 81.65C155.332 81.65 153.06 80.444 151.783 78.245C149.937 74.9818 151.073 70.8674 154.338 69.023L257.278 10.499C268.069 4.32734 281.913 8.158 288.089 18.9406C294.265 29.7232 290.432 43.5562 279.641 49.7278C276.375 51.5722 272.258 50.4372 270.412 47.174C268.566 43.9109 269.702 39.7964 272.967 37.9521C277.298 35.4692 278.86 29.936 276.375 25.6088C275.168 23.5516 273.251 21.991 270.909 21.3525C268.566 20.7141 266.081 20.9978 264.022 22.2038L161.083 80.7278C159.947 81.3662 158.811 81.65 157.675 81.65Z" fill="black"/>
</g>
<defs>
<clipPath id="clip0_323_23122">
<rect width="291" height="124" fill="white"/>
</clipPath>
</defs>
</svg>
