<svg width="229" height="205" viewBox="0 0 229 205" fill="none" xmlns="http://www.w3.org/2000/svg">
<path d="M102 200C143.974 200 178 165.974 178 124C178 82.0264 143.974 48 102 48C60.0264 48 26 82.0264 26 124C26 165.974 60.0264 200 102 200Z" fill="#5686E3" stroke="#F7F7F8" stroke-width="2"/>
<g clip-path="url(#clip0_513_25833)">
<path d="M21.007 113.963L2.42969 115.188L9.7091 166.375L31.5473 173.688L71.5841 178.562L93.4223 177.344L103.128 172.469L114.047 178.562L137.099 176.125L154.867 162.222L157.724 149.222L154.867 140.556L147.63 131.889L152.871 112.75L143.165 100.562L140.785 85.9375L128.864 76.7814L103.128 77.4062L90.8303 82.2812L100.702 48.1562L99.4885 32.3125L92.2091 26.2188L76.437 34.75L63.0914 68.875L43.6797 98.125L21.007 113.963Z" fill="white"/>
<path d="M0.507951 115.576C13.2194 121.729 29.5658 113.424 39.455 105.367C52.2906 94.91 59.9897 79.8779 66.526 65.0036C69.8224 57.4876 72.6221 49.6109 76.5619 42.3991C78.3117 39.1989 80.3663 35.9423 83.2112 33.5872C85.1754 31.9646 88.009 30.3757 90.6619 30.5335C94.1615 30.7363 94.8614 32.6745 95.5162 35.5592C99.9414 55.1663 88.3815 74.7282 81.9581 92.3521C80.9082 95.2255 83.8594 95.2324 85.3947 92.8886C95.8371 76.91 102.375 57.2354 99.8684 38.0002C99.0104 31.4082 98.2481 26.2067 90.6619 26.4433C83.7191 26.6574 78.9772 31.1575 75.2632 36.5551C70.0702 44.0824 66.4921 52.3379 62.891 60.6765C59.1091 69.4434 55.0903 78.1876 49.8183 86.1882C44.456 94.324 37.6939 101.502 29.2723 106.516C20.1057 111.97 11.2889 112.534 1.02725 113.717C0.135415 113.807 -0.48548 115.103 0.507951 115.576Z" fill="#1A1B22"/>
<path d="M90.9556 84.2598C102.267 80.1243 119.472 74.8619 131.032 80.7215C146.441 88.5305 135.31 107.326 126.64 115.259C117.778 123.372 104.988 132.275 92.3667 132.06C88.6865 132.004 86.2368 131.486 88.4382 124.713C88.98 123.046 90.8089 121.446 91.9039 120.172C93.8117 117.952 95.8889 115.879 98.0903 113.952C103.091 109.591 108.77 106.391 114.742 103.551C116.536 102.695 115.261 99.6186 113.376 100.317C102.03 104.543 87.8511 114.177 83.2678 125.942C81.4729 130.562 82.9179 135.17 87.6705 137.052C93.2586 139.261 100.506 137.176 105.868 135.249C118.772 130.607 132.556 120.938 139.814 109.14C145.967 99.1453 146.272 84.8119 135.615 77.6903C122.7 69.0587 102.233 75.0309 89.917 81.7807C88.6075 82.5132 89.4993 84.7894 90.9556 84.2598Z" fill="#1A1B22"/>
<path d="M137.269 101.332C141.107 102.988 145.081 104.566 147.565 108.116C150.613 112.465 149.473 118.133 147.892 122.877C144.991 131.599 139.561 139.701 132.641 145.752C125.45 152.051 116.17 156.074 106.563 156.457C101.81 156.649 95.0257 156.649 92.3954 151.983C89.957 147.668 91.7971 141.921 93.6033 137.763C94.2129 136.377 92.4405 134.54 91.2778 135.971C85.3736 143.228 84.0415 156.119 94.2242 160.142C106.732 165.077 122.842 159.86 133.081 152.22C143.501 144.445 152.238 131.543 153.977 118.494C155.185 109.423 147.915 97.4105 137.371 100.554C137.055 100.656 136.908 101.185 137.269 101.332Z" fill="#1A1B22"/>
<path d="M146.149 133.299C151.596 138.084 155.236 143.388 154.454 151.006C153.617 159.219 147.749 166.087 140.687 169.936C130.828 175.322 96.976 181.73 102.06 160.931C102.397 159.535 100.761 158.122 99.558 159.283C92.9165 165.747 99.5128 175.997 106.547 178.858C116.534 182.906 130.493 180.342 140.035 176.157C149.557 171.971 158.057 163.35 159.435 152.689C160.513 144.417 156.267 133.555 147.733 130.878C146.433 130.465 144.957 132.251 146.149 133.299Z" fill="#1A1B22"/>
<path d="M6.24386 165.224C18.594 175.873 38.5304 177.958 54.177 179.175C63.0501 179.862 72.0474 180.313 80.9545 180.211C88.5632 180.121 96.9397 179.321 103.25 174.667C105.429 173.067 103.6 169.822 101.117 171.016C86.8699 177.856 69.5074 175.591 54.177 174.374C45.9811 173.732 37.7627 172.786 29.7363 171.028C21.9017 169.315 14.451 166.295 6.66155 164.514C6.26644 164.424 5.90519 164.931 6.24386 165.224Z" fill="#1A1B22"/>
</g>
<path d="M165 18V0" stroke="#5686E3" stroke-width="6"/>
<path d="M201 29L220 10" stroke="#5686E3" stroke-width="6"/>
<path d="M210 65H229" stroke="#5686E3" stroke-width="6"/>
<defs>
<clipPath id="clip0_513_25833">
<rect width="165" height="156" fill="white" transform="translate(0 25)"/>
</clipPath>
</defs>
</svg>
