<svg width="189" height="195" viewBox="0 0 189 195" fill="none" xmlns="http://www.w3.org/2000/svg">
<path d="M149.829 271.248C89.2764 262.416 66.4144 239.54 69.8577 215.927C73.301 192.314 101.742 176.919 162.294 185.751C222.847 194.583 293.322 224.392 289.886 248.006C286.45 271.62 210.39 280.073 149.829 271.248Z" fill="#1A1B22"/>
<path d="M165.003 262.18C106.449 279.974 71.4503 253.955 58.8787 212.57C46.307 171.185 60.9173 130.098 119.463 112.304C178.009 94.5101 259.072 106.538 271.627 147.937C284.181 189.335 223.548 244.394 165.003 262.18Z" fill="#AACCF1"/>
<path d="M165.003 262.18C106.449 279.974 71.4503 253.955 58.8787 212.57C46.307 171.185 60.9173 130.098 119.463 112.304C178.009 94.5101 259.072 106.538 271.627 147.937C284.181 189.335 223.548 244.394 165.003 262.18Z" stroke="#1A1B22" stroke-width="7.61376" stroke-linecap="round" stroke-linejoin="round"/>
<path d="M93.2109 123.359L200.618 174.085" stroke="#1A1B22" stroke-width="1.01517" stroke-linecap="round" stroke-linejoin="round"/>
<path d="M104.367 130.261L119.38 214.161" stroke="#1A1B22" stroke-width="1.01517" stroke-linecap="round" stroke-linejoin="round"/>
<path d="M155.86 152.581L201.903 140.766" stroke="#1A1B22" stroke-width="1.01517" stroke-linecap="round" stroke-linejoin="round"/>
<path d="M191.472 121.82L186.443 144.728" stroke="#1A1B22" stroke-width="1.01517" stroke-linecap="round" stroke-linejoin="round"/>
<path d="M117.122 201.013L104.297 128.955L170.478 159.082L117.122 201.013Z" fill="#1A1B22"/>
<path d="M109.383 134.041L162.63 160.677" stroke="white" stroke-width="1.01517" stroke-linecap="round" stroke-linejoin="round"/>
<path d="M136.441 151.916C130.615 151.22 121.579 141.892 115.273 117.884C108.606 92.4633 107.229 59.2098 111.397 24.3099C111.853 20.4868 110.772 16.6389 108.392 13.6127C106.011 10.5864 102.526 8.6298 98.7031 8.17322C94.8799 7.71664 91.0321 8.79752 88.0059 11.178C84.9796 13.5586 83.0229 17.0437 82.5664 20.8668C82.4105 22.1718 82.2547 23.4768 82.0997 24.7741L44.1651 20.2437C39.8558 19.8228 35.5532 21.1065 32.1791 23.8198C28.805 26.5332 26.6279 30.4603 26.1144 34.7595C25.601 39.0587 26.7921 43.388 29.4323 46.8197C32.0726 50.2513 35.9519 52.5122 40.2391 53.1178L80.0553 57.8729C79.6864 82.6765 82.0928 105.826 87.1895 125.265C95.9324 158.567 112.194 178.269 132.997 180.754C136.82 181.21 140.668 180.129 143.694 177.749C146.721 175.368 148.677 171.883 149.134 168.06C149.591 164.237 148.51 160.389 146.129 157.363C143.749 154.337 140.264 152.38 136.44 151.923L136.441 151.916Z" fill="#1A1B22"/>
<path d="M144.785 152.913C138.958 152.217 129.922 142.889 123.617 118.881C116.949 93.4601 115.572 60.2066 119.74 25.3068C120.197 21.4836 119.116 17.6357 116.736 14.6095C114.355 11.5833 110.87 9.62663 107.047 9.17005C103.224 8.71346 99.3758 9.79435 96.3496 12.1749C93.3234 14.5554 91.3667 18.0405 90.9101 21.8637C90.7543 23.1686 90.5984 24.4736 90.4435 25.7709L52.5089 21.2406C48.1996 20.8196 43.897 22.1033 40.5228 24.8167C37.1487 27.53 34.9716 31.4571 34.4582 35.7563C33.9447 40.0555 35.1358 44.3849 37.7761 47.8165C40.4163 51.2481 44.2956 53.509 48.5828 54.1147L88.3991 58.8698C88.0302 83.6733 90.4366 106.823 95.5332 126.262C104.276 159.564 120.538 179.266 141.341 181.751C145.164 182.207 149.012 181.126 152.038 178.746C155.064 176.365 157.021 172.88 157.478 169.057C157.934 165.234 156.853 161.386 154.473 158.36C152.092 155.333 148.607 153.377 144.784 152.92L144.785 152.913Z" fill="#AACCF1" stroke="#1A1B22" stroke-width="1.01517" stroke-linecap="round" stroke-linejoin="round"/>
<path d="M136.441 151.916C130.615 151.22 121.579 141.892 115.273 117.884C108.606 92.4633 107.229 59.2098 111.397 24.3099C111.853 20.4868 110.772 16.6389 108.392 13.6127C106.011 10.5864 102.526 8.6298 98.7031 8.17322C94.8799 7.71664 91.0321 8.79752 88.0058 11.178C84.9796 13.5586 83.0229 17.0437 82.5664 20.8668C82.4105 22.1718 82.2547 23.4768 82.0997 24.7741L44.1651 20.2437C39.8558 19.8228 35.5532 21.1065 32.1791 23.8198C28.805 26.5332 26.6279 30.4603 26.1144 34.7595C25.601 39.0587 26.7921 43.388 29.4323 46.8197C32.0726 50.2513 35.9519 52.5122 40.2391 53.1178L80.0553 57.8729C79.6864 82.6765 82.0928 105.826 87.1895 125.265C95.9324 158.567 112.194 178.269 132.997 180.754C136.82 181.21 140.668 180.13 143.694 177.749C146.721 175.368 148.677 171.883 149.134 168.06C149.591 164.237 148.51 160.389 146.129 157.363C143.749 154.337 140.264 152.38 136.44 151.923L136.441 151.916Z" stroke="#1A1B22" stroke-width="1.01517" stroke-linecap="round" stroke-linejoin="round"/>
<path d="M105.796 23.5936C105.582 24.9483 104.852 26.1674 103.758 26.9947C102.664 27.8221 101.292 28.1934 99.9301 28.0308C98.5682 27.8682 97.3223 27.1842 96.454 26.1225C95.5857 25.0608 95.1626 23.704 95.2734 22.3369" fill="#AACCF1"/>
<path d="M105.796 23.5936C105.582 24.9483 104.852 26.1674 103.758 26.9947C102.664 27.8221 101.292 28.1934 99.9301 28.0308C98.5682 27.8682 97.3223 27.1842 96.454 26.1225C95.5857 25.0608 95.1626 23.704 95.2734 22.3369" stroke="#1A1B22" stroke-width="1.01517" stroke-linecap="round" stroke-linejoin="round"/>
<path d="M25.9003 40.0915C74.9574 45.9502 76.4976 33.0524 76.5882 32.2937" stroke="#1A1B22" stroke-width="1.01517" stroke-linecap="round" stroke-linejoin="round"/>
<path d="M41.7654 28.1352L41.7578 28.1343C40.8862 28.0302 40.0953 28.6523 39.9912 29.5239L39.9903 29.5315C39.8862 30.403 40.5084 31.1939 41.3799 31.298L41.3875 31.2989C42.2591 31.403 43.05 30.7809 43.1541 29.9093L43.155 29.9017C43.2591 29.0302 42.6369 28.2393 41.7654 28.1352Z" fill="#1A1B22"/>
</svg>
