<svg width="208" height="195" viewBox="0 0 208 195" fill="none" xmlns="http://www.w3.org/2000/svg">
<path d="M57.6086 271.248C118.161 262.416 141.023 239.54 137.58 215.927C134.136 192.314 105.696 176.919 45.1433 185.751C-15.4091 194.583 -85.884 224.392 -82.4483 248.006C-79.0126 271.62 -2.95232 280.073 57.6086 271.248Z" fill="#1A1B22"/>
<path d="M42.4348 262.18C100.988 279.974 135.987 253.955 148.559 212.57C161.13 171.185 146.52 130.098 87.9744 112.304C29.4286 94.5101 -51.6345 106.538 -64.1891 147.937C-76.7438 189.335 -16.1101 244.394 42.4348 262.18Z" fill="#AACCF1"/>
<path d="M42.4348 262.18C100.988 279.974 135.987 253.955 148.559 212.57C161.13 171.185 146.52 130.098 87.9744 112.304C29.4286 94.5101 -51.6345 106.538 -64.1891 147.937C-76.7438 189.335 -16.1101 244.394 42.4348 262.18Z" stroke="#1A1B22" stroke-width="7.61376" stroke-linecap="round" stroke-linejoin="round"/>
<path d="M114.227 123.359L6.81978 174.085" stroke="#1A1B22" stroke-width="1.01517" stroke-linecap="round" stroke-linejoin="round"/>
<path d="M103.07 130.261L88.0579 214.161" stroke="#1A1B22" stroke-width="1.01517" stroke-linecap="round" stroke-linejoin="round"/>
<path d="M51.5777 152.581L5.5349 140.766" stroke="#1A1B22" stroke-width="1.01517" stroke-linecap="round" stroke-linejoin="round"/>
<path d="M15.9657 121.82L20.9946 144.728" stroke="#1A1B22" stroke-width="1.01517" stroke-linecap="round" stroke-linejoin="round"/>
<path d="M90.3152 201.013L103.141 128.955L36.9591 159.082L90.3152 201.013Z" fill="#1A1B22"/>
<path d="M98.0547 134.041L44.8073 160.677" stroke="white" stroke-width="1.01517" stroke-linecap="round" stroke-linejoin="round"/>
<path d="M70.9962 151.916C76.823 151.22 85.8588 141.892 92.1643 117.884C98.832 92.4633 100.209 59.2098 96.0408 24.3099C95.5842 20.4868 96.6651 16.6389 99.0456 13.6127C101.426 10.5864 104.911 8.6298 108.734 8.17322C112.558 7.71664 116.405 8.79752 119.432 11.178C122.458 13.5586 124.415 17.0437 124.871 20.8668C125.027 22.1718 125.183 23.4768 125.338 24.7741L163.272 20.2437C167.582 19.8228 171.884 21.1065 175.258 23.8198C178.633 26.5332 180.81 30.4603 181.323 34.7595C181.837 39.0587 180.645 43.388 178.005 46.8197C175.365 50.2513 171.486 52.5122 167.198 53.1178L127.382 57.8729C127.751 82.6765 125.345 105.826 120.248 125.265C111.505 158.567 95.2436 178.269 74.4402 180.754C70.6171 181.21 66.7692 180.129 63.743 177.749C60.7168 175.368 58.7601 171.883 58.3035 168.06C57.8469 164.237 58.9279 160.389 61.3084 157.363C63.6889 154.337 67.174 152.38 70.9971 151.923L70.9962 151.916Z" fill="#1A1B22"/>
<path d="M62.6525 152.913C68.4792 152.217 77.5151 142.889 83.8205 118.881C90.4882 93.4601 91.865 60.2066 87.6971 25.3068C87.2405 21.4836 88.3213 17.6357 90.7018 14.6095C93.0824 11.5833 96.5676 9.62663 100.391 9.17005C104.214 8.71346 108.062 9.79435 111.088 12.1749C114.114 14.5554 116.071 18.0405 116.527 21.8637C116.683 23.1686 116.839 24.4736 116.994 25.7709L154.929 21.2406C159.238 20.8196 163.541 22.1033 166.915 24.8167C170.289 27.53 172.466 31.4571 172.979 35.7563C173.493 40.0555 172.302 44.3849 169.661 47.8165C167.021 51.2481 163.142 53.509 158.855 54.1147L119.038 58.8698C119.407 83.6733 117.001 106.823 111.904 126.262C103.161 159.564 86.8998 179.266 66.0965 181.751C62.2733 182.207 58.4255 181.126 55.3993 178.746C52.373 176.365 50.4164 172.88 49.9598 169.057C49.5032 165.234 50.5841 161.386 52.9646 158.36C55.3451 155.333 58.8302 153.377 62.6534 152.92L62.6525 152.913Z" fill="#AACCF1" stroke="#1A1B22" stroke-width="1.01517" stroke-linecap="round" stroke-linejoin="round"/>
<path d="M70.9962 151.916C76.823 151.22 85.8588 141.892 92.1643 117.884C98.832 92.4633 100.209 59.2098 96.0408 24.3099C95.5842 20.4868 96.6651 16.6389 99.0456 13.6127C101.426 10.5864 104.911 8.6298 108.734 8.17322C112.558 7.71664 116.405 8.79752 119.432 11.178C122.458 13.5586 124.415 17.0437 124.871 20.8668C125.027 22.1718 125.183 23.4768 125.338 24.7741L163.272 20.2437C167.582 19.8228 171.884 21.1065 175.258 23.8198C178.633 26.5332 180.81 30.4603 181.323 34.7595C181.837 39.0587 180.645 43.388 178.005 46.8197C175.365 50.2513 171.486 52.5122 167.198 53.1178L127.382 57.8729C127.751 82.6765 125.345 105.826 120.248 125.265C111.505 158.567 95.2436 178.269 74.4402 180.754C70.6171 181.21 66.7692 180.13 63.743 177.749C60.7168 175.368 58.7601 171.883 58.3035 168.06C57.8469 164.237 58.9279 160.389 61.3084 157.363C63.6889 154.337 67.174 152.38 70.9971 151.923L70.9962 151.916Z" stroke="#1A1B22" stroke-width="1.01517" stroke-linecap="round" stroke-linejoin="round"/>
<path d="M101.641 23.5936C101.855 24.9483 102.586 26.1674 103.68 26.9947C104.774 27.8221 106.146 28.1934 107.507 28.0308C108.869 27.8682 110.115 27.1842 110.983 26.1225C111.852 25.0608 112.275 23.704 112.164 22.3369" fill="#AACCF1"/>
<path d="M101.641 23.5936C101.855 24.9483 102.586 26.1674 103.68 26.9947C104.774 27.8221 106.146 28.1934 107.507 28.0308C108.869 27.8682 110.115 27.1842 110.983 26.1225C111.852 25.0608 112.275 23.704 112.164 22.3369" stroke="#1A1B22" stroke-width="1.01517" stroke-linecap="round" stroke-linejoin="round"/>
<path d="M181.537 40.0915C132.48 45.9502 130.94 33.0524 130.849 32.2937" stroke="#1A1B22" stroke-width="1.01517" stroke-linecap="round" stroke-linejoin="round"/>
<path d="M165.672 28.1352L165.68 28.1343C166.551 28.0302 167.342 28.6523 167.446 29.5239L167.447 29.5315C167.551 30.403 166.929 31.1939 166.058 31.298L166.05 31.2989C165.178 31.403 164.388 30.7809 164.283 29.9093L164.283 29.9017C164.178 29.0302 164.801 28.2393 165.672 28.1352Z" fill="#1A1B22"/>
</svg>
