<svg width="22" height="14" viewBox="0 0 22 14" fill="none" xmlns="http://www.w3.org/2000/svg">
<path fill-rule="evenodd" clip-rule="evenodd" d="M10.7252 13.9333H12.0425C12.0425 13.9333 12.4394 13.8851 12.642 13.6424C12.8345 13.4161 12.8345 12.9973 12.8345 12.9973C12.8345 12.9973 12.8061 11.0239 13.6311 10.7341C14.4442 10.4464 15.4754 12.6389 16.5745 13.4816C17.4142 14.1258 18.0458 13.9875 18.0458 13.9875L20.9892 13.9425C20.9892 13.9425 22.531 13.8349 21.8023 12.4822C21.7464 12.3746 21.3889 11.4837 19.6288 9.65579C17.7845 7.75003 18.032 8.05725 20.2485 4.75366C21.5951 2.74139 22.146 1.51151 21.9673 0.989242C21.8151 0.497698 20.8123 0.61956 20.8123 0.61956L17.5104 0.651305C17.5104 0.651305 17.2629 0.61956 17.0842 0.74347C16.9054 0.865332 16.7963 1.14387 16.7963 1.14387C16.7963 1.14387 16.272 2.70965 15.5717 4.0317C14.0839 6.82634 13.4926 6.97994 13.2589 6.79562C12.7052 6.39521 12.8473 5.17761 12.8473 4.30512C12.8473 1.6006 13.2176 0.464928 12.1314 0.173073C11.7739 0.0798846 11.5071 0.0194656 10.5868 0.00308074C9.40429 -0.011256 8.40695 0.0133213 7.84136 0.321561C7.47011 0.529443 7.18136 0.989242 7.34728 1.0128C7.56728 1.04352 8.06137 1.16231 8.32262 1.56271C8.66637 2.08088 8.6517 3.23806 8.6517 3.23806C8.6517 3.23806 8.84512 6.429 8.19887 6.82531C7.74511 7.09361 7.14011 6.53858 5.8201 4.00303C5.14635 2.71272 4.63668 1.26881 4.63668 1.26881C4.63668 1.26881 4.54043 1.00665 4.3626 0.853044C4.15451 0.684075 3.85201 0.622632 3.85201 0.622632L0.703241 0.653354C0.703241 0.653354 0.235738 0.669738 0.0716538 0.899126C-0.0805138 1.09882 0.056987 1.52892 0.056987 1.52892C0.056987 1.52892 2.51917 7.96713 5.31135 11.2093C7.86887 14.1811 10.771 13.9896 10.771 13.9896L10.7252 13.9333Z" fill="black"/>
</svg>
