<svg width="128" height="26" viewBox="0 0 128 26" fill="none" xmlns="http://www.w3.org/2000/svg">
<path d="M0.21591 0.955428V21H3.70568V3.66649H9.93536V21H13.4251V0.955428H0.21591ZM19.4707 6.49292H16.2982V25.182H19.7303V19.2984C20.5955 20.5962 21.8645 21.2884 23.3354 21.2884C26.681 21.2884 28.9883 18.6062 28.9883 13.732C28.9883 8.88673 26.7387 6.20451 23.5085 6.20451C21.8934 6.20451 20.5667 6.95438 19.6438 8.36759L19.4707 6.49292ZM22.4702 18.5773C20.6532 18.5773 19.7303 17.1065 19.7303 13.7609C19.7303 10.3865 20.7109 8.91557 22.6433 8.91557C24.5179 8.91557 25.4408 10.3865 25.4408 13.732C25.4408 17.1065 24.4602 18.5773 22.4702 18.5773ZM41.9855 11.1075C41.9855 7.58888 40.1973 6.26219 36.5634 6.26219C34.2849 6.26219 32.4968 6.98322 31.4585 7.58888V10.4442C32.3814 9.75197 34.4003 9.0021 36.1596 9.0021C37.8035 9.0021 38.5534 9.57892 38.5534 11.1363V11.9439H38.0054C32.7563 11.9439 30.4202 13.6744 30.4202 16.6162C30.4202 19.5579 32.2084 21.2019 34.8617 21.2019C36.8806 21.2019 37.7459 20.5385 38.4092 19.8464H38.5534C38.5822 20.2213 38.6976 20.7116 38.813 21H42.1585C42.0432 19.8175 41.9855 18.635 41.9855 17.4525V11.1075ZM38.5534 17.5391C38.1208 18.1736 37.3132 18.6927 36.1019 18.6927C34.6599 18.6927 33.9388 17.8275 33.9388 16.5296C33.9388 14.828 35.1213 14.2223 38.0631 14.2223H38.5534V17.5391ZM53.2531 21H57.1467L51.638 13.1841L56.4833 6.49292H53.0224L48.1771 13.1841V6.49292H44.745V21H48.1771V13.8762L53.2531 21ZM68.5123 9.20399V6.49292H57.0047V9.20399H61.0425V21H64.4746V9.20399H68.5123ZM70.5443 6.49292V21H73.5149L78.8217 12.0304V21H82.1672V6.49292H79.1966L73.8898 15.4625V6.49292H70.5443ZM93.5575 21H97.451L91.9423 13.1841L96.7877 6.49292H93.3267L88.4814 13.1841V6.49292H85.0493V21H88.4814V13.8762L93.5575 21ZM100.471 25.4704C103.672 25.4704 104.855 23.1919 105.835 20.2213L110.363 6.49292H107.047L103.845 17.3949L100.644 6.49292H97.0387L102.028 21.6345C101.653 22.3267 101.105 22.7593 100.154 22.7593C99.519 22.7593 98.971 22.5574 98.5961 22.1825V24.9801C98.5961 24.9801 99.1152 25.4704 100.471 25.4704ZM124.038 21H127.384L127.326 6.49292H122.625L119.481 16.1547L116.655 6.49292H111.665V21H114.578V10.1557L117.722 21H120.52L124.038 10.1557V21Z" fill="black" fill-opacity="0.85"/>
</svg>
