<svg width="285" height="195" viewBox="0 0 285 195" fill="none" xmlns="http://www.w3.org/2000/svg">
<path d="M242.988 12C176.792 12 145.687 25.8745 76.5674 25.8745C69.0146 25.7503 61.4948 25.1163 53.942 25.0846C46.9186 25.0556 39.8951 25.5443 33.0206 26.4609C28.2432 27.0975 23.4286 27.9692 19.4081 29.7391C15.3877 31.5089 12.2317 34.3143 12.0124 37.4287C11.7808 40.7042 14.8127 43.7922 18.796 45.858C22.7792 47.9237 29.3021 48.415 34.0878 49.6011M235.032 12.072C380.598 8.8571 236.608 183 534.367 183C573.321 183 586.342 133.68 505.117 133.68C462.19 133.68 407.319 98.9461 545.781 98.9461C701.887 101.257 697.527 52.8711 786.645 52.8711M783.816 52.8323C869.766 52.8323 802.189 144.208 874.842 144.208C930.492 144.208 914.453 122.056 914.453 98.3369C914.453 64.0338 978.047 66.1803 978.047 95.9522C978.047 119.77 980.395 136.339 1021.85 136.339C1082.21 136.339 1189 110.788 1189 26.7037" stroke="#FCD559" stroke-width="22.5" stroke-miterlimit="10" stroke-linecap="round"/>
</svg>
