<svg width="284" height="195" viewBox="0 0 284 195" fill="none" xmlns="http://www.w3.org/2000/svg">
<path d="M-673.012 12C-739.208 12 -770.313 25.8745 -839.433 25.8745C-846.985 25.7503 -854.505 25.1163 -862.058 25.0846C-869.081 25.0556 -876.105 25.5443 -882.979 26.4609C-887.757 27.0975 -892.571 27.9692 -896.592 29.7391C-900.612 31.5089 -903.768 34.3143 -903.988 37.4287C-904.219 40.7042 -901.187 43.7922 -897.204 45.858C-893.221 47.9237 -886.698 48.415 -881.912 49.6011M-680.968 12.072C-535.402 8.8571 -679.392 183 -381.633 183C-342.679 183 -329.658 133.68 -410.883 133.68C-453.81 133.68 -508.681 98.9461 -370.219 98.9461C-214.113 101.257 -218.473 52.8711 -129.355 52.8711M-132.184 52.8323C-46.2338 52.8323 -113.811 144.208 -41.1577 144.208C14.4918 144.208 -1.54743 122.056 -1.54742 98.3369C-1.54742 64.0338 62.0472 66.1803 62.0472 95.9522C62.0472 119.77 64.3949 136.339 105.854 136.339C166.211 136.339 273 110.788 273 26.7037" stroke="#FCD559" stroke-width="22.5" stroke-miterlimit="10" stroke-linecap="round"/>
</svg>
