<svg width="172" height="140" viewBox="0 0 172 140" fill="none" xmlns="http://www.w3.org/2000/svg">
<path d="M122.718 101.985C118.745 97.9828 113.447 95.765 107.822 95.765C102.197 95.765 96.9155 97.9654 92.9247 101.985C88.9339 106.005 86.7493 111.324 86.7493 116.99H93.6988H121.91H128.859C128.877 111.324 126.692 105.988 122.718 101.985Z" fill="black"/>
<mask id="path-2-inside-1_449_32863" fill="white">
<path d="M84.8737 24.2748V7.51979C84.8737 3.39603 88.228 0 92.3392 0C96.4333 0 99.8048 3.3787 99.8048 7.51979V24.2748"/>
</mask>
<path d="M84.8737 24.2748V7.51979C84.8737 3.39603 88.228 0 92.3392 0C96.4333 0 99.8048 3.3787 99.8048 7.51979V24.2748" fill="#AACCF1"/>
<path d="M85.8737 24.2748V7.51979H83.8737V24.2748H85.8737ZM85.8737 7.51979C85.8737 3.93997 88.7886 1 92.3392 1V-1C87.6674 -1 83.8737 2.85208 83.8737 7.51979H85.8737ZM92.3392 1C95.8757 1 98.8048 3.92565 98.8048 7.51979H100.805C100.805 2.83175 96.9909 -1 92.3392 -1V1ZM98.8048 7.51979V24.2748H100.805V7.51979H98.8048Z" fill="black" mask="url(#path-2-inside-1_449_32863)"/>
<path d="M0 67.9209H12.5573C12.5573 82.0595 23.9794 93.5645 38.0161 93.5645C52.0527 93.5645 63.4748 82.0595 63.4748 67.9209H76.0321C76.0321 78.1437 72.0757 87.76 64.9025 95.0026C57.7294 102.228 48.1823 106.213 38.0161 106.213C27.8498 106.213 18.3199 102.228 11.1296 95.0026C3.95641 87.76 0 78.1437 0 67.9209Z" fill="black"/>
<path d="M70.1553 68.1659C70.2821 58.2616 74.1737 48.9667 81.1369 41.936C88.216 34.7885 97.635 30.8738 107.668 30.8738C117.7 30.8738 127.103 34.8052 134.2 41.9369C141.179 48.9495 145.055 58.2602 145.181 68.1659H133.622C133.357 53.9842 121.818 42.5223 107.668 42.5223C93.5178 42.5223 81.9797 53.9842 81.7141 68.1659H70.1553Z" fill="#AACCF1" stroke="black"/>
<path d="M81.3817 70.5198H52.6375L85.2178 17.2401H103.624L81.3817 70.5198Z" fill="black"/>
<path d="M99.7892 14.4332C95.1619 14.4332 91.4291 10.656 91.4291 6.01245" stroke="black" stroke-miterlimit="10" stroke-linejoin="round"/>
<path d="M88.5724 9.78967C89.0368 7.0867 91.5827 5.26739 94.2662 5.73521" stroke="black" stroke-miterlimit="10" stroke-linejoin="round"/>
<path d="M96.9674 6.53221C97.4519 6.53221 97.8447 6.13658 97.8447 5.64855C97.8447 5.16052 97.4519 4.76489 96.9674 4.76489C96.4828 4.76489 96.0901 5.16052 96.0901 5.64855C96.0901 6.13658 96.4828 6.53221 96.9674 6.53221Z" fill="black"/>
<path d="M59.7597 115.31H44.0372L62.9592 70.5199H78.6817L59.7597 115.31Z" fill="black"/>
<path d="M102.023 67.416L93.8233 85.5447H82.0194L90.2196 67.416H102.023Z" fill="#AACCF1" stroke="black"/>
<path d="M101.817 59.3441C101.817 62.5259 99.2572 65.0991 96.1072 65.0991C92.9571 65.0991 90.3973 62.5259 90.3973 59.3441C90.3973 56.1623 92.9571 53.5892 96.1072 53.5892C99.2572 53.5892 101.817 56.1624 101.817 59.3441Z" fill="#AACCF1" stroke="black"/>
<path d="M96.1062 57.1264C96.5147 57.1264 96.8459 56.7929 96.8459 56.3814C96.8459 55.9699 96.5147 55.6364 96.1062 55.6364C95.6977 55.6364 95.3666 55.9699 95.3666 56.3814C95.3666 56.7929 95.6977 57.1264 96.1062 57.1264Z" fill="black"/>
<path d="M91.1172 55.7749C91.1172 59.5868 92.8374 61.3195 96.6218 61.3195" stroke="black" stroke-miterlimit="10" stroke-linejoin="round"/>
<path d="M99.3236 117.181H109.387L97.2766 86.1659H87.2135L99.3236 117.181Z" fill="black"/>
<path d="M131.519 85.5447H125.567C125.304 77.6704 118.858 71.3368 110.969 71.3368C103.081 71.3368 96.635 77.6704 96.3722 85.5447H90.4201C90.5446 80.1982 92.6647 75.1994 96.4446 71.392C100.325 67.4835 105.496 65.3195 110.987 65.3195C116.478 65.3195 121.631 67.4662 125.528 71.3917C129.275 75.182 131.394 80.1966 131.519 85.5447Z" fill="#AACCF1" stroke="black"/>
<path d="M115.665 102.211C111.691 98.208 106.393 95.9902 100.768 95.9902C95.143 95.9902 89.8621 98.1907 85.8712 102.211C81.8976 106.213 79.6958 111.55 79.6958 117.215H86.6453H114.856H121.806C121.84 111.532 119.638 106.213 115.665 102.211Z" fill="#AACCF1"/>
<path d="M81.4322 117.06H68.2556L84.1329 86.0447H97.3095L81.4322 117.06Z" fill="black"/>
<path d="M85.7513 113.733C85.7513 110.267 87.3167 107.01 90.155 104.55C92.9933 102.089 96.7605 100.738 100.786 100.738C104.811 100.738 108.578 102.089 111.416 104.55C114.255 107.01 115.82 110.267 115.82 113.733" fill="#AACCF1"/>
<path d="M85.7513 113.733C85.7513 110.267 87.3167 107.01 90.155 104.55C92.9933 102.089 96.7605 100.738 100.786 100.738C104.811 100.738 108.578 102.089 111.416 104.55C114.255 107.01 115.82 110.267 115.82 113.733" stroke="black" stroke-miterlimit="10" stroke-linejoin="round"/>
<path d="M160.596 63.9531L113.05 106.248" stroke="black" stroke-width="11" stroke-miterlimit="10"/>
<path d="M129.153 95.2972C131.509 95.2972 133.419 93.3733 133.419 91.0002C133.419 88.627 131.509 86.7031 129.153 86.7031C126.797 86.7031 124.887 88.627 124.887 91.0002C124.887 93.3733 126.797 95.2972 129.153 95.2972Z" fill="#AACCF1"/>
<path d="M164.81 67.4358C168.781 67.4358 172 64.1932 172 60.1932C172 56.1932 168.781 52.9506 164.81 52.9506C160.838 52.9506 157.619 56.1932 157.619 60.1932C157.619 64.1932 160.838 67.4358 164.81 67.4358Z" fill="black"/>
<path d="M124.913 95.6567L130.178 90.7879" stroke="black" stroke-width="11" stroke-miterlimit="10" stroke-linecap="round"/>
<path d="M140.602 84.0001C144.731 84.0001 148.078 80.7711 148.078 76.7879C148.078 72.8048 144.731 69.5758 140.602 69.5758C136.473 69.5758 133.126 72.8048 133.126 76.7879C133.126 80.7711 136.473 84.0001 140.602 84.0001Z" fill="black"/>
<path d="M139.61 82.6139L145.304 77.7451" stroke="black" stroke-width="11" stroke-miterlimit="10" stroke-linecap="round"/>
<path d="M162.541 58.5471C163.443 58.5471 164.175 57.8101 164.175 56.901C164.175 55.992 163.443 55.255 162.541 55.255C161.638 55.255 160.906 55.992 160.906 56.901C160.906 57.8101 161.638 58.5471 162.541 58.5471Z" fill="#AACCF1"/>
<path d="M141.487 115.31H36.1943V127.958H141.487V115.31Z" fill="black"/>
<path d="M27.5752 127.851H151.392V139.5H27.5752V127.851Z" fill="#AACCF1" stroke="black"/>
</svg>
