<svg width="222" height="180" viewBox="0 0 222 180" fill="none" xmlns="http://www.w3.org/2000/svg">
<g clip-path="url(#clip0_323_23258)">
<path d="M51.3146 80.3134L58.4128 73.1613C58.7794 72.7921 59.0702 72.3538 59.2687 71.8713C59.4672 71.3889 59.5694 70.8718 59.5696 70.3496C59.5697 69.8273 59.4678 69.3101 59.2695 68.8276C59.0713 68.345 58.7807 67.9065 58.4143 67.5372C58.0479 67.1678 57.6129 66.8747 57.1341 66.6747C56.6553 66.4747 56.1421 66.3717 55.6238 66.3716C55.1054 66.3714 54.5922 66.4742 54.1133 66.6739C53.6344 66.8736 53.1992 67.1664 52.8326 67.5356L51.1719 69.2089C51.2681 69.8848 51.3168 70.5666 51.3176 71.2494L51.3146 80.3134Z" fill="black"/>
<path d="M94.915 113.431L97.4592 110.864C98.0717 110.23 98.4117 109.379 98.4056 108.494C98.3995 107.609 98.0479 106.763 97.4268 106.137C96.8057 105.512 95.9651 105.158 95.087 105.152C94.2089 105.147 93.364 105.49 92.7351 106.108L90.7344 108.12C92.4855 109.572 93.9105 111.382 94.915 113.431Z" fill="black"/>
<path d="M49.6716 64.5256C55.7862 57.7956 61.7398 53.207 66.6733 51.6315L61.8947 36.4707C55.0666 38.6549 47.8956 43.5617 40.5787 51.0534C38.8482 52.8276 37.1055 54.7518 35.375 56.8014C35.8792 56.7463 36.3859 56.7187 36.893 56.7188C39.5273 56.7209 42.1108 57.4495 44.3634 58.8256C46.616 60.2018 48.4517 62.173 49.6716 64.5256Z" fill="black"/>
<path d="M22.4664 101.051V87.7102C21.2688 87.6735 20.1185 87.2308 19.2017 86.4535C18.2849 85.6763 17.6552 84.6101 17.4145 83.4275C11.6764 94.0578 6.43923 106.398 5.21875 116.01C6.79329 112.371 9.16161 109.136 12.1477 106.546C15.1337 103.957 18.6607 102.078 22.4664 101.051Z" fill="black"/>
<path d="M47.6025 100.158C48.4434 100.158 49.2753 100.204 50.0981 100.283V93.4278L48.1854 95.3551C47.9754 95.5743 47.7243 95.7492 47.4465 95.8696C47.1688 95.99 46.87 96.0534 46.5677 96.0562C46.2653 96.0589 45.9655 96.0011 45.6856 95.8858C45.4057 95.7706 45.1514 95.6004 44.9375 95.385C44.7236 95.1697 44.5544 94.9136 44.4398 94.6317C44.3251 94.3498 44.2674 94.0477 44.2699 93.7431C44.2724 93.4385 44.335 93.1374 44.4542 92.8574C44.5734 92.5774 44.7468 92.3242 44.9642 92.1124L50.0981 86.9487V71.2494C50.0983 67.7855 48.758 64.4579 46.3619 61.9739C43.9659 59.4898 40.7029 58.0452 37.2665 57.9468C33.83 57.8484 30.4909 59.1041 27.9587 61.447C25.4266 63.7899 23.9009 67.0354 23.7059 70.4938C26.2865 70.9496 28.2387 72.9962 28.2387 75.4434H27.0243C27.0243 73.0818 24.7382 71.6196 22.6221 71.6196C21.5355 71.6212 20.494 72.0568 19.7257 72.831C18.9574 73.6051 18.525 74.6546 18.5234 75.7493V82.3631C18.5234 83.4584 18.9553 84.5088 19.7239 85.2833C20.4925 86.0578 21.535 86.4929 22.6221 86.4929C23.7091 86.4929 24.7516 86.0578 25.5202 85.2833C26.2889 84.5088 26.7207 83.4584 26.7207 82.3631H27.9351C27.935 83.5978 27.5121 84.7947 26.7377 85.7516C25.9634 86.7086 24.885 87.3669 23.6847 87.6156V100.77C25.4903 100.376 27.3324 100.177 29.1799 100.176L47.6025 100.158ZM39.7756 69.8728C39.9311 69.8742 40.0863 69.8864 40.2401 69.9095C40.0139 70.0932 39.8274 70.3215 39.6922 70.5806C39.557 70.8397 39.476 71.124 39.4541 71.4158C39.4322 71.7077 39.4699 72.001 39.5649 72.2776C39.6599 72.5542 39.8102 72.8083 40.0065 73.0241C40.2028 73.2398 40.4409 73.4128 40.7061 73.5322C40.9713 73.6516 41.258 73.715 41.5485 73.7184C41.839 73.7218 42.1271 73.6652 42.395 73.552C42.6629 73.4389 42.9049 73.2715 43.1061 73.0604C43.1061 73.1185 43.1061 73.1767 43.1061 73.2378C43.1061 73.9034 42.9102 74.554 42.5433 75.1073C42.1763 75.6607 41.6547 76.092 41.0445 76.3467C40.4343 76.6014 39.7628 76.668 39.115 76.5382C38.4671 76.4084 37.8721 76.0879 37.405 75.6173C36.938 75.1467 36.6199 74.5471 36.491 73.8943C36.3622 73.2416 36.4283 72.565 36.6811 71.9501C36.9338 71.3352 37.3619 70.8097 37.9111 70.44C38.4603 70.0702 39.106 69.8728 39.7665 69.8728H39.7756ZM41.5972 70.6376C41.7773 70.6376 41.9534 70.6914 42.1032 70.7923C42.253 70.8931 42.3697 71.0364 42.4387 71.2041C42.5076 71.3718 42.5257 71.5564 42.4905 71.7344C42.4554 71.9124 42.3686 72.0759 42.2412 72.2043C42.1139 72.3326 41.9516 72.42 41.7749 72.4554C41.5982 72.4908 41.4151 72.4727 41.2487 72.4032C41.0822 72.3337 40.94 72.2161 40.8399 72.0652C40.7398 71.9143 40.6864 71.7368 40.6864 71.5553C40.6864 71.3119 40.7824 71.0785 40.9532 70.9064C41.124 70.7343 41.3556 70.6376 41.5972 70.6376ZM22.9348 81.0966C23.3259 81.0958 23.7007 80.939 23.9772 80.6603C24.2538 80.3817 24.4095 80.004 24.4103 79.6099H25.6247C25.6247 80.3287 25.3413 81.0181 24.8368 81.5264C24.3324 82.0347 23.6482 82.3203 22.9348 82.3203C22.2214 82.3203 21.5372 82.0347 21.0327 81.5264C20.5283 81.0181 20.2449 80.3287 20.2449 79.6099V76.6793C20.2457 75.9607 20.5293 75.2718 21.0336 74.7637C21.5379 74.2556 22.2216 73.9698 22.9348 73.969C24.4923 73.969 25.7583 75.1253 25.7583 76.5447H24.5439C24.5439 75.7096 23.709 75.1926 22.9348 75.1926C22.5437 75.1934 22.1689 75.3503 21.8923 75.6289C21.6158 75.9076 21.4601 76.2853 21.4593 76.6793V79.6099C21.4601 80.004 21.6158 80.3817 21.8923 80.6603C22.1689 80.939 22.5437 81.0958 22.9348 81.0966Z" fill="black"/>
<path d="M36.5804 127.999H25.1953V153.386H36.5804V127.999Z" fill="black"/>
<path d="M52.0713 158.816C51.4708 158.164 50.9121 157.474 50.3984 156.751V178.321H61.7805V164.093C57.4572 163.001 54.4667 161.34 52.0713 158.816Z" fill="black"/>
<path d="M49.185 154.973L48.9512 154.612H37.7969V178.32H49.185V154.973Z" fill="black"/>
<path d="M70.8801 133.211C69.6929 132.287 68.6394 131.201 67.75 129.984L67.3978 129.467C67.0822 128.995 66.7924 128.505 66.5295 128.001H63.451C63.451 128.855 63.451 129.858 63.451 130.953C63.451 133.349 63.4206 136.946 63.451 140.216C65.0176 137.381 67.6164 134.958 70.8801 133.211Z" fill="black"/>
<path d="M64.6681 120.501C64.6643 117.249 65.6474 114.073 67.4855 111.4C66.1902 109.673 64.68 108.12 62.9922 106.781V126.772H65.9371C65.0983 124.789 64.6666 122.656 64.6681 120.501Z" fill="black"/>
<path d="M11.3855 127.999H4.28125V153.386H11.3855V127.999Z" fill="black"/>
<path d="M23.9788 154.612H12.5938V178.32H23.9788V154.612Z" fill="black"/>
<path d="M36.5804 154.612H25.1953V178.32H36.5804V154.612Z" fill="black"/>
<path d="M23.9788 127.999H12.5938V153.386H23.9788V127.999Z" fill="black"/>
<path d="M11.3855 154.612H4.28125V178.32H11.3855V154.612Z" fill="black"/>
<path d="M37.8637 127.995H37.7969V153.386H48.1892C43.3285 145.337 37.8697 132.498 37.8637 127.995Z" fill="black"/>
<path d="M11.3855 108.949C6.83052 113.624 4.27937 119.914 4.28125 126.466V126.771H11.3855V108.949Z" fill="black"/>
<path d="M12.5987 126.772H23.9838V101.935C19.5851 102.885 15.5245 105.02 12.2344 108.111H12.6017L12.5987 126.772Z" fill="black"/>
<path d="M36.5804 126.772V101.381H29.1755C27.8424 101.384 26.5115 101.492 25.1953 101.706V126.772H36.5804Z" fill="black"/>
<path d="M50.3984 126.772H61.7805V105.866C58.4015 103.496 54.4895 102.013 50.3984 101.55V126.772Z" fill="black"/>
<path d="M49.185 101.446C48.6598 101.412 48.1345 101.388 47.6032 101.388H37.7969V126.778H49.185V101.446Z" fill="black"/>
<path d="M118.06 163.934C115.439 164.24 112.227 164.24 108.083 164.24V166.228H107.476C84.7058 166.228 71.4536 166.228 62.9922 164.392V178.1V178.327H72.4949L118.06 178.1V163.934Z" fill="black"/>
<path d="M108.078 150.174C111.135 150.174 114.199 150.174 116.057 150.005C116.123 148.718 116.123 146.904 116.123 145.279C116.123 144.063 116.437 142.867 117.034 141.81C114.387 135.83 106.851 131.501 97.9892 131.501H92.1995C89.6537 134.236 86.236 135.985 82.5421 136.441C78.8482 136.898 75.1123 136.034 71.9857 134C67.7686 136.099 64.6689 139.36 63.5 143.178C63.5668 145.512 63.6822 147.326 63.8795 147.827C64.1558 148.026 65.8529 149.005 72.9177 149.568C80.3681 150.161 91.7411 150.161 107.471 150.161H108.078V150.174Z" fill="black"/>
<path d="M78.6704 126.573C77.1524 129.632 74.2772 129.938 69.2891 129.981C71.3178 132.448 74.0856 134.187 77.1776 134.937C80.2697 135.687 83.5195 135.406 86.4403 134.139C89.361 132.871 91.7954 130.683 93.3787 127.904C94.962 125.125 95.609 121.904 95.2228 118.723L86.7067 125.42L85.9599 124.453L94.9951 117.353C94.2781 114.044 92.4608 111.081 89.8441 108.955C87.2275 106.83 83.9686 105.668 80.6073 105.664C80.492 105.664 80.3796 105.664 80.2673 105.664C80.2673 117.454 80.2278 123.447 78.6704 126.573ZM84.0472 108.592C84.6201 108.592 85.1802 108.763 85.6566 109.084C86.133 109.404 86.5042 109.86 86.7233 110.394C86.9425 110.927 86.9996 111.514 86.8876 112.08C86.7756 112.647 86.4995 113.167 86.0941 113.575C85.6888 113.983 85.1724 114.26 84.6104 114.373C84.0483 114.485 83.4659 114.427 82.9367 114.205C82.4075 113.984 81.9553 113.609 81.6374 113.129C81.3196 112.649 81.1502 112.084 81.1508 111.507C81.1524 110.734 81.4582 109.993 82.0011 109.446C82.544 108.9 83.2798 108.592 84.0472 108.592Z" fill="black"/>
<path d="M69.5527 116.552C70.0445 115.606 70.1174 113.578 70.1265 110.091C68.1347 112.117 66.7644 114.679 66.1797 117.469C68.311 117.457 69.1368 117.35 69.5527 116.552Z" fill="black"/>
<path d="M65.8828 120.501C65.8798 123.443 66.7499 126.32 68.3815 128.76C73.7583 128.76 76.2964 128.607 77.5836 126.007C79.0136 123.141 79.0531 117.273 79.0531 105.731C77.8714 105.858 76.7093 106.128 75.592 106.536C75.592 114.976 75.5738 119.253 74.4656 121.504C73.2512 124.003 70.8406 124.003 66.49 124.003V122.78C70.9439 122.78 72.5256 122.691 73.3788 120.944C74.3412 118.99 74.3746 114.942 74.3776 107.032C73.2915 107.543 72.2719 108.187 71.3416 108.95C71.3416 117.858 71.1776 118.626 65.9921 118.662C65.9192 119.272 65.8827 119.886 65.8828 120.501Z" fill="black"/>
<path d="M126.091 140.314V153.998H124.876V139.748C124.031 139.466 123.13 139.392 122.25 139.534C122.25 155.702 122.177 156.341 115.289 156.341V155.117C118.592 155.117 119.667 155.041 120.283 153.423C121.012 151.508 121.036 147.57 121.036 139.859C119.949 140.28 119.014 141.023 118.354 141.99C117.693 142.957 117.339 144.103 117.338 145.276C117.338 147.151 117.338 149.277 117.238 150.608L117.198 151.113L116.7 151.168C114.879 151.382 111.463 151.394 108.078 151.394V163.019C116.773 163.019 121.215 162.958 124.634 160.348C128.884 157.115 128.884 152.147 128.884 145.276C128.881 144.277 128.622 143.295 128.133 142.426C127.644 141.557 126.94 140.83 126.091 140.314Z" fill="black"/>
<path d="M62.9556 148.623L62.8979 148.549C62.2573 147.61 62.1692 142.125 62.2239 130.947C62.2239 129.723 62.2239 128.613 62.2239 127.695H61.7685L50.3864 127.839H49.172L38.4609 127.974H39.0681C39.0681 132.997 47.6388 152.364 52.9397 157.953C59.5886 164.955 71.5445 164.989 106.859 164.989V151.351C91.4122 151.351 80.2184 151.351 72.8196 150.739C64.9715 150.149 63.2835 148.968 62.9556 148.623Z" fill="black"/>
<path d="M84.0461 113.199C84.9733 113.199 85.725 112.441 85.725 111.507C85.725 110.573 84.9733 109.815 84.0461 109.815C83.1189 109.815 82.3672 110.573 82.3672 111.507C82.3672 112.441 83.1189 113.199 84.0461 113.199Z" fill="black"/>
<path d="M74.1703 48.8661C75.8626 48.866 77.5173 48.3629 78.9271 47.4198C80.337 46.4767 81.4394 45.1355 82.0963 43.5641C82.7533 41.9926 82.9356 40.2609 82.6204 38.5856C82.3052 36.9103 81.5065 35.3659 80.3244 34.1458L88.3486 26.0514C88.7153 25.6821 89.0062 25.2436 89.2047 24.761C89.4032 24.2784 89.5054 23.761 89.5054 23.2386C89.5054 22.7162 89.4032 22.1988 89.2047 21.7162C89.0062 21.2336 88.7153 20.7951 88.3486 20.4258C87.6085 19.6804 86.6049 19.2617 85.5585 19.2617C84.5121 19.2617 83.5085 19.6804 82.7684 20.4258L71.2315 32.0503C69.3222 32.7395 67.7161 34.0863 66.6967 35.853C65.6773 37.6196 65.3103 39.6923 65.6604 41.7051C66.0105 43.7179 67.0553 45.5413 68.6102 46.8533C70.1651 48.1653 72.1301 48.8815 74.1582 48.8753L74.1703 48.8661Z" fill="black"/>
<path d="M201.547 33.7754C200.654 41.0548 197.403 47.8343 192.299 53.0638C187.194 58.2932 180.521 61.681 173.312 62.7022C173.376 63.0246 173.408 63.3524 173.41 63.6811C173.41 63.7637 173.41 63.8432 173.41 63.9258C180.915 62.8796 187.865 59.3609 193.178 53.9182C198.49 48.4756 201.867 41.4148 202.78 33.8366C202.659 33.8366 202.537 33.8549 202.416 33.8549C202.125 33.8543 201.834 33.8277 201.547 33.7754Z" fill="black"/>
<path d="M202.404 23.9099C202.607 23.9117 202.81 23.9261 203.011 23.9527V0H201.797V23.9527C201.998 23.9259 202.201 23.9116 202.404 23.9099Z" fill="black"/>
<path d="M135.688 101.008V127.258H136.902V100.821C136.506 100.933 136.098 100.996 135.688 101.008Z" fill="black"/>
<path d="M148.476 72.2497C152.82 68.4912 158.061 65.9386 163.683 64.8436C163.589 64.4623 163.541 64.071 163.54 63.6781C163.54 63.6598 163.54 63.6414 163.54 63.6261C157.44 64.7983 151.772 67.6231 147.146 71.797V9.30276L153.121 9.24768L146.478 2.67676L139.96 9.36393L145.938 9.30888V72.938C140.955 77.8675 137.589 84.2145 136.289 91.1273C136.693 91.1858 137.087 91.2948 137.464 91.4516C138.734 84.5822 142.118 78.2899 147.137 73.4672H215.353V72.2436H148.476V72.2497Z" fill="black"/>
<path d="M215.359 66.2295L215.481 79.4937L222.005 72.8004L215.359 66.2295Z" fill="black"/>
<path d="M168.469 67.4254C170.523 67.4254 172.188 65.7477 172.188 63.6781C172.188 61.6084 170.523 59.9307 168.469 59.9307C166.415 59.9307 164.75 61.6084 164.75 63.6781C164.75 65.7477 166.415 67.4254 168.469 67.4254Z" fill="white"/>
<path d="M202.407 32.6286C204.461 32.6286 206.126 30.9508 206.126 28.8812C206.126 26.8116 204.461 25.1338 202.407 25.1338C200.353 25.1338 198.688 26.8116 198.688 28.8812C198.688 30.9508 200.353 32.6286 202.407 32.6286Z" fill="white"/>
<path d="M135.563 99.7907C137.617 99.7907 139.282 98.1129 139.282 96.0433C139.282 93.9737 137.617 92.2959 135.563 92.2959C133.509 92.2959 131.844 93.9737 131.844 96.0433C131.844 98.1129 133.509 99.7907 135.563 99.7907Z" fill="white"/>
</g>
<defs>
<clipPath id="clip0_323_23258">
<rect width="222" height="180" fill="white"/>
</clipPath>
</defs>
</svg>
