<svg width="207" height="199" viewBox="0 0 207 199" fill="none" xmlns="http://www.w3.org/2000/svg">
<g clip-path="url(#clip0_323_23177)">
<path d="M142.25 199H32.4688V186.38H142.25C147.261 186.38 151.404 182.328 151.404 177.28V176.815C151.404 171.834 147.328 167.715 142.25 167.715H65.6769C53.5162 167.583 43.7609 157.818 43.8945 145.929V145.398C44.095 133.641 53.8503 124.143 65.7438 124.143H128.485C133.497 124.143 137.639 120.091 137.639 115.043V114.578C137.639 109.596 133.563 105.478 128.485 105.478H78.6395C66.5456 105.412 56.7902 95.6476 56.9239 83.7581V83.2267C57.1243 71.47 66.8128 61.9053 78.7731 61.9053H121.737V74.5254H78.7731C73.7618 74.5254 69.6192 78.5772 69.6192 83.6252V84.1566C69.7528 88.939 73.7618 92.7915 78.84 92.8579H128.552C140.579 92.8579 150.401 102.622 150.401 114.578V115.043C150.401 126.932 140.78 136.563 128.886 136.763H65.8106C60.7993 136.763 56.6566 140.814 56.6566 145.863V146.394C56.7902 151.176 60.7993 155.029 65.8774 155.095H142.316C154.343 155.095 164.166 164.859 164.166 176.815V177.28C164.099 189.302 154.343 199 142.25 199Z" fill="black"/>
<path d="M169.307 124.744L156.797 170.854L158.732 171.373L171.242 125.263L169.307 124.744Z" fill="black"/>
<path d="M205.806 135.855L169.938 126.238L164.892 144.836L200.76 154.453L205.806 135.855Z" fill="white"/>
<path d="M201.455 155.693L163.703 145.53L169.249 125.006L207.001 135.168L201.455 155.693ZM166.109 144.135L200.052 153.235L204.595 136.563L170.652 127.463L166.109 144.135Z" fill="black"/>
<path d="M172.258 125.803C173.992 125.803 175.398 124.406 175.398 122.681C175.398 120.957 173.992 119.56 172.258 119.56C170.523 119.56 169.117 120.957 169.117 122.681C169.117 124.406 170.523 125.803 172.258 125.803Z" fill="black"/>
<path d="M78.6557 5.2613L76.7188 5.77441L89.0723 51.8581L91.0092 51.345L78.6557 5.2613Z" fill="black"/>
<path d="M47.5738 34.938L82.987 25.3069L77.9757 6.70874L42.5625 16.3399L47.5738 34.938Z" fill="white"/>
<path d="M46.8384 36.1999L41.3594 15.6755L78.7102 5.51294L84.1893 26.0373L46.8384 36.1999ZM43.8316 17.0039L48.3084 33.6758L81.7838 24.576L77.3071 7.97055L43.8316 17.0039Z" fill="black"/>
<path d="M75.7029 6.24366C77.4373 6.24366 78.8433 4.84597 78.8433 3.12183C78.8433 1.39769 77.4373 0 75.7029 0C73.9685 0 72.5625 1.39769 72.5625 3.12183C72.5625 4.84597 73.9685 6.24366 75.7029 6.24366Z" fill="black"/>
<path d="M152.495 70.3994L144.266 117.45L146.24 117.791L154.47 70.7408L152.495 70.3994Z" fill="black"/>
<path d="M176.994 95.4489L150 90.7994L153.341 71.8027L180.335 76.4523C185.614 77.3822 189.155 82.3638 188.22 87.6111C187.284 92.8585 182.273 96.3788 176.994 95.4489Z" fill="white"/>
<path d="M178.664 96.5779C178.063 96.5779 177.462 96.5115 176.793 96.445L148.797 91.5962L152.472 70.6069L180.468 75.4557C183.275 75.9207 185.747 77.5148 187.417 79.8396C189.088 82.1643 189.689 84.9541 189.221 87.8102C188.754 90.5999 187.15 93.0575 184.811 94.7181C183.007 95.9137 180.869 96.5779 178.664 96.5779ZM151.135 90.0021L177.194 94.5188C181.938 95.3159 186.415 92.194 187.284 87.4781C188.085 82.7621 184.945 78.3119 180.201 77.4484L154.142 72.9317L151.135 90.0021Z" fill="black"/>
<path d="M155.281 71.1382C157.015 71.1382 158.421 69.7405 158.421 68.0164C158.421 66.2922 157.015 64.8945 155.281 64.8945C153.547 64.8945 152.141 66.2922 152.141 68.0164C152.141 69.7405 153.547 71.1382 155.281 71.1382Z" fill="black"/>
<path d="M39.9576 149.516H37.9531V187.177H39.9576V149.516Z" fill="black"/>
<path d="M1 165.723H38.9522V150.512H1L5.81085 157.619L1 165.723Z" fill="white"/>
<path d="M38.9496 166.719H0.997327C0.663241 166.719 0.329154 166.52 0.128702 166.188C-0.0717495 165.856 -0.0717495 165.524 0.128702 165.191L4.60546 157.619L0.128702 151.044C-0.0717495 150.711 -0.0717495 150.313 0.0618851 150.047C0.262337 149.715 0.596424 149.516 0.93051 149.516H38.8827C39.4173 149.516 39.885 149.981 39.885 150.512V165.723C39.9518 166.254 39.4841 166.719 38.9496 166.719ZM2.73458 164.726H37.9473V151.509H2.86821L6.60998 157.022C6.81043 157.354 6.81043 157.752 6.60998 158.084L2.73458 164.726Z" fill="black"/>
<path d="M37.8758 149.781C39.3519 149.781 40.5485 148.681 40.5485 147.324C40.5485 145.967 39.3519 144.866 37.8758 144.866C36.3997 144.866 35.2031 145.967 35.2031 147.324C35.2031 148.681 36.3997 149.781 37.8758 149.781Z" fill="black"/>
<path d="M185.479 147.722C181.403 147.722 178.062 144.401 178.062 140.349C178.062 136.298 181.403 132.977 185.479 132.977C189.555 132.977 192.896 136.298 192.896 140.349C192.896 144.401 189.555 147.722 185.479 147.722ZM185.479 134.969C182.472 134.969 180.067 137.427 180.067 140.349C180.067 143.272 182.539 145.73 185.479 145.73C188.419 145.73 190.891 143.272 190.891 140.349C190.891 137.427 188.486 134.969 185.479 134.969Z" fill="black"/>
<path d="M185.84 139.48L184.812 141.19L188.025 143.097L189.053 141.387L185.84 139.48Z" fill="black"/>
<path d="M29.8678 159.147H9.82257C9.28803 159.147 8.82031 158.682 8.82031 158.151C8.82031 157.619 9.28803 157.154 9.82257 157.154H29.8678C30.4023 157.154 30.87 157.619 30.87 158.151C30.87 158.682 30.4023 159.147 29.8678 159.147Z" fill="black"/>
<path d="M29.8663 159.147C29.599 159.147 29.2649 159.014 29.0645 158.748L25.8572 154.63C25.5232 154.165 25.59 153.568 26.0577 153.235C26.5254 152.903 27.1268 152.97 27.4609 153.435L30.6681 157.553C31.0022 158.018 30.9354 158.616 30.4676 158.948C30.334 159.081 30.0667 159.147 29.8663 159.147Z" fill="black"/>
<path d="M26.0626 163.199C25.7953 163.199 25.4612 163.066 25.2608 162.867C24.9267 162.468 24.9935 161.804 25.3944 161.472L29.2698 158.283C29.6707 157.951 30.3389 158.018 30.673 158.416C31.0071 158.815 30.9403 159.479 30.5394 159.811L26.6639 162.999C26.4635 163.132 26.263 163.199 26.0626 163.199Z" fill="black"/>
<path d="M178.464 91.131L172.25 78.1787L160.156 88.6069L178.464 91.131Z" fill="white"/>
<path d="M178.463 92.1271C178.397 92.1271 178.397 92.1271 178.33 92.1271L160.089 89.603C159.688 89.5366 159.354 89.2709 159.287 88.8724C159.153 88.4739 159.287 88.0753 159.554 87.8097L171.581 77.315C171.848 77.1157 172.116 77.0493 172.45 77.1157C172.784 77.1822 172.984 77.3814 173.185 77.6471L179.399 90.5994C179.532 90.9315 179.532 91.33 179.332 91.5957C179.065 91.9942 178.731 92.1271 178.463 92.1271ZM162.494 87.9425L176.726 89.8687L171.915 79.7726L162.494 87.9425Z" fill="black"/>
<path d="M137.379 187.177H97.6899L64.2812 118.165H103.971L137.379 187.177Z" fill="white"/>
<path d="M137.38 188.173H97.7575C97.3566 188.173 97.0225 187.974 96.8221 187.642L63.4134 118.629C63.2798 118.297 63.2798 117.965 63.4803 117.7C63.6807 117.434 64.0148 117.235 64.3489 117.235H103.972C104.372 117.235 104.707 117.434 104.907 117.766L138.316 186.778C138.449 187.11 138.449 187.443 138.249 187.708C137.982 187.974 137.714 188.173 137.38 188.173ZM98.3589 186.181H135.777L103.303 119.161H65.8857L98.3589 186.181Z" fill="black"/>
<path d="M72.5682 132.047C71.9 131.914 70.4301 131.715 68.7596 131.449C53.0576 129.058 47.1776 127.862 44.5049 126.467C37.8232 122.947 32.5446 116.57 28.8697 107.604C24.6602 97.3745 23.7248 86.4814 26.1302 77.0495C28.9365 66.0234 36.4201 56.0601 47.1108 48.953C56.4652 42.7093 77.6463 37.5949 79.9849 37.0635L82.9249 49.3515C77.045 50.7464 60.4743 55.2631 54.1266 59.4477C46.1754 64.7614 40.4291 72.3335 38.4246 80.1713C36.6873 87.0792 37.4223 95.1162 40.6295 102.888C42.3668 107.072 45.4404 112.585 50.3181 115.308C52.9907 116.371 66.2206 118.364 70.6305 119.028C72.5682 119.294 73.9046 119.493 74.7064 119.692L72.5682 132.047Z" fill="white"/>
<path d="M72.5657 133.043C72.4988 133.043 72.432 133.043 72.3652 133.043C71.697 132.91 70.2939 132.711 68.6234 132.445H68.5566C52.5205 130.054 46.7742 128.858 43.9678 127.331C37.0857 123.678 31.6735 117.168 27.9317 108.002C23.6554 97.5738 22.6531 86.4813 25.1254 76.7837C27.9985 65.492 35.6157 55.3294 46.5069 48.0894C55.995 41.7794 77.3097 36.5984 79.7151 36.0671C79.9824 36.0007 80.2496 36.0671 80.4501 36.1999C80.6505 36.3328 80.851 36.532 80.9178 36.7977L83.8578 49.0858C83.9914 49.6171 83.6573 50.1485 83.1228 50.2814C77.3097 51.6762 60.8726 56.1265 54.6586 60.2446C46.9078 65.4256 41.2952 72.732 39.3575 80.4369C37.6202 87.0791 38.422 94.9833 41.4956 102.555C43.166 106.541 46.0392 111.854 50.7164 114.445C52.5205 115.109 59.269 116.371 70.7616 118.098L71.0289 118.165C72.8329 118.43 74.1024 118.629 74.9043 118.762C75.4388 118.829 75.8397 119.36 75.7061 119.892C75.6392 120.423 75.1047 120.821 74.5702 120.689C73.8352 120.556 72.4988 120.356 70.7616 120.091L70.4943 120.024C63.2112 118.895 53.3223 117.367 50.3155 116.371C50.1819 116.371 50.0482 116.305 49.9146 116.238H49.8478C44.636 113.449 41.4956 107.67 39.6915 103.352C36.4175 95.3818 35.6157 87.0791 37.4197 80.0384C39.4911 71.9349 45.371 64.1635 53.5895 58.7169C59.7367 54.6652 75.1047 50.3478 81.7196 48.6872L79.2474 38.3254C74.4365 39.521 56.0618 44.237 47.6428 49.8164C37.1525 56.7907 29.8026 66.5547 27.0631 77.3815C24.7245 86.6141 25.6599 97.3081 29.8026 107.338C33.3439 116.039 38.4888 122.216 44.9701 125.67C47.5092 126.999 53.5227 128.261 68.8907 130.519H68.9575C70.6279 130.785 72.0311 130.984 72.6993 131.117C73.2338 131.183 73.6347 131.715 73.5011 132.246C73.4343 132.645 73.0334 133.043 72.5657 133.043Z" fill="black"/>
<path d="M97.9488 128.459L115.789 126.201C121.468 125.47 125.544 120.223 124.809 114.577L124.475 111.987C123.74 106.341 118.462 102.289 112.782 103.02L94.942 105.278C89.2625 106.009 85.1867 111.256 85.9216 116.902" fill="white"/>
<path d="M97.9505 129.456C97.4827 129.456 97.015 129.058 96.9482 128.593C96.8814 128.061 97.2823 127.53 97.8168 127.463L115.657 125.205C118.129 124.873 120.401 123.611 121.938 121.618C123.475 119.626 124.143 117.168 123.876 114.644L123.541 112.053C123.207 109.596 121.938 107.338 119.933 105.81C117.929 104.282 115.457 103.618 112.918 103.884L95.0773 106.142C89.9324 106.806 86.2574 111.522 86.9256 116.703C86.9924 117.234 86.5915 117.766 86.057 117.832C85.5224 117.899 84.9879 117.5 84.9211 116.969C84.1193 110.725 88.596 105.013 94.81 104.216L112.65 101.957C115.657 101.559 118.664 102.356 121.136 104.282C123.541 106.142 125.145 108.865 125.479 111.854L125.813 114.445C126.615 120.688 122.138 126.401 115.924 127.198L98.0841 129.456C98.0173 129.456 97.9505 129.456 97.9505 129.456Z" fill="black"/>
<path d="M99.7547 120.423L117.127 118.231C119.733 117.899 121.604 115.176 121.203 112.253C120.802 109.331 118.33 107.139 115.724 107.471L98.3516 109.663" fill="white"/>
<path d="M99.7565 121.419C99.2887 121.419 98.821 121.021 98.7542 120.556C98.6874 120.025 99.0883 119.493 99.6228 119.427L116.995 117.235C119.067 116.969 120.537 114.777 120.203 112.386C120.069 111.19 119.468 110.128 118.666 109.397C117.864 108.666 116.862 108.334 115.859 108.467L98.4869 110.659C97.9524 110.726 97.4179 110.327 97.351 109.796C97.2842 109.264 97.6851 108.733 98.2197 108.666L115.592 106.475C117.129 106.275 118.733 106.74 120.002 107.869C121.205 108.932 122.007 110.46 122.207 112.12C122.675 115.641 120.403 118.829 117.263 119.228L99.8901 121.419C99.8901 121.419 99.8233 121.419 99.7565 121.419Z" fill="black"/>
<path d="M94.487 47.7569H83.7962C81.3908 47.7569 79.4531 45.8307 79.4531 43.4395C79.4531 41.0483 81.3908 39.1221 83.7962 39.1221H94.487C96.8924 39.1221 98.8301 41.0483 98.8301 43.4395C98.8301 45.8307 96.8924 47.7569 94.487 47.7569Z" fill="white"/>
<path d="M94.4815 48.7535H83.7907C80.8507 48.7535 78.4453 46.3623 78.4453 43.4397C78.4453 40.5172 80.8507 38.126 83.7907 38.126H94.4815C97.4214 38.126 99.8268 40.5172 99.8268 43.4397C99.8268 46.3623 97.4214 48.7535 94.4815 48.7535ZM83.7907 40.1186C81.9198 40.1186 80.4498 41.5799 80.4498 43.4397C80.4498 45.2995 81.9198 46.7608 83.7907 46.7608H94.4815C96.3523 46.7608 97.8223 45.2995 97.8223 43.4397C97.8223 41.5799 96.3523 40.1186 94.4815 40.1186H83.7907Z" fill="black"/>
<path d="M103.96 121.618L146.857 186.446H134.964L92 121.618" fill="white"/>
<path d="M146.86 187.442H134.967C134.632 187.442 134.298 187.243 134.098 186.977L91.2012 122.216C90.8671 121.751 91.0008 121.153 91.4685 120.821C91.9362 120.489 92.5376 120.622 92.8716 121.087L135.501 185.45H144.989L103.095 122.216C102.761 121.751 102.894 121.153 103.362 120.821C103.83 120.489 104.431 120.622 104.765 121.087L147.729 185.848C147.929 186.18 147.929 186.579 147.795 186.845C147.595 187.243 147.261 187.442 146.86 187.442Z" fill="black"/>
<path d="M118.535 186.513H108.713L77.9766 118.098H87.7987L118.535 186.513Z" fill="black"/>
<path d="M67.1465 110.991C70.2869 118.098 78.6391 121.286 85.7885 118.231C92.938 115.109 96.1452 106.806 93.0716 99.6993C89.9312 92.5921 81.579 89.4039 74.4296 92.4593C67.2801 95.5811 64.0061 103.95 67.1465 110.991Z" fill="white"/>
<path d="M80.1139 120.423C78.2431 120.423 76.3722 120.091 74.5681 119.36C70.7595 117.899 67.8196 115.043 66.2159 111.389C64.6123 107.736 64.5455 103.618 66.0155 99.8985C67.4855 96.1124 70.3586 93.1899 74.0336 91.5958C81.6507 88.2747 90.6043 91.7286 94.0119 99.3007C95.6156 102.954 95.6824 107.072 94.2124 110.792C92.7424 114.578 89.8693 117.5 86.1943 119.094C84.2566 119.958 82.1853 120.423 80.1139 120.423ZM80.1139 92.3264C78.3767 92.3264 76.5726 92.6585 74.8354 93.4556C71.6281 94.8504 69.1559 97.4409 67.8864 100.696C66.6168 103.95 66.6837 107.537 68.0868 110.659C71.0268 117.235 78.7776 120.29 85.3925 117.367C92.0074 114.445 95.081 106.74 92.1411 100.164C90.0029 95.1825 85.1252 92.3264 80.1139 92.3264Z" fill="black"/>
<path d="M74.1017 100.828C71.7631 101.891 70.694 104.614 71.6963 106.939C72.7653 109.264 75.5049 110.326 77.8435 109.33" fill="white"/>
<path d="M75.9736 110.725C73.7686 110.725 71.6973 109.463 70.7619 107.338C69.4923 104.482 70.8287 101.161 73.7018 99.8985C74.2364 99.6993 74.7709 99.8986 75.0382 100.43C75.3054 100.961 75.0382 101.493 74.5036 101.758C72.6327 102.555 71.8309 104.747 72.6327 106.607C73.4345 108.467 75.6395 109.264 77.5104 108.467C78.0449 108.268 78.5795 108.467 78.8468 108.998C79.0472 109.53 78.8467 110.061 78.3122 110.327C77.5104 110.592 76.7754 110.725 75.9736 110.725Z" fill="black"/>
<path d="M81.5805 100.762L74.6984 85.153C74.097 83.7581 72.4266 83.0939 71.0234 83.7581C69.6202 84.3559 68.9521 86.0164 69.6202 87.4113L76.5024 103.02" fill="white"/>
<path d="M76.5062 103.95C76.1053 103.95 75.7712 103.751 75.5708 103.353L68.6886 87.7435C67.8199 85.8173 68.6886 83.6254 70.6263 82.7619C71.5617 82.3633 72.564 82.3633 73.4994 82.6954C74.4349 83.0276 75.1699 83.7582 75.5708 84.6881L82.4529 100.297C82.6534 100.829 82.4529 101.36 81.9184 101.626C81.3839 101.825 80.8493 101.626 80.5821 101.094L73.6999 85.4852C73.4994 85.0866 73.1653 84.7545 72.6976 84.5553C72.2299 84.356 71.7622 84.4224 71.3613 84.5553C70.4926 84.9538 70.0249 86.0165 70.4258 86.88L77.308 102.489C77.5085 103.021 77.308 103.552 76.7735 103.818C76.7735 103.95 76.6398 103.95 76.5062 103.95Z" fill="black"/>
<path d="M83.4592 107.471C83.7265 108.135 84.5283 108.467 85.1964 108.135C85.8646 107.869 86.1987 107.072 85.8646 106.408C85.5973 105.744 84.7955 105.411 84.1274 105.744C83.4592 106.009 83.1251 106.806 83.4592 107.471Z" fill="black"/>
<path d="M51.5849 16.6055H46.0391V22.1185H51.5849V16.6055Z" fill="black"/>
<path d="M57.124 22.1182H51.5781V27.6312H57.124V22.1182Z" fill="black"/>
<path d="M51.1858 27.698H46.375V33.211H51.1858V27.698Z" fill="black"/>
<path d="M62.7412 27.6982H57.1953V31.6171H62.7412V27.6982Z" fill="black"/>
<path d="M57.124 13.1514H51.5781V16.6717H57.124V13.1514Z" fill="black"/>
<path d="M62.7412 16.6055H57.1953V22.1185H62.7412V16.6055Z" fill="black"/>
<path d="M68.288 22.1182H62.7422V27.6312H68.288V22.1182Z" fill="black"/>
<path d="M68.3583 11.0928H62.8125V16.6058H68.3583V11.0928Z" fill="black"/>
<path d="M73.9052 16.6055H68.3594V22.1185H73.9052V16.6055Z" fill="black"/>
<path d="M79.4443 22.1182H73.8984V26.5684H79.4443V22.1182Z" fill="black"/>
<path d="M79.4443 11.0928H73.8984V16.6058H79.4443V11.0928Z" fill="black"/>
<path d="M81.587 16.6055H79.5156V22.1185H81.587V16.6055Z" fill="black"/>
</g>
<defs>
<clipPath id="clip0_323_23177">
<rect width="207" height="199" fill="white"/>
</clipPath>
</defs>
</svg>
