<svg width="21" height="19" viewBox="0 0 21 19" fill="none" xmlns="http://www.w3.org/2000/svg">
<path fill-rule="evenodd" clip-rule="evenodd" d="M6.13951 12.0561L1.31141 10.8165C0.822171 10.6873 0.767437 10.0617 1.22682 9.84961L19.8094 1.00282C20.1552 0.85795 20.6 1.16289 20.5756 1.56619L18.5201 17.6781C18.4364 18.0866 17.977 18.2987 17.6607 18.0972L12.6932 15.2651C12.3769 15.0636 12.0212 15.0947 11.7446 15.3481L9.31504 17.6238C9.04348 17.9341 8.55424 17.805 8.40581 17.4741L6.13951 12.0561ZM16.1455 4.87655L7.54709 11.0732C7.20628 11.275 7.06325 11.6887 7.21666 12.0764L8.51814 15.3438C8.59733 15.5661 8.94809 15.4781 8.98747 15.2455L9.0654 13.4047C9.09484 13.0583 9.24285 12.7015 9.4601 12.4532L16.3433 5.08849C16.5112 4.95918 16.3135 4.74724 16.1455 4.87655Z" fill="black"/>
</svg>
