<svg width="163" height="29" viewBox="0 0 163 29" fill="none" xmlns="http://www.w3.org/2000/svg">
<rect width="27" height="27" rx="13.5" fill="black" fill-opacity="0.85"/>
<path d="M15.4907 7.5605H14.1244C11.7823 7.5605 10.6112 8.73159 10.6112 10.4882C10.6112 12.44 11.3919 13.4159 13.1485 14.587L14.5148 15.5629L10.6112 21.6135H7.48828L11.1967 16.1485C9.04973 14.587 7.87864 13.2207 7.87864 10.6834C7.87864 7.5605 10.0256 5.41351 14.1244 5.41351H18.2232V21.6135H15.4907V7.5605Z" fill="white"/>
<path d="M34.2159 3.95543V24H37.7057V6.66649H43.9354V24H47.4251V3.95543H34.2159ZM53.4707 9.49292H50.2982V28.182H53.7303V22.2984C54.5955 23.5962 55.8645 24.2884 57.3354 24.2884C60.681 24.2884 62.9883 21.6062 62.9883 16.732C62.9883 11.8867 60.7387 9.20451 57.5085 9.20451C55.8934 9.20451 54.5667 9.95438 53.6438 11.3676L53.4707 9.49292ZM56.4702 21.5773C54.6532 21.5773 53.7303 20.1065 53.7303 16.7609C53.7303 13.3865 54.7109 11.9156 56.6433 11.9156C58.5179 11.9156 59.4408 13.3865 59.4408 16.732C59.4408 20.1065 58.4602 21.5773 56.4702 21.5773ZM75.9855 14.1075C75.9855 10.5889 74.1973 9.26219 70.5634 9.26219C68.2849 9.26219 66.4968 9.98322 65.4585 10.5889V13.4442C66.3814 12.752 68.4003 12.0021 70.1596 12.0021C71.8035 12.0021 72.5534 12.5789 72.5534 14.1363V14.9439H72.0054C66.7563 14.9439 64.4202 16.6744 64.4202 19.6162C64.4202 22.5579 66.2084 24.2019 68.8617 24.2019C70.8806 24.2019 71.7459 23.5385 72.4092 22.8464H72.5534C72.5822 23.2213 72.6976 23.7116 72.813 24H76.1585C76.0432 22.8175 75.9855 21.635 75.9855 20.4525V14.1075ZM72.5534 20.5391C72.1208 21.1736 71.3132 21.6927 70.1019 21.6927C68.6599 21.6927 67.9388 20.8275 67.9388 19.5296C67.9388 17.828 69.1213 17.2223 72.0631 17.2223H72.5534V20.5391ZM87.2531 24H91.1467L85.638 16.1841L90.4833 9.49292H87.0224L82.1771 16.1841V9.49292H78.745V24H82.1771V16.8762L87.2531 24ZM102.512 12.204V9.49292H91.0047V12.204H95.0425V24H98.4746V12.204H102.512ZM104.544 9.49292V24H107.515L112.822 15.0304V24H116.167V9.49292H113.197L107.89 18.4625V9.49292H104.544ZM127.557 24H131.451L125.942 16.1841L130.788 9.49292H127.327L122.481 16.1841V9.49292H119.049V24H122.481V16.8762L127.557 24ZM134.471 28.4704C137.672 28.4704 138.855 26.1919 139.835 23.2213L144.363 9.49292H141.047L137.845 20.3949L134.644 9.49292H131.039L136.028 24.6345C135.653 25.3267 135.105 25.7593 134.154 25.7593C133.519 25.7593 132.971 25.5574 132.596 25.1825V27.9801C132.596 27.9801 133.115 28.4704 134.471 28.4704ZM158.038 24H161.384L161.326 9.49292H156.625L153.481 19.1547L150.655 9.49292H145.665V24H148.578V13.1557L151.722 24H154.52L158.038 13.1557V24Z" fill="black" fill-opacity="0.85"/>
</svg>
