<svg width="242" height="82" viewBox="0 0 242 82" fill="none" xmlns="http://www.w3.org/2000/svg">
<path d="M240.541 25.887L239.569 26.1212L240.541 25.887ZM99.2189 52.2672L100.162 51.9351L99.2189 52.2672ZM138.082 32.3576L138.327 31.388L138.082 32.3576ZM145.855 72.6746L145.135 71.9809L145.855 72.6746ZM0.493972 62.8527C0.0176169 63.1322 -0.141989 63.7449 0.137483 64.2213L4.69174 71.9839C4.97121 72.4603 5.58393 72.6199 6.06028 72.3404C6.53664 72.0609 6.69624 71.4482 6.41677 70.9719L2.36855 64.0717L9.26868 60.0235C9.74504 59.744 9.90464 59.1313 9.62517 58.655C9.3457 58.1786 8.73298 58.019 8.25662 58.2985L0.493972 62.8527ZM173.413 1C173.337 1.99709 173.337 1.99709 173.337 1.99712C173.337 1.99715 173.338 1.99719 173.339 1.99726C173.341 1.99739 173.343 1.99759 173.347 1.99787C173.354 1.99842 173.365 1.99927 173.379 2.00042C173.408 2.00272 173.452 2.00623 173.51 2.01097C173.627 2.02046 173.8 2.03492 174.027 2.05466C174.481 2.09416 175.148 2.15482 176 2.23921C177.704 2.408 180.146 2.67168 183.092 3.05085C188.987 3.80951 196.89 5.02906 204.936 6.87274C212.992 8.71879 221.142 11.1794 227.558 14.4033C234.028 17.6543 238.467 21.547 239.569 26.1212L241.513 25.6528C240.192 20.1663 235.027 15.9179 228.456 12.6162C221.831 9.28731 213.502 6.7838 205.383 4.92327C197.253 3.06036 189.282 1.83091 183.348 1.06721C180.379 0.685207 177.918 0.419374 176.197 0.248944C175.337 0.163723 174.661 0.10234 174.2 0.0622018C173.97 0.0421323 173.793 0.027373 173.673 0.0176001C173.613 0.0127136 173.568 0.00907356 173.537 0.00663954C173.522 0.00542253 173.51 0.00450701 173.502 0.00388789C173.498 0.00357836 173.495 0.00334287 173.493 0.00318092C173.492 0.00309998 173.491 0.0030334 173.49 0.00299299C173.49 0.00294477 173.489 0.00291479 173.413 1ZM239.569 26.1212C241.76 35.2176 235.402 43.4202 223.539 50.2061C211.759 56.9449 194.988 61.9995 177.503 64.8414C160.025 67.6821 141.933 68.2958 127.542 66.2173C120.344 65.1777 114.122 63.4715 109.377 61.0687C104.627 58.6636 101.458 55.6151 100.162 51.9351L98.2756 52.5994C99.8062 56.946 103.469 60.3191 108.473 62.853C113.482 65.3893 119.937 67.1397 127.256 68.1968C141.899 70.3117 160.203 69.6794 177.824 66.8155C195.437 63.9527 212.467 58.8441 224.533 51.9421C236.516 45.0873 244.047 36.1714 241.513 25.6528L239.569 26.1212ZM100.162 51.9351C98.755 47.9391 99.0016 44.5054 100.416 41.6649C101.841 38.8034 104.51 36.4294 108.147 34.6956C115.437 31.2203 126.387 30.4388 137.838 33.3272L138.327 31.388C126.559 28.4195 115.108 29.1619 107.287 32.8902C103.368 34.7582 100.303 37.4059 98.626 40.7733C96.9385 44.1618 96.7139 48.1644 98.2756 52.5994L100.162 51.9351ZM137.838 33.3272C150.224 36.4517 155.441 42.4005 156.058 49.1396C156.689 56.0398 152.576 64.2539 145.135 71.9809L146.575 73.3682C154.16 65.4915 158.76 56.7254 158.049 48.9572C157.323 41.0279 151.14 34.6201 138.327 31.388L137.838 33.3272ZM145.135 71.9809C142.556 74.6593 138.428 76.6146 133.035 77.9222C127.659 79.2259 121.129 79.8608 113.86 79.9794C99.3238 80.2164 81.9729 78.387 65.2719 75.8327C48.5788 73.2795 32.572 70.008 20.7358 67.3739C14.8185 66.057 9.94551 64.8999 6.55268 64.0722C4.85631 63.6584 3.53006 63.3269 2.62844 63.0991C2.17763 62.9851 1.83299 62.8971 1.60132 62.8376C1.48549 62.8079 1.3979 62.7853 1.33941 62.7702C1.31016 62.7626 1.28819 62.7569 1.2736 62.7531C1.26631 62.7512 1.26085 62.7498 1.25726 62.7489C1.25547 62.7484 1.25417 62.7481 1.25327 62.7478C1.25244 62.7476 1.25208 62.7475 1 63.7152C0.747924 64.6829 0.748496 64.6831 0.749535 64.6834C0.750504 64.6836 0.752009 64.684 0.753945 64.6845C0.757815 64.6855 0.763545 64.687 0.771122 64.689C0.786275 64.6929 0.808812 64.6987 0.838629 64.7065C0.898261 64.7219 0.987008 64.7448 1.10402 64.7748C1.33803 64.8349 1.6851 64.9235 2.13841 65.0381C3.04502 65.2672 4.37662 65.6 6.07868 66.0152C9.48273 66.8456 14.369 68.0059 20.3013 69.3261C32.1642 71.9661 48.2178 75.2476 64.9695 77.8097C81.7134 80.3706 99.1918 82.2188 113.893 81.9791C121.242 81.8593 127.933 81.2173 133.507 79.8659C139.064 78.5185 143.617 76.4407 146.575 73.3682L145.135 71.9809Z" fill="black"/>
</svg>
