<svg width="188" height="350" viewBox="0 0 188 350" fill="none" xmlns="http://www.w3.org/2000/svg">
<path d="M-165.554 219.45C-122.386 286.198 -65.8482 289.733 -18.6751 259.218C28.4981 228.703 48.4546 175.692 5.29445 108.949C-37.8657 42.2061 -128.37 -13.8326 -175.538 16.7099C-222.705 47.2525 -208.72 152.715 -165.554 219.45Z" fill="#AACCF1"/>
<path d="M-165.554 219.45C-122.386 286.198 -65.8482 289.733 -18.6751 259.218C28.4981 228.703 48.4546 175.692 5.29445 108.949C-37.8657 42.2061 -128.37 -13.8326 -175.538 16.7099C-222.705 47.2525 -208.72 152.715 -165.554 219.45Z" stroke="black" stroke-width="6" stroke-linecap="round" stroke-linejoin="round"/>
<path d="M22.0703 141.928L-127.016 102.19" stroke="black" stroke-width="1.01517" stroke-linecap="round" stroke-linejoin="round"/>
<path d="M5.21875 139.423L-80.0242 210.068" stroke="black" stroke-width="1.01517" stroke-linecap="round" stroke-linejoin="round"/>
<path d="M-66.7607 198.914L6.38281 138.184L-84.5344 112.579L-66.7607 198.914Z" fill="black"/>
<path d="M-44.7598 134.011C-38.3958 138.206 -21.61 136.528 4.77573 117.999C32.7056 98.3707 61.9545 66.5359 87.0831 28.4186C89.8358 24.243 94.1345 21.332 99.0336 20.3259C103.933 19.3198 109.031 20.301 113.206 23.0537C117.382 25.8065 120.293 30.1052 121.299 35.0042C122.305 39.9033 121.324 45.0014 118.571 49.177C117.632 50.6023 116.692 52.0276 115.758 53.4445L157.19 80.7582C161.818 83.9539 165.01 88.8352 166.082 94.3562C167.154 99.8772 166.021 105.599 162.926 110.294C159.83 114.99 155.018 118.286 149.522 119.476C144.025 120.667 138.281 119.657 133.52 116.663L90.0328 87.9945C69.6011 112.91 47.8029 133.858 26.4475 148.869C-10.1497 174.575 -42.8024 180.486 -65.5236 165.507C-69.6992 162.754 -72.6102 158.456 -73.6163 153.557C-74.6224 148.657 -73.6413 143.559 -70.8885 139.384C-68.1358 135.208 -63.837 132.297 -58.9379 131.291C-54.0388 130.285 -48.9408 131.266 -44.7652 134.019L-44.7598 134.011Z" fill="black"/>
<path d="M-53.8691 128.006C-47.5052 132.201 -30.7194 130.523 -4.33364 111.994C23.5962 92.3658 52.8451 60.531 77.9737 22.4137C80.7264 18.2381 85.0251 15.3271 89.9242 14.321C94.8233 13.3149 99.9214 14.2961 104.097 17.0488C108.273 19.8016 111.184 24.1003 112.19 28.9994C113.196 33.8984 112.215 38.9966 109.462 43.1721C108.522 44.5974 107.583 46.0227 106.649 47.4397L148.08 74.7533C152.708 77.949 155.9 82.8303 156.973 88.3513C158.045 93.8723 156.912 99.5936 153.816 104.289C150.721 108.985 145.909 112.281 140.412 113.471C134.916 114.662 129.171 113.652 124.41 110.658L80.9234 81.9896C60.4917 106.905 38.6935 127.853 17.3381 142.864C-19.259 168.57 -51.9118 174.481 -74.633 159.502C-78.8086 156.749 -81.7196 152.451 -82.7257 147.552C-83.7318 142.653 -82.7506 137.554 -79.9979 133.379C-77.2452 129.203 -72.9463 126.292 -68.0473 125.286C-63.1482 124.28 -58.0502 125.261 -53.8746 128.014L-53.8691 128.006Z" fill="#AACCF1" stroke="black" stroke-width="1.01517" stroke-linecap="round" stroke-linejoin="round"/>
<path d="M-44.7598 134.011C-38.3958 138.206 -21.61 136.528 4.77573 117.999C32.7056 98.3707 61.9545 66.5359 87.0831 28.4186C89.8358 24.243 94.1345 21.332 99.0336 20.3259C103.933 19.3198 109.031 20.301 113.206 23.0537C117.382 25.8065 120.293 30.1052 121.299 35.0042C122.305 39.9033 121.324 45.0014 118.571 49.177C117.632 50.6023 116.692 52.0276 115.758 53.4445L157.19 80.7582C161.818 83.9539 165.01 88.8352 166.082 94.3562C167.154 99.8772 166.021 105.599 162.926 110.294C159.83 114.99 155.018 118.286 149.522 119.476C144.025 120.667 138.281 119.657 133.52 116.663L90.0328 87.9945C69.6011 112.91 47.8029 133.858 26.4475 148.869C-10.1497 174.575 -42.8024 180.486 -65.5236 165.507C-69.6992 162.754 -72.6102 158.456 -73.6163 153.557C-74.6224 148.657 -73.6413 143.559 -70.8885 139.384C-68.1358 135.208 -63.837 132.297 -58.9379 131.291C-54.0388 130.285 -48.9408 131.266 -44.7652 134.019L-44.7598 134.011Z" stroke="black" stroke-width="1.01517" stroke-linecap="round" stroke-linejoin="round"/>
<path d="M93.2412 32.4056C92.3178 33.9292 92.0206 35.7512 92.412 37.4892C92.8035 39.2272 93.8531 40.7459 95.3405 41.7265C96.8279 42.707 98.6374 43.0732 100.389 42.748C102.141 42.4228 103.698 41.4315 104.734 39.9824" fill="#AACCF1"/>
<path d="M93.2412 32.4056C92.3178 33.9292 92.0206 35.7512 92.412 37.4892C92.8035 39.2272 93.8531 40.7459 95.3405 41.7265C96.8279 42.707 98.6374 43.0732 100.389 42.748C102.141 42.4228 103.698 41.4315 104.734 39.9824" stroke="black" stroke-width="1.01517" stroke-linecap="round" stroke-linejoin="round"/>
<path d="M158.667 115.763C105.087 80.441 114.374 66.3543 114.92 65.5256" stroke="black" stroke-width="1.01517" stroke-linecap="round" stroke-linejoin="round"/>
<path d="M152.956 90.6005L152.964 90.6059C153.916 91.2335 154.179 92.5139 153.551 93.4658L153.546 93.474C152.918 94.4259 151.638 94.6889 150.686 94.0614L150.678 94.0559C149.726 93.4284 149.463 92.148 150.09 91.1961L150.096 91.1878C150.723 90.2359 152.004 89.9729 152.956 90.6005Z" fill="black"/>
</svg>
