<svg width="285" height="213" viewBox="0 0 285 213" fill="none" xmlns="http://www.w3.org/2000/svg">
<g clip-path="url(#clip0_449_31890)">
<path d="M3.42749 220.387V103.968C3.42749 85.7778 18.3105 70.8947 36.5009 70.8947H82.8038C100.994 70.8947 115.877 85.7778 115.877 103.968V220.304" fill="white"/>
<path d="M117.948 220.387H113.814V103.968C113.814 86.8526 99.9231 72.9618 82.8076 72.9618H36.5048C19.3893 72.9618 5.49844 86.8526 5.49844 103.968V220.304H1.36426V103.968C1.36426 84.6202 17.1568 68.8276 36.5048 68.8276H82.8076C102.156 68.8276 117.948 84.6202 117.948 103.968V220.387Z" fill="black"/>
<path d="M56.6745 90.409C75.7168 90.409 91.1536 74.9721 91.1536 55.9299C91.1536 36.8876 75.7168 21.4508 56.6745 21.4508C37.6322 21.4508 22.1954 36.8876 22.1954 55.9299C22.1954 74.9721 37.6322 90.409 56.6745 90.409Z" fill="white"/>
<path d="M56.6779 92.5578C36.5031 92.5578 20.1317 76.1864 20.1317 56.0116C20.1317 35.8368 36.5031 19.4654 56.6779 19.4654C76.8527 19.4654 93.2241 35.8368 93.2241 56.0116C93.2241 76.1864 76.8527 92.5578 56.6779 92.5578ZM56.6779 23.5169C38.8183 23.5169 24.2659 38.0692 24.2659 55.9289C24.2659 73.7886 38.8183 88.3409 56.6779 88.3409C74.5376 88.3409 89.0899 73.7886 89.0899 55.9289C89.0899 38.0692 74.5376 23.5169 56.6779 23.5169Z" fill="black"/>
<path d="M12.27 131.089C23.3496 131.089 32.3621 140.101 32.3621 151.181C32.3621 162.26 23.3496 171.273 12.27 171.273" fill="white"/>
<path d="M12.2698 173.257V169.123C22.1919 169.123 30.2949 161.02 30.2949 151.098C30.2949 141.176 22.1919 133.073 12.2698 133.073V128.938C24.507 128.938 34.429 138.861 34.429 151.098C34.429 163.335 24.507 173.257 12.2698 173.257Z" fill="black"/>
<path d="M12.27 105.127C23.3496 105.127 32.3621 114.139 32.3621 125.219C32.3621 136.299 23.3496 145.311 12.27 145.311" fill="white"/>
<path d="M12.2698 147.295V143.161C22.1919 143.161 30.2949 135.058 30.2949 125.136C30.2949 115.214 22.1919 107.111 12.2698 107.111V102.977C24.507 102.977 34.429 112.899 34.429 125.136C34.429 137.373 24.507 147.295 12.2698 147.295Z" fill="black"/>
<path d="M30.7895 162.343H26.6553V220.305H30.7895V162.343Z" fill="black"/>
<path d="M98.1085 105.125H93.9743V220.386H98.1085V105.125Z" fill="black"/>
<path d="M30.7154 126.21H3.42981V130.344H30.7154V126.21Z" fill="black"/>
<path d="M115.88 122.986H97.1109V127.12H115.88V122.986Z" fill="black"/>
<path d="M74.5324 75.0298H61.5511C57.3342 75.0298 53.8615 71.5571 53.8615 67.3402C53.8615 63.1233 57.3342 59.6506 61.5511 59.6506H74.5324C78.7493 59.6506 82.222 63.1233 82.222 67.3402C82.222 71.5571 78.7493 75.0298 74.5324 75.0298ZM61.5511 61.2216C58.2438 61.2216 55.5152 63.9502 55.5152 67.2575C55.5152 70.5649 58.2438 73.2934 61.5511 73.2934H74.5324C77.8397 73.2934 80.5683 70.5649 80.5683 67.2575C80.5683 63.9502 77.8397 61.2216 74.5324 61.2216H61.5511Z" fill="black"/>
<path d="M55.016 67.8348C55.016 64.0313 58.158 60.972 61.8787 60.972H74.8601C78.6635 60.972 81.7228 64.114 81.7228 67.8348" fill="black"/>
<path d="M63.2102 62.9563H61.5565V74.1186H63.2102V62.9563Z" fill="black"/>
<path d="M69.2399 62.9563H67.5863V74.1186H69.2399V62.9563Z" fill="black"/>
<path d="M74.7764 62.9563H73.1228V74.1186H74.7764V62.9563Z" fill="black"/>
<path d="M54.027 55.4324C48.3219 55.4324 43.6916 50.8021 43.6916 45.0969C43.6916 39.3917 48.3219 34.7614 54.027 34.7614C59.7322 34.7614 64.3625 39.3917 64.3625 45.0969C64.3625 50.8021 59.7322 55.4324 54.027 55.4324ZM54.027 36.4151C49.2314 36.4151 45.3453 40.3012 45.3453 45.0969C45.3453 49.8925 49.2314 53.7787 54.027 53.7787C58.8227 53.7787 62.7088 49.8925 62.7088 45.0969C62.7088 40.3012 58.8227 36.4151 54.027 36.4151Z" fill="black"/>
<path d="M60.8146 46.9983C59.3263 46.9983 58.0861 45.7581 58.0861 44.2698C58.0861 42.7815 59.3263 41.5412 60.8146 41.5412C62.3029 41.5412 63.5432 42.7815 63.5432 44.2698C63.5432 45.7581 62.3029 46.9983 60.8146 46.9983Z" fill="black"/>
<path d="M74.7027 54.6063C68.9975 54.6063 64.3672 49.976 64.3672 44.2709C64.3672 38.5657 68.9975 33.9354 74.7027 33.9354C80.4079 33.9354 85.0382 38.5657 85.0382 44.2709C85.0382 49.976 80.4079 54.6063 74.7027 54.6063ZM74.7027 35.5891C69.9071 35.5891 66.0209 39.4752 66.0209 44.2709C66.0209 49.0665 69.9071 52.9527 74.7027 52.9527C79.4984 52.9527 83.3845 49.0665 83.3845 44.2709C83.3845 39.4752 79.4984 35.5891 74.7027 35.5891Z" fill="black"/>
<path d="M80.6527 46.1723C79.1643 46.1723 77.9241 44.932 77.9241 43.4437C77.9241 41.9554 79.1643 40.7152 80.6527 40.7152C82.141 40.7152 83.3812 41.9554 83.3812 43.4437C83.3812 44.932 82.141 46.1723 80.6527 46.1723Z" fill="black"/>
<path d="M234.191 90.7375H145.554V218.732H234.191V90.7375Z" fill="white"/>
<path d="M236.179 220.799H143.491V88.6704H236.262V220.799H236.179ZM147.625 216.665H232.128V92.8046H147.625V216.665Z" fill="black"/>
<path d="M281.146 90.7375H231.205V220.137H281.146V90.7375Z" fill="black"/>
<path d="M283.216 222.204H229.141V88.6704H283.216V222.204ZM233.275 218.07H279.082V92.8046H233.275V218.07Z" fill="black"/>
<path d="M242.295 227V90.7375H258.005V227" fill="white"/>
<path d="M260.076 227H255.942V92.8046H244.366V227H240.232V88.6704H260.076V227Z" fill="black"/>
<path d="M228.896 17.0677H161.344V90.4907H228.896V17.0677Z" fill="white"/>
<path d="M230.967 92.5572H159.28V15H230.967V92.5572ZM163.415 88.4231H226.833V19.1342H163.415V88.4231Z" fill="black"/>
<path d="M264.717 17.0681H226.682V90.4085H264.717V17.0681Z" fill="black"/>
<path d="M266.787 92.5575H224.619V15.0829H266.787V92.5575ZM228.753 88.4233H262.653V19.2171H228.753V88.4233Z" fill="black"/>
<path d="M185.991 73.788H170.446V24.8393H185.991V73.788ZM172.1 72.1343H184.337V26.4929H172.1V72.1343Z" fill="black"/>
<path d="M176.401 25.0875H171.274V72.8786H176.401V25.0875Z" fill="black"/>
<path d="M178.882 46.9991C182.033 46.9991 184.587 44.4448 184.587 41.2939C184.587 38.143 182.033 35.5887 178.882 35.5887C175.731 35.5887 173.177 38.143 173.177 41.2939C173.177 44.4448 175.731 46.9991 178.882 46.9991Z" fill="#FCD559"/>
<path d="M178.876 47.8255C175.238 47.8255 172.344 44.8489 172.344 41.2935C172.344 37.7381 175.321 34.7614 178.876 34.7614C182.432 34.7614 185.408 37.7381 185.408 41.2935C185.408 44.8489 182.514 47.8255 178.876 47.8255ZM178.876 36.4151C176.148 36.4151 173.998 38.6476 173.998 41.2935C173.998 43.9393 176.231 46.1718 178.876 46.1718C181.605 46.1718 183.755 43.9393 183.755 41.2935C183.755 38.6476 181.605 36.4151 178.876 36.4151Z" fill="black"/>
<path d="M169.708 176.895C172.859 176.895 175.413 174.34 175.413 171.189C175.413 168.039 172.859 165.484 169.708 165.484C166.557 165.484 164.003 168.039 164.003 171.189C164.003 174.34 166.557 176.895 169.708 176.895Z" fill="black"/>
<path d="M169.703 177.721C166.065 177.721 163.171 174.745 163.171 171.189C163.171 167.634 166.147 164.657 169.703 164.657C173.258 164.657 176.235 167.634 176.235 171.189C176.235 174.745 173.341 177.721 169.703 177.721ZM169.703 166.311C166.974 166.311 164.824 168.543 164.824 171.189C164.824 173.918 167.057 176.068 169.703 176.068C172.431 176.068 174.581 173.835 174.581 171.189C174.581 168.543 172.431 166.311 169.703 166.311Z" fill="black"/>
<path d="M211.207 72.9619H195.662V24.0132H211.207V72.9619ZM197.316 71.3083H209.553V25.6669H197.316V71.3083Z" fill="black"/>
<path d="M201.617 24.2615H196.491V72.0526H201.617V24.2615Z" fill="black"/>
<path d="M204.099 62.7082C207.25 62.7082 209.804 60.1539 209.804 57.0031C209.804 53.8522 207.25 51.2979 204.099 51.2979C200.948 51.2979 198.394 53.8522 198.394 57.0031C198.394 60.1539 200.948 62.7082 204.099 62.7082Z" fill="#FCD559"/>
<path d="M204.101 63.535C200.463 63.535 197.569 60.5584 197.569 57.003C197.569 53.4476 200.546 50.471 204.101 50.471C207.657 50.471 210.633 53.4476 210.633 57.003C210.633 60.5584 207.74 63.535 204.101 63.535ZM204.101 52.1247C201.373 52.1247 199.223 54.3571 199.223 57.003C199.223 59.6489 201.456 61.8814 204.101 61.8814C206.83 61.8814 208.98 59.6489 208.98 57.003C208.98 54.3571 206.83 52.1247 204.101 52.1247Z" fill="black"/>
<path d="M268.581 107.771C271.732 107.771 274.287 105.217 274.287 102.066C274.287 98.9148 271.732 96.3605 268.581 96.3605C265.431 96.3605 262.876 98.9148 262.876 102.066C262.876 105.217 265.431 107.771 268.581 107.771Z" fill="#FCD559"/>
<path d="M268.584 108.598C264.946 108.598 262.052 105.621 262.052 102.066C262.052 98.5102 265.029 95.5336 268.584 95.5336C272.14 95.5336 275.116 98.5102 275.116 102.066C275.116 105.621 272.222 108.598 268.584 108.598ZM268.584 97.1872C265.856 97.1872 263.706 99.4197 263.706 102.066C263.706 104.711 265.938 106.944 268.584 106.944C271.313 106.944 273.463 104.711 273.463 102.066C273.463 99.4197 271.313 97.1872 268.584 97.1872Z" fill="black"/>
<path d="M207.491 79.8251H177.146V81.4787H207.491V79.8251Z" fill="black"/>
<path d="M214.016 157.547H160.602V133.734C160.602 124.639 168.044 117.197 177.139 117.197H197.479C206.574 117.197 214.016 124.639 214.016 133.734V157.547ZM162.173 155.893H212.28V133.734C212.28 125.548 205.582 118.851 197.396 118.851H177.056C168.871 118.851 162.173 125.548 162.173 133.734V155.893Z" fill="black"/>
<path d="M196.748 123.875L183.007 140.516L186.195 143.148L199.935 126.508L196.748 123.875Z" fill="black"/>
<path d="M185.163 146.881C188.314 146.881 190.869 144.327 190.869 141.176C190.869 138.025 188.314 135.471 185.163 135.471C182.013 135.471 179.458 138.025 179.458 141.176C179.458 144.327 182.013 146.881 185.163 146.881Z" fill="#FCD559"/>
<path d="M185.167 147.708C181.529 147.708 178.635 144.731 178.635 141.176C178.635 137.621 181.611 134.644 185.167 134.644C188.722 134.644 191.699 137.621 191.699 141.176C191.699 144.731 188.805 147.708 185.167 147.708ZM185.167 136.298C182.438 136.298 180.288 138.53 180.288 141.176C180.288 143.905 182.521 146.054 185.167 146.054C187.895 146.054 190.045 143.822 190.045 141.176C190.045 138.53 187.895 136.298 185.167 136.298Z" fill="black"/>
<path d="M166.824 121.922L165.617 123.053L172.569 130.476L173.776 129.346L166.824 121.922Z" fill="black"/>
<path d="M207.465 121.91L202.687 128.144L204 129.15L208.777 122.915L207.465 121.91Z" fill="black"/>
<path d="M188.049 118.107H186.395V127.203H188.049V118.107Z" fill="black"/>
<path d="M264.456 95.7808L263.196 96.8524L273.751 109.259L275.011 108.188L264.456 95.7808Z" fill="black"/>
<path d="M184.92 143.491C186.107 143.491 187.07 142.529 187.07 141.342C187.07 140.154 186.107 139.192 184.92 139.192C183.732 139.192 182.77 140.154 182.77 141.342C182.77 142.529 183.732 143.491 184.92 143.491Z" fill="white"/>
<path d="M184.914 144.318C183.26 144.318 181.938 142.995 181.938 141.341C181.938 139.688 183.26 138.365 184.914 138.365C186.568 138.365 187.891 139.688 187.891 141.341C187.891 142.995 186.568 144.318 184.914 144.318ZM184.914 140.018C184.17 140.018 183.591 140.597 183.591 141.341C183.591 142.086 184.17 142.664 184.914 142.664C185.658 142.664 186.237 142.086 186.237 141.341C186.237 140.597 185.658 140.018 184.914 140.018Z" fill="black"/>
<path d="M167.054 176.895C170.205 176.895 172.759 174.34 172.759 171.189C172.759 168.039 170.205 165.484 167.054 165.484C163.903 165.484 161.349 168.039 161.349 171.189C161.349 174.34 163.903 176.895 167.054 176.895Z" fill="white"/>
<path d="M167.053 177.721C165.978 177.721 164.82 177.473 163.746 176.812C162.257 175.902 161.182 174.497 160.686 172.843C160.273 171.189 160.438 169.37 161.348 167.882C163.167 164.74 167.136 163.665 170.278 165.484C173.42 167.303 174.494 171.272 172.675 174.414C171.518 176.564 169.368 177.721 167.053 177.721ZM167.053 166.311C165.399 166.311 163.746 167.221 162.836 168.792C161.513 171.107 162.257 174.166 164.655 175.489C165.813 176.15 167.136 176.316 168.376 175.985C169.616 175.654 170.691 174.828 171.352 173.67C172.675 171.355 171.931 168.295 169.533 166.973C168.789 166.476 167.88 166.311 167.053 166.311Z" fill="black"/>
<path d="M182.93 176.895C186.081 176.895 188.635 174.34 188.635 171.189C188.635 168.039 186.081 165.484 182.93 165.484C179.779 165.484 177.225 168.039 177.225 171.189C177.225 174.34 179.779 176.895 182.93 176.895Z" fill="black"/>
<path d="M182.933 177.721C179.295 177.721 176.401 174.745 176.401 171.189C176.401 167.634 179.378 164.657 182.933 164.657C186.488 164.657 189.465 167.634 189.465 171.189C189.465 174.745 186.571 177.721 182.933 177.721ZM182.933 166.311C180.205 166.311 178.055 168.543 178.055 171.189C178.055 173.918 180.287 176.068 182.933 176.068C185.662 176.068 187.811 173.835 187.811 171.189C187.811 168.543 185.662 166.311 182.933 166.311Z" fill="black"/>
<path d="M180.276 176.895C183.427 176.895 185.982 174.34 185.982 171.189C185.982 168.039 183.427 165.484 180.276 165.484C177.126 165.484 174.571 168.039 174.571 171.189C174.571 174.34 177.126 176.895 180.276 176.895Z" fill="white"/>
<path d="M180.284 177.721C179.21 177.721 178.052 177.473 176.977 176.812C175.489 175.902 174.414 174.497 173.918 172.843C173.504 171.189 173.67 169.37 174.579 167.882C176.398 164.74 180.367 163.665 183.509 165.484C186.651 167.303 187.726 171.272 185.907 174.414C184.749 176.564 182.6 177.721 180.284 177.721ZM180.284 166.311C178.631 166.311 176.977 167.221 176.068 168.792C174.745 171.107 175.489 174.166 177.887 175.489C179.044 176.15 180.367 176.316 181.607 175.985C182.848 175.654 183.923 174.828 184.584 173.67C185.907 171.355 185.163 168.295 182.765 166.973C182.021 166.476 181.111 166.311 180.284 166.311Z" fill="black"/>
<path d="M195.491 176.895C198.642 176.895 201.196 174.34 201.196 171.189C201.196 168.039 198.642 165.484 195.491 165.484C192.34 165.484 189.786 168.039 189.786 171.189C189.786 174.34 192.34 176.895 195.491 176.895Z" fill="black"/>
<path d="M195.486 177.721C191.848 177.721 188.954 174.745 188.954 171.189C188.954 167.634 191.931 164.657 195.486 164.657C199.041 164.657 202.018 167.634 202.018 171.189C202.018 174.745 199.041 177.721 195.486 177.721ZM195.486 166.311C192.757 166.311 190.608 168.543 190.608 171.189C190.608 173.918 192.84 176.068 195.486 176.068C198.215 176.068 200.364 173.835 200.364 171.189C200.364 168.543 198.132 166.311 195.486 166.311Z" fill="black"/>
<path d="M192.856 176.895C196.007 176.895 198.561 174.34 198.561 171.189C198.561 168.039 196.007 165.484 192.856 165.484C189.705 165.484 187.151 168.039 187.151 171.189C187.151 174.34 189.705 176.895 192.856 176.895Z" fill="white"/>
<path d="M192.855 177.721C191.78 177.721 190.622 177.473 189.547 176.812C188.059 175.902 186.984 174.497 186.488 172.843C186.075 171.189 186.24 169.37 187.15 167.882C188.969 164.74 192.937 163.665 196.079 165.484C199.221 167.303 200.296 171.272 198.477 174.414C197.32 176.564 195.087 177.721 192.855 177.721ZM192.855 166.311C191.201 166.311 189.547 167.221 188.638 168.792C187.315 171.107 188.059 174.166 190.457 175.489C191.614 176.15 192.937 176.316 194.178 175.985C195.418 175.654 196.493 174.828 197.154 173.67C198.477 171.355 197.733 168.295 195.335 166.973C194.508 166.476 193.682 166.311 192.855 166.311Z" fill="black"/>
<path d="M207.16 176.895C210.311 176.895 212.865 174.34 212.865 171.189C212.865 168.039 210.311 165.484 207.16 165.484C204.009 165.484 201.455 168.039 201.455 171.189C201.455 174.34 204.009 176.895 207.16 176.895Z" fill="black"/>
<path d="M207.154 177.721C203.516 177.721 200.622 174.745 200.622 171.189C200.622 167.634 203.599 164.657 207.154 164.657C210.71 164.657 213.686 167.634 213.686 171.189C213.686 174.745 210.792 177.721 207.154 177.721ZM207.154 166.311C204.426 166.311 202.276 168.543 202.276 171.189C202.276 173.918 204.508 176.068 207.154 176.068C209.883 176.068 212.033 173.835 212.033 171.189C212.033 168.543 209.8 166.311 207.154 166.311Z" fill="black"/>
<path d="M204.495 176.895C207.646 176.895 210.201 174.34 210.201 171.189C210.201 168.039 207.646 165.484 204.495 165.484C201.345 165.484 198.79 168.039 198.79 171.189C198.79 174.34 201.345 176.895 204.495 176.895Z" fill="white"/>
<path d="M204.504 177.721C203.429 177.721 202.272 177.473 201.197 176.812C198.055 174.993 196.98 171.024 198.799 167.882C200.618 164.74 204.587 163.665 207.729 165.484C209.217 166.394 210.292 167.799 210.788 169.453C211.201 171.107 211.036 172.926 210.127 174.414C208.969 176.564 206.737 177.721 204.504 177.721ZM204.504 166.311C202.768 166.311 201.197 167.221 200.287 168.792C198.964 171.107 199.708 174.166 202.106 175.489C203.264 176.15 204.587 176.316 205.827 175.985C207.067 175.654 208.142 174.828 208.804 173.67C209.465 172.512 209.63 171.189 209.3 169.949C208.969 168.709 208.142 167.634 206.985 166.973C206.158 166.476 205.331 166.311 204.504 166.311Z" fill="black"/>
<path d="M163.683 165.515L162.333 166.471L169.497 176.595L170.847 175.64L163.683 165.515Z" fill="black"/>
<path d="M185.172 170.363H175.415V172.016H185.172V170.363Z" fill="black"/>
<path d="M193.696 165.484H192.042V176.315H193.696V165.484Z" fill="black"/>
<path d="M208.323 166.971L200.65 175.748L201.895 176.837L209.568 168.059L208.323 166.971Z" fill="black"/>
</g>
<defs>
<clipPath id="clip0_449_31890">
<rect width="285" height="213" rx="15" fill="white"/>
</clipPath>
</defs>
</svg>
