<svg width="285" height="213" viewBox="0 0 285 213" fill="none" xmlns="http://www.w3.org/2000/svg">
<g clip-path="url(#clip0_449_31809)">
<path d="M15.9079 129.467L43.9803 141.311L62.2141 98.0934L34.1416 86.2494L15.9079 129.467Z" fill="white"/>
<path d="M44.4255 142.365L14.8914 129.905L33.7583 85.1865L63.3428 97.6684L44.4759 142.386L44.4255 142.365ZM17.0365 129.042L43.597 140.248L61.1977 98.5311L34.6372 87.325L17.0365 129.042Z" fill="black"/>
<path d="M203.152 171.972C200.027 170.653 196.381 172.12 195.072 175.221C193.764 178.322 195.258 181.958 198.383 183.276C201.507 184.594 205.154 183.128 206.463 180.027C207.771 176.925 206.277 173.29 203.152 171.972Z" fill="black"/>
<path d="M270.718 191.986L209.079 165.98C201.67 162.854 193.09 166.305 189.988 173.658C186.885 181.011 190.401 189.565 197.81 192.691L259.448 218.697C266.857 221.822 275.437 218.372 278.54 211.019C281.621 203.716 278.126 195.112 270.718 191.986ZM197.786 184.726C193.804 183.046 191.929 178.484 193.597 174.532C195.264 170.581 199.84 168.74 203.822 170.42C207.803 172.1 209.678 176.662 208.011 180.614C206.344 184.566 201.767 186.406 197.786 184.726Z" fill="black"/>
<path d="M231.075 109.986C227.95 108.668 224.303 110.134 222.995 113.235C221.687 116.337 223.181 119.972 226.305 121.291C229.43 122.609 233.077 121.142 234.385 118.041C235.694 114.94 234.2 111.304 231.075 109.986Z" fill="black"/>
<path d="M298.883 129.034L237.194 103.007C229.785 99.8817 221.205 103.332 218.102 110.685C215 118.038 218.516 126.592 225.924 129.718L287.563 155.724C294.972 158.85 303.552 155.399 306.654 148.046C309.807 140.714 306.291 132.16 298.883 129.034ZM225.722 122.739C221.741 121.059 219.866 116.497 221.533 112.545C223.2 108.594 227.755 106.803 231.737 108.483C235.719 110.163 237.593 114.725 235.926 118.677C234.259 122.628 229.704 124.419 225.722 122.739Z" fill="black"/>
<path d="M294.01 224.443L258.881 209.622C251.12 206.348 247.429 197.366 250.679 189.663L270.601 142.444C273.851 134.741 282.86 131.117 290.622 134.392L325.75 149.213" fill="black"/>
<path d="M231.855 145.837L225.397 161.143L232.1 163.971L238.558 148.665L231.855 145.837Z" fill="#FCD559"/>
<path d="M232.51 165.032L224.295 161.566L231.365 144.809L239.58 148.275L232.51 165.032ZM226.44 160.703L231.631 162.893L237.435 149.137L232.243 146.947L226.44 160.703Z" fill="black"/>
<path d="M256.164 156.223L249.706 171.529L256.409 174.357L262.867 159.051L256.164 156.223Z" fill="#FCD559"/>
<path d="M256.894 175.444L248.679 171.978L255.77 155.171L263.985 158.637L256.894 175.444ZM250.773 171.094L255.965 173.284L261.789 159.478L256.598 157.288L250.773 171.094Z" fill="black"/>
<path d="M261.096 153.942L251.514 176.652C251.05 177.752 249.763 178.27 248.654 177.802L228.444 169.275C227.335 168.807 226.808 167.524 227.272 166.424L236.853 143.714C237.318 142.614 238.605 142.096 239.714 142.564L259.924 151.091C261.033 151.559 261.56 152.842 261.096 153.942Z" fill="#FCD559"/>
<path d="M248.34 178.553L228.13 170.026C226.618 169.388 225.886 167.606 226.519 166.105L236.1 143.396C236.733 141.895 238.521 141.176 240.033 141.814L260.243 150.341C261.755 150.979 262.487 152.761 261.854 154.262L252.273 176.971C251.64 178.472 249.852 179.19 248.34 178.553ZM239.4 143.315C238.694 143.017 237.907 143.334 237.612 144.034L228.031 166.743C227.735 167.443 228.058 168.227 228.763 168.525L248.973 177.052C249.679 177.35 250.466 177.033 250.761 176.333L260.342 153.624C260.638 152.924 260.315 152.139 259.61 151.842L239.4 143.315Z" fill="black"/>
<path d="M121.112 129.22C119.096 128.37 116.808 129.29 115.964 131.291C115.12 133.291 116.057 135.572 118.073 136.423C121.652 137.933 123.321 141.996 121.823 145.547C120.325 149.099 116.249 150.738 112.671 149.228C110.655 148.378 108.367 149.298 107.522 151.299C106.678 153.299 107.616 155.581 109.632 156.431C116.133 159.174 123.526 156.99 127.491 151.533L141.955 157.636L144.593 151.383L130.129 145.28C131.157 138.761 127.614 131.963 121.112 129.22Z" fill="#FCD559"/>
<path d="M109.265 157.282C106.846 156.262 105.704 153.482 106.717 151.081C107.73 148.68 110.518 147.558 112.937 148.579C116.062 149.897 119.709 148.431 121.017 145.329C122.326 142.228 120.832 138.593 117.707 137.274C115.288 136.254 114.145 133.473 115.158 131.072C116.171 128.671 118.96 127.55 121.379 128.571C127.931 131.335 131.782 137.968 130.929 144.915L145.595 151.103L142.324 158.856L127.708 152.689C123.399 158.119 115.868 160.068 109.265 157.282ZM120.788 129.971C119.175 129.291 117.367 130.06 116.712 131.61C116.037 133.211 116.82 135.014 118.382 135.674C122.364 137.353 124.239 141.916 122.571 145.867C120.904 149.819 116.328 151.659 112.346 149.979C110.734 149.299 108.925 150.068 108.271 151.618C107.595 153.219 108.378 155.022 109.941 155.682C115.938 158.212 123.003 156.243 126.812 151.015L127.216 150.478L141.529 156.517L143.534 151.765L129.221 145.726L129.323 145.062C130.297 138.815 126.836 132.523 120.788 129.971Z" fill="black"/>
<path d="M143.436 158.324C145.301 159.11 147.446 158.248 148.227 156.397C149.008 154.546 148.129 152.408 146.264 151.621C144.399 150.834 142.255 151.697 141.474 153.548C140.693 155.398 141.572 157.537 143.436 158.324Z" fill="white"/>
<path d="M143.123 159.074C140.855 158.117 139.771 155.48 140.72 153.229C141.67 150.978 144.316 149.914 146.584 150.871C148.852 151.828 149.935 154.465 148.986 156.716C148.036 158.967 145.441 160.052 143.123 159.074ZM145.972 152.321C144.51 151.705 142.844 152.416 142.253 153.817C141.662 155.217 142.366 156.928 143.777 157.524C145.238 158.14 146.904 157.429 147.495 156.028C148.086 154.628 147.433 152.938 145.972 152.321Z" fill="black"/>
<path d="M144.482 63.9073C142.466 63.0567 140.178 63.9769 139.334 65.9777C138.49 67.9785 139.427 70.2596 141.443 71.1102C145.022 72.6199 146.692 76.6831 145.193 80.2346C143.695 83.786 139.619 85.4251 136.041 83.9154C134.025 83.0648 131.737 83.985 130.892 85.9858C130.048 87.9866 130.986 90.2677 133.002 91.1183C139.503 93.8613 146.896 91.6773 150.861 86.2202L165.326 92.323L167.942 86.1204L153.478 80.0177C154.549 73.3986 150.984 66.6503 144.482 63.9073Z" fill="#FCD559"/>
<path d="M132.67 91.9184C130.251 90.8977 129.109 88.1176 130.122 85.7167C131.135 83.3157 133.923 82.1942 136.342 83.2149C139.467 84.5332 143.114 83.0667 144.422 79.9654C145.731 76.8641 144.237 73.2287 141.112 71.9103C138.693 70.8896 137.55 68.1095 138.563 65.7086C139.576 63.3076 142.365 62.1861 144.784 63.2068C151.336 65.9711 155.187 72.6044 154.334 79.5511L169 85.7389L165.729 93.492L151.113 87.3255C146.783 92.805 139.273 94.704 132.67 91.9184ZM144.172 64.6574C142.559 63.9769 140.75 64.7458 140.096 66.2965C139.442 67.8471 140.204 69.7005 141.766 70.3597C145.748 72.0395 147.623 76.6017 145.955 80.5533C144.288 84.5049 139.712 86.3453 135.73 84.6655C134.118 83.985 132.309 84.7539 131.655 86.3046C131 87.8552 131.762 89.7086 133.325 90.3678C139.322 92.8982 146.387 90.9292 150.196 85.701L150.6 85.1645L164.913 91.2034L166.918 86.4515L152.605 80.4126L152.707 79.7485C153.702 73.4508 150.22 67.209 144.172 64.6574Z" fill="black"/>
<path d="M166.838 92.958C168.703 93.7448 170.848 92.8822 171.629 91.0313C172.409 89.1804 171.531 87.0421 169.666 86.2553C167.801 85.4685 165.656 86.3311 164.875 88.182C164.094 90.0329 164.973 92.1712 166.838 92.958Z" fill="white"/>
<path d="M166.507 93.7585C164.239 92.8017 163.155 90.1642 164.104 87.9132C165.054 85.6623 167.7 84.5983 169.968 85.5552C172.236 86.5121 173.32 89.1496 172.37 91.4005C171.42 93.6514 168.825 94.7367 166.507 93.7585ZM169.356 87.0058C167.894 86.3892 166.228 87.1006 165.637 88.5011C165.047 89.9017 165.75 91.6125 167.161 92.2079C168.622 92.8246 170.288 92.1132 170.879 90.7126C171.47 89.312 170.817 87.6225 169.356 87.0058Z" fill="black"/>
<path d="M77.5652 44.5114L62.143 38.0046L64.7757 37.1119C68.1527 36.003 70.0086 32.3078 68.8252 28.9212C67.6921 25.5558 63.9672 23.6897 60.5691 24.8486L42.7543 30.7672C41.724 31.0985 40.8108 31.7149 40.1497 32.4377C39.9141 32.574 39.6785 32.7103 39.4428 32.8466C36.5181 34.8534 35.7417 38.9452 37.8255 41.8867L48.5664 57.3782C50.5997 60.2984 54.7173 61.0929 57.6631 59.036C60.2596 57.2442 61.1356 53.9016 59.9215 51.1502L72.5718 56.4875C75.8982 57.8909 79.7089 56.3168 81.0807 53.0655C82.4524 49.8141 80.8916 45.9148 77.5652 44.5114Z" fill="white"/>
<path d="M51.0417 60.3684C49.7817 59.8368 48.6694 58.955 47.8561 57.7869L37.1152 42.2954C34.8346 38.9762 35.6286 34.4205 38.953 32.1698C39.1382 32.0123 39.3527 31.926 39.5884 31.7897C40.4136 30.9594 41.3772 30.3642 42.4286 29.9829L60.3653 24.0569C62.1822 23.4093 64.1994 23.5533 65.9716 24.4188C67.7437 25.2844 69.0693 26.7864 69.6586 28.626C70.248 30.4656 70.1353 32.4215 69.2747 34.1797C68.4142 35.9379 66.9114 37.2483 65.0652 37.8247L64.4428 38.0334L77.849 43.6896C81.5786 45.2632 83.3363 49.5402 81.7746 53.2417C80.2129 56.9432 75.9227 58.6686 72.1932 57.0951L61.1053 52.417C61.5586 55.142 60.4272 57.9644 58.037 59.5486C56.4463 60.6452 54.4912 61.0577 52.5584 60.7137C52.0708 60.7436 51.5457 60.581 51.0417 60.3684ZM64.8848 25.728C63.6249 25.1964 62.2253 25.1363 60.8586 25.5614L43.0227 31.5299C42.1354 31.8037 41.3863 32.3126 40.7463 32.9853L40.6537 33.0641L40.5107 33.1216C40.2751 33.2579 40.0606 33.3442 39.8964 33.4517C38.6551 34.2832 37.8122 35.5775 37.5236 37.1056C37.2351 38.6338 37.5561 40.1245 38.4703 41.3351L49.2616 56.8479C50.1042 58.0873 51.4099 58.9328 52.9477 59.228C54.4351 59.502 55.9823 59.212 57.1944 58.3093C59.4416 56.7825 60.2495 53.8826 59.1526 51.4164L58.3406 49.5417L72.8556 55.6657C75.7788 56.899 79.089 55.5262 80.2919 52.6751C81.516 49.7739 80.118 46.4736 77.2452 45.2615L59.8574 37.9255L64.5508 36.3702C65.9891 35.9164 67.1425 34.871 67.8343 33.513C68.526 32.155 68.6422 30.613 68.1278 29.1586C67.5548 27.5616 66.3464 26.3447 64.8848 25.728Z" fill="black"/>
<path d="M75.0024 57.0935C77.0344 57.9508 79.7776 56.048 81.1296 52.8435C82.4816 49.6389 81.9305 46.3461 79.8985 45.4888C77.8666 44.6316 75.1233 46.5344 73.7713 49.7389C72.4193 52.9435 72.9705 56.2363 75.0024 57.0935Z" fill="white"/>
<path d="M74.6884 57.8437C72.1684 56.7805 71.4773 53.0713 73.0179 49.4198C74.5584 45.7683 77.748 43.6964 80.2176 44.7384C82.6872 45.7803 83.4287 49.5108 81.8882 53.1623C80.398 56.835 77.2084 58.9069 74.6884 57.8437ZM79.5845 46.239C77.9717 45.5585 75.6906 47.3066 74.5298 50.0577C73.3691 52.8088 73.7591 55.6839 75.3215 56.3431C76.9343 57.0235 79.2155 55.2755 80.3762 52.5243C81.5873 49.7945 81.1973 46.9194 79.5845 46.239Z" fill="black"/>
<path d="M17.7317 125.145L45.8042 136.989L64.038 93.7711L35.9655 81.9271L17.7317 125.145Z" fill="white"/>
<path d="M46.2493 138.061L16.7153 125.6L35.5822 80.8823L65.1666 93.3642L46.2997 138.082L46.2493 138.061ZM18.8604 124.738L45.4209 135.944L63.0215 94.2269L36.461 83.0208L18.8604 124.738Z" fill="black"/>
<path d="M24.4968 58.7095L27.4833 59.7928L32.4543 81.9243L15.2011 129.15L5.35962 99.4246L24.4968 58.7095Z" fill="white"/>
<path d="M14.8907 129.9C14.6891 129.815 14.5298 129.63 14.4419 129.416L4.60038 99.6907C4.51249 99.4768 4.54651 99.2555 4.60982 99.1054L23.747 58.3903C23.9159 57.9902 24.3449 57.8176 24.7481 57.9878L27.785 59.0923C28.037 59.1986 28.2468 59.4049 28.3135 59.6688L33.2845 81.8003C33.3431 81.9429 33.3302 82.1142 33.2668 82.2643L16.0137 129.49C15.8871 129.79 15.6092 130.026 15.2435 130.049C15.0923 129.985 14.9915 129.942 14.8907 129.9ZM6.22732 99.4932L15.2369 126.687L31.6493 81.8764L26.7991 60.444L24.8921 59.7573L6.22732 99.4932Z" fill="black"/>
<path d="M27.4604 59.7932L36.3757 80.8783L17.2335 124.42L9.27604 101.205L27.4604 59.7932Z" fill="white"/>
<path d="M16.9175 125.17C16.7159 125.085 16.5565 124.9 16.4686 124.686L8.46078 101.45C8.42329 101.257 8.3858 101.065 8.47022 100.864L26.705 59.474C26.8316 59.1739 27.1387 59.0089 27.454 58.9651C27.7986 58.9927 28.0799 59.1703 28.1971 59.4554L37.0831 80.4692C37.171 80.6831 37.1874 80.9257 37.1029 81.1258L17.9607 124.667C17.8341 124.967 17.5059 125.182 17.1613 125.155C17.1402 125.205 17.0183 125.212 16.9175 125.17ZM10.1381 101.274L17.3515 122.171L35.4936 80.8593L27.4572 61.9127L10.1381 101.274Z" fill="black"/>
<path d="M25.7612 70.7905L31.6462 84.7047L18.9945 113.425L13.7509 98.1315L25.7612 70.7905Z" fill="white"/>
<path d="M18.6785 114.175C18.4769 114.09 18.3175 113.905 18.2296 113.691L12.9356 98.3766C12.8981 98.184 12.8606 97.9914 12.9451 97.7913L24.9554 70.4503C25.082 70.1502 25.3892 69.9852 25.7045 69.9414C26.0491 69.969 26.3304 70.1466 26.4475 70.4317L32.3325 84.3459C32.4204 84.5597 32.4367 84.8023 32.3523 85.0024L19.7511 113.744C19.6244 114.044 19.2962 114.259 18.9516 114.232C18.9012 114.21 18.7793 114.218 18.6785 114.175ZM14.6341 98.1504L19.1125 111.177L30.7641 84.6859L25.7792 72.8602L14.6341 98.1504Z" fill="black"/>
<path d="M14.512 131.091C16.9615 132.124 19.7786 130.991 20.8043 128.56C21.83 126.129 20.6758 123.321 18.2263 122.287C15.7768 121.254 12.9597 122.387 11.934 124.818C10.9083 127.249 12.0625 130.057 14.512 131.091Z" fill="white"/>
<path d="M14.198 131.842C11.3252 130.63 9.97762 127.35 11.1805 124.499C12.3835 121.648 15.6726 120.325 18.5454 121.537C21.4182 122.749 22.7658 126.029 21.5628 128.88C20.3599 131.731 17.0204 133.032 14.198 131.842ZM17.8912 123.088C15.8752 122.237 13.5156 123.186 12.6714 125.187C11.8273 127.188 12.794 129.54 14.81 130.391C16.826 131.242 19.1856 130.293 20.0297 128.292C20.8739 126.291 19.9071 123.939 17.8912 123.088Z" fill="black"/>
<path d="M42.8398 133.615L22.2768 124.939C21.8736 124.769 21.6686 124.27 21.8374 123.87L37.7708 86.1048C37.9397 85.7046 38.4402 85.5033 38.8434 85.6735L59.4064 94.3491C59.8096 94.5192 60.0146 95.0182 59.8458 95.4184L43.9124 133.184C43.7435 133.584 43.243 133.785 42.8398 133.615ZM23.6659 123.758L42.7169 131.795L58.0173 95.5308L38.9663 87.493L23.6659 123.758Z" fill="black"/>
<path d="M56.4932 101.252L35.9302 92.576C35.5271 92.4059 35.322 91.9069 35.4908 91.5067C35.6596 91.1066 36.1602 90.9053 36.5634 91.0754L57.1263 99.751C57.5295 99.9212 57.7346 100.42 57.5658 100.82C57.3969 101.22 56.8964 101.422 56.4932 101.252Z" fill="black"/>
<path d="M54.2216 106.653L33.6586 97.9777C33.2554 97.8076 33.0504 97.3086 33.2192 96.9084C33.388 96.5083 33.8886 96.307 34.2918 96.4771L54.8547 105.153C55.2579 105.323 55.463 105.822 55.2942 106.222C55.1253 106.622 54.6248 106.823 54.2216 106.653Z" fill="black"/>
<path d="M51.9501 112.007L31.3872 103.331C30.984 103.161 30.7789 102.662 30.9477 102.262C31.1166 101.861 31.6171 101.66 32.0203 101.83L52.5833 110.506C52.9864 110.676 53.1915 111.175 53.0227 111.575C52.8539 111.975 52.3533 112.177 51.9501 112.007Z" fill="black"/>
<path d="M49.6873 117.406L29.1243 108.73C28.7211 108.56 28.5161 108.061 28.6849 107.661C28.8537 107.26 29.3543 107.059 29.7575 107.229L50.3204 115.905C50.7236 116.075 50.9287 116.574 50.7599 116.974C50.591 117.374 50.0905 117.576 49.6873 117.406Z" fill="black"/>
<path d="M47.3983 122.811L26.8353 114.135C26.4321 113.965 26.227 113.466 26.3958 113.066C26.5647 112.666 27.0652 112.464 27.4684 112.634L48.0314 121.31C48.4346 121.48 48.6396 121.979 48.4708 122.379C48.302 122.779 47.8014 122.981 47.3983 122.811Z" fill="black"/>
<path d="M45.1441 128.21L24.5811 119.535C24.1779 119.364 23.9729 118.865 24.1417 118.465C24.3105 118.065 24.811 117.864 25.2142 118.034L45.7772 126.71C46.1804 126.88 46.3855 127.379 46.2167 127.779C46.0478 128.179 45.5473 128.38 45.1441 128.21Z" fill="black"/>
<path d="M26.4095 126.681C26.0063 126.511 25.8013 126.012 25.9701 125.612L41.9035 87.8466C42.0724 87.4464 42.5729 87.2451 42.9761 87.4152C43.3793 87.5853 43.5843 88.0843 43.4155 88.4845L27.4821 126.25C27.3132 126.65 26.8127 126.851 26.4095 126.681Z" fill="black"/>
<path d="M30.4984 128.406C30.0952 128.236 29.8901 127.737 30.0589 127.337L45.9924 89.5712C46.1612 89.1711 46.6618 88.9698 47.065 89.1399C47.4681 89.31 47.6732 89.809 47.5044 90.2091L31.5709 127.974C31.4021 128.375 30.9016 128.576 30.4984 128.406Z" fill="black"/>
<path d="M34.6308 130.148C34.2276 129.978 34.0226 129.479 34.1914 129.079L50.1248 91.3134C50.2937 90.9133 50.7942 90.712 51.1974 90.8821C51.6006 91.0522 51.8057 91.5512 51.6368 91.9513L35.7034 129.717C35.5345 130.117 35.034 130.318 34.6308 130.148Z" fill="black"/>
<path d="M38.7284 131.87C38.3252 131.7 38.1201 131.201 38.2889 130.801L54.2224 93.0359C54.3912 92.6357 54.8917 92.4344 55.2949 92.6045C55.6981 92.7747 55.9032 93.2736 55.7344 93.6738L39.8009 131.439C39.6321 131.839 39.1316 132.041 38.7284 131.87Z" fill="black"/>
<path d="M239.821 157.147C237.402 156.127 236.31 153.368 237.302 151.017C238.294 148.666 241.082 147.544 243.451 148.544C245.82 149.543 246.962 152.323 245.97 154.674C244.979 157.025 242.24 158.168 239.821 157.147ZM242.839 149.994C241.277 149.335 239.489 150.054 238.835 151.605C238.181 153.155 238.913 154.937 240.475 155.597C242.038 156.256 243.825 155.537 244.48 153.986C245.134 152.436 244.401 150.654 242.839 149.994Z" fill="black"/>
<path d="M247.321 165.093C246.918 164.922 246.713 164.423 246.882 164.023C247.05 163.623 247.551 163.422 247.954 163.592C249.517 164.251 251.304 163.532 251.958 161.982C252.613 160.431 251.88 158.649 250.318 157.99C249.915 157.82 249.71 157.321 249.878 156.92C250.047 156.52 250.548 156.319 250.951 156.489C253.37 157.51 254.462 160.269 253.47 162.619C252.478 164.97 249.74 166.113 247.321 165.093Z" fill="black"/>
<path d="M237.842 151.253C237.019 153.204 237.956 155.485 239.922 156.314L242.94 149.161C240.974 148.332 238.686 149.252 237.842 151.253Z" fill="black"/>
<path d="M235.322 168.34C232.903 167.32 231.81 164.561 232.802 162.21C233.794 159.859 236.583 158.737 238.952 159.737C241.32 160.736 242.463 163.516 241.471 165.867C240.479 168.218 237.741 169.361 235.322 168.34ZM238.319 161.238C236.756 160.578 234.969 161.297 234.314 162.848C233.66 164.398 234.393 166.181 235.955 166.84C237.517 167.499 239.305 166.78 239.959 165.229C240.613 163.679 239.881 161.897 238.319 161.238Z" fill="black"/>
<path d="M233.364 162.445C232.541 164.396 233.478 166.677 235.444 167.506L238.44 160.404C236.475 159.574 234.187 160.494 233.364 162.445Z" fill="black"/>
<path d="M124.913 71.9068L93.6149 58.7019L92.9818 60.2025L124.28 73.4074L124.913 71.9068Z" fill="black"/>
<path d="M111.109 79.7477L110.444 78.2295L124.35 72.4294L118.443 58.5653L119.966 57.9114L126.538 73.2937L111.109 79.7477Z" fill="black"/>
<path d="M100.843 133.876L69.5449 120.671L68.9118 122.172L100.21 135.377L100.843 133.876Z" fill="black"/>
<path d="M87.0223 141.716L86.3566 140.198L100.262 134.398L94.3563 120.533L95.8789 119.879L102.429 135.312L87.0223 141.716Z" fill="black"/>
<path d="M184.952 170.121L153.654 156.916L153.021 158.417L184.319 171.622L184.952 170.121Z" fill="black"/>
<path d="M171.089 177.941L170.474 176.444L184.38 170.644L178.474 156.78L179.996 156.126L186.547 171.558L171.089 177.941Z" fill="black"/>
<path d="M214.22 108.637L182.922 95.432L182.289 96.9326L213.587 110.137L214.22 108.637Z" fill="black"/>
<path d="M200.399 116.427L199.712 114.959L213.69 109.13L207.733 95.2443L209.256 94.5904L215.806 110.023L200.399 116.427Z" fill="black"/>
</g>
<defs>
<clipPath id="clip0_449_31809">
<rect width="285" height="213" rx="15" fill="white"/>
</clipPath>
</defs>
</svg>
