<svg width="173" height="140" viewBox="0 0 173 140" fill="none" xmlns="http://www.w3.org/2000/svg">
<g clip-path="url(#clip0_690_33549)">
<path d="M171.415 112.061C171.415 115.635 169.435 119.104 165.712 122.321C161.991 125.537 156.576 128.456 149.842 130.918C136.379 135.839 117.746 138.893 97.1402 138.893C76.5345 138.893 57.9016 135.839 44.438 130.918C37.7042 128.456 32.2899 125.537 28.5684 122.321C24.8454 119.104 22.8652 115.635 22.8652 112.061C22.8652 108.487 24.8454 105.018 28.5684 101.8C32.2899 98.5843 37.7042 95.6653 44.438 93.2039C57.9016 88.2827 76.5345 85.229 97.1402 85.229C117.746 85.229 136.379 88.2827 149.842 93.2039C156.576 95.6653 161.991 98.5843 165.712 101.8C169.435 105.018 171.415 108.487 171.415 112.061Z" fill="white" stroke="black"/>
<path d="M97.1399 139.5C77.1282 139.5 58.3644 136.651 44.2269 131.513C37.0987 128.883 31.5935 125.828 27.8791 122.514C24.1659 119.201 22.2803 115.667 22.2803 112.061C22.2803 108.453 24.1524 104.919 27.8576 101.607C31.5643 98.2935 37.0692 95.2383 44.2266 92.6085C58.364 87.4712 77.128 84.6216 97.1399 84.6216C117.152 84.6216 135.917 87.4713 150.054 92.6089L150.224 92.1401L150.054 92.6089C157.211 95.2081 162.715 98.2631 166.422 101.584C170.127 104.903 172 108.453 172 112.061C172 115.668 170.127 119.202 166.422 122.515C162.716 125.828 157.211 128.883 150.054 131.513C135.916 136.65 117.152 139.5 97.1399 139.5ZM97.1399 84.8363C76.6354 84.8363 58.0279 87.833 44.5286 92.6934C37.7811 95.1229 32.2833 98.0274 28.4628 101.278C24.6444 104.526 22.4495 108.168 22.4495 112.061C22.4495 115.953 24.6444 119.595 28.4628 122.844C32.2833 126.094 37.7811 128.999 44.5286 131.428C58.0279 136.289 76.6354 139.285 97.1399 139.285C117.644 139.285 136.252 136.289 149.751 131.428C156.499 128.999 161.997 126.094 165.817 122.844C169.635 119.595 171.83 115.953 171.83 112.061C171.83 108.168 169.635 104.526 165.817 101.278C161.997 98.0274 156.499 95.1229 149.751 92.6934C136.252 87.833 117.644 84.8363 97.1399 84.8363Z" fill="black" stroke="black"/>
<path d="M153.701 111.575C153.701 113.876 152.272 116.151 149.494 118.295C146.722 120.434 142.681 122.382 137.641 124.027C127.568 127.315 113.621 129.357 98.1927 129.357C82.7644 129.357 68.8172 127.315 58.7441 124.027C53.7049 122.382 49.663 120.434 46.8914 118.295C44.113 116.151 42.6846 113.876 42.6846 111.575C42.6846 109.274 44.113 106.999 46.8914 104.855C49.663 102.716 53.7049 100.768 58.7441 99.123C68.8172 95.8349 82.7644 93.793 98.1927 93.793C113.621 93.793 127.568 95.8349 137.641 99.123C142.681 100.768 146.722 102.716 149.494 104.855C152.272 106.999 153.701 109.274 153.701 111.575Z" fill="black" stroke="black"/>
<path d="M58.574 98.7092L58.5735 98.7094C53.4576 100.389 49.3948 102.37 46.6003 104.52C43.817 106.662 42.2104 109.038 42.2104 111.514C42.2104 113.989 43.8159 116.381 46.5996 118.53C49.3945 120.689 53.4577 122.669 58.5746 124.319C69.1629 127.802 83.2496 129.689 98.1924 129.689C113.136 129.689 127.165 127.802 137.811 124.319L137.811 124.319C142.927 122.639 146.99 120.658 149.785 118.508C152.568 116.366 154.174 113.99 154.174 111.514C154.174 109.039 152.569 106.648 149.785 104.498C146.99 102.34 142.927 100.359 137.811 98.7092C127.222 95.226 113.135 93.3396 98.1924 93.3396C83.2485 93.3396 69.2201 95.2262 58.574 98.7092ZM98.1924 129.964C82.3568 129.964 68.265 127.888 58.1498 124.508C53.0897 122.818 49.0527 120.81 46.2908 118.595C43.5257 116.377 42.0996 114.004 42.0996 111.575C42.0996 109.146 43.5257 106.773 46.2908 104.555C49.0527 102.34 53.0897 100.332 58.1498 98.6413C68.265 95.2617 82.3568 93.1855 98.1924 93.1855C114.028 93.1855 128.12 95.2617 138.235 98.6413C143.295 100.332 147.332 102.34 150.094 104.555C152.859 106.773 154.285 109.146 154.285 111.575C154.285 114.004 152.859 116.377 150.094 118.595C147.332 120.81 143.295 122.818 138.235 124.508C128.12 127.888 114.028 129.964 98.1924 129.964Z" fill="black" stroke="black"/>
<mask id="path-5-inside-1_690_33549" fill="white">
<path d="M153.85 28.1216V75.9828C153.85 101.614 133.68 122.508 109.067 122.508H79.6015C54.9299 122.508 34.8184 101.553 34.8184 75.9828V28.1216"/>
</mask>
<path d="M153.85 28.1216V75.9828C153.85 101.614 133.68 122.508 109.067 122.508H79.6015C54.9299 122.508 34.8184 101.553 34.8184 75.9828V28.1216" fill="white"/>
<path d="M152.85 28.1216V75.9828H154.85V28.1216H152.85ZM152.85 75.9828C152.85 101.097 133.093 121.508 109.067 121.508V123.508C134.267 123.508 154.85 102.131 154.85 75.9828H152.85ZM109.067 121.508H79.6015V123.508H109.067V121.508ZM79.6015 121.508C55.5186 121.508 35.8184 101.038 35.8184 75.9828H33.8184C33.8184 102.068 54.3411 123.508 79.6015 123.508V121.508ZM35.8184 75.9828V28.1216H33.8184V75.9828H35.8184Z" fill="black" mask="url(#path-5-inside-1_690_33549)"/>
<path d="M109.067 122.615H79.6012C54.8727 122.615 34.7334 101.72 34.7334 75.9828V28.6216H34.9027V75.9828C34.9027 101.568 54.9279 122.4 79.6012 122.4H109.067C133.74 122.4 153.765 101.568 153.765 75.9828V28.6216H153.935V75.9828C153.935 101.72 133.795 122.615 109.067 122.615Z" fill="black" stroke="black"/>
<path d="M153.409 25.6312C153.409 28.4426 151.854 31.1845 148.9 33.7405C145.947 36.2953 141.646 38.6187 136.288 40.58C125.575 44.5009 110.742 46.936 94.3342 46.936C77.9261 46.936 63.0933 44.5009 52.3806 40.58C47.0222 38.6187 42.721 36.2953 39.7686 33.7405C36.8149 31.1845 35.2598 28.4426 35.2598 25.6312C35.2598 22.8198 36.8149 20.0779 39.7686 17.5219C42.721 14.9671 47.0222 12.6436 52.3806 10.6824C63.0933 6.76146 77.9261 4.32642 94.3342 4.32642C110.742 4.32642 125.575 6.76146 136.288 10.6824C141.646 12.6436 145.947 14.9671 148.9 17.5219C151.854 20.0779 153.409 22.8198 153.409 25.6312Z" fill="white" stroke="black"/>
<path d="M52.1795 41.1361L52.1772 41.1352C46.4532 39.0524 42.0595 36.6049 39.1056 33.9522C36.1531 31.3008 34.6748 28.4801 34.6748 25.6311C34.6748 22.7822 36.1531 19.9615 39.1056 17.3101C42.0595 14.6574 46.4532 12.2098 52.1772 10.127L52.1773 10.127C63.4506 6.02184 78.4149 3.71899 94.3339 3.71899C110.255 3.71899 125.217 5.96158 136.488 10.1262L136.491 10.127C142.215 12.2098 146.608 14.6574 149.562 17.3101C152.515 19.9615 153.993 22.7822 153.993 25.6311C153.993 28.4801 152.515 31.3008 149.562 33.9522C146.608 36.6049 142.215 39.0524 136.491 41.1352L136.49 41.1356C125.276 45.2403 110.312 47.5433 94.3339 47.5433C78.413 47.5433 63.4503 45.3007 52.1795 41.1361ZM52.2443 10.3414L52.244 10.3415C46.8023 12.3278 42.4738 14.6923 39.4963 17.274C36.523 19.852 34.8441 22.696 34.8441 25.6311C34.8441 28.5649 36.5068 31.4088 39.4739 33.9879C42.4445 36.57 46.7733 38.9346 52.2443 40.9209C63.4805 45.0157 78.4501 47.2678 94.3339 47.2678C110.218 47.2678 125.187 45.0157 136.423 40.9209L136.424 40.9208C141.865 38.9345 146.194 36.5699 149.171 33.9883C152.145 31.4103 153.824 28.5663 153.824 25.6311C153.824 22.6974 152.161 19.8535 149.194 17.2744C146.223 14.6923 141.894 12.3277 136.423 10.3414C125.187 6.24658 110.218 3.99448 94.3339 3.99448C78.4501 3.99448 63.4805 6.24658 52.2443 10.3414Z" fill="black" stroke="black"/>
<path d="M139.377 25.2669C139.377 27.0561 138.266 28.8441 136.062 30.5451C133.864 32.2408 130.653 33.7894 126.64 35.0991C118.619 37.7167 107.507 39.344 95.2111 39.344C82.9148 39.344 71.803 37.7167 63.7825 35.0991C59.7695 33.7894 56.5581 32.2408 54.3605 30.5451C52.1559 28.8441 51.0449 27.0561 51.0449 25.2669C51.0449 23.4778 52.1559 21.6898 54.3605 19.9888C56.5581 18.2931 59.7695 16.7444 63.7825 15.4348C71.803 12.8172 82.9148 11.1899 95.2111 11.1899C107.507 11.1899 118.619 12.8172 126.64 15.4348C130.653 16.7444 133.864 18.2931 136.062 19.9888C138.266 21.6898 139.377 23.4778 139.377 25.2669Z" fill="white" stroke="black"/>
<path d="M95.2108 39.9513C82.5616 39.9513 71.3056 38.2852 63.2296 35.5738C59.1891 34.2173 55.9725 32.6084 53.7761 30.8375C51.5768 29.0643 50.46 27.1809 50.46 25.2669C50.46 23.3529 51.5768 21.4695 53.7761 19.6963C55.9725 17.9254 59.1891 16.3165 63.2296 14.96C71.3056 12.2486 82.5616 10.5825 95.2108 10.5825C107.86 10.5825 119.116 12.2486 127.192 14.96C131.233 16.3165 134.449 17.9254 136.645 19.6963C138.845 21.4695 139.962 23.3529 139.962 25.2669C139.962 27.1809 138.845 29.0643 136.645 30.8375C134.449 32.6084 131.233 34.2173 127.192 35.5738C119.116 38.2852 107.86 39.9513 95.2108 39.9513ZM95.2108 10.7973C83.2165 10.7973 72.1433 12.3961 64.0522 14.9583C60.0096 16.2385 56.684 17.7678 54.3582 19.4784C52.0445 21.1801 50.6292 23.1323 50.6292 25.2669C50.6292 27.4015 52.0445 29.3537 54.3582 31.0554C56.684 32.766 60.0096 34.2953 64.0522 35.5755C72.1433 38.1377 83.2165 39.7365 95.2108 39.7365C107.205 39.7365 118.278 38.1377 126.369 35.5755C130.412 34.2953 133.738 32.766 136.063 31.0554C138.377 29.3537 139.792 27.4015 139.792 25.2669C139.792 23.1317 138.373 21.1795 136.055 19.4781C133.724 17.7676 130.393 16.2385 126.347 14.9583C118.249 12.3961 107.176 10.7973 95.2108 10.7973Z" fill="black" stroke="black"/>
<path d="M44.465 97.5911H26.1659C12.6617 97.5911 1.58496 86.1707 1.58496 72.0347C1.58496 57.8986 12.6617 46.4783 26.1659 46.4783H44.465C47.8542 46.4783 50.6298 49.3339 50.6298 52.9024C50.6298 56.4708 47.8542 59.3264 44.465 59.3264H26.1659C19.3824 59.3264 13.9147 65.0348 13.9147 72.0347C13.9147 79.0345 19.3824 84.7429 26.1659 84.7429H44.465C47.8542 84.7429 50.6298 87.5985 50.6298 91.167C50.6298 94.7384 47.9099 97.5911 44.465 97.5911Z" fill="#AACCF1" stroke="black"/>
<path d="M44.4647 98.6984H26.1655C12.0173 98.6984 0.5 86.7331 0.5 72.0346C0.5 57.3361 12.0173 45.3708 26.1655 45.3708H44.4647C48.4986 45.3708 51.7141 48.7722 51.7141 52.9023C51.7141 57.0325 48.4402 60.4338 44.4647 60.4338H26.1655C20.0269 60.4338 14.999 65.5964 14.999 71.9739C14.999 78.3513 19.9684 83.5748 26.1655 83.5748H44.4647C48.4986 83.5748 51.7141 86.9761 51.7141 91.1062C51.7726 95.3578 48.4986 98.6984 44.4647 98.6984ZM26.1655 46.5856C12.6604 46.5856 1.66927 58.0043 1.66927 72.0346C1.66927 86.065 12.6604 97.4837 26.1655 97.4837H44.4647C47.8555 97.4837 50.5449 94.629 50.5449 91.167C50.5449 87.7049 47.7971 84.8502 44.4647 84.8502H26.1655C19.3838 84.8502 13.8297 79.1409 13.8297 72.0346C13.8297 64.9891 19.3253 59.2797 26.1655 59.2797H44.4647C47.8555 59.2797 50.5449 56.4251 50.5449 52.963C50.5449 49.501 47.8555 46.5856 44.4647 46.5856H26.1655Z" fill="black"/>
<path d="M84.2783 20.4078V11.9045C84.2783 8.56395 86.9092 5.77002 90.1831 5.77002C93.3986 5.77002 96.088 8.50321 96.088 11.9045V20.4078" fill="white"/>
<path d="M96.6723 20.4077H95.503V11.9045C95.503 8.86759 93.106 6.37735 90.1828 6.37735C87.2596 6.37735 84.8626 8.86759 84.8626 11.9045V20.4077H83.6934V11.9045C83.6934 8.19947 86.6165 5.1626 90.1828 5.1626C93.7491 5.1626 96.6723 8.19947 96.6723 11.9045V20.4077Z" fill="black"/>
<path d="M98.7956 12.0727H80.7518C80.849 8.90964 81.8635 6.06622 83.4344 3.99164C85.0875 1.80851 87.3339 0.5 89.7737 0.5C92.2135 0.5 94.4599 1.80851 96.113 3.99164C97.6839 6.06622 98.6984 8.90964 98.7956 12.0727Z" fill="#AACCF1" stroke="black"/>
<path d="M89.9492 25.8741C81.9982 25.8741 77.6719 23.2624 77.6719 20.7722C77.6719 20.4077 77.9057 20.1648 78.2565 20.1648C78.6073 20.1648 78.8411 20.4077 78.8411 20.7722C78.8411 22.5943 83.4013 24.6594 89.9492 24.6594C96.4972 24.6594 101.057 22.5943 101.057 20.7722C101.057 20.4077 101.291 20.1648 101.642 20.1648C101.993 20.1648 102.227 20.4077 102.227 20.7722C102.227 23.2017 97.9003 25.8741 89.9492 25.8741Z" fill="black"/>
<path d="M108.073 19.0575C108.044 19.0575 108.027 19.0524 108.019 19.0495C108.013 19.0468 108.01 19.0446 108.01 19.0437C108.009 19.0427 108.004 19.038 108 19.0251C107.995 19.0119 107.989 18.9878 107.989 18.9501C107.989 18.2803 107.575 17.683 106.997 17.1929C106.41 16.6937 105.579 16.2398 104.568 15.8558C102.541 15.086 99.7022 14.5629 96.3805 14.5629C96.3508 14.5629 96.334 14.5578 96.3267 14.5549C96.3199 14.5522 96.3177 14.55 96.3169 14.5491C96.3159 14.5481 96.3116 14.5434 96.3068 14.5306C96.3019 14.5173 96.2959 14.4932 96.2959 14.4555C96.2959 14.4178 96.3019 14.3937 96.3068 14.3805C96.3116 14.3677 96.3159 14.3629 96.3169 14.3619C96.3177 14.3611 96.3199 14.3588 96.3267 14.3561C96.334 14.3532 96.3508 14.3481 96.3805 14.3481C100.308 14.3481 103.3 14.9941 105.29 15.9187C107.317 16.8605 108.158 18.0094 108.158 18.9501C108.158 18.9775 108.146 19.0106 108.125 19.0335C108.116 19.0435 108.108 19.0491 108.101 19.0521C108.096 19.0547 108.087 19.0575 108.073 19.0575Z" fill="black" stroke="black"/>
<path d="M90.5335 29.5651C84.7314 29.5651 79.5635 28.6751 75.8648 27.2378C74.014 26.5186 72.5566 25.6723 71.5703 24.7538C70.5856 23.8368 70.1035 22.8821 70.1035 21.9262C70.1035 21.8885 70.1095 21.8644 70.1144 21.8512C70.1192 21.8384 70.1236 21.8336 70.1245 21.8326C70.1253 21.8318 70.1275 21.8295 70.1343 21.8268C70.1416 21.8239 70.1584 21.8188 70.1882 21.8188C70.2179 21.8188 70.2347 21.8239 70.242 21.8268C70.2488 21.8295 70.251 21.8318 70.2518 21.8326C70.2527 21.8336 70.2571 21.8384 70.2619 21.8512C70.2668 21.8644 70.2728 21.8885 70.2728 21.9262C70.2728 22.9681 70.89 23.9443 71.8723 24.7953C72.8616 25.6525 74.2826 26.4394 76.0473 27.1085C79.5806 28.4482 84.5834 29.3503 90.5335 29.3503C96.4836 29.3503 101.486 28.4482 105.02 27.1085C106.784 26.4394 108.205 25.6525 109.195 24.7953C110.177 23.9443 110.794 22.9681 110.794 21.9262C110.794 21.8885 110.8 21.8644 110.805 21.8512C110.81 21.8384 110.814 21.8336 110.815 21.8326C110.816 21.8318 110.818 21.8295 110.825 21.8268C110.832 21.8239 110.849 21.8188 110.879 21.8188C110.909 21.8188 110.925 21.8239 110.933 21.8268C110.939 21.8295 110.942 21.8318 110.942 21.8326C110.943 21.8336 110.948 21.8384 110.953 21.8512C110.957 21.8644 110.963 21.8885 110.963 21.9262C110.963 22.8821 110.481 23.8368 109.497 24.7538C108.51 25.6723 107.053 26.5186 105.202 27.2378C101.503 28.6751 96.3356 29.5651 90.5335 29.5651Z" fill="black" stroke="black"/>
<path d="M93.6328 37.5359C76.1522 37.5359 62.4717 31.948 62.4717 24.781C62.4717 24.4166 62.7055 24.1736 63.0563 24.1736C63.4071 24.1736 63.641 24.4166 63.641 24.781C63.641 31.037 77.3799 36.3211 93.6328 36.3211C109.886 36.3211 123.625 31.037 123.625 24.781C123.625 17.4318 113.744 13.2409 96.556 13.2409C96.2052 13.2409 95.9713 12.9979 95.9713 12.6335C95.9713 12.2691 96.2052 12.0261 96.556 12.0261C121.111 12.0261 124.794 20.0435 124.794 24.781C124.794 31.8873 111.113 37.5359 93.6328 37.5359Z" fill="black"/>
<path d="M87.0264 16.2169C87.5107 16.2169 87.9033 15.809 87.9033 15.3058C87.9033 14.8027 87.5107 14.3948 87.0264 14.3948C86.542 14.3948 86.1494 14.8027 86.1494 15.3058C86.1494 15.809 86.542 16.2169 87.0264 16.2169Z" fill="black"/>
<path d="M90.5342 16.2169C91.0185 16.2169 91.4111 15.809 91.4111 15.3058C91.4111 14.8027 91.0185 14.3948 90.5342 14.3948C90.0499 14.3948 89.6572 14.8027 89.6572 15.3058C89.6572 15.809 90.0499 16.2169 90.5342 16.2169Z" fill="black"/>
<path d="M89.6575 19.2539L84.3373 22.5945C83.7527 22.9589 82.9927 22.7767 82.6419 22.1693C82.2911 21.562 82.4665 20.7724 83.0511 20.4079L88.3713 17.0674" fill="white"/>
<path d="M83.7527 23.3233C83.1096 23.3233 82.5249 23.0196 82.1742 22.4122C81.648 21.5012 81.9403 20.3472 82.8173 19.8005L88.1374 16.46L88.7221 17.4925L83.4019 20.8331C83.1096 21.0153 82.9926 21.4404 83.168 21.7441C83.3434 22.0478 83.7527 22.1693 84.045 21.9871L89.3652 18.6465L89.9498 19.6791L84.6881 23.0804C84.3958 23.2626 84.045 23.3233 83.7527 23.3233Z" fill="black"/>
</g>
<defs>
<clipPath id="clip0_690_33549">
<rect width="172" height="140" fill="white" transform="translate(0.5)"/>
</clipPath>
</defs>
</svg>
