<svg width="173" height="140" viewBox="0 0 173 140" fill="none" xmlns="http://www.w3.org/2000/svg">
<path d="M123.219 101.985C119.245 97.9827 113.947 95.7649 108.322 95.7649C102.697 95.7649 97.4163 97.9654 93.4254 101.985C89.4346 106.005 87.25 111.324 87.25 116.99H94.1995H122.411H129.36C129.377 111.324 127.193 105.988 123.219 101.985Z" fill="#1A1B22"/>
<path d="M85.375 24.2748V7.51979C85.375 3.39602 88.7293 0 92.8406 0C96.9346 0 100.306 3.3787 100.306 7.51979V24.2748" fill="#AACCF1"/>
<path d="M0.5 67.9209H13.0573C13.0573 82.0595 24.4794 93.5645 38.5161 93.5645C52.5527 93.5645 63.9748 82.0595 63.9748 67.9209H76.5321C76.5321 78.1437 72.5757 87.76 65.4025 95.0026C58.2294 102.228 48.6823 106.213 38.5161 106.213C28.3498 106.213 18.8199 102.228 11.6296 95.0026C4.45641 87.76 0.5 78.1437 0.5 67.9209Z" fill="#1A1B22"/>
<path d="M146.181 68.6659H133.623C133.623 54.5273 122.201 43.0223 108.164 43.0223C94.1278 43.0223 82.7058 54.5273 82.7058 68.6659H70.1484C70.1484 58.4431 74.1049 48.8268 81.278 41.5842C88.4512 34.3416 97.9982 30.3738 108.164 30.3738C118.331 30.3738 127.861 34.3589 135.051 41.5842C142.241 48.8095 146.181 58.4431 146.181 68.6659Z" fill="#AACCF1"/>
<path d="M81.8849 70.52H53.1406L85.7209 17.2402H104.127L81.8849 70.52Z" fill="#1A1B22"/>
<path d="M100.29 14.4332C95.6625 14.4332 91.9297 10.656 91.9297 6.01245" stroke="#1A1B22" stroke-width="5" stroke-miterlimit="10" stroke-linejoin="round"/>
<path d="M89.0703 9.78967C89.5348 7.0867 92.0806 5.26739 94.7641 5.73521" stroke="#1A1B22" stroke-width="5" stroke-miterlimit="10" stroke-linejoin="round"/>
<path d="M97.471 6.53221C97.9555 6.53221 98.3483 6.13658 98.3483 5.64855C98.3483 5.16052 97.9555 4.76489 97.471 4.76489C96.9865 4.76489 96.5938 5.16052 96.5938 5.64855C96.5938 6.13658 96.9865 6.53221 97.471 6.53221Z" fill="#1A1B22"/>
<path d="M60.2616 115.31H44.5391L63.4611 70.52H79.1836L60.2616 115.31Z" fill="#1A1B22"/>
<path d="M94.6436 86.0447H81.7422L90.3947 66.916H103.296L94.6436 86.0447Z" fill="#AACCF1"/>
<path d="M96.6083 65.599C100.038 65.599 102.818 62.7986 102.818 59.3441C102.818 55.8896 100.038 53.0891 96.6083 53.0891C93.1787 53.0891 90.3984 55.8896 90.3984 59.3441C90.3984 62.7986 93.1787 65.599 96.6083 65.599Z" fill="#AACCF1"/>
<path d="M96.6068 57.1263C97.0153 57.1263 97.3465 56.7927 97.3465 56.3813C97.3465 55.9698 97.0153 55.6362 96.6068 55.6362C96.1983 55.6362 95.8672 55.9698 95.8672 56.3813C95.8672 56.7927 96.1983 57.1263 96.6068 57.1263Z" fill="#1A1B22"/>
<path d="M91.6172 55.7749C91.6172 59.5868 93.3374 61.3195 97.1218 61.3195" stroke="#1A1B22" stroke-width="5" stroke-miterlimit="10" stroke-linejoin="round"/>
<path d="M99.8211 117.181H109.884L97.774 86.166H87.7109L99.8211 117.181Z" fill="#1A1B22"/>
<path d="M132.524 86.0448H125.575C125.575 78.2132 119.244 71.8369 111.469 71.8369C103.694 71.8369 97.3636 78.2132 97.3636 86.0448H90.4141C90.4141 80.379 92.5987 75.0597 96.5895 71.0399C100.563 67.0374 105.861 64.8196 111.486 64.8196C117.111 64.8196 122.392 67.0201 126.383 71.0399C130.34 75.0424 132.524 80.379 132.524 86.0448Z" fill="#AACCF1"/>
<path d="M116.164 102.211C112.191 98.208 106.893 95.9902 101.268 95.9902C95.6426 95.9902 90.3616 98.1907 86.3708 102.211C82.3971 106.213 80.1953 111.55 80.1953 117.215H87.1448H115.356H122.305C122.34 111.532 120.138 106.213 116.164 102.211Z" fill="#AACCF1"/>
<path d="M81.9344 117.06H68.7578L84.6351 86.0447H97.8117L81.9344 117.06Z" fill="#1A1B22"/>
<path d="M86.25 113.733C86.25 110.268 87.8154 107.01 90.6537 104.55C93.492 102.089 97.2592 100.738 101.284 100.738C105.31 100.738 109.077 102.089 111.915 104.55C114.753 107.01 116.319 110.268 116.319 113.733" fill="#AACCF1"/>
<path d="M86.25 113.733C86.25 110.268 87.8154 107.01 90.6537 104.55C93.492 102.089 97.2592 100.738 101.284 100.738C105.31 100.738 109.077 102.089 111.915 104.55C114.753 107.01 116.319 110.268 116.319 113.733" stroke="#1A1B22" stroke-width="5" stroke-miterlimit="10" stroke-linejoin="round"/>
<path d="M161.093 63.9531L113.547 106.248" stroke="#1A1B22" stroke-width="11" stroke-miterlimit="10"/>
<path d="M129.657 95.2972C132.013 95.2972 133.923 93.3733 133.923 91.0002C133.923 88.627 132.013 86.7031 129.657 86.7031C127.301 86.7031 125.391 88.627 125.391 91.0002C125.391 93.3733 127.301 95.2972 129.657 95.2972Z" fill="#AACCF1"/>
<path d="M165.308 67.4358C169.279 67.4358 172.498 64.1932 172.498 60.1932C172.498 56.1933 169.279 52.9507 165.308 52.9507C161.336 52.9507 158.117 56.1933 158.117 60.1932C158.117 64.1932 161.336 67.4358 165.308 67.4358Z" fill="#1A1B22"/>
<path d="M125.414 95.6566L130.679 90.7878" stroke="#1A1B22" stroke-width="11" stroke-miterlimit="10" stroke-linecap="round"/>
<path d="M141.101 84.0002C145.23 84.0002 148.577 80.7712 148.577 76.788C148.577 72.8049 145.23 69.5759 141.101 69.5759C136.972 69.5759 133.625 72.8049 133.625 76.788C133.625 80.7712 136.972 84.0002 141.101 84.0002Z" fill="#1A1B22"/>
<path d="M140.109 82.6139L145.803 77.7451" stroke="#1A1B22" stroke-width="11" stroke-miterlimit="10" stroke-linecap="round"/>
<path d="M163.04 58.547C163.943 58.547 164.675 57.81 164.675 56.9009C164.675 55.9918 163.943 55.2549 163.04 55.2549C162.138 55.2549 161.406 55.9918 161.406 56.9009C161.406 57.81 162.138 58.547 163.04 58.547Z" fill="#AACCF1"/>
<path d="M141.988 115.31H36.6953V127.958H141.988V115.31Z" fill="#1A1B22"/>
<path d="M152.395 127.352H27.5781V140H152.395V127.352Z" fill="#AACCF1"/>
</svg>
