<svg width="119" height="140" viewBox="0 0 119 140" fill="none" xmlns="http://www.w3.org/2000/svg">
<path d="M81.2188 35.9539C81.2188 36.0881 81.2188 36.1775 81.2188 36.3117C85.5902 36.8485 90.14 37.1169 94.4221 37.2064V38.101C89.4709 38.0115 85.0103 37.6984 81.1296 37.2511C81.1296 37.3853 81.085 37.5195 81.0404 37.6089C84.7427 38.0115 89.0248 38.2799 94.0207 38.4141L93.8869 43.9162L117.662 21.1475V21.1028L109.499 16.8979L113.023 22.5789C100.042 30.6307 89.4263 35.1039 81.2188 35.9539Z" fill="black"/>
<path d="M80.8175 37.5625L80.5052 37.4736V37.518C80.5945 37.518 80.6837 37.518 80.8175 37.5625Z" fill="black"/>
<path d="M75.2416 28.2589C76.1784 28.4825 77.0259 28.8851 77.8288 29.3772C83.1369 29.6008 92.6825 27.3195 109.499 16.8969L74.3049 -1.08545V28.7062C74.528 28.7956 74.7956 28.8851 75.1078 28.9746L75.2416 28.2589Z" fill="black"/>
<path d="M92.5488 45.1677C87.7314 45.0335 82.5571 44.6757 77.6059 43.96L76.4907 45.9729C79.8808 48.8358 82.5125 52.7275 84.3413 56.1271L84.2967 53.0406L92.5488 45.1677Z" fill="black"/>
<path d="M74.3049 66.1909V81.6235L77.8288 83.4128C77.9626 77.5529 76.446 71.3351 74.3049 66.1909Z" fill="black"/>
<path d="M74.3051 29.0633V28.7502C74.0374 28.6607 73.8144 28.5265 73.5914 28.4371C72.8777 28.0792 72.3424 27.6319 71.8964 27.1846L72.1194 27.9003L74.3051 29.0633Z" fill="#FCD559"/>
<path d="M76.7137 30.4064C78.6317 31.4799 79.8807 33.2245 80.3268 35.2374C80.2375 34.1639 79.8807 33.1798 79.3008 32.2404C78.3195 30.6748 76.8029 29.6012 75.0187 29.1539L75.0633 28.9749C74.7956 28.8855 74.528 28.796 74.2604 28.7065V29.0197L76.7137 30.4064Z" fill="#FCD559"/>
<path d="M77.829 29.3782C78.7211 30.0045 79.4794 30.7649 80.1039 31.7043C80.9068 33.0015 81.3082 34.433 81.2636 35.9091C89.4711 35.0592 100.087 30.586 113.023 22.5789L109.499 16.8979C92.6381 27.3653 83.1371 29.6466 77.829 29.3782Z" fill="#FCD559"/>
<path d="M34.3828 26.1569L34.3382 41.7685L35.0073 45.2576C37.2376 43.1552 39.6463 40.6502 42.1888 37.6531C42.1888 36.4901 42.5011 35.327 43.0809 34.2534L44.0623 32.4642V-0.279785H-0.0974121V-0.145589L34.3828 25.8885V26.1569Z" fill="black"/>
<path d="M38.6204 63.8658H34.2491L34.2045 82.4744H44.0623V55.1431C41.9659 57.1113 39.914 58.8111 37.9067 60.2425L38.6204 63.8658Z" fill="black"/>
<path d="M71.7178 42.9766C72.6099 43.3792 73.4574 43.8265 74.2603 44.3185V43.4239C73.4128 43.2897 72.5653 43.1108 71.7178 42.9766Z" fill="#FCD559"/>
<path d="M58.9161 29.3773C59.3176 30.1377 60.1205 31.256 61.9493 32.4191C61.7709 32.1059 61.6371 31.7928 61.5479 31.4349L60.8342 29.2431C60.3881 28.5721 60.0313 27.8564 59.7636 27.0959L60.1205 27.0065L59.3176 24.5015C58.9161 25.2619 57.8902 27.3196 58.9161 29.3773Z" fill="#FCD559"/>
<path d="M69.3538 34.7456C69.0862 34.8798 68.8185 35.014 68.5509 35.1035C68.4617 35.1482 68.3279 35.1482 68.2386 35.1929C69.9337 35.7297 71.9409 36.177 74.305 36.6244V36.0876C72.4762 35.685 70.8258 35.2377 69.3538 34.7456Z" fill="#FCD559"/>
<path d="M52.8496 32.2842C50.4409 27.3189 52.5373 22.3537 54.1432 20.2512L59.139 24.0535L57.89 20.1618C54.5446 18.9093 50.7085 20.296 48.9689 23.5167L44.0623 32.4631V35.4155C44.3745 35.0576 44.6867 34.6997 44.9544 34.2971L55.3029 42.7963C54.0093 44.3619 52.805 45.838 51.556 47.2247L63.778 53.9346C64.5809 54.3819 65.3838 54.6503 66.2313 54.7398L69.5767 42.4384C60.6556 40.3807 55.1245 36.9811 52.8496 32.2842Z" fill="#FCD559"/>
<path d="M80.4605 37.4741L80.1929 37.3846C80.2375 37.2952 80.2375 37.161 80.2375 37.0715C78.0964 36.8031 76.1338 36.4453 74.3049 36.0874V36.6242C76.1338 36.9373 78.1856 37.2504 80.4605 37.4741Z" fill="#FCD559"/>
<path d="M74.8848 43.5128C74.7064 43.4681 74.4834 43.4681 74.3049 43.4233V44.318C75.0632 44.81 75.8215 45.3468 76.5352 45.9731L77.6504 43.9601C76.7136 43.8259 75.7769 43.6917 74.8848 43.5128Z" fill="#FCD559"/>
<path d="M80.3713 36.043C80.1037 36.043 79.7914 36.0877 79.5238 36.0877C79.7914 36.1324 80.1037 36.1772 80.3713 36.2219C80.3267 36.1324 80.3713 36.0877 80.3713 36.043Z" fill="#FCD559"/>
<path d="M70.3352 34.1194C71.5842 34.522 72.8777 34.8352 74.2605 35.1483V29.0647L72.0302 27.8569L72.1194 28.0806C72.8777 30.3172 72.0748 32.688 70.3352 34.1194Z" fill="#FCD559"/>
<path d="M79.4792 36.0882C79.7469 36.0882 80.0591 36.0435 80.3268 36.0435C80.3268 35.7751 80.3268 35.5067 80.2822 35.1935C79.8361 33.2253 78.5871 31.436 76.6691 30.3625L74.2604 29.0205V35.1488C75.9554 35.5067 77.695 35.8198 79.4792 36.0882Z" fill="#FCD559"/>
<path d="M42.1888 37.609C42.8133 36.8933 43.4378 36.1776 44.0623 35.4172V32.4648L43.1256 34.2094C42.5011 35.283 42.1888 36.446 42.1888 37.609Z" fill="#FCD559"/>
<path d="M84.6982 86.9469L77.8289 83.4131C77.8289 83.8604 77.7843 84.3077 77.7843 84.7103C77.3383 91.5096 74.8403 92.8963 73.413 93.2542L75.4202 106.54C79.1671 105.869 82.3787 104.124 84.8766 101.53L84.6982 86.9469Z" fill="#FCD559"/>
<path d="M73.7253 51.0726C72.2087 53.846 69.1755 55.2327 66.2761 54.7854L66.1869 55.1432C68.6402 55.8142 71.8964 60.2427 74.3497 66.1473V49.999L73.7253 51.0726Z" fill="#FCD559"/>
<path d="M84.3413 56.1278C82.5124 52.7282 79.9253 48.8365 76.4907 45.9736L74.2604 50.0443V66.1926C76.4015 71.3368 77.9181 77.5993 77.7842 83.4592L84.6535 86.993L84.3413 56.1278Z" fill="#FCD559"/>
<path d="M73.7252 51.073L74.305 49.9994V44.3184C73.5021 43.7816 72.6546 43.3343 71.7625 42.9764C71.0042 42.8422 70.2905 42.6633 69.6214 42.4844L66.276 54.7857C69.1754 55.233 72.2086 53.8463 73.7252 51.073Z" fill="#FCD559"/>
<path d="M74.3049 50.0436L76.5352 45.973C75.8215 45.3914 75.1078 44.8099 74.3049 44.3179V50.0436Z" fill="#FCD559"/>
<path d="M44.0623 42.6182V55.0984C46.471 52.8618 48.9689 50.2674 51.6006 47.2256L45.9803 44.1391C45.222 43.7365 44.5975 43.1997 44.0623 42.6182Z" fill="#FCD559"/>
<path d="M42.1888 37.6074C39.6463 40.5597 37.2376 43.1095 35.0073 45.2119L37.9067 60.1972C39.914 58.7657 41.9212 57.0659 44.0623 55.0977V42.6174C42.8133 41.2307 42.1442 39.4414 42.1888 37.6074Z" fill="#FCD559"/>
<path d="M44.9544 34.3428C44.6421 34.7006 44.3299 35.0585 44.0623 35.4611V42.663C44.5975 43.2892 45.222 43.7813 45.9803 44.2286L51.6006 47.3151C52.805 45.9284 54.0539 44.4522 55.3475 42.8866L44.9544 34.3428Z" fill="#FCD559"/>
<path d="M44.0622 42.6174V35.4155C43.4377 36.176 42.8132 36.8917 42.1887 37.6074C42.1441 39.4414 42.8132 41.2307 44.0622 42.6174Z" fill="#FCD559"/>
<path d="M68.7293 22.8921V23.3394L70.0229 23.25C70.0229 23.3394 70.2013 25.3971 71.8518 27.0969L70.2459 22.0869L67.8818 22.8474H68.7293V22.8921Z" fill="#FCD559"/>
<path d="M60.1649 21.2366L59.4958 19.1789L64.001 17.7475C63.6442 17.3896 63.1089 17.3896 62.306 17.658L62.0384 16.8081C63.4211 16.3608 64.3133 16.5845 64.9377 17.4791L66.7666 16.8976L67.6141 16.6292C67.8371 17.3896 68.3278 18.0159 68.9076 18.4185C68.9969 18.4632 69.0861 18.5079 69.1753 18.5527L68.5062 16.4503C68.2386 15.6451 67.8371 14.9741 67.3018 14.3926L57.667 17.4791C57.5778 18.2395 57.6224 19.0447 57.89 19.8499L57.9792 20.1183C58.3361 20.2525 58.6483 20.3867 58.9606 20.5656L60.1649 21.2366Z" fill="#FCD559"/>
<path d="M67.8372 23.3843V22.937L66.0975 23.4738L67.8372 23.3843Z" fill="#FCD559"/>
<path d="M66.1421 24.547L67.2573 25.1733C67.6141 25.0391 67.8372 24.7259 67.8372 24.3681V23.4287L66.0975 23.5182V24.3681C66.0975 24.4128 66.1421 24.5023 66.1421 24.547Z" fill="#FCD559"/>
<path d="M68.7294 23.338V24.3221C68.7294 24.8589 68.5064 25.3062 68.1495 25.6193L72.0748 27.8112L71.8518 27.0955C70.2014 25.3957 70.023 23.338 70.023 23.2485L68.7294 23.338Z" fill="#FCD559"/>
<path d="M64.8932 23.8744L65.2054 24.0534V23.7402L64.8932 23.8744Z" fill="#FCD559"/>
<path d="M68.5508 35.1028C68.8184 35.0133 69.086 34.8791 69.3537 34.7449C65.2499 33.3582 62.3952 31.5242 60.834 29.2876L61.5477 31.4795C61.6369 31.8373 61.8153 32.1505 61.9491 32.4636C63.3765 33.3582 65.3838 34.3423 68.2385 35.1922C68.3277 35.1475 68.4616 35.1028 68.5508 35.1028Z" fill="#FCD559"/>
<path d="M59.4958 24.2778C59.4958 24.2778 59.4066 24.3672 59.3174 24.5462L60.1203 27.0512L60.6556 26.8722C61.6369 30.093 65.0715 32.3296 69.7105 33.8952C65.4284 31.3007 63.778 27.0064 63.4211 24.3225L61.3247 24.9935L60.1203 21.236L58.8713 20.565C58.5591 20.3861 58.2023 20.2519 57.89 20.1177L59.139 24.0094L59.4958 24.2778Z" fill="#FCD559"/>
<path d="M66.9896 25.2169C67.0788 25.2169 67.168 25.2169 67.2572 25.1721L66.1421 24.5459C66.2313 24.9485 66.5881 25.2169 66.9896 25.2169Z" fill="#FCD559"/>
<path d="M72.1639 28.0808L72.0747 27.8571L68.1494 25.6653C67.8371 25.9337 67.4357 26.1126 66.9896 26.1126C66.0083 26.1126 65.25 25.3074 65.25 24.368V24.0549L64.8931 23.876L63.4211 24.3233C63.778 26.9625 65.3838 31.3015 69.7106 33.896C69.9336 33.9854 70.1566 34.0302 70.3796 34.1196C72.0747 32.6882 72.8776 30.3174 72.1639 28.0808Z" fill="#FCD559"/>
<path d="M72.6994 93.4345C72.8778 93.3897 73.1008 93.3897 73.4131 93.3003L73.3238 92.7188L61.3695 94.5528L64.5365 115.443L69.8446 114.638C69.3985 111.73 72.0303 108.867 75.6433 108.286L75.3757 106.586C75.0635 106.63 74.7512 106.675 74.439 106.72L72.6994 93.4345Z" fill="black"/>
<path d="M72.6992 93.4335L74.4388 106.719C74.7511 106.674 75.0633 106.63 75.3756 106.585L73.3683 93.2993C73.1007 93.3888 72.8776 93.3888 72.6992 93.4335Z" fill="black"/>
<path d="M69.4875 19.6263L70.2905 22.1313L71.4056 21.7734L70.7365 19.5815C70.5135 19.6263 70.2905 19.671 70.0674 19.671C69.8444 19.7157 69.666 19.671 69.4875 19.6263Z" fill="#FCD559"/>
<path d="M68.3725 19.1346C67.6142 18.6425 67.0343 17.8373 66.7221 16.8979L64.8933 17.4795C65.0717 17.7479 65.2501 18.1057 65.3839 18.553L64.5364 18.8214C64.358 18.3294 64.2242 17.9715 64.0011 17.7926L59.496 19.224L60.1651 21.2817L64.4026 23.6078L65.2501 23.563V21.1475H66.1422V23.5183L67.8818 22.9815V22.9368H67.9711L70.3352 22.1763L69.5323 19.6713C69.0862 19.5371 68.7294 19.403 68.3725 19.1346Z" fill="#FCD559"/>
<path d="M65.2055 23.7412V23.5176L64.358 23.5623L64.8933 23.8754L65.2055 23.7412Z" fill="#FCD559"/>
<path d="M64.3579 23.5629L60.1204 21.2368L61.3247 24.9943L63.4212 24.3233C63.3766 24.0997 63.3766 23.8313 63.332 23.6076L64.3579 23.5629Z" fill="#FCD559"/>
<path d="M64.358 23.5625L63.332 23.6072C63.332 23.8309 63.3766 24.0546 63.4212 24.3229L64.8932 23.8756L64.358 23.5625Z" fill="#FCD559"/>
<path d="M70.558 19.222L70.6919 19.6245C70.7365 19.6245 70.7811 19.6245 70.8257 19.5798L70.558 18.7299C70.112 18.8641 69.5767 18.8194 69.0861 18.5957L69.3091 19.2667C69.7551 19.3562 70.1566 19.3562 70.558 19.222Z" fill="black"/>
<path d="M67.5696 16.6289L66.722 16.8973L66.9897 16.8078C67.3911 18.0603 68.3278 18.955 69.3538 19.2234L69.1308 18.5524C69.0415 18.5077 68.9523 18.4629 68.8631 18.4182C68.2832 18.0156 67.7926 17.3894 67.5696 16.6289Z" fill="black"/>
<path d="M69.3538 19.2231L69.4876 19.6257C69.666 19.6705 69.889 19.7152 70.0675 19.7152C70.2905 19.7152 70.5135 19.6705 70.7365 19.6257L70.6027 19.2231C70.1567 19.3573 69.7552 19.3573 69.3538 19.2231Z" fill="black"/>
<path d="M68.3725 19.133C68.7293 19.3567 69.0861 19.5356 69.4876 19.5803L69.3538 19.1777C68.3278 18.9094 67.3911 18.0147 66.9897 16.7622L66.722 16.8517C67.0343 17.8358 67.6142 18.641 68.3725 19.133Z" fill="black"/>
<path d="M61.9938 16.8081L62.2614 17.658C63.1089 17.3897 63.5996 17.3897 63.9564 17.7475L64.8485 17.4791C64.2687 16.5845 63.3766 16.3608 61.9938 16.8081Z" fill="black"/>
<path d="M65.384 18.5526C65.2502 18.1053 65.0718 17.7921 64.8933 17.479L64.0012 17.7474C64.2242 17.9711 64.4027 18.3289 64.5365 18.7762L65.384 18.5526Z" fill="black"/>
<path d="M68.7293 23.3375V22.8901H67.9264L67.8372 22.9349V23.3822L68.7293 23.3375Z" fill="black"/>
<path d="M66.0976 24.3675V23.5176H66.053L65.2054 23.786V24.0991L66.1422 24.5912C66.1422 24.5017 66.0976 24.4122 66.0976 24.3675Z" fill="black"/>
<path d="M67.8373 24.3684C67.8373 24.771 67.5697 25.0841 67.2574 25.1736L68.1496 25.6656C68.5064 25.3525 68.7294 24.8604 68.7294 24.3684V23.3843L67.8373 23.429V24.3684Z" fill="black"/>
<path d="M66.9897 25.2172C66.5882 25.2172 66.2314 24.9488 66.1422 24.5463L65.2054 24.0542V24.3673C65.2054 25.3514 66.0084 26.1119 66.9451 26.1119C67.3911 26.1119 67.7926 25.9329 68.1048 25.6646L67.2127 25.1725C67.1681 25.1725 67.0789 25.2172 66.9897 25.2172Z" fill="black"/>
<path d="M67.8372 22.8901V22.9349L67.9264 22.8901H67.8372Z" fill="black"/>
<path d="M66.0977 23.4724V21.1016H65.2056V23.5171L66.0531 23.4724H66.0977Z" fill="black"/>
<path d="M66.053 23.4731L65.2054 23.5179V23.7415L66.053 23.4731Z" fill="black"/>
<path d="M80.8174 37.5628C80.6836 37.5628 80.5944 37.5181 80.4606 37.5181C80.3714 38.5022 80.1037 39.4415 79.5685 40.3362L78.0519 43.1096C83.1815 43.8253 88.4896 44.1384 93.4409 44.2726L93.8869 43.8253L94.0207 38.3232C89.0249 38.2338 84.6981 37.9207 81.0405 37.5181C81.0405 37.5181 81.0405 37.5181 81.0405 37.5628H80.8174Z" fill="#FCD559"/>
<path d="M74.3051 43.4243C73.3684 43.2454 72.387 43.0664 71.4503 42.8428C71.5395 42.8875 71.6287 42.9322 71.718 42.977C72.5655 43.1112 73.413 43.2901 74.3051 43.4243Z" fill="#FCD559"/>
<path d="M54.2323 33.2241C51.3776 28.1694 54.0093 23.5172 54.0985 23.2936L54.8568 23.7409C54.8122 23.7856 52.4035 28.1694 54.9906 32.7768C57.89 37.9657 65.473 40.918 74.2603 42.5284V36.6237C71.8962 36.1764 69.889 35.6844 68.1939 35.1923C65.696 35.8186 63.1089 34.6555 61.9045 32.4636C60.0757 31.3006 59.2282 30.1823 58.8713 29.4219C57.8454 27.3642 58.8713 25.3065 59.2728 24.5461L59.0944 24.0093L54.0985 20.207C52.4927 22.3542 50.3962 27.2747 52.805 32.24C55.0798 36.9816 60.611 40.3365 69.5321 42.4389L69.5767 42.3495C62.5736 40.6049 56.7749 37.6973 54.2323 33.2241Z" fill="#FCD559"/>
<path d="M74.3049 43.4233C74.4834 43.4678 74.7064 43.4678 74.8848 43.5122C74.7064 43.5122 74.4834 43.4678 74.3049 43.4233Z" fill="#FCD559"/>
<path d="M79.613 40.3363C80.1036 39.4417 80.3713 38.4576 80.5051 37.5182C78.2302 37.2498 76.1783 36.9367 74.3495 36.6235V42.5282C75.5984 42.7518 76.8474 42.9755 78.141 43.1544L79.613 40.3363Z" fill="#FCD559"/>
<path d="M69.6215 42.3936L69.5769 42.483C70.2906 42.6619 71.0043 42.7961 71.718 42.9751C71.6288 42.9303 71.5396 42.8856 71.4503 42.8409C70.8259 42.7067 70.2014 42.5725 69.6215 42.3936Z" fill="#FCD559"/>
<path d="M68.2386 35.1935C65.3839 34.3436 63.3766 33.3595 61.9492 32.4648C63.1536 34.6567 65.7407 35.8198 68.2386 35.1935Z" fill="#FCD559"/>
<path d="M59.496 24.2777L59.1392 24.0093L59.3176 24.5461C59.4068 24.3671 59.496 24.2777 59.496 24.2777Z" fill="#FCD559"/>
<path d="M77.6504 43.9155C82.6016 44.676 87.7313 45.0338 92.5487 45.168L92.6825 45.0338C87.1068 44.8549 82.0664 44.497 77.6504 43.9155Z" fill="black"/>
<path d="M74.8849 43.5127C75.777 43.6916 76.7137 43.8258 77.6058 43.96V43.9153C76.7137 43.8258 75.777 43.6916 74.8849 43.5127Z" fill="black"/>
<path d="M92.6826 45.033L93.4409 44.3173C88.4896 44.1831 83.1816 43.87 78.0519 43.1543L77.6058 43.9595C82.0664 44.4963 87.1069 44.8541 92.6826 45.033Z" fill="black"/>
<path d="M55.0354 32.7762C52.4482 28.1688 54.9016 23.785 54.9016 23.7403L54.1433 23.293C54.0094 23.4719 51.4223 28.124 54.2771 33.2235C56.8196 37.7415 62.6184 40.6043 69.6215 42.3936L69.6661 42.2147C70.2905 42.3936 70.8704 42.5725 71.4503 42.8409C72.387 43.0646 73.3237 43.2435 74.3051 43.4224V42.5278C65.5177 40.9174 57.9347 37.9651 55.0354 32.7762Z" fill="black"/>
<path d="M78.0519 43.1555C76.7583 42.9766 75.5093 42.753 74.2604 42.5293V43.4239C74.4388 43.4687 74.6618 43.5134 74.8403 43.5134C75.7324 43.6476 76.6691 43.7818 77.6058 43.916L78.0519 43.1555Z" fill="black"/>
<path d="M69.6215 42.3943C70.2459 42.5285 70.8258 42.7074 71.4949 42.8416C70.915 42.6179 70.2905 42.3943 69.7107 42.2153L69.6215 42.3943Z" fill="black"/>
<path d="M94.4224 38.0549V37.1603C90.1402 37.0708 85.5905 36.8024 81.2191 36.2656C81.2191 36.5788 81.1745 36.8471 81.1299 37.1603C85.0106 37.6523 89.4712 37.9654 94.4224 38.0549Z" fill="black"/>
<path d="M74.305 35.6856C72.8776 35.3725 71.584 34.9252 70.3797 34.2989C70.3351 34.2542 70.2905 34.2542 70.2013 34.2095C69.9336 34.4331 69.666 34.6121 69.3538 34.7463C70.8257 35.2383 72.4762 35.6856 74.305 36.0882V35.6856Z" fill="black"/>
<path d="M60.834 29.2879L60.1203 27.0513L59.7634 27.1407C60.0311 27.9012 60.3879 28.6169 60.834 29.2879Z" fill="black"/>
<path d="M74.3049 35.6846V36.0872C76.1338 36.4898 78.0964 36.8029 80.2375 37.0713C80.2821 36.7581 80.3267 36.445 80.3267 36.1766C80.0591 36.1319 79.7468 36.0872 79.4792 36.0424C79.1223 36.0424 78.7655 36.0872 78.4533 36.0872C76.9813 36.0872 75.5985 35.953 74.3049 35.6846Z" fill="black"/>
<path d="M74.3052 35.6838V35.147C72.9224 34.8339 71.5843 34.476 70.3799 34.1182C70.3353 34.1629 70.2907 34.1629 70.2461 34.2076C70.2907 34.2524 70.3353 34.2524 70.4245 34.2971C71.5843 34.9233 72.8778 35.3707 74.3052 35.6838Z" fill="black"/>
<path d="M78.4533 36.0881C78.8102 36.0881 79.1224 36.0881 79.4792 36.0434C77.695 35.775 75.9554 35.5066 74.2604 35.104V35.6408C75.5985 35.9539 76.9813 36.0881 78.4533 36.0881Z" fill="black"/>
<path d="M69.3538 34.7459C69.666 34.6117 69.9337 34.3881 70.2013 34.2091C70.0229 34.1197 69.8445 33.9855 69.666 33.896C65.027 32.3304 61.5924 30.0938 60.6111 26.873L60.0758 27.052L60.7895 29.2886C62.3953 31.5252 65.2501 33.3592 69.3538 34.7459Z" fill="black"/>
<path d="M70.3351 34.1192C70.1121 34.0297 69.889 33.985 69.666 33.8955C69.8444 33.985 70.0229 34.1192 70.2013 34.2086C70.2459 34.1639 70.2905 34.1639 70.3351 34.1192Z" fill="black"/>
<path d="M80.4607 36.222C80.7284 36.2667 80.9514 36.2667 81.219 36.3115C81.219 36.1773 81.219 36.0878 81.219 35.9536C80.9514 35.9983 80.6838 35.9983 80.4161 36.0431C80.4607 36.0878 80.4607 36.1325 80.4607 36.222Z" fill="black"/>
<path d="M75.2417 28.2593L75.0632 28.975C75.8215 29.1987 76.7136 29.3328 77.7842 29.3776C77.0259 28.8855 76.1784 28.4829 75.2417 28.2593Z" fill="black"/>
<path d="M80.4607 37.4733L80.7729 37.5627C80.8621 37.5627 80.9514 37.5627 80.996 37.6075C81.0406 37.4733 81.0406 37.3391 81.0852 37.2496C80.8621 37.2049 80.6837 37.2049 80.4607 37.1602C80.5053 37.2496 80.5053 37.3391 80.4607 37.4733Z" fill="black"/>
<path d="M81.2189 35.954C81.2635 34.4778 80.862 33.0017 80.0591 31.7492C79.4793 30.8098 78.721 30.0046 77.7842 29.4231C76.7137 29.3784 75.8216 29.2442 75.0633 29.0205L75.0187 29.1994C76.8029 29.602 78.3195 30.7203 79.3008 32.286C79.8807 33.2253 80.1929 34.2542 80.3268 35.283C80.3714 35.5514 80.416 35.8198 80.4606 36.0882C80.7282 35.9987 80.9959 35.954 81.2189 35.954Z" fill="black"/>
<path d="M80.193 37.3839L80.5052 37.4734C80.5052 37.3392 80.5052 37.2497 80.5052 37.1155C80.416 37.1155 80.3268 37.0708 80.2376 37.0708C80.193 37.205 80.193 37.2945 80.193 37.3839Z" fill="black"/>
<path d="M80.3267 36.1775C80.3713 36.1775 80.4159 36.1775 80.4605 36.1775C80.4605 36.1327 80.4605 36.0433 80.4605 35.9985C80.4159 35.9985 80.3713 35.9985 80.3713 35.9985C80.3713 36.088 80.3267 36.1327 80.3267 36.1775Z" fill="black"/>
<path d="M80.4605 35.9981C80.4159 35.7297 80.3713 35.4613 80.3267 35.1929C80.3713 35.4613 80.3713 35.7297 80.3713 36.0428C80.3713 36.0428 80.4159 35.9981 80.4605 35.9981Z" fill="black"/>
<path d="M81.0405 37.6069C81.0405 37.6069 81.0405 37.5625 81.0405 37.6069C80.9513 37.5625 80.9067 37.5625 80.8175 37.5625L81.0405 37.6069Z" fill="black"/>
<path d="M80.5053 37.1153C80.7283 37.1601 80.9068 37.1601 81.1298 37.2048C81.1744 36.8917 81.219 36.6233 81.219 36.3102C80.9514 36.2654 80.7283 36.2654 80.4607 36.2207C80.5053 36.4891 80.5053 36.8022 80.5053 37.1153Z" fill="black"/>
<path d="M80.2373 37.0709C80.3265 37.0709 80.4157 37.1156 80.5049 37.1156C80.5049 36.8025 80.5049 36.4894 80.5049 36.1763C80.4603 36.1763 80.4157 36.1763 80.3711 36.1763C80.3265 36.4894 80.2819 36.8025 80.2373 37.0709Z" fill="black"/>
<path d="M59.8527 7.77228C57.5779 8.488 56.1059 10.5457 55.972 12.827L65.8745 9.65103C64.4917 7.86174 62.083 7.05657 59.8527 7.77228Z" fill="black"/>
<path d="M61.4585 12.8273C63.2427 12.2458 65.1162 12.6484 66.5436 13.722L67.5249 13.4089L66.9004 11.4407C66.7666 11.0828 66.6328 10.7697 66.4543 10.4565L56.0166 13.8115C56.0612 14.1693 56.1504 14.5272 56.2396 14.885L56.8641 16.8532L57.8454 16.5401C58.3361 14.7956 59.6743 13.4089 61.4585 12.8273Z" fill="black"/>
<path d="M61.4585 12.8255C59.6743 13.407 58.3807 14.7937 57.8455 16.4935L66.5436 13.7201C65.1162 12.6466 63.2428 12.244 61.4585 12.8255Z" fill="black"/>
<path d="M68.774 9.65014C68.9524 9.60541 69.0862 9.56068 69.2647 9.56068C69.9338 9.56068 70.5582 10.008 70.7813 10.679C70.9151 11.0816 70.8705 11.5289 70.6921 11.8867C70.5136 12.2446 70.1568 12.5577 69.7553 12.6919L67.4804 13.4076L67.6143 13.855L66.9006 14.0786C67.0344 14.2128 67.1236 14.3023 67.2574 14.4365L70.023 13.5418C70.6474 13.3629 71.1827 12.9156 71.4504 12.3341C71.7626 11.7526 71.8072 11.0816 71.6288 10.4553C71.2273 9.15809 69.7999 8.44237 68.5064 8.84496L65.8746 9.69487C66.0531 9.91853 66.2315 10.1869 66.4099 10.4553L68.774 9.65014Z" fill="black"/>
<path d="M56.998 17.2547L56.8642 16.8073L54.5447 17.5678C54.1432 17.702 53.6972 17.6572 53.3403 17.4783C52.9835 17.2994 52.6712 16.9415 52.5374 16.5389C52.4036 16.1364 52.4482 15.689 52.6266 15.3312C52.8051 14.9733 53.1619 14.6602 53.5634 14.526L55.9721 13.7655C55.9275 13.4524 55.9275 13.1393 55.9275 12.8262L53.2511 13.6761C52.6266 13.855 52.0914 14.3023 51.8237 14.8839C51.5561 15.4654 51.4669 16.1364 51.6453 16.7626C52.0022 17.8362 52.9389 18.5072 54.0094 18.5072C54.2771 18.5072 54.5001 18.4624 54.7677 18.373L57.5779 17.4783C57.5779 17.2994 57.6225 17.1652 57.6671 16.9863L56.998 17.2547Z" fill="black"/>
<path d="M66.9006 14.0342L57.6672 16.9865C57.6226 17.1654 57.6226 17.2996 57.578 17.4786L67.2128 14.392C67.1682 14.3026 67.0344 14.1684 66.9006 14.0342Z" fill="black"/>
<path d="M56.8643 16.8079L56.9981 17.2553L57.7118 17.0316C57.7564 16.8527 57.801 16.6737 57.8456 16.5396L56.8643 16.8079Z" fill="black"/>
<path d="M56.0166 13.7662L66.4543 10.4113C66.3205 10.1429 66.1421 9.87454 65.9191 9.65088L56.0166 12.8269C55.972 13.14 55.972 13.4531 56.0166 13.7662Z" fill="black"/>
<path d="M67.4802 13.4067L66.4989 13.7199C66.6327 13.8093 66.7665 13.9435 66.9004 14.0777L67.614 13.8541L67.4802 13.4067Z" fill="black"/>
<path d="M57.8455 16.4944C57.8009 16.6733 57.7563 16.8523 57.7117 16.9865L66.9451 14.0341C66.8112 13.8999 66.6774 13.8105 66.5436 13.6763L57.8455 16.4944Z" fill="black"/>
<path d="M34.2936 45.839C34.5166 45.6153 34.7396 45.4364 35.0073 45.2127L34.3382 41.7236L34.2936 45.839Z" fill="black"/>
<path d="M34.249 63.8668H38.6204L37.9067 60.1987C36.6577 61.0934 35.4534 61.8538 34.249 62.5695V63.8668Z" fill="black"/>
<path d="M34.249 62.5685C35.4534 61.8975 36.6577 61.0923 37.9067 60.1977L35.0073 45.2124C34.7843 45.4361 34.5613 45.615 34.2936 45.8387L34.249 62.5685Z" fill="black"/>
<path d="M33.6693 107.748L0.214963 82.43H-0.0972776V82.2063V-0.145589L-0.275701 -0.279785L-0.543335 82.2063V82.43L34.1153 108.643L34.2045 82.43H33.7585L33.6693 107.748Z" fill="black"/>
<path d="M-0.0974121 82.4287H0.214828L-0.0974121 82.2051V82.4287Z" fill="black"/>
<path d="M0.170222 0.613963L33.9368 26.1113L33.8922 46.2408L33.9368 46.196V39.7099L34.3382 41.7228L34.3828 26.1113V25.8876L-0.0974121 -0.146484V82.2054L0.170222 0.613963Z" fill="black"/>
<path d="M33.9368 63.8649V62.7466C33.8922 62.7466 33.8476 62.7913 33.803 62.7913L33.7584 82.4287H34.2045L34.2491 63.8202H33.9368V63.8649Z" fill="black"/>
<path d="M33.8477 46.241L33.8031 62.7919C33.8477 62.7919 33.8923 62.7472 33.9369 62.7472V46.1963C33.8923 46.1963 33.8923 46.241 33.8477 46.241Z" fill="black"/>
<path d="M34.3382 41.7229L33.9368 39.71V46.1961C34.0706 46.0619 34.2044 45.9725 34.3382 45.8383V41.7229Z" fill="black"/>
<path d="M33.9368 62.7473V63.8656H34.249V62.5684C34.1598 62.6131 34.026 62.6578 33.9368 62.7473Z" fill="black"/>
<path d="M34.2937 45.8379C34.1598 45.9721 34.026 46.0615 33.8922 46.1957V62.7466C33.9814 62.7019 34.1152 62.6125 34.2045 62.5677L34.2937 45.8379Z" fill="black"/>
<path d="M33.2232 106.853L0.973263 82.4297H0.214966L33.6693 107.748L33.7585 82.4297H33.3124L33.2232 106.853Z" fill="black"/>
<path d="M0.348645 81.9826L0.61628 1.50939L33.4907 26.3357L33.4461 46.6441C33.5799 46.51 33.7583 46.3758 33.8922 46.2416L33.9368 26.1121L0.170222 0.614746L-0.0974121 82.2062L0.214828 82.4299H0.973125L0.348645 81.9826Z" fill="black"/>
<path d="M33.3125 82.4304H33.7586L33.8032 62.793C33.6693 62.8824 33.4909 62.9719 33.3571 63.0166L33.3125 82.4304Z" fill="black"/>
<path d="M33.4017 46.643L33.3571 63.0597C33.4909 62.9703 33.6693 62.8808 33.8031 62.8361L33.8477 46.2852C33.7139 46.3746 33.5801 46.5088 33.4017 46.643Z" fill="black"/>
<path d="M28.2719 93.7469L28.3165 82.4297H27.4244L27.3798 93.2549L24.6142 95.3126L7.61945 82.4297H6.14746L24.6142 96.4309L28.2719 93.7469Z" fill="black"/>
<path d="M6.63825 81.7134L3.56045 74.6904L3.60506 59.5709C3.33742 59.3473 3.06979 59.1684 2.80215 58.9447L3.60506 57.9606V54.5162L6.37061 52.5033L7.44115 53.3084L8.02102 52.6375L6.41522 51.4297L2.75755 54.1136L2.66833 74.9588L5.92455 82.3396L6.14758 82.5185H7.61957L6.63825 81.7134Z" fill="black"/>
<path d="M27.4692 73.0807L27.4245 82.4297H28.3167L28.3613 72.9017L25.2835 65.9683C24.9712 66.013 24.659 66.0577 24.3914 66.1025L27.4692 73.0807Z" fill="black"/>
<path d="M2.80212 58.9446C3.06976 59.1682 3.33739 59.3919 3.60503 59.5708V57.9604L2.80212 58.9446Z" fill="black"/>
<path d="M24.3465 66.1024C24.6587 66.1024 24.971 66.0576 25.2832 65.9682L25.0602 65.5209L8.02079 52.5933L7.44092 53.2642L24.3465 66.1024Z" fill="black"/>
<path d="M8.06542 46.3299L4.98762 39.3069L5.03223 19.1327L7.79779 17.1198L25.7739 30.7184L28.8517 37.7413L28.8071 50.1768C29.1193 49.9979 29.387 49.7743 29.6992 49.5506L29.7438 37.6071V37.5176L26.4876 30.1368L7.79779 16.0015L4.14011 18.6854L4.0509 39.5306L7.30712 46.9114L10.6079 49.4164L11.1878 48.7454L8.06542 46.3299Z" fill="black"/>
<path d="M29.6994 58.3638L29.744 49.5516C29.4318 49.7752 29.1641 49.9542 28.8519 50.1778L28.8073 57.9165L26.0417 59.9294L11.188 48.7017L10.6082 49.3726L25.9971 61.003L29.6994 58.3638Z" fill="black"/>
<path d="M118.554 107.524L85.7242 138.926L85.3228 101.082C85.1889 101.261 85.0105 101.395 84.8767 101.574L85.3228 139.954L119.045 107.703L118.063 20.7432L117.707 21.101V27.453L118.554 107.524Z" fill="black"/>
<path d="M93.887 44.4962L117.617 21.817L117.662 27.498V21.146L93.9316 43.8699L93.887 44.4962Z" fill="black"/>
<path d="M84.7428 53.2198L93.1733 45.168C92.9503 45.168 92.7718 45.168 92.5488 45.168L84.2968 53.0408L84.3414 56.1274C84.5198 56.4405 84.6536 56.7089 84.7874 56.9773L84.7428 53.2198Z" fill="black"/>
<path d="M85.278 101.129L85.1442 87.2168L84.6981 86.9932L84.8765 101.621C85.0104 101.442 85.1442 101.263 85.278 101.129Z" fill="black"/>
<path d="M84.7874 56.9769C84.6535 56.7085 84.4751 56.3953 84.3413 56.127L84.6982 86.9474L85.1442 87.1711L84.7874 56.9769Z" fill="black"/>
<path d="M93.8871 44.3179V44.4969V43.8706L93.441 44.3179C93.6195 44.3179 93.7533 44.3179 93.8871 44.3179Z" fill="black"/>
<path d="M92.6825 45.0347L92.5487 45.1679C92.7717 45.1679 92.9502 45.1679 93.1732 45.1679L93.307 45.0347C93.1286 45.0347 92.9056 45.0347 92.6825 45.0347Z" fill="black"/>
<path d="M93.307 45.0336L93.8423 44.4968V44.3179C93.7085 44.3179 93.5747 44.3179 93.3962 44.3179L92.6379 45.0336C92.9056 45.0336 93.1286 45.0336 93.307 45.0336Z" fill="black"/>
<path d="M118.108 107.346L86.1703 137.898L85.7688 100.591C85.635 100.77 85.4566 100.949 85.3228 101.083L85.7242 138.927L118.554 107.525L117.662 27.4541V67.4894L118.108 107.346Z" fill="black"/>
<path d="M93.887 45.0786V45.1681L117.171 22.8914L117.662 67.5341V27.4989L117.617 21.8179L93.9316 44.4971L93.887 45.0786Z" fill="black"/>
<path d="M85.2334 53.4431L93.8423 45.2124C93.6193 45.2124 93.4409 45.2124 93.2178 45.2124L84.7874 53.2642L84.832 57.0217C85.0104 57.3348 85.1442 57.6479 85.278 57.9163L85.2334 53.4431Z" fill="black"/>
<path d="M85.5902 87.395L85.1442 87.1714L85.278 101.083C85.4118 100.904 85.5902 100.77 85.724 100.591L85.5902 87.395Z" fill="black"/>
<path d="M85.2782 57.9161C85.1444 57.603 84.966 57.3346 84.8322 57.0215L85.189 87.2157L85.6351 87.4394L85.2782 57.9161Z" fill="black"/>
<path d="M93.887 45.0776L93.9316 44.4961L93.887 45.0776Z" fill="black"/>
<path d="M93.887 45.1679V45.0791C93.7086 45.0791 93.5301 45.0791 93.3517 45.0791L93.2179 45.2123C93.4409 45.2123 93.6194 45.2123 93.8424 45.2123L93.887 45.1679Z" fill="black"/>
<path d="M93.8868 45.0773V44.5405L93.3516 45.0773C93.53 45.0326 93.7084 45.0773 93.8868 45.0773Z" fill="black"/>
<path d="M89.7831 62.1213C92.281 59.6163 94.2883 54.4274 94.2883 50.3568L108.027 37.2055C108.205 39.0395 108.874 40.2473 109.9 40.6946C110.703 41.0525 111.685 40.8288 112.621 40.1578L112.844 58.2744C110.346 60.7794 108.339 65.9683 108.339 70.0389L94.6005 83.1902C94.4221 81.3562 93.753 80.1484 92.7271 79.7011C92.4595 79.6116 92.1918 79.5222 91.8796 79.5222C91.6119 79.5222 91.3443 79.5669 91.0767 79.6564C91.0767 79.9695 91.1213 80.2826 91.1213 80.5957C91.5673 80.4168 92.0134 80.3721 92.3702 80.5063C93.2177 80.8641 93.753 82.2508 93.753 84.1743V85.2031L109.187 70.4415V70.2626C109.142 66.2814 111.105 61.1372 113.558 58.8112L113.692 58.677L113.469 38.2344L112.71 38.9501C111.774 39.8447 110.882 40.2026 110.213 39.9342C109.365 39.5763 108.83 38.1896 108.83 36.2661V35.2373L93.3962 49.9989V50.1779C93.4408 54.159 91.4781 59.3032 89.0248 61.6293L88.891 61.7635L88.9356 67.6681C89.2924 68.9206 89.6047 70.1731 89.8723 71.3809L89.7831 62.1213Z" fill="black"/>
<path d="M89.8726 81.4907C90.3186 81.0434 90.7647 80.775 91.1662 80.5961C91.1662 80.2829 91.1215 79.9698 91.1215 79.6567C90.7647 79.7909 90.4079 79.9698 90.0064 80.2382L89.9172 71.3812C89.6496 70.1287 89.3373 68.8762 88.9805 67.6685L89.1589 82.2511L89.8726 81.4907Z" fill="black"/>
<path d="M89.8724 100.458L90.0955 120.9L90.8538 120.184C91.7905 119.29 92.6826 118.932 93.3517 119.2C94.1992 119.558 94.7345 120.945 94.7345 122.868V123.897L110.168 109.136V108.957C110.123 106.452 110.926 103.455 112.131 100.994L111.328 100.592C110.079 103.097 109.276 106.139 109.276 108.778L95.5374 121.929C95.3589 120.095 94.6899 118.887 93.6639 118.44C93.3963 118.35 93.1287 118.261 92.8164 118.261C92.2365 118.261 91.5675 118.485 90.8984 118.977L90.6753 100.86C92.5488 98.9814 94.1546 95.537 94.8237 92.2268L94.0208 91.8242C93.3963 95.1344 91.8351 98.5788 89.917 100.368L89.8724 100.458Z" fill="black"/>
<path d="M95.2699 89.0492L109.008 75.8979C109.187 77.7319 109.856 78.9397 110.882 79.387C111.685 79.7449 112.666 79.5212 113.603 78.8502L113.826 96.9668C112.934 97.8614 112.086 99.1586 111.373 100.59L112.175 100.993C112.845 99.5612 113.692 98.3535 114.584 97.5035L114.718 97.3694L114.495 76.9267L113.737 77.6425C112.8 78.5371 111.908 78.895 111.239 78.6266C110.391 78.2687 109.856 76.882 109.856 74.9585V73.9297L94.4224 88.6913V88.8702C94.4224 89.8096 94.3332 90.7937 94.1548 91.7778L94.9577 92.1804C95.1361 91.1068 95.2699 90.0333 95.2699 89.0492Z" fill="black"/>
</svg>
