<svg width="140" height="140" viewBox="0 0 140 140" fill="none" xmlns="http://www.w3.org/2000/svg">
<g clip-path="url(#clip0_449_32892)">
<path d="M47.8101 57.0503V55.5396C47.5957 56.0431 47.5957 56.6187 47.8101 57.0503Z" fill="#AACCF1"/>
<path d="M57.9581 62.5899H56.243C56.8862 63.0216 57.4579 62.9496 57.9581 62.5899Z" fill="#AACCF1"/>
<path d="M50.4081 15.4696L39.2346 22.9013L38.0095 21.0219L38.0095 21.0219L38.0075 21.0189C36.3033 18.4455 37.0227 14.9416 39.5826 13.2222L41.4388 12.0004L41.4388 12.0004L41.4425 11.9979C43.9943 10.2854 47.4705 11.0061 49.1789 13.584C49.1792 13.5845 49.1795 13.585 49.1799 13.5854L50.4081 15.4696Z" fill="#AACCF1" stroke="black"/>
<path d="M48.5248 133.597C45.8091 133.597 43.5937 135.827 43.5937 138.561L67.0342 138.201L66.8198 133.597H48.5248Z" fill="black"/>
<path d="M88.974 133.597H72.3226L72.1082 138.201L93.4048 138.561C93.4763 135.827 91.4752 133.597 88.974 133.597Z" fill="black"/>
<path d="M89.9745 132.446V92.5899H47.8101V132.446H65.7478V105.683C65.7478 104.245 66.9627 103.022 68.392 103.022C69.8213 103.022 71.0363 104.245 71.0363 105.683V132.446H89.9745Z" fill="black"/>
<path d="M128.494 24.5324C131.567 24.5324 134.497 23.3094 136.641 21.1511C138.857 18.9928 140 16.0432 140.071 12.9497C140.071 6.54678 134.926 1.29498 128.566 1.29498C125.493 1.29498 122.634 2.518 120.419 4.67628C118.203 6.83455 117.06 9.78419 116.988 12.8777C116.988 15.9712 118.203 18.9209 120.347 21.0792C122.491 23.3094 125.35 24.5324 128.494 24.5324ZM123.349 7.7698C124.707 6.4029 126.565 5.61153 128.494 5.61153C132.496 5.61153 135.712 8.92088 135.712 12.9497C135.712 14.8921 134.926 16.7626 133.568 18.1295C132.21 19.4964 130.352 20.2878 128.423 20.2878C126.493 20.2878 124.635 19.4964 123.277 18.1295C121.919 16.7626 121.133 14.8921 121.133 12.9497C121.276 11.0072 121.991 9.13671 123.349 7.7698Z" fill="black"/>
<path d="M7.5038 102.446C7.21794 102.446 7.00354 102.446 6.71768 102.374L8.28991 109.137C7.14647 110.072 6.43182 111.511 6.43182 113.093C6.43182 115.54 8.14698 117.554 10.3624 118.058L12.149 125.54C9.1475 126.834 7.00354 129.784 7.00354 133.237L23.6549 133.309C23.6549 128.993 20.5104 125.468 16.3655 124.964L14.5074 117.05C15.6508 116.115 16.3655 114.748 16.3655 113.165C16.3655 113.022 16.3655 112.95 16.3655 112.806C18.0092 111.942 19.5814 109.928 21.8683 106.906C27.2281 99.7842 35.661 88.6331 51.3833 85.5395C52.2409 85.8993 53.17 86.1151 54.1705 86.1151H61.8887L66.4625 68.2734C65.0332 67.6259 64.0326 66.3309 63.7468 64.7482L57.5293 70.6475C57.3864 70.7913 57.2435 70.8633 57.0291 70.8633C56.8861 70.8633 56.7432 70.7913 56.6717 70.7194L51.4548 67.3381L47.8101 64.964L47.4528 64.6762C47.3813 64.6043 47.3098 64.6043 47.3098 64.5323C29.9438 63.8849 19.1526 54.964 17.7233 40.2877C20.0816 39.8561 21.8683 37.8417 21.8683 35.3237C21.8683 32.5899 19.7243 30.3597 17.0086 30.2877L17.5089 23.0216C17.5804 21.7985 16.7228 20.7913 15.5079 20.7194C14.293 20.6475 13.2925 21.5108 13.221 22.7338L12.4349 32.8777C12.0061 33.5971 11.7917 34.4604 11.7917 35.3957C11.7917 36.8345 12.3634 38.0575 13.2925 38.9928C13.7213 47.5539 16.8657 54.7482 22.3685 59.928C28.4431 65.4676 37.1618 68.5611 47.8101 68.8489V80.1439C47.8101 80.7194 47.8815 81.2949 48.0959 81.7985C32.3736 85.8993 23.6549 97.41 18.5094 104.245C17.0086 106.187 15.1506 108.633 14.4359 108.921C14.3644 108.921 14.3644 108.921 14.293 108.993C13.7213 108.633 13.1495 108.345 12.4349 108.201L10.8627 101.439C9.93361 102.086 8.7187 102.446 7.5038 102.446Z" fill="black"/>
<path d="M128.208 7.26617L124.992 17.4101H131.353L128.208 7.26617Z" fill="black"/>
<path d="M67.8918 68.6331L63.4609 86.0432H71.3221L68.2491 68.6331C68.1062 68.6331 67.9632 68.6331 67.8918 68.6331Z" fill="black"/>
<path d="M85.3293 69.2806L83.3997 70.7194C83.2568 70.7914 83.1138 70.8633 82.9709 70.8633C82.828 70.8633 82.6851 70.8633 82.6136 70.7914L72.8229 64.8921C72.537 66.6187 71.2507 67.9856 69.607 68.4892L72.7514 86.0432H83.5426C86.1869 86.0432 88.4737 84.5324 89.4742 82.446C101.123 82.2302 107.483 79.8561 109.413 75.036C110.342 72.6619 110.056 69.8561 108.484 66.6187C121.133 62.446 128.923 54.2446 129.852 43.3813C130.781 42.446 131.353 41.1511 131.353 39.7842C131.353 38.4892 130.853 37.3381 130.066 36.4029L130.281 27.3381C130.281 26.1151 129.352 25.1799 128.208 25.1079C126.993 25.1079 126.064 26.0432 125.993 27.1942L125.778 34.6763C123.277 34.964 121.348 37.0504 121.348 39.7122C121.348 42.1583 123.063 44.1727 125.35 44.6763C123.777 54.0288 115.845 59.7122 106.126 62.7338C104.053 59.8561 101.195 56.5468 97.4069 52.8777C97.6213 52.446 97.6927 51.9424 97.7642 51.4388C97.9786 51.0791 98.05 50.7194 98.05 50.2878C98.05 35.9712 93.8336 34.4604 91.9755 34.4604C90.7606 34.4604 89.8316 35.3957 89.8316 36.6187C89.8316 37.6978 90.5462 38.5611 91.5467 38.705C91.6182 38.777 91.8326 38.9928 92.047 39.3525C92.4043 40 92.976 41.3669 93.3334 43.9568C91.9755 39.7842 88.9025 36.9784 85.1863 36.9784C83.9714 36.9784 83.0424 37.9137 83.0424 39.1367C83.0424 40.3597 83.9714 41.295 85.1863 41.295C87.3303 41.295 89.1169 43.741 89.6886 46.9065C89.3313 47.1942 88.974 47.554 88.6881 47.9137C86.1868 41.4388 79.6835 36.6906 72.1797 36.6906H65.6764C55.8857 36.6906 47.8816 44.7482 47.8816 54.6043V55.5396V57.0504V62.5899H56.3145H58.0296H90.1174V55.1798C90.9035 55.7554 91.9041 56.0432 92.9046 56.0432C93.4048 56.0432 93.9051 55.9712 94.3339 55.8273C97.6213 58.9928 99.9796 61.6547 101.766 63.9568C98.05 64.7482 94.2624 65.2518 90.4748 65.3957L90.1174 65.6835L85.3293 69.2806ZM53.17 50.3597C53.17 50.3597 55.8142 53.3813 55.8142 55.6115C55.8142 56.4748 55.5998 57.1223 55.314 57.554C54.8137 58.2014 54.0991 58.3453 53.17 58.3453C51.7407 58.3453 50.5258 57.7698 50.5258 55.6115C50.5258 55.3237 50.5973 55.036 50.6687 54.7482C51.0975 52.7338 53.17 50.3597 53.17 50.3597ZM56.0286 47.8417C56.0286 47.2662 56.1715 46.6906 56.3859 46.259C56.3145 46.4029 56.3145 46.6187 56.3145 46.7626C56.3145 47.9137 57.2435 48.9209 58.4584 48.9209C59.6733 48.9209 60.6024 47.9856 60.6024 46.7626C60.6024 45.6115 59.6733 44.6043 58.4584 44.6043C58.1726 44.6043 57.9582 44.6763 57.6723 44.7482C58.244 44.3885 58.8872 44.1727 59.6733 44.1727C61.6743 44.1727 63.318 45.8273 63.318 47.8417C63.318 49.8561 61.6743 51.5108 59.6733 51.5108C57.6723 51.5108 56.0286 49.8561 56.0286 47.8417ZM75.8244 57.0504C75.8244 58.4892 74.6095 59.7122 73.1802 59.7122H63.2466C61.8173 59.7122 60.6024 58.4892 60.6024 57.0504C60.6024 55.6115 61.8173 54.3885 63.2466 54.3885H73.1802C74.6095 54.3885 75.8244 55.5396 75.8244 57.0504ZM80.9699 48.4173C80.7555 47.482 79.8979 46.7626 78.8974 46.7626C77.754 46.7626 76.7535 47.6978 76.7535 48.9209C76.7535 50.0719 77.6825 51.0791 78.8974 51.0791C79.0403 51.0791 79.1118 51.0791 79.2547 51.0791C78.683 51.4388 78.1113 51.5827 77.3967 51.5827C75.3956 51.5827 73.7519 49.9281 73.7519 47.9137C73.7519 45.8993 75.3956 44.2446 77.3967 44.2446C79.3977 44.2446 81.0414 45.8993 81.0414 47.9137C81.0414 48.0575 80.9699 48.2014 80.9699 48.4173ZM104.267 67.8417C105.768 70.5755 105.84 72.3741 105.411 73.5252C104.768 75.1798 101.838 77.9137 89.9745 78.2014V69.7122C95.1914 69.5683 99.9796 68.9209 104.267 67.8417Z" fill="black"/>
<path d="M81.3987 18.777H85.758L81.6131 27.1942C81.1128 28.2734 81.5416 29.5683 82.6136 30.0719C82.8994 30.2158 83.2568 30.2878 83.5426 30.2878C84.3287 30.2878 85.1149 29.8561 85.4722 29.0647L91.1179 17.5539C91.4752 16.9065 91.4038 16.1151 91.0465 15.4676C90.6891 14.8201 89.9745 14.4604 89.2598 14.4604H84.9005L89.8315 4.46042C90.3318 3.38129 89.903 2.08632 88.831 1.58272C87.7591 1.07913 86.4727 1.51078 85.9724 2.58992L79.5406 15.6834C79.1833 16.3309 79.2547 17.1223 79.6121 17.7698C79.9694 18.3453 80.6126 18.777 81.3987 18.777Z" fill="black"/>
<path d="M57.0327 13.8609L57.0352 13.8592C57.8096 13.3023 58.7823 13.4643 59.337 14.2462C59.8929 15.0296 59.7293 16.0132 58.9537 16.5717C58.9533 16.5719 58.953 16.5722 58.9526 16.5725L37.3885 31.8832C37.0968 32.0561 36.7625 32.1619 36.4472 32.1619C35.8751 32.1619 35.3894 31.937 35.065 31.5044C34.5131 30.7218 34.6776 29.7411 35.4515 29.1838C35.4519 29.1835 35.4523 29.1832 35.4527 29.1829L57.0327 13.8609Z" fill="#AACCF1" stroke="black"/>
<path d="M68.3205 67.2662C70.0357 67.2662 71.465 65.8274 71.465 64.1007C71.465 64.1007 71.465 64.1008 71.465 64.0288H65.1046C65.1046 64.0288 65.1046 64.0288 65.1046 64.1007C65.1761 65.8274 66.6054 67.2662 68.3205 67.2662Z" fill="black"/>
<path d="M4.43081 4.31655H7.9326V11.295C8.64725 8.34532 11.2915 6.18705 14.4359 6.18705C17.4374 6.18705 20.0102 8.20144 20.8678 10.9353V4.31655H24.3696C25.5845 4.31655 26.5135 3.3813 26.5135 2.15827C26.5135 0.935252 25.5845 0 24.3696 0H4.35934C3.14444 0 2.21539 0.935252 2.21539 2.15827C2.21539 3.3813 3.2159 4.31655 4.43081 4.31655Z" fill="black"/>
<path d="M27.8714 135.683H2.14395C0.929045 135.683 0 136.619 0 137.842C0 139.065 0.929045 140 2.14395 140H27.8714C29.0863 140 30.0153 139.065 30.0153 137.842C30.0153 136.619 29.0863 135.683 27.8714 135.683Z" fill="black"/>
<path d="M86.9729 91.6547C88.1878 91.6547 89.1169 90.7194 89.1169 89.4964C89.1169 88.2734 88.1878 87.3381 86.9729 87.3381H71.2506V91.6547H86.9729Z" fill="black"/>
<path d="M50.5258 87.3381C49.3109 87.3381 48.3818 88.2734 48.3818 89.4964C48.3818 90.7194 49.3109 91.6547 50.5258 91.6547H63.7468V87.3381H50.5258Z" fill="black"/>
<path d="M69.8213 87.6259H65.1761V90.7194H69.8213V87.6259Z" fill="black"/>
<path d="M14.5074 8.34534C12.2205 8.34534 10.291 10.072 9.93365 12.3022C9.93365 12.518 9.86218 12.7338 9.86218 12.9497C9.86218 15.4676 11.9347 17.554 14.4359 17.554C16.9372 17.554 19.0097 15.4676 19.0097 12.9497C19.0097 12.7338 19.0097 12.518 18.9382 12.3022C18.7238 10.072 16.7943 8.34534 14.5074 8.34534Z" fill="black"/>
<path d="M19.0812 13.0216C19.0812 15.5395 17.0087 17.6259 14.5074 17.6259C12.0061 17.6259 9.93365 15.5395 9.93365 13.0216C9.93365 12.8057 9.93366 12.5899 10.0051 12.3741C10.291 10.1439 12.2205 8.41724 14.5789 8.41724C16.9372 8.41724 18.7953 10.1439 19.1526 12.3741C19.0812 12.5899 19.0812 12.8057 19.0812 13.0216Z" fill="black"/>
<path d="M51.0261 65.3237L56.9577 69.2086L62.389 64.1007H49.168L50.0255 64.6762L51.0261 65.3237Z" fill="black"/>
<path d="M82.9709 69.2806L84.6146 68.0575L87.902 65.4676L89.6171 64.1726L89.6886 64.1007H74.3236L74.3951 64.1726L82.9709 69.2806Z" fill="black"/>
<path d="M7.43235 99.7878C7.06382 99.7878 6.69203 99.7266 6.31514 99.6013C5.00926 99.096 4.06869 97.8399 4.00178 96.3206C4.0045 95.3817 4.37721 94.5089 4.99166 93.8859C5.70109 93.2398 6.51116 92.8741 7.43235 92.8741C9.29702 92.8741 10.8629 94.4456 10.8629 96.3309C10.8629 97.266 10.4948 98.0824 9.92695 98.7217C9.29308 99.3554 8.41937 99.7878 7.43235 99.7878Z" fill="#AACCF1" stroke="black"/>
<path d="M131.21 112.95H110.485C107.341 112.95 104.768 115.54 104.768 118.705V126.835V126.978C104.768 127.122 104.839 127.266 104.911 127.338L114.844 137.482C114.987 137.626 115.202 137.698 115.345 137.698H131.138C134.283 137.698 136.856 135.108 136.856 131.942V118.705C136.927 115.612 134.354 112.95 131.21 112.95ZM106.626 127.122L115.345 127.266V136.115L106.626 127.122ZM135.498 132.014C135.498 134.388 133.568 136.331 131.21 136.331H116.845V125.755L106.197 125.612V118.705C106.197 116.331 108.127 114.388 110.485 114.388H131.21C133.568 114.388 135.498 116.331 135.498 118.705V132.014Z" fill="black"/>
<path d="M129.923 116.043C129.495 116.043 129.209 116.331 129.209 116.763V133.597C129.209 134.029 129.495 134.317 129.923 134.317C130.352 134.317 130.638 134.029 130.638 133.597V116.763C130.638 116.403 130.352 116.043 129.923 116.043Z" fill="black"/>
<path d="M124.992 115.683C124.564 115.683 124.278 115.971 124.278 116.403V133.237C124.278 133.669 124.564 133.957 124.992 133.957C125.421 133.957 125.707 133.669 125.707 133.237V116.403C125.707 116.043 125.421 115.683 124.992 115.683Z" fill="black"/>
<path d="M120.204 116.043C119.775 116.043 119.49 116.331 119.49 116.763V133.597C119.49 134.029 119.775 134.317 120.204 134.317C120.633 134.317 120.919 134.029 120.919 133.597V116.763C120.919 116.403 120.562 116.043 120.204 116.043Z" fill="black"/>
<path d="M51.2683 39.4135L51.26 39.4246L51.2524 39.4362C51.2332 39.4651 51.2167 39.4757 51.2021 39.4824C51.1837 39.4908 51.1518 39.4996 51.101 39.5C51.0978 39.4994 51.085 39.4968 51.0597 39.4873C51.0249 39.4741 50.9866 39.456 50.9319 39.4287L41.9654 32.7664C41.9652 32.7663 41.965 32.7661 41.9648 32.766C41.9511 32.7552 41.9129 32.7088 41.9001 32.6186C41.8871 32.5272 41.9117 32.471 41.9222 32.457C41.9586 32.4081 42.0831 32.3433 42.2462 32.4326L51.225 39.1041C51.2252 39.1042 51.2254 39.1044 51.2256 39.1046C51.2393 39.1154 51.2775 39.1617 51.2903 39.2519C51.3033 39.3434 51.2787 39.3996 51.2683 39.4135Z" fill="#AACCF1" stroke="black"/>
<path d="M55.3416 38.2412L55.2736 38.2686C55.2161 38.2487 55.1254 38.1914 55.0601 38.0755L50.8569 25.7404C50.8247 25.6417 50.8399 25.5816 50.8574 25.5461C50.8765 25.5078 50.9159 25.4644 50.9852 25.4334C51.0733 25.4071 51.1268 25.4216 51.1586 25.4376C51.1961 25.4565 51.2407 25.4972 51.2722 25.5711L55.483 37.9286C55.5153 38.0273 55.5001 38.0875 55.4825 38.1229C55.4623 38.1636 55.419 38.21 55.3416 38.2412Z" fill="#AACCF1" stroke="black"/>
<path d="M61.8271 20.55L61.824 20.5656L61.8219 20.5813L59.8948 35.0229C59.8771 35.0993 59.8391 35.1613 59.7964 35.2013C59.7536 35.2413 59.7117 35.2554 59.6733 35.2554H59.6018C59.5341 35.2554 59.5002 35.2304 59.4817 35.2075C59.4615 35.1825 59.4378 35.1311 59.4519 35.0457L59.4532 35.0379L59.4542 35.0302L61.3838 20.5697L61.3882 20.5368V20.5036C61.3882 20.464 61.4057 20.4231 61.4523 20.3872C61.5054 20.3463 61.5573 20.3426 61.5756 20.3463L61.6245 20.3561H61.6743C61.7097 20.3561 61.7491 20.3717 61.7853 20.4193C61.8264 20.4734 61.8314 20.5282 61.8271 20.55Z" fill="#AACCF1" stroke="black"/>
</g>
<defs>
<clipPath id="clip0_449_32892">
<rect width="140" height="140" fill="white"/>
</clipPath>
</defs>
</svg>
