<svg width="139" height="163" viewBox="0 0 139 163" fill="none" xmlns="http://www.w3.org/2000/svg">
<g clip-path="url(#clip0_400_1248)">
<path d="M94.8725 41.8606C94.8725 42.0168 94.8725 42.121 94.8725 42.2772C99.9785 42.9022 105.293 43.2147 110.295 43.3189V44.3605C104.511 44.2563 99.3012 43.8918 94.7683 43.3709C94.7683 43.5272 94.7162 43.6834 94.6641 43.7876C98.9886 44.2563 103.99 44.5688 109.826 44.725L109.67 51.131L137.44 24.6218V24.5697L127.905 19.6741L132.022 26.2884C116.86 35.6629 104.459 40.8711 94.8725 41.8606Z" fill="black"/>
<path d="M94.4038 43.7343L94.0391 43.6301V43.6822C94.1433 43.6822 94.2475 43.6822 94.4038 43.7343Z" fill="black"/>
<path d="M87.891 32.9015C88.9852 33.1619 89.9751 33.6306 90.913 34.2035C97.1132 34.4639 108.263 31.8078 127.906 19.6729L86.7969 -1.26367V33.4223C87.0574 33.5265 87.37 33.6306 87.7347 33.7348L87.891 32.9015Z" fill="black"/>
<path d="M108.101 52.5881C102.474 52.4318 96.4297 52.0152 90.6463 51.1819L89.3438 53.5255C93.3035 56.8587 96.3776 61.3898 98.5138 65.3479L98.4617 61.7543L108.101 52.5881Z" fill="black"/>
<path d="M86.7969 77.0652V95.0331L90.913 97.1164C91.0693 90.2938 89.2978 83.0545 86.7969 77.0652Z" fill="black"/>
<path d="M86.7901 33.8383V33.4737C86.4775 33.3696 86.217 33.2133 85.9565 33.1091C85.1228 32.6925 84.4976 32.1717 83.9766 31.6509L84.2371 32.4842L86.7901 33.8383Z" fill="#FCD559"/>
<path d="M89.6078 35.4019C91.8482 36.6519 93.3071 38.683 93.8281 41.0267C93.7239 39.7767 93.3071 38.631 92.6298 37.5373C91.4835 35.7144 89.712 34.4645 87.6279 33.9437L87.68 33.7353C87.3674 33.6312 87.0548 33.527 86.7422 33.4229V33.7874L89.6078 35.4019Z" fill="#FCD559"/>
<path d="M90.9062 34.2047C91.9483 34.9338 92.834 35.8192 93.5635 36.9129C94.5013 38.4232 94.9702 40.0898 94.9181 41.8085C104.505 40.819 116.905 35.6109 132.015 26.2884L127.899 19.6741C108.204 31.861 97.1064 34.5172 90.9062 34.2047Z" fill="#FCD559"/>
<path d="M40.158 30.4542L40.1059 48.6305L40.8875 52.6928C43.4926 50.245 46.3061 47.3285 49.276 43.839C49.276 42.4849 49.6407 41.1308 50.318 39.8809L51.4643 37.7976V-0.325684H-0.117188V-0.169441L40.158 30.1417V30.4542Z" fill="black"/>
<path d="M45.1113 74.3582H40.0052L39.9531 96.0239H51.4678V64.2024C49.019 66.494 46.6222 68.473 44.2776 70.1396L45.1113 74.3582Z" fill="black"/>
<path d="M83.7734 50.0366C84.8155 50.5054 85.8054 51.0262 86.7433 51.5991V50.5574C85.7533 50.4012 84.7634 50.1929 83.7734 50.0366Z" fill="#FCD559"/>
<path d="M68.8214 34.2032C69.2903 35.0886 70.2282 36.3906 72.3644 37.7447C72.156 37.3801 71.9997 37.0156 71.8954 36.5989L71.0618 34.047C70.5408 33.2657 70.124 32.4324 69.8113 31.5471L70.2282 31.4429L69.2903 28.5264C68.8214 29.4117 67.623 31.8075 68.8214 34.2032Z" fill="#FCD559"/>
<path d="M81.0135 40.4539C80.7009 40.6101 80.3883 40.7663 80.0757 40.8705C79.9714 40.9226 79.8151 40.9226 79.7109 40.9747C81.6908 41.5996 84.0354 42.1205 86.7969 42.6413V42.0163C84.6607 41.5476 82.7329 41.0267 81.0135 40.4539Z" fill="#FCD559"/>
<path d="M61.7329 37.5879C58.9194 31.8069 61.3682 26.0259 63.2439 23.5781L69.0794 28.005L67.6205 23.474C63.7128 22.0157 59.232 23.6302 57.2 27.38L51.4688 37.7962V41.2336C51.8335 40.8169 52.1982 40.4003 52.5108 39.9316L64.5986 49.827C63.0876 51.6498 61.6808 53.3685 60.222 54.983L74.4981 62.7951C75.4359 63.3159 76.3737 63.6284 77.3637 63.7326L81.2714 49.4103C70.8509 47.0146 64.3902 43.0564 61.7329 37.5879Z" fill="#FCD559"/>
<path d="M93.987 43.6306L93.6744 43.5265C93.7265 43.4223 93.7265 43.2661 93.7265 43.1619C91.2256 42.8494 88.9331 42.4328 86.7969 42.0161V42.6411C88.9331 43.0057 91.3298 43.3702 93.987 43.6306Z" fill="#FCD559"/>
<path d="M87.4742 50.6615C87.2658 50.6095 87.0053 50.6095 86.7969 50.5574V51.599C87.6826 52.1719 88.5684 52.7969 89.402 53.526L90.7046 51.1823C89.6104 51.0261 88.5163 50.8699 87.4742 50.6615Z" fill="#FCD559"/>
<path d="M93.8806 41.9641C93.568 41.9641 93.2032 42.0162 92.8906 42.0162C93.2032 42.0683 93.568 42.1204 93.8806 42.1724C93.8285 42.0683 93.8806 42.0162 93.8806 41.9641Z" fill="#FCD559"/>
<path d="M82.1562 39.7245C83.6151 40.1932 85.1261 40.5577 86.7413 40.9223V33.8393L84.1361 32.4331L84.2404 32.6935C85.1261 35.2976 84.1882 38.0579 82.1562 39.7245Z" fill="#FCD559"/>
<path d="M92.8382 42.0169C93.1508 42.0169 93.5155 41.9648 93.8281 41.9648C93.8281 41.6523 93.8281 41.3398 93.776 40.9753C93.255 38.6837 91.7961 36.6005 89.5557 35.3505L86.7422 33.7881V40.9232C88.7221 41.3398 90.7541 41.7044 92.8382 42.0169Z" fill="#FCD559"/>
<path d="M49.2812 43.7877C50.0107 42.9544 50.7401 42.1211 51.4696 41.2357V37.7983L50.3754 39.8295C49.646 41.0794 49.2812 42.4336 49.2812 43.7877Z" fill="#FCD559"/>
<path d="M98.9319 101.231L90.9081 97.1169C90.9081 97.6378 90.856 98.1586 90.856 98.6273C90.335 106.544 87.4173 108.158 85.75 108.575L88.0946 124.043C92.4712 123.262 96.2226 121.23 99.1403 118.21L98.9319 101.231Z" fill="#FCD559"/>
<path d="M86.1178 59.4628C84.3463 62.6919 80.8034 64.3064 77.4167 63.7856L77.3125 64.2022C80.1781 64.9834 83.9816 70.1395 86.8473 77.0141V58.2129L86.1178 59.4628Z" fill="#FCD559"/>
<path d="M98.5174 65.3488C96.3812 61.3906 93.3592 56.8596 89.3473 53.5264L86.7422 58.2657V77.067C89.2431 83.0563 91.0146 90.3477 90.8583 97.1703L98.8821 101.285L98.5174 65.3488Z" fill="#FCD559"/>
<path d="M86.1152 59.4637L86.7925 58.2137V51.5994C85.8547 50.9745 84.8647 50.4537 83.8227 50.037C82.9369 49.8808 82.1033 49.6724 81.3217 49.4641L77.4141 63.7864C80.8007 64.3072 84.3437 62.6927 86.1152 59.4637Z" fill="#FCD559"/>
<path d="M86.7969 58.2653L89.402 53.5259C88.5684 52.8488 87.7347 52.1718 86.7969 51.5989V58.2653Z" fill="#FCD559"/>
<path d="M51.4688 49.6196V64.1502C54.2823 61.5462 57.2 58.5255 60.2741 54.984L53.7092 51.3904C52.8234 50.9217 52.094 50.2967 51.4688 49.6196Z" fill="#FCD559"/>
<path d="M49.2791 43.7856C46.3093 47.223 43.4957 50.1916 40.8906 52.6394L44.2773 70.0866C46.6219 68.42 48.9665 66.4409 51.4674 64.1493V49.6187C50.0086 48.0042 49.227 45.921 49.2791 43.7856Z" fill="#FCD559"/>
<path d="M52.5108 39.9849C52.1461 40.4015 51.7814 40.8182 51.4688 41.2869V49.6719C52.094 50.4011 52.8234 50.974 53.7092 51.4948L60.2741 55.0884C61.6808 53.4739 63.1397 51.7552 64.6507 49.9323L52.5108 39.9849Z" fill="#FCD559"/>
<path d="M51.4642 49.6187V41.2336C50.7348 42.119 50.0053 42.9523 49.2759 43.7856C49.2238 45.9209 50.0053 48.0042 51.4642 49.6187Z" fill="#FCD559"/>
<path d="M80.279 26.653V27.1738L81.79 27.0697C81.79 27.1738 81.9984 29.5696 83.9262 31.5487L82.0505 25.7156L79.2891 26.601H80.279V26.653Z" fill="#FCD559"/>
<path d="M70.279 24.7255L69.4975 22.3298L74.7598 20.6632C74.343 20.2465 73.7178 20.2465 72.7799 20.559L72.4673 19.5695C74.0825 19.0486 75.1245 19.3091 75.854 20.3507L77.9902 19.6736L78.9801 19.3611C79.2406 20.2465 79.8138 20.9756 80.4911 21.4444C80.5953 21.4965 80.6995 21.5485 80.8037 21.6006L80.0222 19.1528C79.7096 18.2154 79.2406 17.4341 78.6154 16.7571L67.3613 20.3507C67.2571 21.236 67.3092 22.1735 67.6218 23.111L67.726 23.4235C68.1428 23.5797 68.5075 23.7359 68.8722 23.9443L70.279 24.7255Z" fill="#FCD559"/>
<path d="M79.2351 27.2259V26.7051L77.2031 27.3301L79.2351 27.2259Z" fill="#FCD559"/>
<path d="M77.2552 28.5799L78.5578 29.309C78.9746 29.1527 79.2351 28.7882 79.2351 28.3715V27.2778L77.2031 27.382V28.3715C77.2031 28.4236 77.2552 28.5278 77.2552 28.5799Z" fill="#FCD559"/>
<path d="M80.2789 27.172V28.3178C80.2789 28.9428 80.0184 29.4636 79.6016 29.8282L84.1866 32.3801L83.9261 31.5468C81.9983 29.5678 81.7899 27.172 81.7899 27.0679L80.2789 27.172Z" fill="#FCD559"/>
<path d="M75.7969 27.7969L76.1616 28.0052V27.6406L75.7969 27.7969Z" fill="#FCD559"/>
<path d="M80.0684 40.8697C80.381 40.7655 80.6936 40.6092 81.0063 40.453C76.2128 38.8385 72.8783 36.7032 71.0547 34.0991L71.8883 36.6511C71.9925 37.0677 72.2009 37.4323 72.3573 37.7969C74.0245 38.8385 76.3691 39.9843 79.7037 40.9738C79.8079 40.9217 79.9642 40.8697 80.0684 40.8697Z" fill="#FCD559"/>
<path d="M69.4929 28.2664C69.4929 28.2664 69.3887 28.3705 69.2845 28.5789L70.2223 31.4954L70.8475 31.2871C71.9938 35.0369 76.0057 37.641 81.4243 39.4638C76.4225 36.4431 74.4947 31.4433 74.0779 28.3185L71.6291 29.0997L70.2223 24.7249L68.7634 23.9437C68.3987 23.7353 67.9819 23.5791 67.6172 23.4229L69.0761 27.9539L69.4929 28.2664Z" fill="#FCD559"/>
<path d="M78.2478 29.3596C78.352 29.3596 78.4562 29.3596 78.5604 29.3075L77.2578 28.5784C77.362 29.0471 77.7788 29.3596 78.2478 29.3596Z" fill="#FCD559"/>
<path d="M84.2902 32.694L84.186 32.4336L79.601 29.8816C79.2363 30.1941 78.7674 30.4024 78.2463 30.4024C77.1001 30.4024 76.2143 29.4649 76.2143 28.3712V28.0067L75.7975 27.7983L74.0781 28.3192C74.4949 31.3919 76.3706 36.4438 81.4246 39.4645C81.6851 39.5687 81.9456 39.6207 82.2061 39.7249C84.186 38.0583 85.1239 35.298 84.2902 32.694Z" fill="#FCD559"/>
<path d="M84.9215 108.784C85.1299 108.732 85.3905 108.732 85.7552 108.628L85.651 107.951L71.6875 110.086L75.3868 134.408L81.587 133.471C81.066 130.085 84.14 126.752 88.3603 126.075L88.0477 124.096C87.683 124.148 87.3183 124.2 86.9535 124.252L84.9215 108.784Z" fill="black"/>
<path d="M84.9141 108.783L86.9461 124.252C87.3108 124.199 87.6755 124.147 88.0402 124.095L85.6956 108.627C85.383 108.731 85.1225 108.731 84.9141 108.783Z" fill="black"/>
<path d="M81.1641 22.8507L82.1019 25.7672L83.4045 25.3506L82.6229 22.7986C82.3624 22.8507 82.1019 22.9027 81.8414 22.9027C81.5809 22.9548 81.3725 22.9027 81.1641 22.8507Z" fill="#FCD559"/>
<path d="M79.8606 22.2781C78.9748 21.7052 78.2975 20.7678 77.9328 19.6741L75.7966 20.3511C76.005 20.6636 76.2134 21.0803 76.3697 21.6011L75.3798 21.9136C75.1714 21.3407 75.015 20.924 74.7545 20.7157L69.4922 22.3823L70.2737 24.778L75.2235 27.4862L76.2134 27.4341V24.6218H77.2555V27.3821L79.2875 26.7571V26.705H79.3917L82.1531 25.8196L81.2153 22.9031C80.6942 22.7469 80.2774 22.5906 79.8606 22.2781Z" fill="#FCD559"/>
<path d="M76.1618 27.6418V27.3813L75.1719 27.4334L75.7971 27.798L76.1618 27.6418Z" fill="#FCD559"/>
<path d="M75.1763 27.434L70.2266 24.7258L71.6333 29.1006L74.0821 28.3194C74.03 28.059 74.03 27.7465 73.9779 27.4861L75.1763 27.434Z" fill="#FCD559"/>
<path d="M75.1749 27.4331L73.9766 27.4852C73.9766 27.7456 74.0287 28.006 74.0808 28.3185L75.8002 27.7977L75.1749 27.4331Z" fill="#FCD559"/>
<path d="M82.4147 22.38L82.571 22.8487C82.6231 22.8487 82.6752 22.8487 82.7273 22.7967L82.4147 21.8071C81.8937 21.9634 81.2684 21.9113 80.6953 21.6509L80.9558 22.4321C81.4769 22.5363 81.9458 22.5363 82.4147 22.38Z" fill="black"/>
<path d="M78.9274 19.3606L77.9375 19.6731L78.2501 19.5689C78.719 21.0272 79.8132 22.0688 81.0115 22.3813L80.751 21.6001C80.6468 21.548 80.5426 21.4959 80.4384 21.4438C79.7611 20.9751 79.188 20.246 78.9274 19.3606Z" fill="black"/>
<path d="M81.0078 22.3813L81.1641 22.8501C81.3725 22.9022 81.633 22.9542 81.8415 22.9542C82.102 22.9542 82.3625 22.9022 82.623 22.8501L82.4667 22.3813C81.9457 22.5376 81.4767 22.5376 81.0078 22.3813Z" fill="black"/>
<path d="M79.8653 22.2764C80.2821 22.5368 80.6989 22.7451 81.1679 22.7972L81.0115 22.3285C79.8132 22.016 78.719 20.9744 78.2501 19.5161L77.9375 19.6203C78.3022 20.7661 78.9795 21.7035 79.8653 22.2764Z" fill="black"/>
<path d="M72.4141 19.5692L72.7267 20.5588C73.7166 20.2463 74.2898 20.2463 74.7066 20.6629L75.7486 20.3505C75.0713 19.3088 74.0292 19.0484 72.4141 19.5692Z" fill="black"/>
<path d="M76.373 21.6003C76.2167 21.0795 76.0083 20.7149 75.7999 20.3503L74.7578 20.6628C75.0183 20.9232 75.2267 21.3399 75.383 21.8607L76.373 21.6003Z" fill="black"/>
<path d="M80.2842 27.1717V26.6509H79.3464L79.2422 26.703V27.2238L80.2842 27.1717Z" fill="black"/>
<path d="M77.2061 28.3709V27.3813H77.154L76.1641 27.6938V28.0584L77.2582 28.6313C77.2582 28.5271 77.2061 28.423 77.2061 28.3709Z" fill="black"/>
<path d="M79.2398 28.3716C79.2398 28.8403 78.9272 29.2049 78.5625 29.3091L79.6046 29.882C80.0214 29.5174 80.2819 28.9445 80.2819 28.3716V27.2258L79.2398 27.2779V28.3716Z" fill="black"/>
<path d="M78.2482 29.36C77.7792 29.36 77.3624 29.0475 77.2582 28.5787L76.1641 28.0059V28.3704C76.1641 29.5162 77.1019 30.4016 78.1961 30.4016C78.7171 30.4016 79.186 30.1933 79.5507 29.8808L78.5087 29.3079C78.4566 29.3079 78.3524 29.36 78.2482 29.36Z" fill="black"/>
<path d="M79.2422 26.6509V26.703L79.3464 26.6509H79.2422Z" fill="black"/>
<path d="M77.2061 27.3282V24.5679H76.1641V27.3802L77.154 27.3282H77.2061Z" fill="black"/>
<path d="M77.154 27.3296L76.1641 27.3817V27.6421L77.154 27.3296Z" fill="black"/>
<path d="M94.4022 43.734C94.2459 43.734 94.1417 43.6819 93.9854 43.6819C93.8812 44.8277 93.5686 45.9214 92.9434 46.963L91.1719 50.192C97.1637 51.0253 103.364 51.3899 109.147 51.5461L109.668 51.0253L109.825 44.6193C103.989 44.5152 98.9351 44.1506 94.6627 43.6819C94.6627 43.6819 94.6627 43.6819 94.6627 43.734H94.4022Z" fill="#FCD559"/>
<path d="M86.7955 50.5584C85.7013 50.3501 84.5551 50.1418 83.4609 49.8813C83.5651 49.9334 83.6694 49.9855 83.7736 50.0376C84.7635 50.1938 85.7535 50.4022 86.7955 50.5584Z" fill="#FCD559"/>
<path d="M63.3496 38.6822C60.015 32.797 63.089 27.3806 63.1933 27.1202L64.079 27.641C64.0269 27.6931 61.2134 32.797 64.2353 38.1614C67.622 44.2028 76.4794 47.6401 86.7436 49.515V42.6404C83.9821 42.1195 81.6375 41.5466 79.6576 40.9738C76.7399 41.7029 73.718 40.3488 72.3112 37.7968C70.175 36.4427 69.185 35.1407 68.7682 34.2553C67.5699 31.8596 68.7682 29.4638 69.2371 28.5785L69.0287 27.9535L63.1933 23.5266C61.3176 26.0265 58.8687 31.7554 61.6823 37.5364C64.3395 43.057 70.8002 46.9631 81.2207 49.4109L81.2728 49.3067C73.0927 47.2756 66.3194 43.8903 63.3496 38.6822Z" fill="#FCD559"/>
<path d="M86.7969 50.5574C87.0053 50.6095 87.2658 50.6095 87.4742 50.6615C87.2658 50.6615 87.0053 50.6095 86.7969 50.5574Z" fill="#FCD559"/>
<path d="M92.9918 46.9631C93.565 45.9215 93.8776 44.7757 94.0339 43.682C91.3767 43.3695 88.98 43.0049 86.8438 42.6404V49.5151C88.3026 49.7755 89.7615 50.0359 91.2725 50.2442L92.9918 46.9631Z" fill="#FCD559"/>
<path d="M81.3255 49.3582L81.2734 49.4623C82.1071 49.6706 82.9407 49.8269 83.7744 50.0352C83.6702 49.9831 83.5659 49.931 83.4617 49.879C82.7323 49.7227 82.0029 49.5665 81.3255 49.3582Z" fill="#FCD559"/>
<path d="M79.7058 40.9753C76.3713 39.9857 74.0267 38.84 72.3594 37.7983C73.7661 40.3503 76.7881 41.7044 79.7058 40.9753Z" fill="#FCD559"/>
<path d="M69.4949 28.2663L69.0781 27.9539L69.2865 28.5788C69.3907 28.3705 69.4949 28.2663 69.4949 28.2663Z" fill="#FCD559"/>
<path d="M90.7031 51.1299C96.4865 52.0153 102.478 52.4319 108.105 52.5882L108.262 52.4319C101.749 52.2236 95.8613 51.8069 90.7031 51.1299Z" fill="black"/>
<path d="M87.4688 50.6611C88.5108 50.8695 89.6049 51.0257 90.647 51.1819V51.1299C89.6049 51.0257 88.5108 50.8695 87.4688 50.6611Z" fill="black"/>
<path d="M108.259 52.4315L109.145 51.5982C103.361 51.442 97.1613 51.0774 91.1695 50.2441L90.6484 51.1816C95.8587 51.8066 101.746 52.2232 108.259 52.4315Z" fill="black"/>
<path d="M64.2824 38.161C61.2605 32.7967 64.1261 27.6928 64.1261 27.6407L63.2404 27.1199C63.084 27.3282 60.0621 32.7446 63.3967 38.6819C66.3665 43.942 73.1398 47.2752 81.3199 49.3585L81.372 49.1502C82.1015 49.3585 82.7788 49.5668 83.4561 49.8793C84.5503 50.1397 85.6444 50.348 86.7907 50.5563V49.5147C76.5265 47.6398 67.6691 44.2024 64.2824 38.161Z" fill="black"/>
<path d="M91.1709 50.2452C89.6599 50.0369 88.2011 49.7765 86.7422 49.5161V50.5577C86.9506 50.6098 87.2111 50.6619 87.4195 50.6619C88.4616 50.8181 89.5557 50.9744 90.6499 51.1306L91.1709 50.2452Z" fill="black"/>
<path d="M81.3203 49.359C82.0497 49.5152 82.7271 49.7235 83.5086 49.8798C82.8313 49.6194 82.1018 49.359 81.4245 49.1506L81.3203 49.359Z" fill="black"/>
<path d="M110.292 44.3066V43.265C105.29 43.1608 99.9759 42.8484 94.8698 42.2234C94.8698 42.588 94.8177 42.9004 94.7656 43.265C99.2985 43.8379 104.509 44.2025 110.292 44.3066Z" fill="black"/>
<path d="M86.7912 41.5483C85.1239 41.1837 83.6129 40.6629 82.2062 39.9338C82.1541 39.8817 82.102 39.8817 81.9978 39.8296C81.6851 40.09 81.3725 40.2983 81.0078 40.4546C82.7272 41.0275 84.655 41.5483 86.7912 42.017V41.5483Z" fill="black"/>
<path d="M71.0552 34.0994L70.2215 31.4954L69.8047 31.5995C70.1173 32.4849 70.5341 33.3182 71.0552 34.0994Z" fill="black"/>
<path d="M86.7969 41.5471V42.0158C88.9331 42.4846 91.2256 42.8491 93.7265 43.1616C93.7786 42.7971 93.8307 42.4325 93.8307 42.12C93.5181 42.0679 93.1534 42.0159 92.8408 41.9638C92.4239 41.9638 92.0071 42.0158 91.6424 42.0158C89.923 42.0158 88.3078 41.8596 86.7969 41.5471Z" fill="black"/>
<path d="M86.796 41.5462V40.9213C85.1808 40.5567 83.6178 40.14 82.211 39.7234C82.1589 39.7755 82.1068 39.7755 82.0547 39.8276C82.1068 39.8796 82.1589 39.8796 82.2631 39.9317C83.6178 40.6608 85.1287 41.1817 86.796 41.5462Z" fill="black"/>
<path d="M91.6398 42.0166C92.0566 42.0166 92.4214 42.0166 92.8382 41.9646C90.7541 41.6521 88.7221 41.3396 86.7422 40.8708V41.4958C88.3053 41.8604 89.9204 42.0166 91.6398 42.0166Z" fill="black"/>
<path d="M81.0092 40.4543C81.3739 40.2981 81.6865 40.0377 81.9991 39.8294C81.7907 39.7252 81.5823 39.569 81.3739 39.4648C75.9553 37.642 71.9434 35.0379 70.7971 31.2881L70.1719 31.4964L71.0055 34.1005C72.8812 36.7045 76.2158 38.8398 81.0092 40.4543Z" fill="black"/>
<path d="M82.1565 39.7245C81.896 39.6204 81.6355 39.5683 81.375 39.4641C81.5834 39.5683 81.7918 39.7245 82.0002 39.8287C82.0523 39.7766 82.1044 39.7766 82.1565 39.7245Z" fill="black"/>
<path d="M93.9818 42.1731C94.2944 42.2252 94.5549 42.2252 94.8675 42.2772C94.8675 42.121 94.8675 42.0168 94.8675 41.8606C94.5549 41.9127 94.2423 41.9127 93.9297 41.9648C93.9818 42.0168 93.9818 42.0689 93.9818 42.1731Z" fill="black"/>
<path d="M87.8881 32.9021L87.6797 33.7354C88.5654 33.9958 89.6075 34.152 90.8579 34.2041C89.9722 33.6312 88.9822 33.1625 87.8881 32.9021Z" fill="black"/>
<path d="M93.9844 43.6295L94.3491 43.7336C94.4533 43.7336 94.5575 43.7336 94.6096 43.7857C94.6617 43.6295 94.6617 43.4732 94.7138 43.3691C94.4533 43.317 94.2449 43.317 93.9844 43.2649C94.0365 43.3691 94.0365 43.4732 93.9844 43.6295Z" fill="black"/>
<path d="M94.8673 41.8606C94.9194 40.142 94.4504 38.4233 93.5126 36.965C92.8353 35.8713 91.9495 34.9339 90.8554 34.2568C89.6049 34.2047 88.5628 34.0485 87.6771 33.7881L87.625 33.9964C89.7091 34.4651 91.4806 35.7672 92.6268 37.59C93.3042 38.6837 93.6689 39.8816 93.8252 41.0794C93.8773 41.3919 93.9294 41.7044 93.9815 42.0169C94.2941 41.9127 94.6067 41.8606 94.8673 41.8606Z" fill="black"/>
<path d="M93.6719 43.5257L94.0366 43.6299C94.0366 43.4736 94.0366 43.3695 94.0366 43.2132C93.9324 43.2132 93.8282 43.1611 93.724 43.1611C93.6719 43.3174 93.6719 43.4215 93.6719 43.5257Z" fill="black"/>
<path d="M93.8281 42.1207C93.8802 42.1207 93.9323 42.1207 93.9844 42.1207C93.9844 42.0686 93.9844 41.9644 93.9844 41.9124C93.9323 41.9124 93.8802 41.9124 93.8802 41.9124C93.8802 42.0165 93.8281 42.0686 93.8281 42.1207Z" fill="black"/>
<path d="M93.9844 41.9121C93.9323 41.5996 93.8802 41.2871 93.8281 40.9746C93.8802 41.2871 93.8802 41.5996 93.8802 41.9641C93.8802 41.9641 93.9323 41.9121 93.9844 41.9121Z" fill="black"/>
<path d="M94.659 43.7857C94.659 43.7857 94.659 43.7336 94.659 43.7857C94.5547 43.7336 94.5026 43.7336 94.3984 43.7336L94.659 43.7857Z" fill="black"/>
<path d="M94.0365 43.213C94.297 43.2651 94.5054 43.2651 94.7659 43.3172C94.818 42.9526 94.8701 42.6401 94.8701 42.2755C94.5575 42.2235 94.297 42.2235 93.9844 42.1714C94.0365 42.4839 94.0365 42.8484 94.0365 43.213Z" fill="black"/>
<path d="M93.7266 43.1612C93.8308 43.1612 93.935 43.2133 94.0392 43.2133C94.0392 42.8488 94.0392 42.4842 94.0392 42.1196C93.9871 42.1196 93.935 42.1196 93.8829 42.1196C93.8308 42.4842 93.7787 42.8488 93.7266 43.1612Z" fill="black"/>
<path d="M69.9157 9.04914C67.2585 9.88243 65.5391 12.2782 65.3828 14.9343L76.9496 11.2365C75.3344 9.1533 72.5209 8.21584 69.9157 9.04914Z" fill="black"/>
<path d="M71.7862 14.9344C73.8703 14.2573 76.0586 14.726 77.7259 15.976L78.8721 15.6114L78.1427 13.3199C77.9864 12.9032 77.8301 12.5386 77.6217 12.1741L65.4297 16.0801C65.4818 16.4968 65.586 16.9134 65.6902 17.3301L66.4196 19.6217L67.5659 19.2571C68.139 17.2259 69.7021 15.6114 71.7862 14.9344Z" fill="black"/>
<path d="M71.7906 14.9325C69.7065 15.6096 68.1955 17.2241 67.5703 19.2032L77.7303 15.9741C76.063 14.7242 73.8747 14.2555 71.7906 14.9325Z" fill="black"/>
<path d="M80.332 11.2356C80.5404 11.1836 80.6967 11.1315 80.9051 11.1315C81.6866 11.1315 82.4161 11.6523 82.6766 12.4335C82.8329 12.9022 82.7808 13.423 82.5724 13.8397C82.364 14.2563 81.9472 14.6209 81.4782 14.7772L78.821 15.6105L78.9773 16.1313L78.1437 16.3917C78.3 16.5479 78.4042 16.6521 78.5605 16.8083L81.7908 15.7667C82.5203 15.5584 83.1455 15.0376 83.4581 14.3605C83.8228 13.6835 83.875 12.9022 83.6665 12.1731C83.1976 10.6628 81.5303 9.82946 80.0194 10.2982L76.9453 11.2877C77.1537 11.5481 77.3621 11.8606 77.5705 12.1731L80.332 11.2356Z" fill="black"/>
<path d="M66.5795 20.0894L66.4232 19.5686L63.7138 20.4539C63.2449 20.6102 62.7239 20.5581 62.3071 20.3498C61.8903 20.1415 61.5255 19.7248 61.3692 19.2561C61.2129 18.7873 61.265 18.2665 61.4734 17.8499C61.6818 17.4332 62.0987 17.0687 62.5676 16.9124L65.3811 16.0271C65.329 15.6625 65.329 15.2979 65.329 14.9333L62.2029 15.9229C61.4734 16.1312 60.8482 16.652 60.5356 17.3291C60.223 18.0061 60.1188 18.7873 60.3272 19.5165C60.744 20.7664 61.8382 21.5476 63.0886 21.5476C63.4012 21.5476 63.6617 21.4956 63.9744 21.3914L67.2568 20.3498C67.2568 20.1415 67.3089 19.9852 67.361 19.7769L66.5795 20.0894Z" fill="black"/>
<path d="M78.1472 16.3401L67.362 19.7774C67.3099 19.9858 67.3099 20.142 67.2578 20.3503L78.5119 16.7567C78.4598 16.6526 78.3035 16.4963 78.1472 16.3401Z" fill="black"/>
<path d="M66.4219 19.5696L66.5782 20.0904L67.4118 19.83C67.4639 19.6216 67.516 19.4133 67.5681 19.2571L66.4219 19.5696Z" fill="black"/>
<path d="M65.4297 16.0278L77.6217 12.1217C77.4654 11.8092 77.257 11.4967 76.9965 11.2363L65.4297 14.9341C65.3776 15.2986 65.3776 15.6632 65.4297 16.0278Z" fill="black"/>
<path d="M78.8181 15.6094L77.6719 15.9739C77.8282 16.0781 77.9845 16.2343 78.1408 16.3906L78.9744 16.1302L78.8181 15.6094Z" fill="black"/>
<path d="M67.5704 19.204C67.5183 19.4123 67.4662 19.6206 67.4141 19.7768L78.1993 16.3395C78.043 16.1833 77.8867 16.0791 77.7304 15.9229L67.5704 19.204Z" fill="black"/>
<path d="M40.0547 53.3696C40.3152 53.1092 40.5757 52.9009 40.8883 52.6404L40.1068 48.5781L40.0547 53.3696Z" fill="black"/>
<path d="M40.0078 74.359H45.1139L44.2802 70.0884C42.8213 71.13 41.4146 72.0154 40.0078 72.8487V74.359Z" fill="black"/>
<path d="M40.0078 72.8478C41.4146 72.0666 42.8213 71.1291 44.2802 70.0875L40.8936 52.6404C40.633 52.9008 40.3725 53.1091 40.0599 53.3695L40.0078 72.8478Z" fill="black"/>
<path d="M39.3298 125.45L0.25293 95.9721H-0.111787V95.7117V-0.169441L-0.320197 -0.325684L-0.632812 95.7117V95.9721L39.8508 126.492L39.955 95.9721H39.434L39.3298 125.45Z" fill="black"/>
<path d="M-0.117188 95.9706H0.24753L-0.117188 95.7102V95.9706Z" fill="black"/>
<path d="M0.195428 0.715212L39.637 30.4014L39.5849 53.8379L39.637 53.7858V46.234L40.1059 48.5777L40.158 30.4014V30.141L-0.117188 -0.170166V95.711L0.195428 0.715212Z" fill="black"/>
<path d="M39.6381 74.357V73.0549C39.586 73.0549 39.5339 73.107 39.4818 73.107L39.4297 95.9706H39.9507L40.0028 74.3049H39.6381V74.357Z" fill="black"/>
<path d="M39.5365 53.8375L39.4844 73.1075C39.5365 73.1075 39.5886 73.0554 39.6407 73.0554V53.7854C39.5886 53.7854 39.5886 53.8375 39.5365 53.8375Z" fill="black"/>
<path d="M40.1095 48.5773L39.6406 46.2336V53.7854C39.7969 53.6291 39.9532 53.525 40.1095 53.3687V48.5773Z" fill="black"/>
<path d="M39.6406 73.056V74.358H40.0053V72.8477C39.9011 72.8997 39.7448 72.9518 39.6406 73.056Z" fill="black"/>
<path d="M40.0549 53.3684C39.8986 53.5247 39.7422 53.6288 39.5859 53.7851V73.055C39.6901 73.003 39.8465 72.8988 39.9507 72.8467L40.0549 53.3684Z" fill="black"/>
<path d="M38.8058 124.408L1.13574 95.9717H0.25L39.3269 125.45L39.4311 95.9717H38.9101L38.8058 124.408Z" fill="black"/>
<path d="M0.403838 95.451L0.716452 1.7572L39.116 30.6622L39.0639 54.3069C39.2202 54.1507 39.4286 53.9945 39.5849 53.8382L39.637 30.4018L0.195428 0.715576L-0.117188 95.7114L0.24753 95.9718H1.13327L0.403838 95.451Z" fill="black"/>
<path d="M38.9141 95.9727H39.4351L39.4872 73.1091C39.3309 73.2133 39.1225 73.3175 38.9662 73.3695L38.9141 95.9727Z" fill="black"/>
<path d="M39.013 54.3058L38.9609 73.4195C39.1172 73.3154 39.3257 73.2112 39.482 73.1591L39.5341 53.8892C39.3778 53.9933 39.2214 54.1496 39.013 54.3058Z" fill="black"/>
<path d="M33.0225 109.148L33.0746 95.9717H32.0326L31.9805 108.575L28.7501 110.971L8.89907 95.9717H7.17969L28.7501 112.273L33.0225 109.148Z" fill="black"/>
<path d="M7.75431 95.1375L4.15924 86.9608L4.21134 69.3574C3.89873 69.097 3.58611 68.8887 3.2735 68.6283L4.21134 67.4825V63.4723L7.4417 61.1286L8.69215 62.0661L9.36949 61.2848L7.4938 59.8787L3.22139 63.0035L3.11719 87.2733L6.92067 95.8667L7.18118 96.075H8.90056L7.75431 95.1375Z" fill="black"/>
<path d="M32.0873 85.087L32.0352 95.972H33.0772L33.1293 84.8787L29.5342 76.8062C29.1695 76.8582 28.8048 76.9103 28.4922 76.9624L32.0873 85.087Z" fill="black"/>
<path d="M3.27344 68.6282C3.58605 68.8886 3.89867 69.149 4.21128 69.3573V67.4824L3.27344 68.6282Z" fill="black"/>
<path d="M28.4422 76.9621C28.8069 76.9621 29.1716 76.91 29.5363 76.8059L29.2758 76.2851L9.37265 61.2336L8.69531 62.0149L28.4422 76.9621Z" fill="black"/>
<path d="M9.4236 53.9411L5.82853 45.7643L5.88063 22.2758L9.11099 19.9322L30.1083 35.7648L33.7034 43.9415L33.6513 58.42C34.016 58.2117 34.3286 57.9513 34.6933 57.6909L34.7454 43.7853V43.6811L30.9419 35.0877L9.11099 18.6301L4.83858 21.755L4.73438 46.0247L8.53786 54.6181L12.3934 57.5347L13.0708 56.7534L9.4236 53.9411Z" fill="black"/>
<path d="M34.6905 67.9521L34.7426 57.6922C34.3779 57.9526 34.0653 58.1609 33.7005 58.4213L33.6484 67.4313L30.4181 69.775L13.068 56.7026L12.3906 57.4839L30.366 71.0249L34.6905 67.9521Z" fill="black"/>
<path d="M138.478 125.188L100.131 161.749L99.6617 117.688C99.5053 117.897 99.2969 118.053 99.1406 118.261L99.6617 162.947L139.051 125.396L137.905 24.1509L137.488 24.5675V31.963L138.478 125.188Z" fill="black"/>
<path d="M109.664 51.8062L137.383 25.4011L137.435 32.0154V24.6199L109.716 51.077L109.664 51.8062Z" fill="black"/>
<path d="M98.982 61.9632L108.829 52.5886C108.569 52.5886 108.36 52.5886 108.1 52.5886L98.4609 61.7549L98.513 65.3485C98.7215 65.713 98.8778 66.0255 99.0341 66.338L98.982 61.9632Z" fill="black"/>
<path d="M99.607 117.743L99.4507 101.546L98.9297 101.285L99.1381 118.316C99.2944 118.107 99.4507 117.899 99.607 117.743Z" fill="black"/>
<path d="M99.0367 66.3372C98.8803 66.0247 98.6719 65.6601 98.5156 65.3477L98.9324 101.231L99.4535 101.492L99.0367 66.3372Z" fill="black"/>
<path d="M109.669 51.5989V51.8073V51.0781L109.148 51.5989C109.357 51.5989 109.513 51.5989 109.669 51.5989Z" fill="black"/>
<path d="M108.258 52.4331L108.102 52.5894C108.362 52.5894 108.57 52.5894 108.831 52.5894L108.987 52.4331C108.779 52.4331 108.518 52.4331 108.258 52.4331Z" fill="black"/>
<path d="M108.992 52.4322L109.618 51.8072V51.5989C109.461 51.5989 109.305 51.5989 109.097 51.5989L108.211 52.4322C108.524 52.4322 108.784 52.4322 108.992 52.4322Z" fill="black"/>
<path d="M137.959 124.981L100.654 160.552L100.185 117.117C100.029 117.325 99.8204 117.533 99.6641 117.69L100.133 161.75L138.48 125.189L137.438 31.9644V78.5769L137.959 124.981Z" fill="black"/>
<path d="M109.664 52.4842V52.5884L136.862 26.652L137.435 78.6289V32.0164L137.383 25.4021L109.716 51.8072L109.664 52.4842Z" fill="black"/>
<path d="M99.5601 62.2233L109.616 52.6404C109.355 52.6404 109.147 52.6404 108.886 52.6404L99.0391 62.015L99.0912 66.3898C99.2996 66.7543 99.4559 67.1189 99.6122 67.4314L99.5601 62.2233Z" fill="black"/>
<path d="M99.9742 101.753L99.4531 101.492L99.6094 117.69C99.7657 117.481 99.9741 117.325 100.13 117.117L99.9742 101.753Z" fill="black"/>
<path d="M99.607 67.4308C99.4507 67.0662 99.2422 66.7537 99.0859 66.3892L99.5028 101.544L100.024 101.804L99.607 67.4308Z" fill="black"/>
<path d="M109.664 52.4832L109.716 51.8062L109.664 52.4832Z" fill="black"/>
<path d="M109.664 52.589V52.4849C109.456 52.4849 109.248 52.4849 109.039 52.4849L108.883 52.6411C109.143 52.6411 109.352 52.6411 109.612 52.6411L109.664 52.589Z" fill="black"/>
<path d="M109.664 52.4829V51.8579L109.039 52.4829C109.247 52.4308 109.456 52.4829 109.664 52.4829Z" fill="black"/>
<path d="M104.87 72.3271C107.788 69.4105 110.133 63.3691 110.133 58.6298L126.18 43.3179C126.389 45.4533 127.17 46.8594 128.368 47.3803C129.306 47.7969 130.453 47.5365 131.547 46.7553L131.807 67.8481C128.889 70.7646 126.545 76.806 126.545 81.5454L110.497 96.8572C110.289 94.7219 109.507 93.3157 108.309 92.7949C107.996 92.6908 107.684 92.5866 107.319 92.5866C107.006 92.5866 106.694 92.6387 106.381 92.7428C106.381 93.1074 106.433 93.472 106.433 93.8365C106.954 93.6282 107.475 93.5761 107.892 93.7324C108.882 94.149 109.507 95.7635 109.507 98.003V99.2009L127.535 82.0141V81.8058C127.483 77.1706 129.775 71.1813 132.641 68.4731L132.797 68.3168L132.537 44.5158L131.651 45.3491C130.557 46.3907 129.515 46.8074 128.733 46.4949C127.743 46.0782 127.118 44.4637 127.118 42.2242V41.0264L109.09 58.2131V58.4214C109.143 63.0566 106.85 69.046 103.984 71.7542L103.828 71.9104L103.88 78.7851C104.297 80.2434 104.662 81.7017 104.974 83.1078L104.87 72.3271Z" fill="black"/>
<path d="M104.98 94.8784C105.501 94.3576 106.022 94.0451 106.491 93.8368C106.491 93.4723 106.438 93.1077 106.438 92.7431C106.022 92.8994 105.605 93.1077 105.136 93.4202L105.032 83.1081C104.719 81.6499 104.354 80.1916 103.938 78.7854L104.146 95.7638L104.98 94.8784Z" fill="black"/>
<path d="M104.977 116.961L105.237 140.762L106.123 139.929C107.217 138.887 108.259 138.471 109.041 138.783C110.031 139.2 110.656 140.814 110.656 143.054V144.252L128.683 127.065V126.856C128.631 123.94 129.569 120.45 130.976 117.586L130.038 117.117C128.579 120.034 127.641 123.575 127.641 126.648L111.594 141.96C111.385 139.825 110.604 138.418 109.405 137.898C109.093 137.793 108.78 137.689 108.415 137.689C107.738 137.689 106.956 137.95 106.175 138.523L105.914 117.43C108.103 115.242 109.978 111.232 110.76 107.378L109.822 106.909C109.093 110.763 107.269 114.774 105.029 116.857L104.977 116.961Z" fill="black"/>
<path d="M111.279 103.679L127.327 88.367C127.535 90.5023 128.317 91.9085 129.515 92.4293C130.453 92.846 131.599 92.5856 132.693 91.8044L132.954 112.897C131.912 113.939 130.922 115.449 130.088 117.116L131.026 117.584C131.808 115.918 132.797 114.512 133.84 113.522L133.996 113.366L133.735 89.5649L132.85 90.3982C131.755 91.4398 130.713 91.8564 129.932 91.5439C128.942 91.1273 128.317 89.5128 128.317 87.2733V86.0754L110.289 103.262V103.471C110.289 104.564 110.185 105.71 109.977 106.856L110.914 107.325C111.123 106.075 111.279 104.825 111.279 103.679Z" fill="black"/>
</g>
<defs>
<clipPath id="clip0_400_1248">
<rect width="139" height="163" fill="white"/>
</clipPath>
</defs>
</svg>
