<svg width="160" height="139" viewBox="0 0 160 139" fill="none" xmlns="http://www.w3.org/2000/svg">
<path d="M134.512 84.6273C135.177 81.6707 134.611 78.4607 132.975 75.9095L135.391 74.2027C137.505 77.4373 138.255 81.5428 137.409 85.2905L137.409 85.2905L137.408 85.2957C137.099 86.7342 136.568 87.9497 135.848 88.9155L133.583 86.9745C134.01 86.3488 134.307 85.5505 134.512 84.6273Z" fill="#AACCF1" stroke="black"/>
<path d="M129.81 71.8322L129.811 71.8316L138.59 65.3192C138.59 65.3191 138.591 65.319 138.591 65.3189C139.896 64.3546 141.717 64.6179 142.678 65.9148C143.644 67.2172 143.381 69.0334 142.081 69.9931L142.081 69.9937L133.3 76.5067L133.3 76.5067L133.297 76.509C132.025 77.468 130.176 77.2092 129.213 75.9105C128.248 74.6081 128.511 72.7919 129.81 71.8322Z" fill="#AACCF1" stroke="black"/>
<path d="M123.544 98.0661L123.55 98.0786L123.557 98.0908L146.589 139.5H137.8L117.336 101.06C116.518 99.3628 117.238 97.2936 118.937 96.4718C120.641 95.648 122.72 96.3675 123.544 98.0661Z" fill="#AACCF1" stroke="black"/>
<path d="M121.69 103.827L121.684 103.834L121.678 103.842L94.905 138.287L85.7959 138.42L116.427 99.3789C117.619 97.9291 119.797 97.7375 121.265 98.9628C122.728 100.184 122.916 102.364 121.69 103.827Z" fill="#AACCF1" stroke="black"/>
<path d="M132.305 109.614H105.5L126.224 76.0396H132.305V109.614Z" fill="#AACCF1" stroke="black"/>
<path d="M47.3752 75.6448L47.284 72.6859C51.155 72.7124 55.0045 74.3439 57.6563 77.1319L57.6568 77.1325C58.688 78.2133 59.4094 79.3222 59.8206 80.4371L56.9639 81.2585C56.6763 80.5552 56.19 79.8562 55.5097 79.1763C53.3941 76.976 50.3966 75.6917 47.3752 75.6448Z" fill="#AACCF1" stroke="black"/>
<path d="M100.336 22.3261C99.178 22.3261 98.2441 21.3926 98.2441 20.2391V9.4348C98.2441 8.28132 99.178 7.34784 100.336 7.34784C101.493 7.34784 102.427 8.28132 102.427 9.4348V20.2391C102.427 21.3926 101.493 22.3261 100.336 22.3261Z" fill="#AACCF1" stroke="black"/>
<path d="M103.427 10.8787L106.045 14.3828H103.427V10.8787Z" fill="#AACCF1" stroke="black"/>
<path d="M38.7881 97.1526L38.7942 97.1652L38.801 97.1774L61.8328 138.587H53.0443L32.5802 100.147C31.7619 98.4493 32.4816 96.3802 34.1812 95.5584C35.8851 94.7345 37.9639 95.454 38.7881 97.1526Z" fill="#AACCF1" stroke="black"/>
<path d="M36.9338 102.914L36.928 102.921L36.9223 102.928L10.1489 137.373L1.03979 137.506L31.6705 98.465C32.8625 97.0151 35.0412 96.8235 36.5089 98.0489C37.9719 99.2704 38.16 101.45 36.9338 102.914Z" fill="#AACCF1" stroke="black"/>
<path d="M47.5489 108.7H20.7439L41.4681 75.1262H47.5489V108.7Z" fill="#AACCF1" stroke="black"/>
<path d="M103.232 17.1962C100.457 15.6136 96.8903 16.5571 95.2745 19.3266L74.5732 26.0223L93.6586 45.3788L105.366 25.1397C106.951 22.3701 106.006 18.8092 103.232 17.1962Z" fill="black"/>
<path d="M147.591 104.422C144.97 107.039 140.701 107.039 138.11 104.422L85.5182 45.4698C82.8963 42.8524 82.8963 38.5915 85.5182 36.0045C88.1402 33.3872 92.4085 33.3872 94.9999 36.0045L147.591 94.9567C150.183 97.5741 150.183 101.835 147.591 104.422Z" fill="black"/>
<path d="M36.4333 104.605C33.7199 102.109 33.5675 97.8482 36.0675 95.1395L84.6651 38.5612C87.1651 35.8525 91.4334 35.7004 94.1468 38.196C96.8602 40.6917 97.0126 44.9526 94.5126 47.6612L45.915 104.24C43.415 106.948 39.1467 107.1 36.4333 104.605Z" fill="black"/>
<path d="M39.7241 76.5055L39.7244 76.5047C40.1852 75.4764 40.8894 74.185 42.1412 73.4819L43.2651 76.3099C42.9947 76.5774 42.7155 77.0165 42.4088 77.7101C38.8747 85.6105 41.122 95.8558 47.5938 101.599C47.7504 101.74 47.9245 101.89 48.1005 102.018C48.2703 102.142 48.4705 102.268 48.6793 102.339C49.1054 102.487 49.5872 102.394 49.9892 102.216C50.4051 102.031 50.8137 101.723 51.1243 101.323C51.8296 100.441 52.2154 99.2447 52.5397 98.125L55.3877 98.8983C54.9833 100.316 54.4752 101.887 53.4214 103.195L53.4189 103.198C52.4558 104.414 50.8523 105.383 49.1767 105.383C48.6873 105.383 48.1977 105.302 47.6748 105.11C46.8777 104.808 46.2324 104.31 45.632 103.8C38.1152 97.1572 35.6079 85.6465 39.7241 76.5055Z" fill="#AACCF1" stroke="black"/>
<path d="M48.4451 101.957C41.3415 95.6871 38.9939 84.8219 42.8658 76.1784C43.2927 75.2349 43.9024 74.0784 45.0305 73.6523L45.1524 73.9262C44.1463 74.3218 43.5671 75.4175 43.1707 76.3001C41.3415 80.4088 40.8841 85.2175 41.8902 89.874C42.8963 94.5305 45.3049 98.7306 48.689 101.713L48.4451 101.957Z" fill="black"/>
<path d="M53.2579 89.3198L54.166 86.5095C55.7149 86.9503 58.3896 87.4432 60.9015 87.6637L60.9015 87.6637L60.9045 87.6639C62.791 87.8183 64.1321 87.766 65.0572 87.6381C65.9604 87.5132 66.5182 87.3094 66.7878 87.1137L66.9045 87.029L66.9582 86.8951C67.0846 86.5795 67.1465 86.353 67.1465 86.1613C67.1465 85.9378 67.0852 85.5793 66.7767 85.0625C66.332 84.2335 65.7227 83.4966 64.9867 82.9117L66.6749 80.4749C67.7983 81.3365 68.731 82.443 69.4082 83.691L69.4089 83.6923C69.9245 84.6358 70.1366 85.46 70.1103 86.2637C70.0827 86.8892 69.9189 87.5529 69.58 88.2576L69.5799 88.2576L69.576 88.2661C69.1648 89.1642 68.3351 89.7856 67.1736 90.1852C66.0091 90.5858 64.5621 90.7439 63.0184 90.7439C60.6412 90.7439 58.0934 90.3625 56.1221 89.9734C55.1387 89.7794 54.3038 89.5844 53.7119 89.4363C53.5388 89.393 53.3867 89.3538 53.2579 89.3198Z" fill="#AACCF1" stroke="black"/>
<path d="M47.1583 73.4754C47.9644 74.8775 47.4708 76.6732 46.0912 77.48C44.6854 78.2844 42.8863 77.7902 42.0787 76.4137C42.0784 76.4132 42.0781 76.4127 42.0778 76.4122L36.6225 66.9505C36.6225 66.9505 36.6224 66.9504 36.6224 66.9503C35.8163 65.5482 36.3099 63.7524 37.6895 62.9456C39.0953 62.1413 40.8944 62.6355 41.702 64.012C41.7023 64.0125 41.7025 64.013 41.7028 64.0134L47.1581 73.4751C47.1582 73.4752 47.1582 73.4753 47.1583 73.4754Z" fill="#AACCF1" stroke="black"/>
<path d="M133.354 5.75208H122.927V11.5651H133.354V5.75208Z" fill="black"/>
<path d="M123.262 6.72595H102.622V10.5607H123.262V6.72595Z" fill="black"/>
<path d="M160 1.36969H132.469V14.1523H160V1.36969Z" fill="black"/>
<path d="M42.1646 64.3391V69.9999H40.1829" fill="#AACCF1"/>
<path d="M42.317 70.1521H40.1829V69.8477H42.0121V64.3391H42.317V70.1521Z" fill="black"/>
<path d="M44.4207 70.8832C44.4207 71.9789 43.5366 72.8919 42.4085 72.8919C41.311 72.8919 40.3963 72.0093 40.3963 70.8832" fill="#AACCF1"/>
<path d="M42.4393 73.0441C41.2503 73.0441 40.2747 72.0702 40.2747 70.8832H40.5795C40.5795 71.918 41.4027 72.7398 42.4393 72.7398C43.4759 72.7398 44.2991 71.918 44.2991 70.8832H44.6039C44.5734 72.0702 43.6283 73.0441 42.4393 73.0441Z" fill="black"/>
<path d="M135.915 71.1562C135.915 72.2518 135.031 73.1649 133.903 73.1649C132.775 73.1649 131.891 72.2823 131.891 71.1562" fill="#AACCF1"/>
<path d="M133.903 73.3171C132.714 73.3171 131.738 72.3431 131.738 71.1562H132.043C132.043 72.191 132.866 73.0127 133.903 73.0127C134.939 73.0127 135.762 72.191 135.762 71.1562H136.067C136.067 72.3431 135.122 73.3171 133.903 73.3171Z" fill="black"/>
<path d="M39.3293 65.9217C39.6156 65.9217 39.8476 65.69 39.8476 65.4043C39.8476 65.1185 39.6156 64.8869 39.3293 64.8869C39.0431 64.8869 38.811 65.1185 38.811 65.4043C38.811 65.69 39.0431 65.9217 39.3293 65.9217Z" fill="black"/>
<path d="M139.817 67.6871C140.103 67.6871 140.335 67.4555 140.335 67.1697C140.335 66.884 140.103 66.6523 139.817 66.6523C139.531 66.6523 139.299 66.884 139.299 67.1697C139.299 67.4555 139.531 67.6871 139.817 67.6871Z" fill="black"/>
<path d="M102.927 15.826C99.8476 15.826 99.7866 15.7652 99.7866 12.3869H100.091C100.091 13.9999 100.092 14.7913 100.427 15.1565C100.762 15.5217 101.494 15.5217 102.927 15.5217V15.826Z" fill="black"/>
<path d="M153.994 12.6302C156.772 12.6302 159.024 10.3819 159.024 7.60847C159.024 4.83504 156.772 2.58673 153.994 2.58673C151.216 2.58673 148.963 4.83504 148.963 7.60847C148.963 10.3819 151.216 12.6302 153.994 12.6302Z" fill="#AACCF1"/>
<path d="M155.549 8.85642C156.408 8.85642 157.104 8.16149 157.104 7.30425C157.104 6.44701 156.408 5.75208 155.549 5.75208C154.69 5.75208 153.994 6.44701 153.994 7.30425C153.994 8.16149 154.69 8.85642 155.549 8.85642Z" fill="black"/>
<path d="M154.055 10.1347C151.616 10.1347 149.665 7.63903 149.604 7.51729L149.543 7.42598L149.604 7.33468C149.695 7.21294 151.616 4.71729 154.055 4.71729C156.494 4.71729 158.445 7.21294 158.506 7.33468L158.567 7.42598L158.506 7.51729C158.415 7.60859 156.494 10.1347 154.055 10.1347ZM149.909 7.42598C150.275 7.8825 152.012 9.83033 154.055 9.83033C156.098 9.83033 157.836 7.8825 158.202 7.42598C157.836 6.96946 156.098 5.02163 154.055 5.02163C152.012 5.02163 150.275 6.96946 149.909 7.42598Z" fill="black"/>
<path d="M135.945 103.922C135.456 103.922 134.966 103.841 134.443 103.649C133.646 103.347 133.001 102.849 132.401 102.339C128.623 98.9936 126.594 93.8868 126.019 88.4593C125.465 83.2169 126.275 77.7333 128.123 73.3701L130.838 74.5772C129.19 78.4991 128.499 83.3605 128.954 87.9487C129.426 92.7114 131.141 97.2554 134.393 100.138C134.549 100.279 134.724 100.428 134.9 100.557C135.069 100.681 135.27 100.807 135.478 100.877C135.904 101.026 136.386 100.933 136.788 100.755C137.204 100.57 137.613 100.262 137.923 99.8616C138.629 98.9798 139.014 97.7835 139.339 96.6638L142.187 97.4371C141.783 98.8547 141.275 100.425 140.221 101.733C139.225 102.954 137.62 103.922 135.945 103.922Z" fill="#AACCF1" stroke="black"/>
<path d="M132.957 103.539C132.317 103.296 131.799 102.87 131.341 102.474C126.829 98.4871 125.762 93.3741 125.274 88.4132L125.579 88.3828C126.067 93.2828 127.134 98.3349 131.555 102.261C131.982 102.626 132.47 103.052 133.079 103.265L132.957 103.539Z" fill="black"/>
<path d="M137.5 66.4089L131.829 66.7741L132.012 69.7263" fill="#AACCF1"/>
<path d="M131.86 69.7257L131.647 66.6213L137.47 66.2561L137.5 66.5605L131.982 66.9257L132.165 69.6952L131.86 69.7257Z" fill="black"/>
<path d="M132.805 109.961H104.604V110.266H132.805V109.961Z" fill="black"/>
<path d="M48.0489 109.048H19.8477V109.353H48.0489V109.048Z" fill="black"/>
<path d="M133.11 19.813C132.683 19.813 132.348 19.4783 132.348 19.0522C132.348 9.86087 132.348 5.23478 132.897 2.89131C133.537 0 135.214 0 137.287 0C137.714 0 138.049 0.334783 138.049 0.76087C138.049 1.18696 137.714 1.52174 137.287 1.52174C135.183 1.52174 134.756 1.52174 134.36 3.22609C133.842 5.41739 133.842 9.98261 133.842 19.0522C133.872 19.4783 133.537 19.813 133.11 19.813Z" fill="#AACCF1"/>
<path d="M134.756 19.813C134.329 19.813 133.994 19.4783 133.994 19.0522C133.994 9.86087 133.994 5.23478 134.543 2.89131C135.214 0 136.86 0 138.964 0C139.39 0 139.726 0.334783 139.726 0.76087C139.726 1.18696 139.36 1.52174 138.964 1.52174C136.86 1.52174 136.433 1.52174 136.037 3.22609C135.518 5.41739 135.518 9.98261 135.518 19.0522C135.518 19.4783 135.183 19.813 134.756 19.813Z" fill="#AACCF1"/>
<path d="M118.537 38.3172C107.896 38.3172 99.2683 29.6737 99.2683 19.0824H105.366C105.366 26.3259 111.281 32.2302 118.537 32.2302C125.793 32.2302 131.707 26.3259 131.707 19.0519H137.805C137.805 29.6737 129.146 38.3172 118.537 38.3172Z" fill="black"/>
</svg>
