<svg width="221" height="160" viewBox="0 0 221 160" fill="none" xmlns="http://www.w3.org/2000/svg">
<path d="M114.707 44.5615C114.039 44.5615 113.409 44.413 112.816 44.1159C112.593 44.3016 112.371 44.4501 112.148 44.5987C112.927 45.0443 113.78 45.3042 114.707 45.3042C117.71 45.3042 120.156 42.6305 120.156 39.3997H119.415C119.415 42.222 117.302 44.5615 114.707 44.5615Z" fill="black"/>
<path d="M114.703 43.8188C114.258 43.8188 113.813 43.7445 113.406 43.5589C113.22 43.7445 113.035 43.9302 112.812 44.1159C113.406 44.413 114.036 44.5615 114.703 44.5615C117.298 44.5615 119.412 42.222 119.412 39.3997H118.67C118.67 41.8135 116.891 43.8188 114.703 43.8188Z" fill="black"/>
<path d="M87.493 147.874C87.493 152.887 83.4148 156.972 78.4098 156.972C73.4048 156.972 69.3267 152.887 69.3267 147.874C69.3267 142.86 73.4048 138.775 78.4098 138.775C78.4469 138.775 78.4469 138.775 78.484 138.775C78.7064 138.293 78.9289 137.81 79.1884 137.327C78.9289 137.327 78.6693 137.29 78.4098 137.29C72.5892 137.29 67.8438 142.043 67.8438 147.874C67.8438 153.704 72.5892 158.457 78.4098 158.457C84.2304 158.457 88.9759 153.704 88.9759 147.874C88.9759 143.529 86.3437 139.778 82.5621 138.144C82.3026 138.59 82.0802 138.998 81.8577 139.444C85.1573 140.818 87.493 144.086 87.493 147.874Z" fill="black"/>
<path d="M126.752 132.017C133.944 132.017 139.802 137.885 139.802 145.089C139.802 152.293 133.944 158.161 126.752 158.161C119.559 158.161 113.702 152.293 113.702 145.089C113.702 141.45 115.185 138.145 117.594 135.768C117.557 135.137 117.52 134.468 117.483 133.837C114.258 136.511 112.219 140.558 112.219 145.052C112.219 153.073 118.744 159.609 126.752 159.609C134.76 159.609 141.285 153.073 141.285 145.052C141.285 137.031 134.76 130.495 126.752 130.495C125.417 130.495 124.082 130.68 122.859 131.015C122.896 131.497 122.933 132.017 123.007 132.537C124.157 132.203 125.417 132.017 126.752 132.017Z" fill="black"/>
<path d="M114.667 122.176C104.694 122.844 96.9089 124.478 91.0882 127.041C85.4901 129.492 81.5232 132.945 79.1875 137.327C80.3739 137.401 81.5232 137.699 82.5612 138.144C87.0843 130.568 97.984 126.484 116.15 125.407C116.076 125.184 116.002 124.924 115.928 124.701C115.557 123.773 115.149 122.918 114.667 122.176Z" fill="black"/>
<path d="M80.0768 147.875C80.0768 144.718 80.67 141.933 81.8193 139.482C80.7812 139.073 79.632 138.813 78.4456 138.813C77.2963 141.524 76.7031 144.532 76.7031 147.912H80.0768V147.875Z" fill="black"/>
<path d="M120.781 121.881C120.892 122.178 121.041 122.512 121.152 122.809C121.412 123.589 121.671 124.369 121.893 125.186C122.932 125.149 124.007 125.149 125.119 125.149V121.806C123.599 121.806 122.153 121.844 120.781 121.881Z" fill="black"/>
<path d="M78.4844 138.814C79.6707 138.814 80.82 139.074 81.8581 139.482C82.0806 139.037 82.303 138.591 82.5625 138.182C81.5244 137.737 80.3752 137.44 79.1888 137.365C78.9293 137.811 78.7068 138.294 78.4844 138.814Z" fill="black"/>
<path d="M125.086 121.804C125.642 121.804 126.198 121.804 126.754 121.804V125.146C126.198 125.146 125.642 125.146 125.086 125.146V128.489H128.423V107.693H125.086V121.804Z" fill="black"/>
<path d="M126.754 121.806C126.198 121.806 125.642 121.806 125.086 121.806V125.149C125.642 125.149 126.198 125.149 126.754 125.149V121.806Z" fill="black"/>
<path d="M111.408 113.188C111.223 115.119 110.593 116.902 109.555 118.462C111.779 119.093 113.447 120.318 114.634 122.175C116.599 122.027 118.601 121.952 120.751 121.878C118.897 117.422 115.82 114.525 111.408 113.188Z" fill="black"/>
<path d="M117.674 144.791V146.017C117.674 147.539 118.934 148.802 120.454 148.802C121.974 148.802 123.235 147.539 123.235 146.017V144.791C123.235 140.409 123.235 136.287 122.975 132.574C120.899 133.205 119.083 134.319 117.562 135.805C117.674 138.627 117.674 141.672 117.674 144.791Z" fill="black"/>
<path d="M117.485 133.875C119.042 132.575 120.859 131.61 122.861 131.052C122.638 128.973 122.342 127.005 121.897 125.185C119.932 125.222 118.004 125.296 116.188 125.408C116.892 127.822 117.263 130.681 117.485 133.875Z" fill="black"/>
<path d="M117.557 135.804C119.039 134.318 120.893 133.204 122.969 132.573C122.932 132.053 122.895 131.57 122.821 131.05C120.819 131.607 119.002 132.573 117.445 133.873C117.519 134.504 117.557 135.135 117.557 135.804Z" fill="black"/>
<path d="M120.789 121.879C118.676 121.953 116.637 122.028 114.672 122.176C115.154 122.919 115.562 123.773 115.895 124.701C115.969 124.924 116.044 125.184 116.118 125.407C117.934 125.296 119.862 125.221 121.827 125.184C121.605 124.367 121.382 123.587 121.086 122.808C121.012 122.51 120.9 122.176 120.789 121.879Z" fill="black"/>
<path d="M131.274 106.209H124.897C120.411 106.209 116.741 102.532 116.741 98.0388H115.258C115.258 103.349 119.595 107.694 124.897 107.694H125.045V106.654H128.382V107.694H131.237C135.167 107.694 138.54 105.317 140.06 101.938C139.541 101.938 139.022 101.79 138.614 101.53C137.354 104.278 134.536 106.209 131.274 106.209Z" fill="black"/>
<path d="M128.423 106.654H125.086V107.694H128.423V106.654Z" fill="black"/>
<path d="M96.7638 59.4916V59.3059H96.5043C93.2418 59.3059 90.5725 56.6321 90.5725 53.3642C90.5725 51.7302 89.2378 50.3933 87.6065 50.3933C85.9753 50.3933 84.6406 51.7302 84.6406 53.3642C84.6406 58.3032 87.6807 62.5738 91.9813 64.3563C92.7598 62.1282 94.5394 60.3085 96.7638 59.4916Z" fill="black"/>
<path d="M112.482 59.6399H104.141C105.142 60.1227 105.809 61.1254 105.809 62.3137C105.809 62.3508 105.809 62.3508 105.809 62.388C105.846 62.4623 105.92 62.5365 105.957 62.6108C106.18 62.5737 106.365 62.4994 106.55 62.4251C109.553 61.0882 113.038 62.4623 114.373 65.4331C114.855 66.5472 115.93 67.2156 117.079 67.2156C117.487 67.2156 117.895 67.1413 118.266 66.9557C119.749 66.2872 120.453 64.5419 119.786 63.0193C118.822 60.8654 117.302 59.0829 115.337 57.8574C114.855 58.8972 113.78 59.6399 112.482 59.6399Z" fill="black"/>
<path d="M105.809 62.3501C105.809 62.3129 105.809 62.3129 105.809 62.2758C105.809 61.0875 105.142 60.0848 104.141 59.6021H102.398C103.807 60.1962 104.957 61.1617 105.809 62.3501Z" fill="black"/>
<path d="M87.8246 114.6C87.8246 114.488 87.8246 114.302 87.8246 114.117C87.8246 113.04 87.8617 110.589 85.4889 109.512C83.8948 108.806 82.0781 109.252 80.6693 110.7C80.0391 111.369 79.483 112.074 79.001 112.743C78.5561 113.337 77.7405 114.414 77.4068 114.525C76.9619 114.191 76.3317 112.409 76.0722 111.517C75.9609 111.183 75.8497 110.849 75.7385 110.515C74.6263 107.432 72.6243 106.727 71.5121 106.578C70.3628 106.43 69.1764 106.764 68.0271 107.507C66.4329 108.584 65.4319 110.069 64.5792 111.406C64.2085 111.963 63.8748 112.483 63.5041 112.928C62.948 113.597 62.1694 113.968 61.8728 113.968C61.6875 113.745 61.5021 112.966 61.3538 112.52C60.946 111.109 60.3899 109.178 58.5732 107.989C57.6464 107.358 56.5342 107.061 55.1254 106.987C49.3047 106.801 44.0402 111.554 43.6324 117.385C43.5212 118.907 44.6705 120.244 46.2276 120.356C47.7476 120.467 49.0823 119.316 49.1935 117.756C49.3789 115.045 52.0853 112.52 54.8288 112.52C54.8658 112.52 54.94 112.52 54.9771 112.52C55.3107 112.52 55.459 112.557 55.4961 112.594C55.6444 112.817 55.8668 113.56 56.0151 114.005C56.3859 115.342 56.9049 117.125 58.5362 118.387C61.5021 120.653 65.5802 119.167 67.8417 116.382C68.3978 115.714 68.8427 115.045 69.2505 114.377C69.7325 113.671 70.1403 113.003 70.5852 112.52C70.6594 112.743 70.7335 112.928 70.8077 113.151C71.6233 115.602 72.9579 119.65 77.0361 119.947C79.8166 120.133 81.5962 118.35 82.8567 116.753C83.3757 117.83 84.2284 118.722 85.3406 119.39C86.4529 120.021 87.7134 120.318 88.9739 120.318C89.9007 120.318 90.8276 120.133 91.6803 119.799C90.3456 118.387 89.3446 116.679 88.8627 114.748C88.3436 114.897 87.9358 114.748 87.8246 114.6Z" fill="black"/>
<path d="M137.132 82.7738C132.683 80.6571 125.343 80.5457 109.883 80.5085C110.847 82.1425 111.44 84.0364 111.477 86.0789C124.23 86.0789 131.534 86.2646 134.759 87.7872C136.836 88.7898 137.355 89.941 137.355 99.1507C137.355 100.153 137.874 101.045 138.689 101.527C139.208 100.488 139.468 99.2992 139.468 98.0366H140.951C140.951 99.4106 140.654 100.748 140.135 101.936C141.655 101.936 142.916 100.673 142.916 99.1507C142.879 90.9066 142.879 85.4847 137.132 82.7738Z" fill="black"/>
<path d="M139.427 98.0388C139.427 99.3014 139.13 100.453 138.648 101.53C139.056 101.79 139.575 101.938 140.094 101.938C140.613 100.75 140.91 99.4128 140.91 98.0388H139.427Z" fill="black"/>
<path d="M96.5013 108.882C95.0925 108.25 93.4612 108.845 92.7939 110.256C92.4232 111.036 92.0895 111.778 91.7188 112.447C91.83 114.675 92.831 116.68 94.3881 118.091C96.0935 116.383 97.1316 114.192 97.873 112.595C98.5033 111.184 97.9101 109.513 96.5013 108.882Z" fill="black"/>
<path d="M108.031 86.268V112.04C108.031 112.189 108.031 112.374 108.031 112.523C108.068 112.523 108.106 112.523 108.143 112.523C108.143 112.412 108.143 112.263 108.143 112.152V86.3794C108.143 86.268 108.143 86.1937 108.143 86.0823C108.106 86.0823 108.068 86.0823 108.068 86.0823C108.031 86.1565 108.031 86.1937 108.031 86.268Z" fill="black"/>
<path d="M108.031 112.522C107.92 114.639 106.956 116.533 105.547 117.944C105.621 117.944 105.695 117.944 105.769 117.944C107.178 116.533 108.068 114.639 108.142 112.559C108.105 112.522 108.068 112.522 108.031 112.522Z" fill="black"/>
<path d="M108.03 86.0802C108.067 86.0802 108.104 86.0802 108.104 86.0802C108.03 84.3348 107.437 82.7009 106.398 81.4011C107.399 82.7009 107.993 84.3348 108.03 86.0802Z" fill="black"/>
<path d="M111.37 86.0789C111.407 86.0789 111.444 86.0789 111.444 86.0789C111.407 84.0364 110.814 82.1425 109.85 80.5085C109.85 80.5085 109.85 80.5085 109.812 80.5085C110.776 82.1425 111.333 84.0364 111.37 86.0789Z" fill="black"/>
<path d="M106.437 81.4022C106.252 81.1422 106.029 80.9194 105.844 80.6594C106.029 80.9194 106.252 81.1422 106.437 81.4022Z" fill="black"/>
<path d="M102.836 65.2499H102.799C102.799 65.3985 102.836 65.5099 102.836 65.6584C102.836 66.1041 102.762 66.5126 102.688 66.9211H107.322C107.322 65.3242 106.84 63.8017 105.987 62.5762C105.913 62.5762 105.876 62.6133 105.802 62.6133C105.653 64.0987 104.393 65.2499 102.836 65.2499Z" fill="black"/>
<path d="M100.318 74.7542C100.577 74.7171 100.8 74.6799 101.059 74.6428C99.5021 74.16 98.3529 72.7117 98.3158 71.0035C98.0192 71.0406 97.7226 71.0778 97.426 71.0778C94.4601 71.0778 92.0132 68.6639 92.0132 65.656C92.0132 65.2475 92.0503 64.839 92.1615 64.4305C92.0874 64.3933 92.0503 64.3933 91.9761 64.3562C91.7166 65.1732 91.5312 66.0273 91.5312 66.9186C91.5312 71.0778 94.7938 74.5314 98.909 74.7913C99.2426 74.7542 99.5392 74.7542 99.8729 74.7542C100.021 74.7542 100.169 74.7542 100.318 74.7542Z" fill="black"/>
<path d="M96.1679 65.2461C96.1308 65.3575 96.0938 65.506 96.0938 65.6546C96.0938 66.3602 96.6869 66.9915 97.4284 66.9915C98.1699 66.9915 98.7631 66.3973 98.7631 65.6546C98.7631 65.506 98.726 65.3946 98.6889 65.2461H96.5016C96.3903 65.2461 96.2791 65.2461 96.1679 65.2461Z" fill="black"/>
<path d="M97.4323 60.2342C100.287 60.2342 102.623 62.4624 102.808 65.2475H102.845C104.365 65.2475 105.626 64.0963 105.811 62.5738C104.513 62.7595 105.056 61.2626 104.5 60C104.315 59.5915 102.5 59.4085 102.5 59L102.363 59.6029H96.7278V59.4915C94.5034 60.3085 92.7239 62.091 91.9453 64.3563C92.0195 64.3934 92.0565 64.3934 92.1307 64.4306C92.7239 62.0539 94.8742 60.2342 97.4323 60.2342Z" fill="black"/>
<path d="M97.4324 64.3184C96.8392 64.3184 96.3572 64.7268 96.1719 65.2467C96.2831 65.2467 96.3943 65.2467 96.5055 65.2467H98.6929C98.5075 64.7268 97.9885 64.3184 97.4324 64.3184Z" fill="black"/>
<path d="M105.805 62.6098C105.879 62.6098 105.916 62.6098 105.991 62.5727C105.953 62.4984 105.879 62.4241 105.842 62.3499C105.805 62.4241 105.805 62.4984 105.805 62.6098Z" fill="black"/>
<path d="M102.438 59.6399C102.438 60.0484 102.512 60.4569 102.697 60.8654C103.253 62.128 104.551 62.7964 105.848 62.6108C105.848 62.5365 105.848 62.4622 105.848 62.3508C104.959 61.1625 103.809 60.1969 102.438 59.6399Z" fill="black"/>
<path d="M99.4351 74.8284C99.7317 74.8284 100.065 74.7913 100.362 74.7542C100.214 74.7542 100.065 74.7542 99.9171 74.7542C99.5834 74.7542 99.2868 74.7542 98.9531 74.7913C99.1014 74.7913 99.2497 74.8284 99.4351 74.8284Z" fill="black"/>
<path d="M101.055 74.6427C101.425 74.7541 101.833 74.8283 102.241 74.8283H110.953C113.104 74.8283 114.883 73.0458 114.883 70.892C114.883 68.7381 113.104 66.9556 110.953 66.9556H107.283C107.283 70.7063 104.614 73.8628 101.055 74.6427Z" fill="black"/>
<path d="M98.3125 71.0029C98.3496 72.7111 99.4989 74.1594 101.056 74.6422C104.615 73.8624 107.284 70.7058 107.284 66.918H102.65C102.168 68.9976 100.463 70.6315 98.3125 71.0029Z" fill="black"/>
<path d="M102.246 66.917H102.654C102.765 66.5086 102.802 66.1001 102.802 65.6544C102.802 65.5059 102.802 65.3945 102.765 65.2459H98.6499C98.6869 65.3573 98.724 65.5059 98.724 65.6544C98.724 66.36 98.1308 66.9913 97.3894 66.9913C96.6479 66.9913 96.0547 66.3971 96.0547 65.6544C96.0547 65.5059 96.0918 65.3945 96.1288 65.2459C94.72 65.2088 93.3854 64.9117 92.1249 64.429C92.0507 64.8374 91.9766 65.2088 91.9766 65.6544C91.9766 68.6253 94.3864 71.0762 97.3894 71.0762C97.686 71.0762 97.9825 71.0391 98.2791 71.002C98.2791 70.9648 98.2791 70.9277 98.2791 70.8906C98.3162 68.6996 100.096 66.917 102.246 66.917Z" fill="black"/>
<path d="M97.4286 64.3205C98.0218 64.3205 98.5037 64.729 98.6891 65.2489H102.804C102.582 62.4637 100.283 60.2356 97.4286 60.2356C94.8705 60.2356 92.7202 62.0181 92.1641 64.4319C93.4246 64.9147 94.7592 65.2118 96.1681 65.2489C96.3534 64.729 96.8354 64.3205 97.4286 64.3205Z" fill="black"/>
<path d="M102.65 66.918H102.242C100.092 66.918 98.3125 68.7005 98.3125 70.8544C98.3125 70.8915 98.3125 70.9286 98.3125 70.9658C100.463 70.6315 102.168 68.9976 102.65 66.918Z" fill="black"/>
<path d="M92.7891 55.0724H94.272C94.272 46.3084 94.6428 39.7725 95.2359 34.9448C94.754 34.9448 94.272 34.9448 93.753 34.9448C93.0115 41.1465 92.7891 48.388 92.7891 55.0724Z" fill="black"/>
<path d="M100.546 21.0577C100.361 20.612 100.213 20.1293 100.139 19.6094C96.8761 20.2778 95.0224 25.9596 93.9844 33.461C94.4663 33.461 94.9854 33.461 95.4673 33.4239C96.8761 23.0259 99.3601 21.2433 100.546 21.0577Z" fill="black"/>
<path d="M100.765 21.0174C100.691 21.0174 100.617 21.0174 100.505 21.0545C101.543 23.4683 103.916 25.1766 106.734 25.1766C107.142 25.1766 107.549 25.1394 107.957 25.0652V24.5081C107.957 24.0996 108.291 23.7654 108.699 23.7654C109.107 23.7654 109.44 24.0996 109.44 24.5081V24.6195C111.813 23.5797 113.481 21.2031 113.481 18.455V8.27982C113.481 8.01987 113.333 7.75992 113.111 7.64852C112.888 7.49997 112.592 7.53711 112.369 7.64852L106.771 11.1021L101.136 7.64852C100.913 7.49997 100.617 7.49997 100.394 7.64852C100.172 7.79706 100.023 8.01987 100.023 8.27982V18.4179C100.023 18.8264 100.061 19.1977 100.135 19.6062C100.357 19.5691 100.58 19.5319 100.802 19.5319V21.0174H100.765ZM101.506 9.61671L106.363 12.6247C106.586 12.7732 106.919 12.7732 107.142 12.6247L111.998 9.61671V18.4179C111.998 21.3145 109.626 23.6912 106.734 23.6912C103.842 23.6912 101.506 21.3516 101.506 18.455V9.61671Z" fill="black"/>
<path d="M100.769 21.0194V19.5339C100.546 19.5339 100.324 19.5711 100.102 19.6082C100.176 20.091 100.324 20.5737 100.509 21.0565C100.621 21.0565 100.695 21.0194 100.769 21.0194Z" fill="black"/>
<path d="M217.602 30.8133C217.215 30.9392 215.474 30.8762 212.804 30.6874C212.65 31.0651 212.418 31.2539 212.147 31.2539C211.837 31.2539 211.605 31.0021 211.45 30.5615C209.787 30.4356 207.814 30.2467 205.686 30.1208C204.138 29.9949 202.398 29.869 200.541 29.6802C200.424 29.869 200.231 29.932 200.076 29.932C199.883 29.932 199.689 29.8061 199.535 29.5543C182.783 28.2324 154.58 26.281 116.086 26.281V28.7989C159.725 28.8619 190.134 31.3168 205.57 32.5758C217.563 33.583 217.95 33.52 218.414 32.7646L218.646 31.7575L217.099 31.8834C217.137 31.2539 217.447 30.8762 217.602 30.8133Z" fill="black"/>
<path d="M15.6953 33.1847C15.5435 33.5477 15.3538 33.7292 15.1641 33.7292C14.9743 33.7292 14.8225 33.5477 14.6708 33.2754C13.8739 33.3662 13.0391 33.4569 12.2422 33.5477L12.3181 37.1781C43.1685 33.3662 70.9452 31.3694 95.3827 30.5526C95.4586 29.2819 95.4965 28.102 95.5724 26.9221C72.0077 27.739 45.2935 29.5542 15.6953 33.1847Z" fill="black"/>
<path d="M95.4276 33.4598C95.3534 33.9426 95.2793 34.4253 95.2422 34.9452C99.5798 34.9081 103.843 34.8338 107.959 34.8338V33.3484C103.88 33.3484 99.7281 33.3855 95.4276 33.4598Z" fill="black"/>
<path d="M93.9432 33.4614C93.869 33.9442 93.7949 34.4641 93.7578 34.9469C94.2398 34.9469 94.7217 34.9469 95.2408 34.9469C95.3149 34.427 95.352 33.9442 95.4262 33.4614C94.9442 33.4614 94.4622 33.4614 93.9432 33.4614Z" fill="black"/>
<path d="M111.736 28.148C112.626 28.148 113.441 28.6307 113.886 29.3735C113.998 29.1135 114.146 28.8907 114.294 28.6679C113.701 27.888 112.774 27.4053 111.736 27.4053C110.846 27.4053 110.031 27.7766 109.438 28.3708V29.6705C109.845 28.7793 110.735 28.148 111.736 28.148Z" fill="black"/>
<path d="M109.957 33.3133V30.6766C109.957 29.674 110.772 28.8941 111.736 28.8941C112.737 28.8941 113.516 29.7111 113.516 30.6766V33.3133C113.553 33.3133 113.59 33.3133 113.59 33.3133V30.6766C113.59 30.1939 113.701 29.7482 113.886 29.3397C113.441 28.6342 112.626 28.1143 111.736 28.1143C110.698 28.1143 109.808 28.7456 109.438 29.6368V33.3133C109.623 33.3133 109.808 33.3133 109.957 33.3133Z" fill="black"/>
<path d="M109.957 34.7988C109.771 34.7988 109.623 34.7988 109.438 34.7988V39.3665H109.957V34.7988Z" fill="black"/>
<path d="M113.555 39.3665H113.629V34.7988C113.592 34.7988 113.555 34.7988 113.555 34.7988V39.3665Z" fill="black"/>
<path d="M113.629 34.796V33.3105C113.592 33.3105 113.555 33.3105 113.555 33.3105V34.796C113.555 34.796 113.592 34.796 113.629 34.796Z" fill="black"/>
<path d="M109.957 33.3105C109.771 33.3105 109.623 33.3105 109.438 33.3105V34.796C109.623 34.796 109.771 34.796 109.957 34.796V33.3105Z" fill="black"/>
<path d="M107 53.8084C106.963 53.7341 106.963 53.6598 106.963 53.5856C106.963 53.3999 106.963 53.2513 106.963 53.0657H96.8047V54.5511V53.8084H107Z" fill="black"/>
<path d="M108.406 53.8084H112.521C113.893 53.8084 115.042 54.9596 115.042 56.3336C115.042 56.705 114.968 57.0763 114.783 57.4105C115.005 57.5219 115.228 57.6705 115.413 57.7819C115.636 57.3363 115.747 56.8535 115.747 56.3336C115.747 54.514 114.264 53.0657 112.484 53.0657H108.406C108.406 53.2514 108.406 53.3999 108.406 53.5856C108.443 53.6598 108.406 53.7341 108.406 53.8084Z" fill="black"/>
<path d="M99.4369 59.0478C100.141 59.0478 100.846 59.1592 101.513 59.3448H102.477C102.477 59.1963 102.514 59.0477 102.551 58.8992H96.8047V58.1565V59.3448H97.3979C98.0281 59.1592 98.6955 59.0478 99.4369 59.0478Z" fill="black"/>
<path d="M102.433 59.3054H101.469C101.765 59.3797 102.062 59.4911 102.359 59.6025H102.396C102.433 59.5282 102.433 59.4168 102.433 59.3054Z" fill="black"/>
<path d="M97.351 59.3054H96.7578V59.4911C96.9432 59.454 97.1285 59.3797 97.351 59.3054Z" fill="black"/>
<path d="M112.485 58.8985H102.512C102.475 59.047 102.438 59.1956 102.438 59.3441H102.845C103.327 59.3441 103.735 59.4555 104.143 59.6412H112.485C113.745 59.6412 114.857 58.8985 115.413 57.8216C115.191 57.673 115.006 57.5616 114.783 57.4502C114.375 58.2672 113.486 58.8985 112.485 58.8985Z" fill="black"/>
<path d="M104.141 59.6403C103.733 59.4547 103.325 59.3433 102.843 59.3433H102.436C102.436 59.4547 102.436 59.5289 102.398 59.6403H104.141Z" fill="black"/>
<path d="M99.4355 59.0466C98.7311 59.0466 98.0267 59.158 97.3594 59.3437H101.512C100.844 59.158 100.14 59.0466 99.4355 59.0466Z" fill="black"/>
<path d="M97.351 59.3054C97.1656 59.3426 96.9432 59.4168 96.7578 59.4911V59.6025H102.393C102.096 59.4911 101.8 59.3797 101.503 59.3054H97.351Z" fill="black"/>
<path d="M114.257 56.335C114.257 56.595 114.183 56.8549 114.108 57.0778C114.331 57.1892 114.553 57.3006 114.776 57.412C114.924 57.0778 115.035 56.7064 115.035 56.335C115.035 54.961 113.886 53.8098 112.514 53.8098H108.399C108.288 54.1069 108.028 54.3297 107.695 54.3297C107.361 54.3297 107.101 54.1069 106.99 53.8098H96.7578V54.5525H112.477C113.478 54.5525 114.257 55.3695 114.257 56.335Z" fill="black"/>
<path d="M102.504 58.8992C102.578 58.6393 102.69 58.3793 102.838 58.1565H96.7578V58.8992H102.504Z" fill="black"/>
<path d="M114.779 57.4123C114.557 57.3009 114.334 57.1895 114.112 57.0781C113.815 57.7094 113.222 58.1179 112.481 58.1179H102.841C102.693 58.3407 102.582 58.6007 102.508 58.8606H112.481C113.482 58.8978 114.371 58.2665 114.779 57.4123Z" fill="black"/>
<path d="M116.894 28.148C118.266 28.148 119.415 29.2992 119.415 30.6732V33.3099C119.675 33.3099 119.897 33.3099 120.157 33.3099V30.6732C120.157 28.8536 118.674 27.4053 116.894 27.4053C115.856 27.4053 114.929 27.888 114.336 28.6679C114.521 28.8907 114.633 29.1135 114.744 29.3735C115.189 28.6307 115.967 28.148 116.894 28.148Z" fill="black"/>
<path d="M119.414 39.3665H120.156V34.7988C119.896 34.7988 119.674 34.7988 119.414 34.7988V39.3665Z" fill="black"/>
<path d="M119.414 33.3105V34.796C119.674 34.796 119.896 34.796 120.156 34.796V33.3105C119.896 33.3105 119.674 33.3105 119.414 33.3105Z" fill="black"/>
<path d="M114.297 39.3665H114.371V34.7988C114.334 34.7988 114.297 34.7988 114.297 34.7988V39.3665Z" fill="black"/>
<path d="M114.293 30.6745V33.3112C114.33 33.3112 114.367 33.3112 114.367 33.3112V30.6745C114.367 30.1918 114.515 29.7462 114.738 29.3377C114.626 29.0777 114.478 28.8549 114.33 28.6321C114.144 28.8549 114.033 29.0777 113.922 29.3377C114.144 29.7462 114.293 30.1918 114.293 30.6745Z" fill="black"/>
<path d="M114.371 34.796V33.3105C114.334 33.3105 114.297 33.3105 114.297 33.3105V34.796C114.297 34.796 114.334 34.796 114.371 34.796Z" fill="black"/>
<path d="M114.292 39.3665V34.7988C114.07 34.7988 113.847 34.7988 113.625 34.7988V39.3665H114.292Z" fill="black"/>
<path d="M113.625 33.3095C113.847 33.3095 114.07 33.3095 114.292 33.3095V30.6728C114.292 30.1901 114.144 29.7444 113.922 29.3359C113.736 29.7444 113.625 30.1901 113.625 30.6728V33.3095Z" fill="black"/>
<path d="M113.625 34.796C113.847 34.796 114.07 34.796 114.292 34.796V33.3105C114.07 33.3105 113.847 33.3105 113.625 33.3105V34.796Z" fill="black"/>
<path d="M115.113 39.3665V34.7988C115.076 34.7988 115.039 34.7988 115.039 34.7988V39.3665H115.113Z" fill="black"/>
<path d="M118.672 39.3665H119.413V34.7988C119.154 34.7988 118.931 34.7988 118.672 34.7988V39.3665Z" fill="black"/>
<path d="M116.892 28.1467C116.003 28.1467 115.187 28.6295 114.742 29.3722C114.928 29.7807 115.039 30.2263 115.039 30.7091V33.3457C115.076 33.3457 115.113 33.3457 115.113 33.3457V30.7091C115.113 29.7064 115.929 28.9266 116.892 28.9266C117.893 28.9266 118.672 29.7436 118.672 30.7091V33.3457C118.932 33.3457 119.154 33.3457 119.413 33.3457V30.7091C119.413 29.2979 118.264 28.1467 116.892 28.1467Z" fill="black"/>
<path d="M115.113 34.796V33.3105C115.076 33.3105 115.039 33.3105 115.039 33.3105V34.796C115.039 34.796 115.076 34.796 115.113 34.796Z" fill="black"/>
<path d="M118.672 34.796C118.931 34.796 119.154 34.796 119.413 34.796V33.3105C119.154 33.3105 118.931 33.3105 118.672 33.3105V34.796Z" fill="black"/>
<path d="M115.042 39.3665V34.7988C114.82 34.7988 114.597 34.7988 114.375 34.7988V39.3665H115.042Z" fill="black"/>
<path d="M115.042 30.6728C115.042 30.1901 114.931 29.7444 114.746 29.3359C114.523 29.7073 114.375 30.1901 114.375 30.6728V33.3095C114.597 33.3095 114.82 33.3095 115.042 33.3095V30.6728Z" fill="black"/>
<path d="M115.042 34.796V33.3105C114.82 33.3105 114.597 33.3105 114.375 33.3105V34.796C114.597 34.796 114.82 34.796 115.042 34.796Z" fill="black"/>
<path d="M16.0923 35.4642C16.0923 30.5623 16.4631 27.3314 16.908 25.1776C16.6484 24.9919 16.426 24.7691 16.2406 24.5463L15.8699 24.0264L15.6474 24.1749C14.943 26.8115 14.6094 30.5994 14.6094 35.5013C14.6094 35.7241 14.7206 35.9469 14.8689 36.0583C15.2026 36.0583 15.5362 36.0212 15.8699 36.0212C16.0182 35.8727 16.0923 35.687 16.0923 35.4642Z" fill="black"/>
<path d="M15.8682 36.0208C15.5345 36.0208 15.2009 36.0579 14.8672 36.0579C14.9784 36.1693 15.1638 36.2436 15.3491 36.2436C15.5716 36.2064 15.757 36.1322 15.8682 36.0208Z" fill="black"/>
<path d="M19.4244 19.5308C19.8322 19.5308 20.1659 19.8651 20.1659 20.2736C20.1659 20.6821 19.8322 21.0163 19.4244 21.0163C19.0536 21.0163 17.7931 21.3134 16.9033 25.1755C17.9785 25.9182 19.4244 25.9182 20.4995 25.1012C20.6849 24.9527 20.8332 24.8041 20.9815 24.6556C20.722 24.6556 20.4624 24.6556 20.1659 24.6556C19.758 24.6556 19.4244 24.3214 19.4244 23.9129C19.4244 23.5044 19.758 23.1702 20.1659 23.1702C20.6107 23.1702 21.1298 23.1702 21.6488 23.133C21.76 22.3532 21.5747 21.499 21.0556 20.7935L16.0136 14.1462C15.4575 14.2204 14.8643 14.2576 14.234 14.2576C13.8262 14.2576 13.4925 13.9234 13.4925 13.5149C13.4925 13.1064 13.8262 12.7721 14.234 12.7721C14.4935 12.7721 14.716 12.7721 14.9384 12.735L14.4565 12.0666C13.4184 10.7297 11.4905 10.4697 10.1559 11.5095C9.30318 12.178 8.89536 13.1806 8.96951 14.1833C9.74806 14.3319 10.6378 14.4061 11.6388 14.4061C12.0467 14.4061 12.3803 14.7403 12.3803 15.1488C12.3803 15.5573 12.0467 15.8916 11.6388 15.8916C10.8974 15.8916 10.23 15.8544 9.56269 15.7801C9.56269 15.7801 9.56269 15.7801 9.56269 15.8173L14.9013 22.7988L16.3843 21.8704C17.1999 20.3478 18.2009 19.5308 19.4244 19.5308Z" fill="black"/>
<path d="M19.4263 21.0194C19.8341 21.0194 20.1678 20.6851 20.1678 20.2767C20.1678 19.8682 19.8341 19.5339 19.4263 19.5339C18.2028 19.5339 17.2018 20.3138 16.4604 21.9106L16.4974 21.8735C16.8311 21.6507 17.3131 21.7621 17.5355 22.0963C17.758 22.4305 17.6467 22.9133 17.3131 23.1361L15.8672 24.0274L16.275 24.5473C16.4604 24.8072 16.6828 25.03 16.9423 25.1786C17.795 21.3165 19.0926 21.0194 19.4263 21.0194Z" fill="black"/>
<path d="M31.2909 16.1536C31.2909 15.7451 30.9573 15.4109 30.5495 15.4109C30.1416 15.4109 29.808 15.7451 29.808 16.1536C29.808 21.5012 25.2479 22.8752 21.6888 23.1723C21.6146 23.7293 21.3551 24.2492 20.9844 24.6948C27.5465 24.4349 31.2909 21.3526 31.2909 16.1536Z" fill="black"/>
<path d="M19.4609 23.9539C19.4609 24.3624 19.7946 24.6966 20.2024 24.6966C20.4619 24.6966 20.7585 24.6966 21.018 24.6966C21.3888 24.251 21.6112 23.7311 21.7224 23.1741C21.2034 23.2112 20.6844 23.2112 20.2395 23.2112C19.7946 23.2112 19.4609 23.5454 19.4609 23.9539Z" fill="black"/>
<path d="M4.03963 8.91185C4.03963 8.61477 3.85426 8.35482 3.59475 8.24341C3.44645 8.28054 3.26108 8.28054 3.11279 8.28054C3.07571 8.28054 3.00156 8.28054 2.96449 8.28054C2.74205 8.39195 2.59375 8.6519 2.59375 8.91185C2.59375 12.8482 5.11478 15.2992 9.60073 15.8562C9.22999 15.3735 9.04462 14.8164 9.00755 14.2594C4.96648 13.5167 4.03963 11.0286 4.03963 8.91185Z" fill="black"/>
<path d="M12.3796 15.2275C12.3796 14.819 12.0459 14.4848 11.6381 14.4848C10.6371 14.4848 9.7473 14.4105 8.96875 14.262C9.00582 14.819 9.22827 15.376 9.56193 15.8588C10.1922 15.9331 10.8966 15.9702 11.6381 15.9702C12.0459 15.9702 12.3796 15.636 12.3796 15.2275Z" fill="black"/>
<path d="M22.5767 6.31365C22.5767 6.09084 22.4655 5.90516 22.3543 5.75662C22.206 5.79375 22.0577 5.79375 21.9094 5.79375C21.724 5.79375 21.5387 5.75662 21.3904 5.71948C21.2421 5.86803 21.1308 6.0537 21.1308 6.27652C21.1308 10.2872 19.0176 12.5153 14.9766 12.7381L16.0517 14.1122C20.204 13.5551 22.5767 10.7699 22.5767 6.31365Z" fill="black"/>
<path d="M13.4922 13.5535C13.4922 13.962 13.8259 14.2962 14.2337 14.2962C14.8639 14.2962 15.4571 14.2591 16.0132 14.1848L14.9381 12.7737C14.7156 12.7737 14.4561 12.8108 14.2337 12.8108C13.8259 12.8108 13.4922 13.145 13.4922 13.5535Z" fill="black"/>
<path d="M9.41406 7.98563L10.2668 9.0997L11.4902 7.24292L9.41406 7.98563Z" fill="black"/>
<path d="M9.7108 10.8434C9.8591 11.0291 10.0815 11.1405 10.304 11.1405C10.304 11.1405 10.304 11.1405 10.3411 11.1405C10.5635 11.1405 10.7859 10.992 10.9342 10.8063L13.9743 6.20145C14.1597 5.9415 14.1226 5.57014 13.9372 5.34733C13.7519 5.12452 13.4182 5.01311 13.1216 5.12452L8.0054 6.9813C7.78295 7.05557 7.59759 7.24125 7.56051 7.46407C7.48636 7.68688 7.52344 7.94683 7.67173 8.13251L9.7108 10.8434ZM13.3441 5.79296L10.304 10.3978L8.22784 7.64975L13.3441 5.79296Z" fill="black"/>
<path d="M13.3428 5.79468L8.22656 7.65146L10.3027 10.3995L13.3428 5.79468ZM9.41293 7.98568L11.4891 7.24297L10.2656 9.09976L9.41293 7.98568Z" fill="black"/>
<path d="M14.7906 4.90192C16.1624 4.90192 17.2375 3.78784 17.2375 2.45096C17.2375 1.11407 16.1253 0 14.7906 0C13.456 0 12.3438 1.11407 12.3438 2.45096C12.3438 3.78784 13.456 4.90192 14.7906 4.90192Z" fill="black"/>
<path d="M22.3527 5.75736C23.502 5.53454 24.3547 4.53188 24.3547 3.34353C24.3547 1.96951 23.2425 0.892578 21.9078 0.892578C20.5732 0.892578 19.4609 2.00665 19.4609 3.34353C19.4609 4.53188 20.2766 5.49741 21.3888 5.75736C21.5371 5.64595 21.6854 5.57168 21.8707 5.57168C22.019 5.57168 22.2044 5.64595 22.3527 5.75736Z" fill="black"/>
<path d="M22.3526 5.75428C22.2043 5.64287 22.056 5.5686 21.8335 5.5686C21.6482 5.5686 21.4628 5.64287 21.3516 5.75428C21.5369 5.79142 21.6852 5.82855 21.8706 5.82855C22.056 5.79142 22.2043 5.79142 22.3526 5.75428Z" fill="black"/>
<path d="M3.59291 8.20585C4.70512 7.98303 5.55783 6.98037 5.55783 5.79202C5.55783 4.418 4.44561 3.34106 3.11094 3.34106C1.77628 3.34106 0.664062 4.45514 0.664062 5.79202C0.664062 7.09177 1.66506 8.16871 2.96265 8.24298C3.07387 8.16871 3.18509 8.13157 3.33339 8.13157C3.40754 8.16871 3.51876 8.16871 3.59291 8.20585Z" fill="black"/>
<path d="M3.58921 8.20708C3.51506 8.16995 3.40384 8.13281 3.29261 8.13281C3.14432 8.13281 3.0331 8.16995 2.92188 8.24422C2.95895 8.24422 3.0331 8.24422 3.07017 8.24422C3.25554 8.28135 3.44091 8.24422 3.58921 8.20708Z" fill="black"/>
<path d="M30.3219 15.2999C31.6733 15.2999 32.7688 14.2025 32.7688 12.8489C32.7688 11.4953 31.6733 10.3979 30.3219 10.3979C28.9705 10.3979 27.875 11.4953 27.875 12.8489C27.875 14.2025 28.9705 15.2999 30.3219 15.2999Z" fill="black"/>
<path d="M14.9386 22.8373L13.5668 23.6914C12.8995 24.0999 12.3063 24.2484 12.1209 24.0627C12.0097 23.9513 12.0097 23.6543 11.9727 23.32C11.9727 23.0601 11.9356 22.7259 11.8614 22.4288C11.8244 22.3174 11.7502 21.9831 11.4165 21.7603C11.1941 21.6118 10.9346 21.5375 10.638 21.5746C9.22918 21.6861 8.52477 22.9858 7.96866 23.9513L7.93159 24.0256C7.52378 24.7312 6.89352 25.3625 6.41156 25.1768C6.04082 25.0283 5.85545 24.4341 5.633 23.8771C5.18812 22.6516 4.52079 21.946 3.63101 21.8717C3.03783 21.7975 2.40757 22.0574 1.81439 22.5773C1.10998 23.2086 0.590946 24.0627 0.294354 24.9911C0.183133 25.3996 0.405576 25.8081 0.776316 25.9195C1.18413 26.0309 1.59194 25.8081 1.70316 25.4368C1.88853 24.7683 2.29635 24.1742 2.77831 23.7285C3.03783 23.5057 3.29735 23.3572 3.44564 23.3943C3.70516 23.4314 3.96468 23.8028 4.22419 24.4341C4.48371 25.1768 4.85445 26.1795 5.85545 26.588C6.07789 26.6622 6.33741 26.7365 6.55985 26.7365C7.52378 26.7365 8.4877 26.0309 9.19211 24.8055L9.22918 24.7312C9.56284 24.0999 9.97066 23.4314 10.4526 23.2086C10.4526 23.2829 10.4526 23.3943 10.4526 23.4686C10.4897 23.9885 10.4897 24.6198 10.9717 25.1397C11.6761 25.9567 12.8995 25.9195 14.3083 25.0283L15.6059 24.2113C15.643 24.0999 15.643 24.0256 15.68 23.9142L14.9386 22.8373Z" fill="black"/>
<path d="M15.7228 23.8782C15.6856 23.9896 15.6856 24.0639 15.6484 24.1753L15.8715 24.0267L15.7228 23.8782Z" fill="black"/>
<path d="M16.4595 21.9097L14.9766 22.8381L15.7551 23.8407C15.9405 23.1351 16.2 22.4667 16.4595 21.9097Z" fill="black"/>
<path d="M17.4983 22.1327C17.2759 21.7985 16.831 21.6871 16.4602 21.9099L16.4232 21.947C16.1636 22.504 15.9041 23.1725 15.7188 23.9152L15.83 24.0637L17.2388 23.1725C17.6095 22.9125 17.7207 22.4669 17.4983 22.1327Z" fill="black"/>
<path d="M209.39 15.5205C210.65 13.0324 211.281 8.46467 211.281 1.89164C211.281 1.48315 210.947 1.14893 210.539 1.14893C210.131 1.14893 209.798 1.48315 209.798 1.89164C209.798 8.27899 209.204 11.844 208.5 13.8122C208.76 14.1093 208.982 14.4435 209.13 14.8149L209.39 15.5205Z" fill="black"/>
<path d="M208.949 27.4814C208.949 27.8899 208.615 28.2241 208.207 28.2241C208.096 28.2241 208.022 28.2241 207.948 28.2241C208.726 29.0411 209.913 29.4125 211.062 29.0782C210.803 27.5557 210.506 27.1472 210.432 27.0729C210.061 27.0358 209.765 26.7016 209.765 26.3302C209.765 25.9217 210.098 25.5875 210.506 25.5875C211.21 25.5875 211.952 25.996 212.397 28.2241C213.175 27.4071 213.435 26.1445 213.027 25.0304L209.394 15.5237C208.652 17.0463 207.651 17.8261 206.465 17.8261C206.057 17.8261 205.723 17.4919 205.723 17.0834C205.723 16.6749 206.057 16.3407 206.465 16.3407C206.762 16.3407 207.688 16.155 208.504 13.8155C207.688 12.9242 206.354 12.59 205.167 13.0727C203.61 13.6669 202.795 15.4494 203.425 17.0463L207.169 26.813C207.503 26.7758 207.874 26.7758 208.245 26.7758C208.652 26.7387 208.949 27.0729 208.949 27.4814Z" fill="black"/>
<path d="M206.421 16.3397C206.013 16.3397 205.68 16.6739 205.68 17.0824C205.68 17.4909 206.013 17.8251 206.421 17.8251C207.645 17.8251 208.609 17.0453 209.35 15.5227L209.091 14.8171C208.942 14.4458 208.72 14.1115 208.46 13.8145C207.682 16.1169 206.718 16.3397 206.421 16.3397Z" fill="black"/>
<path d="M191.89 25.6226C192.298 25.6226 192.631 25.2883 192.631 24.8798C192.631 18.7524 198.637 17.8241 202.234 17.8241C202.641 17.8241 202.975 17.4898 202.975 17.0813C202.975 16.6728 202.641 16.3386 202.234 16.3386C195.19 16.3386 191.148 19.458 191.148 24.8798C191.148 25.2883 191.482 25.6226 191.89 25.6226Z" fill="black"/>
<path d="M201.342 34.7237C201.342 30.5645 203.604 28.3363 207.942 28.2249C207.682 27.965 207.46 27.6307 207.311 27.2594L207.126 26.7766C202.492 27.148 199.859 30.0074 199.859 34.7237C199.859 34.9465 199.934 35.1322 200.082 35.2436C200.416 35.2436 200.749 35.2807 201.046 35.2807C201.231 35.1693 201.342 34.9465 201.342 34.7237Z" fill="black"/>
<path d="M201.089 35.3162C200.755 35.3162 200.459 35.2791 200.125 35.2791C200.273 35.3905 200.422 35.5019 200.644 35.5019C200.792 35.4647 200.941 35.3905 201.089 35.3162Z" fill="black"/>
<path d="M207.941 28.222C208.015 28.222 208.126 28.222 208.2 28.222C208.608 28.222 208.942 27.8878 208.942 27.4793C208.942 27.0708 208.608 26.7366 208.2 26.7366C207.829 26.7366 207.496 26.7366 207.125 26.7737L207.31 27.2565C207.459 27.6278 207.681 27.9621 207.941 28.222Z" fill="black"/>
<path d="M215.584 26.3669L215.547 27.741L217.66 27.0725L215.584 26.3669Z" fill="black"/>
<path d="M220.252 26.4021L215.099 24.6568C214.876 24.5825 214.617 24.6196 214.431 24.7682C214.246 24.9167 214.135 25.1395 214.098 25.3623L214.023 28.816C214.023 29.0388 214.135 29.2987 214.32 29.4473C214.431 29.5587 214.617 29.5958 214.765 29.5958C214.839 29.5958 214.913 29.5958 214.987 29.5587L220.215 27.8504C220.511 27.739 220.734 27.4791 220.734 27.1449C220.734 26.8106 220.548 26.4764 220.252 26.4021ZM214.765 28.7788L214.839 25.3252L219.992 27.0706L214.765 28.7788Z" fill="black"/>
<path d="M214.773 28.7798L220.001 27.0715L214.848 25.3262L214.773 28.7798ZM215.589 26.366L217.665 27.0715L215.552 27.74L215.589 26.366Z" fill="black"/>
<path d="M211.285 29.002C211.211 29.0392 211.137 29.0392 211.062 29.0763C211.248 30.3018 211.433 32.3071 211.433 35.4636C211.433 35.575 211.47 35.6865 211.507 35.7979C211.952 35.835 212.397 35.835 212.805 35.8721C212.879 35.7607 212.916 35.6122 212.916 35.4636C212.916 31.9729 212.731 29.7076 212.397 28.2222C212.101 28.5564 211.73 28.8163 211.285 29.002Z" fill="black"/>
<path d="M212.175 36.2081C212.435 36.2081 212.657 36.0595 212.805 35.8738C212.398 35.8738 211.953 35.8367 211.508 35.7996C211.656 36.0595 211.916 36.2081 212.175 36.2081Z" fill="black"/>
<path d="M210.507 25.5876C210.099 25.5876 209.766 25.9219 209.766 26.3304C209.766 26.7017 210.062 27.0359 210.433 27.0731C210.507 27.1473 210.804 27.593 211.063 29.0784C211.137 29.0413 211.212 29.0413 211.286 29.0041C211.731 28.8185 212.101 28.5585 212.435 28.2243C211.953 25.9961 211.249 25.5876 210.507 25.5876Z" fill="black"/>
<path d="M107.656 53.0653H108.397C108.138 47.2721 103.318 42.6301 97.4602 42.6301C97.0524 42.6301 96.7188 42.9643 96.7188 43.3728C96.7188 43.7813 97.0524 44.1156 97.4602 44.1156C97.7197 44.1156 97.9793 44.1156 98.2388 44.1527L97.4602 43.3728C102.947 43.3728 107.396 47.6806 107.656 53.0653Z" fill="black"/>
<path d="M106.914 52.8093C106.914 52.8836 106.914 52.995 106.951 53.0693H107.174L106.914 52.8093Z" fill="black"/>
<path d="M106.998 53.8084H108.407C108.444 53.7341 108.444 53.6598 108.444 53.5856C108.444 53.3999 108.444 53.2513 108.444 53.0657H107.702C107.702 53.2513 107.702 53.3999 107.702 53.5856L107.183 53.0657H106.961C106.961 53.2513 106.961 53.3999 106.961 53.5856C106.961 53.6598 106.961 53.7341 106.998 53.8084Z" fill="black"/>
<path d="M107.697 54.3297C108.03 54.3297 108.29 54.1069 108.401 53.8098H106.992C107.066 54.1069 107.363 54.3297 107.697 54.3297Z" fill="black"/>
<path d="M107.664 53.0691C107.405 47.6845 102.956 43.3767 97.4688 43.3767L98.2473 44.1566C102.844 44.5279 106.515 48.2044 106.886 52.8092L107.145 53.0691H107.664Z" fill="black"/>
<path d="M107.699 53.5856C107.699 53.3999 107.699 53.2514 107.699 53.0657H107.18L107.699 53.5856Z" fill="black"/>
<path d="M107.961 33.3465C108.146 33.3465 108.295 33.3465 108.48 33.3465V30.6728C108.48 29.7815 108.851 28.9645 109.444 28.3703V24.6196C108.962 24.8424 108.48 24.991 107.961 25.0653V33.3465Z" fill="black"/>
<path d="M107.961 50.1706C107.961 50.5791 108.295 50.9134 108.702 50.9134C109.11 50.9134 109.444 50.5791 109.444 50.1706V45.3059C108.925 45.3059 108.443 45.1944 107.961 45.0459V50.1706Z" fill="black"/>
<path d="M108.48 34.8315C108.295 34.8315 108.146 34.8315 107.961 34.8315V39.3992H108.48V34.8315Z" fill="black"/>
<path d="M108.702 23.7673C108.295 23.7673 107.961 24.1016 107.961 24.51V25.0671C108.48 24.9557 108.962 24.8071 109.444 24.6215V24.51C109.444 24.1016 109.11 23.7673 108.702 23.7673Z" fill="black"/>
<path d="M108.48 33.3484C108.295 33.3484 108.146 33.3484 107.961 33.3484V34.8338C108.146 34.8338 108.295 34.8338 108.48 34.8338V33.3484Z" fill="black"/>
<path d="M108.477 30.6755V33.3492C108.736 33.3492 108.959 33.3492 109.218 33.3492V30.7126C109.218 30.3412 109.292 30.007 109.44 29.7099V28.373C108.847 28.9672 108.477 29.7842 108.477 30.6755Z" fill="black"/>
<path d="M109.218 34.8315C108.959 34.8315 108.736 34.8315 108.477 34.8315V39.3992H109.218V34.8315Z" fill="black"/>
<path d="M109.218 33.3105C108.959 33.3105 108.736 33.3105 108.477 33.3105V34.796C108.736 34.796 108.959 34.796 109.218 34.796V33.3105Z" fill="black"/>
<path d="M109.219 34.8318V39.3995H109.442V34.8318C109.367 34.7947 109.293 34.7947 109.219 34.8318Z" fill="black"/>
<path d="M109.442 29.6729C109.293 29.9699 109.219 30.3413 109.219 30.6755V33.3122C109.293 33.3122 109.367 33.3122 109.442 33.3122V29.6729Z" fill="black"/>
<path d="M109.442 34.796V33.3105C109.367 33.3105 109.293 33.3105 109.219 33.3105V34.796C109.293 34.796 109.367 34.796 109.442 34.796Z" fill="black"/>
<path d="M109.586 44.5614C109.549 44.5614 109.512 44.5614 109.438 44.5614V45.3041C109.475 45.3041 109.512 45.3041 109.586 45.3041C110.513 45.3041 111.402 45.0441 112.144 44.5985C111.921 44.4499 111.662 44.3014 111.477 44.1157C110.883 44.3757 110.253 44.5614 109.586 44.5614Z" fill="black"/>
<path d="M104.882 39.3669H104.141C104.141 42.0036 105.735 44.2689 107.959 45.0116V44.1946C106.18 43.489 104.882 41.5951 104.882 39.3669Z" fill="black"/>
<path d="M115.041 39.3669H114.299C114.299 40.8895 113.706 42.2264 112.742 43.1919C112.965 43.3405 113.187 43.4519 113.447 43.5633C114.411 42.4863 115.041 41.0009 115.041 39.3669Z" fill="black"/>
<path d="M112.144 43.7085C111.921 43.857 111.699 44.0056 111.477 44.117C111.699 44.3027 111.921 44.4512 112.144 44.5997C112.366 44.4512 112.626 44.3027 112.811 44.117C112.589 44.0056 112.366 43.857 112.144 43.7085Z" fill="black"/>
<path d="M112.742 43.1882C112.556 43.3739 112.371 43.5225 112.148 43.671C112.371 43.8195 112.593 43.9681 112.816 44.0795C113.038 43.8938 113.224 43.7453 113.409 43.5225C113.187 43.4482 112.964 43.3368 112.742 43.1882Z" fill="black"/>
<path d="M107.961 44.229V45.046C108.443 45.1945 108.925 45.3059 109.444 45.3059V44.5632C108.925 44.5261 108.443 44.4147 107.961 44.229Z" fill="black"/>
<path d="M109.586 43.8203C109.549 43.8203 109.512 43.8203 109.438 43.8203V44.563C109.475 44.563 109.512 44.563 109.586 44.563C110.253 44.563 110.883 44.4144 111.477 44.1173C111.254 43.9317 111.069 43.7831 110.883 43.5603C110.476 43.7088 110.031 43.8203 109.586 43.8203Z" fill="black"/>
<path d="M107.96 44.2317V43.4147C106.588 42.7092 105.624 41.1866 105.624 39.3669H104.883C104.883 41.5951 106.18 43.489 107.96 44.2317Z" fill="black"/>
<path d="M113.633 39.3669H113.559C113.559 40.7038 113.003 41.9293 112.188 42.7463C112.373 42.932 112.558 43.0805 112.781 43.1919C113.745 42.2264 114.338 40.8895 114.338 39.3669H113.633Z" fill="black"/>
<path d="M111.587 43.1882C111.365 43.3368 111.142 43.4482 110.883 43.5596C111.068 43.7453 111.254 43.9309 111.476 44.1166C111.698 44.0052 111.958 43.8567 112.143 43.7081C111.958 43.5596 111.736 43.3739 111.587 43.1882Z" fill="black"/>
<path d="M112.741 43.1912C112.519 43.0427 112.333 42.8941 112.148 42.7456C111.963 42.9313 111.777 43.0798 111.555 43.1912C111.74 43.3769 111.925 43.5255 112.148 43.674C112.37 43.5626 112.556 43.3769 112.741 43.1912Z" fill="black"/>
<path d="M107.961 43.4094V44.2264C108.443 44.4121 108.925 44.5235 109.444 44.5606V43.8179C108.925 43.7808 108.406 43.6322 107.961 43.4094Z" fill="black"/>
<path d="M99.875 78.0977C95.3891 78.0977 91.7188 81.7741 91.7188 86.2675V112.04C91.7188 112.188 91.7188 112.3 91.7188 112.411C92.0895 111.743 92.4602 111 92.7939 110.22C93.4241 108.809 95.0925 108.215 96.5013 108.846C97.9101 109.477 98.5033 111.148 97.873 112.56C97.1315 114.156 96.1305 116.347 94.3881 118.056C95.834 119.393 97.7618 120.172 99.875 120.172C99.9121 120.172 99.9492 120.172 99.9492 120.172V78.0977C99.9492 78.0977 99.9121 78.0977 99.875 78.0977Z" fill="black"/>
<path d="M91.8155 108.496H98.6091V113.593H91.8155V108.496Z" fill="black"/>
<path d="M100.805 79.1656C104.223 79.6512 106.851 82.5893 106.851 86.1413V112.158C106.851 115.71 104.223 118.648 100.805 119.134V79.1656Z" stroke="black" stroke-width="2"/>
<circle cx="97.4704" cy="65.8991" r="2.54853" fill="white"/>
</svg>
