<svg width="162" height="162" viewBox="0 0 162 162" fill="none" xmlns="http://www.w3.org/2000/svg">
<g clip-path="url(#clip0_400_9288)">
<path d="M55.3267 66.108V64.3706C55.0786 64.9497 55.0786 65.6116 55.3267 66.108Z" fill="#B0CBBD"/>
<path d="M67.0628 72.4785H65.0781C65.8224 72.9749 66.4839 72.8922 67.0628 72.4785Z" fill="#B0CBBD"/>
<path d="M45.2324 27.6366L59.1252 18.4532L57.3886 15.8057C55.2385 12.5791 50.8557 11.669 47.6306 13.8201L45.4805 15.2266C42.2554 17.3776 41.3457 21.7625 43.4958 24.9892L45.2324 27.6366Z" fill="#AACCF1"/>
<path d="M56.1513 154.137C53.0089 154.137 50.4453 156.701 50.4453 159.845L77.5694 159.432L77.3213 154.137H56.1513Z" fill="black"/>
<path d="M102.954 154.137H83.6856L83.4375 159.432L108.081 159.845C108.163 156.701 105.848 154.137 102.954 154.137Z" fill="black"/>
<path d="M104.111 152.813V106.979H55.3203V152.813H76.0768V122.036C76.0768 120.381 77.4826 118.975 79.1365 118.975C80.7904 118.975 82.1963 120.381 82.1963 122.036V152.813H104.111Z" fill="black"/>
<path d="M148.689 28.7123C152.245 28.7123 155.635 27.3058 158.116 24.8238C160.68 22.3418 162.003 18.9497 162.086 15.3921C162.086 8.02883 156.132 1.98926 148.772 1.98926C145.216 1.98926 141.908 3.39573 139.344 5.87775C136.781 8.35976 135.458 11.7518 135.375 15.3094C135.375 18.867 136.781 22.259 139.262 24.7411C141.743 27.3058 145.05 28.7123 148.689 28.7123ZM142.735 9.4353C144.306 7.86336 146.456 6.95329 148.689 6.95329C153.32 6.95329 157.041 10.759 157.041 15.3921C157.041 17.6259 156.132 19.777 154.56 21.349C152.989 22.9209 150.839 23.831 148.606 23.831C146.373 23.831 144.223 22.9209 142.652 21.349C141.081 19.777 140.171 17.6259 140.171 15.3921C140.337 13.1583 141.164 11.0072 142.735 9.4353Z" fill="black"/>
<path d="M8.68574 118.313C8.35496 118.313 8.10687 118.313 7.77609 118.23L9.59539 126.007C8.27227 127.083 7.44531 128.737 7.44531 130.558C7.44531 133.37 9.43 135.687 11.9936 136.266L14.0609 144.87C10.5877 146.36 8.10687 149.752 8.10687 153.723L27.3749 153.806C27.3749 148.842 23.7363 144.788 18.94 144.209L16.7899 135.108C18.113 134.032 18.94 132.46 18.94 130.64C18.94 130.475 18.94 130.392 18.94 130.227C20.8419 129.234 22.6612 126.917 25.3075 123.442C31.5096 115.252 41.2677 102.428 59.4606 98.8705C60.453 99.2842 61.528 99.5324 62.6857 99.5324H71.6168L76.9093 79.0144C75.2554 78.2698 74.0977 76.7806 73.7669 74.9604L66.5724 81.7446C66.407 81.9101 66.2416 81.9928 65.9936 81.9928C65.8282 81.9928 65.6628 81.9101 65.5801 81.8273L59.5433 77.9388L55.3259 75.2086L54.9124 74.8777C54.8297 74.795 54.747 74.7949 54.747 74.7122C34.652 73.9676 22.1651 63.7086 20.5112 46.8309C23.2401 46.3345 25.3075 44.018 25.3075 41.1223C25.3075 37.9784 22.8266 35.4137 19.6842 35.3309L20.2631 26.9748C20.3458 25.5683 19.3534 24.4101 17.9476 24.3273C16.5418 24.2446 15.3841 25.2374 15.3014 26.6439L14.3917 38.3093C13.8955 39.1367 13.6475 40.1295 13.6475 41.205C13.6475 42.8597 14.309 44.2662 15.3841 45.3417C15.8802 55.187 19.5188 63.4604 25.8864 69.4173C32.9154 75.7878 43.0043 79.3453 55.3259 79.6762V92.6655C55.3259 93.3273 55.4086 93.9892 55.6566 94.5683C37.4637 99.2842 27.3749 112.522 21.4208 120.381C19.6842 122.615 17.5341 125.428 16.7072 125.759C16.6245 125.759 16.6245 125.759 16.5418 125.842C15.8802 125.428 15.2187 125.097 14.3917 124.932L12.5724 117.155C11.4974 117.899 10.0916 118.313 8.68574 118.313Z" fill="black"/>
<path d="M148.354 8.8562L144.633 20.5217H151.993L148.354 8.8562Z" fill="black"/>
<path d="M78.5568 79.428L73.4297 99.4496H82.5262L78.9703 79.428C78.8049 79.428 78.6395 79.428 78.5568 79.428Z" fill="black"/>
<path d="M98.7386 80.1726L96.5058 81.8273C96.3404 81.91 96.175 81.9927 96.0096 81.9927C95.8442 81.9927 95.6788 81.9927 95.5961 81.91L84.2669 75.1258C83.9361 77.1114 82.4476 78.6834 80.5456 79.2625L84.1842 99.4496H96.6712C99.7309 99.4496 102.377 97.7122 103.535 95.3129C117.014 95.0647 124.374 92.3345 126.607 86.7913C127.682 84.0611 127.351 80.8345 125.532 77.1114C140.169 72.3129 149.183 62.8812 150.258 50.3884C151.333 49.3129 151.994 47.8237 151.994 46.2517C151.994 44.7625 151.415 43.4388 150.506 42.3632L150.754 31.9388C150.754 30.5323 149.679 29.4568 148.356 29.374C146.95 29.374 145.875 30.4496 145.792 31.7733L145.544 40.3776C142.65 40.7086 140.417 43.1078 140.417 46.169C140.417 48.9819 142.402 51.2985 145.048 51.8776C143.229 62.633 134.049 69.169 122.803 72.6438C120.405 69.3345 117.097 65.5287 112.714 61.3093C112.962 60.8129 113.045 60.2337 113.128 59.6546C113.376 59.2409 113.458 58.8273 113.458 58.3309C113.458 41.8668 108.579 40.1294 106.429 40.1294C105.023 40.1294 103.948 41.205 103.948 42.6114C103.948 43.8524 104.775 44.8452 105.933 45.0107C106.016 45.0934 106.264 45.3416 106.512 45.7553C106.925 46.4999 107.587 48.0719 108 51.0503C106.429 46.2517 102.873 43.0251 98.5732 43.0251C97.1674 43.0251 96.0923 44.1006 96.0923 45.5071C96.0923 46.9136 97.1674 47.9891 98.5732 47.9891C101.054 47.9891 103.121 50.8021 103.783 54.4424C103.369 54.7733 102.956 55.187 102.625 55.6006C99.7309 48.1546 92.2056 42.6942 83.5226 42.6942H75.9974C64.6681 42.6942 55.4062 51.9604 55.4062 63.2949V64.3704V66.1078V72.4783H65.1643H67.149H104.279V63.9568C105.189 64.6186 106.347 64.9496 107.504 64.9496C108.083 64.9496 108.662 64.8668 109.158 64.7014C112.962 68.3416 115.691 71.4028 117.758 74.0503C113.458 74.9604 109.075 75.5395 104.693 75.705L104.279 76.0359L98.7386 80.1726ZM61.5257 58.4136C61.5257 58.4136 64.5854 61.8884 64.5854 64.4532C64.5854 65.446 64.3373 66.1906 64.0066 66.687C63.4277 67.4316 62.6007 67.597 61.5257 67.597C59.8718 67.597 58.466 66.9352 58.466 64.4532C58.466 64.1222 58.5487 63.7913 58.6314 63.4604C59.1275 61.1438 61.5257 58.4136 61.5257 58.4136ZM64.8335 55.5179C64.8335 54.856 64.9989 54.1942 65.247 53.6978C65.1643 53.8632 65.1643 54.1114 65.1643 54.2769C65.1643 55.6006 66.2393 56.7589 67.6452 56.7589C69.051 56.7589 70.126 55.6834 70.126 54.2769C70.126 52.9532 69.051 51.7949 67.6452 51.7949C67.3144 51.7949 67.0663 51.8776 66.7355 51.9604C67.3971 51.5467 68.1413 51.2985 69.051 51.2985C71.3664 51.2985 73.2684 53.2014 73.2684 55.5179C73.2684 57.8345 71.3664 59.7373 69.051 59.7373C66.7355 59.7373 64.8335 57.8345 64.8335 55.5179ZM87.7401 66.1078C87.7401 67.7625 86.3343 69.169 84.6804 69.169H73.1857C71.5318 69.169 70.126 67.7625 70.126 66.1078C70.126 64.4532 71.5318 63.0467 73.1857 63.0467H84.6804C86.3343 63.0467 87.7401 64.3704 87.7401 66.1078ZM93.6942 56.1798C93.4461 55.1042 92.4537 54.2769 91.296 54.2769C89.9729 54.2769 88.8151 55.3524 88.8151 56.7589C88.8151 58.0827 89.8902 59.2409 91.296 59.2409C91.4614 59.2409 91.5441 59.2409 91.7095 59.2409C91.0479 59.6546 90.3863 59.8201 89.5594 59.8201C87.2439 59.8201 85.3419 57.9172 85.3419 55.6006C85.3419 53.2841 87.2439 51.3812 89.5594 51.3812C91.8749 51.3812 93.7768 53.2841 93.7768 55.6006C93.7768 55.7661 93.6942 55.9316 93.6942 56.1798ZM120.653 78.5179C122.389 81.6618 122.472 83.7301 121.976 85.0539C121.232 86.9568 117.841 90.1006 104.114 90.4316V80.669C110.151 80.5035 115.691 79.7589 120.653 78.5179Z" fill="black"/>
<path d="M94.1875 22.0935H99.2319L94.4356 31.7734C93.8568 33.0144 94.3529 34.5036 95.5934 35.0827C95.9241 35.2482 96.3376 35.3309 96.6684 35.3309C97.578 35.3309 98.4877 34.8345 98.9012 33.9244L105.434 20.687C105.848 19.9424 105.765 19.0324 105.351 18.2877C104.938 17.5431 104.111 17.1295 103.284 17.1295H98.2396L103.946 5.62948C104.524 4.38847 104.028 2.89926 102.788 2.32012C101.547 1.74099 100.059 2.23739 99.48 3.4784L92.0375 18.5359C91.624 19.2806 91.7067 20.1906 92.1202 20.9352C92.5336 21.5971 93.2779 22.0935 94.1875 22.0935Z" fill="black"/>
<path d="M42.1715 38.0612C42.6677 38.0612 43.1639 37.8958 43.5773 37.6476L68.5513 20.0253C69.709 19.1979 69.9571 17.7087 69.1302 16.5504C68.3032 15.3922 66.8147 15.144 65.657 15.9713L40.683 33.5936C39.5253 34.4209 39.2772 35.9101 40.1041 37.0684C40.6003 37.7303 41.3446 38.0612 42.1715 38.0612Z" fill="#AACCF1"/>
<path d="M79.0572 77.8561C81.0419 77.8561 82.6958 76.2014 82.6958 74.2158C82.6958 74.2158 82.6958 74.2158 82.6958 74.1331H75.3359C75.3359 74.1331 75.3359 74.1331 75.3359 74.2158C75.4186 76.2014 77.0725 77.8561 79.0572 77.8561Z" fill="black"/>
<path d="M5.12605 5.46403H9.17812V13.4892C10.0051 10.0971 13.0648 7.61511 16.7034 7.61511C20.1766 7.61511 23.1536 9.93165 24.146 13.0755V5.46403H28.198C29.6038 5.46403 30.6789 4.38849 30.6789 2.98201C30.6789 1.57554 29.6038 0.5 28.198 0.5H5.04336C3.63754 0.5 2.5625 1.57554 2.5625 2.98201C2.5625 4.38849 3.72023 5.46403 5.12605 5.46403Z" fill="black"/>
<path d="M32.2511 156.536H2.48086C1.07504 156.536 0 157.611 0 159.018C0 160.424 1.07504 161.5 2.48086 161.5H32.2511C33.657 161.5 34.732 160.424 34.732 159.018C34.732 157.611 33.657 156.536 32.2511 156.536Z" fill="black"/>
<path d="M100.638 105.903C102.044 105.903 103.119 104.827 103.119 103.421C103.119 102.015 102.044 100.939 100.638 100.939H82.4453V105.903H100.638Z" fill="black"/>
<path d="M58.4652 100.939C57.0594 100.939 55.9844 102.015 55.9844 103.421C55.9844 104.827 57.0594 105.903 58.4652 105.903H73.7639V100.939H58.4652Z" fill="black"/>
<path d="M80.7971 101.27H75.4219V104.827H80.7971V101.27Z" fill="black"/>
<path d="M16.7893 10.0972C14.143 10.0972 11.9102 12.0828 11.4968 14.6475C11.4968 14.8957 11.4141 15.1439 11.4141 15.3921C11.4141 18.2878 13.8122 20.6871 16.7066 20.6871C19.6009 20.6871 21.9991 18.2878 21.9991 15.3921C21.9991 15.1439 21.9991 14.8957 21.9164 14.6475C21.6683 12.0828 19.4355 10.0972 16.7893 10.0972Z" fill="black"/>
<path d="M22.0772 15.4749C22.0772 18.3706 19.679 20.7699 16.7847 20.7699C13.8903 20.7699 11.4922 18.3706 11.4922 15.4749C11.4922 15.2267 11.4922 14.9785 11.5749 14.7303C11.9057 12.1655 14.1384 10.1799 16.8674 10.1799C19.5963 10.1799 21.7464 12.1655 22.1599 14.7303C22.0772 14.9785 22.0772 15.2267 22.0772 15.4749Z" fill="black"/>
<path d="M59.0407 75.6223L65.9044 80.0899L72.1892 74.2158H56.8906L57.883 74.8777L59.0407 75.6223Z" fill="black"/>
<path d="M96.0061 80.1727L97.9081 78.7662L101.712 75.7878L103.697 74.2986L103.779 74.2158H86L86.0827 74.2986L96.0061 80.1727Z" fill="black"/>
<path d="M7.11441 115.583C7.61058 115.748 8.10675 115.831 8.60293 115.831C9.92605 115.831 11.0838 115.252 11.9107 114.424C12.655 113.597 13.1512 112.522 13.1512 111.281C13.1512 108.799 11.0838 106.73 8.60293 106.73C7.3625 106.73 6.28746 107.227 5.37781 108.054C4.55086 108.881 4.05469 110.04 4.05469 111.281C4.13738 113.266 5.37781 114.921 7.11441 115.583Z" fill="#AACCF1"/>
<path d="M151.832 130.392H127.85C124.211 130.392 121.234 133.371 121.234 137.011V146.36V146.525C121.234 146.691 121.317 146.856 121.4 146.939L132.894 158.604C133.06 158.77 133.308 158.853 133.473 158.853H151.749C155.388 158.853 158.365 155.874 158.365 152.234V137.011C158.447 133.453 155.47 130.392 151.832 130.392ZM123.384 146.691L133.473 146.856V157.032L123.384 146.691ZM156.793 152.317C156.793 155.047 154.561 157.281 151.832 157.281H135.21V145.119L122.888 144.953V137.011C122.888 134.281 125.121 132.047 127.85 132.047H151.832C154.561 132.047 156.793 134.281 156.793 137.011V152.317Z" fill="black"/>
<path d="M150.343 133.95C149.846 133.95 149.516 134.281 149.516 134.777V154.137C149.516 154.633 149.846 154.964 150.343 154.964C150.839 154.964 151.17 154.633 151.17 154.137V134.777C151.17 134.363 150.839 133.95 150.343 133.95Z" fill="black"/>
<path d="M144.632 133.536C144.135 133.536 143.805 133.867 143.805 134.363V153.723C143.805 154.219 144.135 154.55 144.632 154.55C145.128 154.55 145.459 154.219 145.459 153.723V134.363C145.459 133.95 145.128 133.536 144.632 133.536Z" fill="black"/>
<path d="M139.093 133.95C138.596 133.95 138.266 134.281 138.266 134.777V154.137C138.266 154.633 138.596 154.964 139.093 154.964C139.589 154.964 139.92 154.633 139.92 154.137V134.777C139.92 134.363 139.506 133.95 139.093 133.95Z" fill="black"/>
<path d="M48.0427 37.4819C47.7946 37.8128 47.8773 38.392 48.2081 38.6402L58.6277 46.3344C58.7931 46.4172 58.9585 46.4999 59.1239 46.4999C59.3719 46.4999 59.62 46.4172 59.7854 46.169C60.0335 45.838 59.9508 45.2589 59.62 45.0107L49.2004 37.3164C48.7869 37.0682 48.2908 37.151 48.0427 37.4819Z" fill="#AACCF1"/>
<path d="M64.0078 45.0935C64.0905 45.0935 64.1732 45.0935 64.2559 45.0107C64.6693 44.8453 64.9174 44.4316 64.752 43.9352L59.873 29.705C59.7076 29.2913 59.2941 29.0431 58.798 29.2086C58.3845 29.374 58.1364 29.7877 58.3018 30.2841L63.1808 44.5143C63.3462 44.8453 63.677 45.0935 64.0078 45.0935Z" fill="#AACCF1"/>
<path d="M68.9679 41.6186H69.0506C69.464 41.6186 69.7948 41.2877 69.8775 40.874L72.1103 24.2445C72.193 23.8309 71.8622 23.3344 71.366 23.3344C70.9525 23.2517 70.4564 23.5826 70.4564 24.0791L68.2236 40.7085C68.1409 41.2049 68.4717 41.6186 68.9679 41.6186Z" fill="#AACCF1"/>
</g>
<defs>
<clipPath id="clip0_400_9288">
<rect width="162" height="161" fill="white" transform="translate(0 0.5)"/>
</clipPath>
</defs>
</svg>
