<svg width="162" height="140" viewBox="0 0 162 140" fill="none" xmlns="http://www.w3.org/2000/svg">
<path d="M58.0672 70.8248H25.2714L28.6641 45.0742H61.4599L58.0672 70.8248Z" fill="#FCD559"/>
<path d="M58.4587 71.2591H24.793L28.2726 44.6834H61.9383L58.4587 71.2591ZM25.7499 70.3906H57.6758L60.9379 45.5519H29.0121L25.7499 70.3906Z" fill="black"/>
<path d="M44.5834 67.3952H29.8818V100.181H44.5834V67.3952Z" fill="black"/>
<path d="M55.6312 103.479H70.0283L58.0235 70.694H43.6699L55.6312 103.479Z" fill="black"/>
<path d="M70.0281 103.48H55.7615V131.663H70.0281V103.48Z" fill="black"/>
<path d="M44.5396 100.179H29.8815L22.0958 131.662H36.7973L44.5396 100.179Z" fill="black"/>
<path d="M43.2782 132.53H36.5798L36.4929 132.921H22.5307V139.695H22.0958L50.8029 139.999C50.8029 135.874 47.4103 132.53 43.2782 132.53Z" fill="black"/>
<path d="M22.5309 132.921H36.493L36.58 132.53H22.5309V132.921Z" fill="black"/>
<path d="M74.2906 132.53H70.028V132.921H55.7614V132.53H54.1086V139.695H53.6736L81.5979 139.999C81.5979 135.874 78.3357 132.53 74.2906 132.53Z" fill="black"/>
<path d="M70.0281 132.53H55.7615V132.921H70.0281V132.53Z" fill="black"/>
<path d="M69.7237 26.5751H39.7986C34.1007 26.5751 28.9247 29.8319 26.4889 34.9994L0 94.9684H27.1848C34.5356 94.9684 41.234 90.7128 44.4091 84.0689L61.8509 45.4212" fill="black"/>
<path d="M50.02 37.3461H49.7155C45.4094 37.3461 41.8863 33.8287 41.8863 29.5297V8.2952C41.8863 3.99619 45.4094 0.478821 49.7155 0.478821H50.02C54.326 0.478821 57.8492 3.99619 57.8492 8.2952V29.5297C57.8492 33.8287 54.326 37.3461 50.02 37.3461Z" fill="#FCD559"/>
<path d="M50.0198 37.7797H49.7154C45.1483 37.7797 41.4512 34.0886 41.4512 29.5291V8.29457C41.4512 3.73501 45.1483 0.0439453 49.7154 0.0439453H50.0198C54.5869 0.0439453 58.284 3.73501 58.284 8.29457V29.5291C58.284 34.0452 54.5869 37.7797 50.0198 37.7797ZM49.7589 0.912432C45.6703 0.912432 42.3646 4.21268 42.3646 8.29457V29.5291C42.3646 33.6109 45.6703 36.9112 49.7589 36.9112H50.0633C54.1519 36.9112 57.4576 33.6109 57.4576 29.5291V8.29457C57.4576 4.21268 54.1519 0.912432 50.0633 0.912432H49.7589Z" fill="black"/>
<path d="M54.2828 32.2209C54.0218 32.2209 53.8478 32.0472 53.8478 31.7866C53.8478 30.4839 52.7604 29.3983 51.4555 29.3983C50.1507 29.3983 49.0633 30.4839 49.0633 31.7866C49.0633 32.0472 48.8893 32.2209 48.6283 32.2209C48.3673 32.2209 48.1934 32.0472 48.1934 31.7866C48.1934 30.0062 49.6722 28.5298 51.4555 28.5298C53.2389 28.5298 54.7177 30.0062 54.7177 31.7866C54.7177 32.0472 54.5002 32.2209 54.2828 32.2209Z" fill="black"/>
<path d="M49.1498 16.4781C47.5511 16.4781 46.1951 15.277 45.949 13.7436H53.8295C53.5833 15.277 52.2274 16.4781 50.6287 16.4781H49.1498Z" fill="white" stroke="black"/>
<path d="M55.8923 27.0546C55.8923 25.0137 54.1959 23.3201 52.1516 23.3201H50.6728C48.6285 23.3201 46.9322 25.0137 46.9322 27.0546" fill="#FCD559"/>
<path d="M55.8922 27.4882C55.6312 27.4882 55.4572 27.3145 55.4572 27.054C55.4572 25.2302 53.9783 23.7537 52.1515 23.7537H50.6727C48.8458 23.7537 47.367 25.2302 47.367 27.054C47.367 27.3145 47.193 27.4882 46.932 27.4882C46.6711 27.4882 46.4971 27.3145 46.4971 27.054C46.4971 24.7525 48.3674 22.8853 50.6727 22.8853H52.1515C54.4568 22.8853 56.3271 24.7525 56.3271 27.054C56.3271 27.3145 56.1096 27.4882 55.8922 27.4882Z" fill="black"/>
<path d="M58.3275 16.4781C56.7288 16.4781 55.3729 15.277 55.1267 13.7436H63.0072C62.7611 15.277 61.4051 16.4781 59.8064 16.4781H58.3275Z" fill="white" stroke="black"/>
<path d="M53.4132 17.8908C55.501 17.7606 57.4148 16.9789 58.7632 15.6762C59.9376 14.5472 60.59 13.1576 60.503 11.768C60.416 10.4653 61.3294 9.33625 62.5038 9.2494C63.7217 9.16255 64.7221 10.1613 64.7656 11.5075C64.9396 14.4169 63.3302 17.1961 61.112 19.3238C59.0242 21.2779 56.6754 22.4504 53.6742 22.6675C53.6307 22.6675 53.6307 22.6675 53.5872 22.6675" fill="#FCD559"/>
<path d="M53.5872 23.1018C53.3697 23.1018 53.1522 22.9281 53.1522 22.6675C53.1522 22.407 53.3262 22.2333 53.5872 22.2333H53.6742C56.4579 22.0596 58.7197 21.0174 60.851 19.0199C63.2433 16.7184 64.5046 14.0695 64.3741 11.5509C64.3307 10.9864 64.1132 10.4653 63.7217 10.1179C63.3737 9.81391 62.9823 9.68364 62.5473 9.72706C61.5904 9.77049 60.8945 10.7258 60.938 11.768C61.025 13.2879 60.3725 14.7643 59.0677 15.9802C57.6323 17.3263 55.6315 18.1514 53.4567 18.3251C53.2392 18.3251 53.0218 18.1514 52.9783 17.9343C52.9348 17.7171 53.1522 17.5 53.3697 17.4566C55.3705 17.3263 57.1538 16.5881 58.4587 15.3722C59.5461 14.33 60.1116 13.0707 60.0681 11.8114C59.9811 10.2482 61.0685 8.94543 62.5038 8.85858C63.1563 8.81515 63.8087 9.03227 64.2872 9.50994C64.8526 9.98761 65.2006 10.7258 65.2441 11.5509C65.418 14.33 64.0697 17.2395 61.4599 19.7147C59.1982 21.8424 56.6754 22.9715 53.7177 23.1452C53.6742 23.1018 53.6307 23.1018 53.5872 23.1018Z" fill="black"/>
<path d="M42.6695 21.7132C41.1037 21.7132 39.8423 20.4539 39.8423 18.8906C39.8423 17.3274 41.1037 16.0681 42.6695 16.0681" fill="#FCD559"/>
<path d="M42.6694 22.1468C40.8861 22.1468 39.4072 20.6704 39.4072 18.89C39.4072 17.1096 40.8861 15.6332 42.6694 15.6332C42.9304 15.6332 43.1044 15.8069 43.1044 16.0674C43.1044 16.328 42.9304 16.5017 42.6694 16.5017C41.3645 16.5017 40.2771 17.5873 40.2771 18.89C40.2771 20.1927 41.3645 21.2783 42.6694 21.2783C42.9304 21.2783 43.1044 21.452 43.1044 21.7126C43.1044 21.9731 42.9304 22.1468 42.6694 22.1468Z" fill="black"/>
<path d="M53.6299 26.8352H49.1498C48.8888 26.8352 48.7148 26.6615 48.7148 26.4009C48.7148 26.1404 48.8888 25.9667 49.1498 25.9667H53.6299C53.8908 25.9667 54.0648 26.1404 54.0648 26.4009C54.0648 26.6615 53.8908 26.8352 53.6299 26.8352Z" fill="black"/>
<path d="M58.4583 45.5957V45.1615H106.217V41.4704V40.6019V29.4853V28.4865V26.8364H105.434H104.477H103.476H58.4583V37.0411V37.2583V37.4754L54.8916 38.3004V57.0163L103.476 46.03H58.4583V45.5957Z" fill="black"/>
<path d="M125.877 42.2092C126.05 42.2092 126.181 42.1658 126.311 42.1223V44.7278H144.362V34.7402L142.361 35.3482C142.013 35.4784 141.665 35.5653 141.274 35.5653C140.23 35.5653 139.186 34.9573 138.751 33.9586C138.447 33.3072 138.447 32.6124 138.708 31.9611C138.969 31.2663 139.491 30.7452 140.187 30.4412H140.23L144.362 29.2253V22.3209H126.311V25.8382C126.181 25.7948 126.05 25.7514 125.877 25.7514C125.746 25.7514 125.572 25.7514 125.442 25.7514C123.745 25.8382 122.179 26.2725 120.874 27.0541C118.482 25.9251 115.568 25.6211 112.61 26.1422C110.783 26.4462 108.957 27.0975 107.043 28.0529V29.0082C109 28.0094 110.914 27.3147 112.741 27.0107C115.351 26.533 117.873 26.7936 120.048 27.6621C118.961 28.5305 118.134 29.6161 117.656 30.8755C114.829 31.2228 111.871 30.9189 109.174 29.9635C108.957 29.8767 108.696 30.007 108.609 30.2241C108.522 30.4412 108.652 30.7018 108.87 30.7886C111.566 31.7439 114.481 32.0479 117.351 31.7439C117.221 32.3085 117.134 32.9164 117.134 33.5243C117.134 33.8717 117.177 34.2625 117.221 34.6099C114.524 34.8705 111.74 34.5665 109.174 33.6546C108.957 33.5678 108.696 33.698 108.609 33.9152C108.522 34.1323 108.652 34.3928 108.87 34.4797C109 34.5231 109.131 34.5665 109.261 34.6099C109.305 34.7836 109.392 34.9139 109.566 34.9573C111.392 35.435 113.263 35.6955 115.133 35.6955C115.872 35.6955 116.655 35.6521 117.395 35.5653C117.612 36.4338 118.004 37.3022 118.482 38.0405C115.264 38.6484 111.871 38.4313 108.783 37.3457C108.565 37.2588 108.304 37.3891 108.217 37.6062C108.13 37.8233 108.261 38.0839 108.478 38.1707C108.739 38.2576 109 38.3444 109.305 38.4313C109.348 38.5616 109.435 38.6484 109.566 38.6484C111.392 39.1261 113.263 39.3866 115.133 39.3866C116.481 39.3866 117.83 39.2563 119.178 38.9958C119.831 39.7774 120.657 40.4722 121.57 40.9933C120.961 41.2539 120.266 41.471 119.483 41.6881C116.177 42.4697 112.697 42.4263 109.435 41.5144C108.913 41.3841 108.391 41.2104 107.913 41.0367C107.608 40.9499 107.347 40.863 107.043 40.7762V41.6881C107.26 41.7315 107.434 41.8184 107.652 41.8618C108.174 42.0355 108.696 42.2092 109.218 42.3395C111.044 42.8171 112.915 43.0777 114.785 43.0777C116.438 43.0777 118.091 42.904 119.7 42.5132C120.831 42.2526 121.788 41.9052 122.614 41.471C123.484 41.8184 124.441 42.0355 125.442 42.1223C125.616 42.1658 125.746 42.2092 125.877 42.2092ZM119.352 33.5243C119.352 32.7427 119.526 32.0045 119.831 31.3531C121.005 31.0926 122.136 30.7452 123.223 30.2675C124.224 29.8333 124.833 29.7898 125.137 30.0938C125.485 30.4846 125.181 31.2228 124.746 31.7439C124.267 32.3085 123.658 32.7427 122.962 33.1769C122.919 33.1769 122.919 33.2204 122.875 33.2204C121.744 33.698 120.614 34.0454 119.439 34.306C119.396 34.0454 119.352 33.7849 119.352 33.5243ZM119.613 35.2613C119.787 35.2179 119.961 35.2179 120.092 35.1745C121.353 34.8705 122.397 34.4797 123.31 33.9586C124.267 33.5678 124.833 33.5243 125.094 33.8717C125.442 34.2625 125.137 35.0008 124.702 35.5219C124.354 35.9127 123.963 36.2601 123.484 36.6075C123.049 36.6943 122.701 36.868 122.44 36.9549C121.875 37.172 121.353 37.3891 120.788 37.5628C120.266 36.868 119.874 36.0864 119.613 35.2613ZM121.701 38.3879C122.527 38.0839 123.267 37.7365 123.876 37.3457C124.311 37.2588 124.572 37.3457 124.746 37.5194C125.094 37.9102 124.789 38.6484 124.354 39.1695C124.18 39.3432 124.05 39.5169 123.832 39.6906C123.093 39.3866 122.353 38.9524 121.701 38.3879Z" fill="black"/>
<path d="M126.809 42.1223V41.429L126.151 41.6479C126.02 41.6913 125.959 41.7092 125.874 41.7092C125.839 41.7092 125.813 41.7022 125.722 41.6786C125.682 41.6682 125.63 41.6547 125.56 41.6372L125.521 41.6276L125.482 41.6242C124.525 41.5411 123.617 41.334 122.797 41.0066L122.583 40.9212L122.514 40.9575L121.815 40.559C120.954 40.0674 120.173 39.4111 119.559 38.6754L119.37 38.4489L119.08 38.5049C117.763 38.7595 116.446 38.8866 115.13 38.8866C114.714 38.8866 114.298 38.8734 113.883 38.8475C115.452 38.9296 117.032 38.8227 118.572 38.5318L119.304 38.3935L118.899 37.7685C118.448 37.0729 118.08 36.2549 117.877 35.4438L117.776 35.0389L117.714 34.5478C117.671 34.2003 117.631 33.8373 117.631 33.5243C117.631 32.9626 117.712 32.3933 117.836 31.8565L117.955 31.3422L118.013 31.3349L118.12 31.053C118.564 29.8854 119.333 28.871 120.357 28.0527L120.899 27.62L120.9 27.6202L121.129 27.483C122.349 26.7519 123.828 26.3363 125.452 26.2514H125.452H125.453H125.453H125.454H125.455H125.456H125.457H125.457H125.458H125.459H125.46H125.461H125.461H125.462H125.463H125.464H125.464H125.465H125.466H125.467H125.468H125.468H125.469H125.47H125.471H125.472H125.472H125.473H125.474H125.475H125.476H125.477H125.477H125.478H125.479H125.48H125.481H125.481H125.482H125.483H125.484H125.485H125.485H125.486H125.487H125.488H125.489H125.49H125.49H125.491H125.492H125.493H125.494H125.494H125.495H125.496H125.497H125.498H125.499H125.499H125.5H125.501H125.502H125.503H125.504H125.504H125.505H125.506H125.507H125.508H125.509H125.509H125.51H125.511H125.512H125.513H125.514H125.514H125.515H125.516H125.517H125.518H125.519H125.52H125.52H125.521H125.522H125.523H125.524H125.525H125.525H125.526H125.527H125.528H125.529H125.53H125.531H125.531H125.532H125.533H125.534H125.535H125.536H125.537H125.537H125.538H125.539H125.54H125.541H125.542H125.543H125.543H125.544H125.545H125.546H125.547H125.548H125.549H125.549H125.55H125.551H125.552H125.553H125.554H125.555H125.555H125.556H125.557H125.558H125.559H125.56H125.561H125.562H125.562H125.563H125.564H125.565H125.566H125.567H125.568H125.569H125.569H125.57H125.571H125.572H125.573H125.574H125.575H125.576H125.576H125.577H125.578H125.579H125.58H125.581H125.582H125.583H125.583H125.584H125.585H125.586H125.587H125.588H125.589H125.59H125.59H125.591H125.592H125.593H125.594H125.595H125.596H125.597H125.598H125.598H125.599H125.6H125.601H125.602H125.603H125.604H125.605H125.605H125.606H125.607H125.608H125.609H125.61H125.611H125.612H125.613H125.613H125.614H125.615H125.616H125.617H125.618H125.619H125.62H125.621H125.621H125.622H125.623H125.624H125.625H125.626H125.627H125.628H125.629H125.629H125.63H125.631H125.632H125.633H125.634H125.635H125.636H125.637H125.637H125.638H125.639H125.64H125.641H125.642H125.643H125.644H125.645H125.646H125.646H125.647H125.648H125.649H125.65H125.651H125.652H125.653H125.654H125.654H125.655H125.656H125.657H125.658H125.659H125.66H125.661H125.662H125.662H125.663H125.664H125.665H125.666H125.667H125.668H125.669H125.67H125.67H125.671H125.672H125.673H125.674H125.675H125.676H125.677H125.678H125.679H125.679H125.68H125.681H125.682H125.683H125.684H125.685H125.686H125.687H125.687H125.688H125.689H125.69H125.691H125.692H125.693H125.694H125.695H125.695H125.696H125.697H125.698H125.699H125.7H125.701H125.702H125.703H125.703H125.704H125.705H125.706H125.707H125.708H125.709H125.71H125.71H125.711H125.712H125.713H125.714H125.715H125.716H125.717H125.718H125.718H125.719H125.72H125.721H125.722H125.723H125.724H125.725H125.725H125.726H125.727H125.728H125.729H125.73H125.731H125.732H125.733H125.733H125.734H125.735H125.736H125.737H125.738H125.739H125.74H125.74H125.741H125.742H125.743H125.744H125.745H125.746H125.747H125.747H125.748H125.749H125.75H125.751H125.752H125.753H125.753H125.754H125.755H125.756H125.757H125.758H125.759H125.76H125.76H125.761H125.762H125.763H125.764H125.765H125.766H125.766H125.767H125.768H125.769H125.77H125.771H125.772H125.772H125.773H125.774H125.775H125.776H125.777H125.778H125.778H125.779H125.78H125.781H125.782H125.783H125.784H125.784H125.785H125.786H125.787H125.788H125.789H125.79H125.79H125.791H125.792H125.793H125.794H125.795H125.795H125.796H125.797H125.798H125.799H125.8H125.8H125.801H125.802H125.803H125.804H125.805H125.806H125.806H125.807H125.808H125.809H125.81H125.811H125.811H125.812H125.813H125.814H125.815H125.815H125.816H125.817H125.818H125.819H125.82H125.82H125.821H125.822H125.823H125.824H125.825H125.825H125.826H125.827H125.828H125.829H125.829H125.83H125.831H125.832H125.833H125.833H125.834H125.835H125.836H125.837H125.838H125.838H125.839H125.84H125.841H125.842H125.842H125.843H125.844H125.845H125.846H125.846H125.847H125.848H125.849H125.85H125.85H125.851H125.852H125.853H125.853H125.854H125.855H125.856H125.857H125.857H125.858H125.859H125.86H125.861H125.861H125.862H125.863H125.864H125.864H125.865H125.866H125.867H125.868H125.868H125.869H125.87H125.871H125.871H125.872H125.873H125.874C125.959 26.2514 126.02 26.2693 126.151 26.3126L126.809 26.5316V25.8382V22.8209H143.859V28.8513L140.155 29.9412H140.079L139.984 29.983C139.177 30.3355 138.552 30.9506 138.239 31.7801C137.932 32.5484 137.93 33.3833 138.293 34.1643C138.816 35.3593 140.05 36.0653 141.271 36.0653C141.735 36.0653 142.139 35.9628 142.519 35.8221L143.859 35.4147V44.2278H126.809V42.1223ZM109.743 38.1732C109.838 38.1997 109.933 38.2255 110.028 38.2505C109.933 38.2273 109.839 38.2035 109.745 38.1791L109.743 38.1732ZM109.776 38.2729C109.776 38.2733 109.776 38.2735 109.776 38.2735L109.776 38.2729ZM108.594 37.81L108.595 37.8104L108.594 37.81ZM109.711 34.3606C111.388 34.8789 113.14 35.1527 114.89 35.1941C113.164 35.173 111.437 34.9261 109.743 34.4876L109.711 34.3606ZM108.986 34.1189L108.987 34.1193L108.986 34.1189ZM119.719 30.865L119.479 30.9183L119.375 31.1414C119.04 31.8578 118.849 32.6682 118.849 33.5243C118.849 33.8266 118.899 34.1219 118.94 34.3716L118.943 34.3883L119.027 34.8915L118.973 34.905L119.134 35.4121C119.41 36.2875 119.827 37.1203 120.385 37.8631L120.596 38.1439L120.932 38.0408C121.392 37.8992 121.83 37.7283 122.262 37.5594C122.377 37.5144 122.492 37.4696 122.607 37.4255C122.726 37.3855 122.831 37.3437 122.933 37.3029C122.949 37.2968 122.964 37.2907 122.98 37.2845C122.545 37.5113 122.057 37.7231 121.525 37.9186L120.73 38.2113L121.371 38.766C122.068 39.3691 122.855 39.8305 123.639 40.153L123.911 40.2649L124.141 40.0813C124.317 39.9411 124.475 39.7695 124.592 39.6429C124.636 39.5953 124.674 39.5541 124.705 39.5233L124.721 39.5073L124.735 39.4899C124.985 39.1911 125.21 38.8163 125.321 38.4355C125.428 38.0683 125.459 37.5714 125.116 37.1869L125.106 37.1759L125.096 37.1655C124.823 36.8931 124.463 36.783 124.033 36.8184C124.424 36.5147 124.763 36.2017 125.073 35.8543L125.078 35.8484L125.083 35.8423C125.333 35.5435 125.558 35.1687 125.669 34.7878C125.774 34.4256 125.806 33.9372 125.478 33.5549C125.213 33.2155 124.82 33.1176 124.432 33.1391C124.217 33.1511 123.98 33.1999 123.724 33.2771C124.242 32.9266 124.721 32.5426 125.124 32.0672L125.127 32.0643C125.376 31.7655 125.601 31.3908 125.712 31.0099C125.819 30.6428 125.85 30.1459 125.508 29.7613L125.498 29.7504L125.488 29.74C125.193 29.4459 124.794 29.3714 124.395 29.4057C124.002 29.4396 123.542 29.583 123.021 29.8088L123.019 29.8097C121.967 30.2719 120.868 30.6101 119.719 30.865Z" fill="#FCD559" stroke="black"/>
<path d="M156.839 26.8616C156.672 27.0802 156.563 27.3506 156.563 27.6617C156.563 28.0272 156.72 28.4017 156.998 28.6564V29.5043L145.045 33.0885L145.045 33.0885L144.61 33.2187L144.751 33.6884L144.61 33.2187L144.175 33.349L144.175 33.349L144.172 33.35L141.982 34.0228H141.905L141.807 34.0675C141.107 34.3849 140.308 34.071 139.986 33.3956L139.986 33.3956L139.981 33.387C139.834 33.092 139.829 32.7644 139.955 32.4507C140.072 32.1587 140.309 31.9053 140.67 31.7343L144.506 30.5725L144.507 30.572L144.941 30.4422L145.376 30.3119L145.376 30.3117L156.839 26.8616Z" fill="#FCD559" stroke="black"/>
<path d="M158.46 26.0611L158.46 26.0611L158.852 25.6703L158.852 25.6703L158.857 25.6648L160.782 23.6828V32.436L158.593 30.2195L158.593 30.2194L158.591 30.2169L158.243 29.8696L157.892 30.221L158.243 29.8695L158.042 29.6687V28.3996V28.1317L157.819 27.9833C157.66 27.8778 157.607 27.7581 157.607 27.6614C157.607 27.5268 157.691 27.4075 157.765 27.3705L158.042 27.2324V26.9231V26.4791L158.46 26.0611Z" fill="#FCD559" stroke="black"/>
<path d="M49.324 0C45.2354 0 41.9297 3.30025 41.9297 7.38213V10.1613C46.8882 9.42308 50.7593 5.25434 50.9768 0.130273C50.5418 0.0434243 50.1069 0 49.6284 0H49.324V0Z" fill="black"/>
<path d="M52.2384 0.694031C55.2831 0.694031 57.8058 3.99428 57.8058 8.07617V10.8553C54.0652 10.1171 51.1945 5.94837 51.0205 0.824304C51.3685 0.737455 51.6729 0.694031 52.0209 0.694031H52.2384Z" fill="black"/>
</svg>
