<svg width="193" height="160" viewBox="0 0 193 160" fill="none" xmlns="http://www.w3.org/2000/svg">
<g clip-path="url(#clip0_400_3426)">
<path d="M66.3125 80.9425H28.8594L32.7338 51.5132H70.187L66.3125 80.9425Z" fill="white"/>
<path d="M66.7591 81.4389H28.3125L32.2863 51.0667H70.7329L66.7591 81.4389ZM29.4053 80.4463H65.865L69.5905 52.0592H33.1307L29.4053 80.4463Z" fill="#020404"/>
<path d="M50.9144 77.0232H34.125V114.492H50.9144V77.0232Z" fill="#020404"/>
<path d="M63.535 118.262H79.9766L66.267 80.7932H49.875L63.535 118.262Z" fill="#020404"/>
<path d="M79.9723 118.263H63.6797V150.471H79.9723V118.263Z" fill="#020404"/>
<path d="M50.8655 114.49H34.1258L25.2344 150.471H42.0237L50.8655 114.49Z" fill="#020404"/>
<path d="M49.425 151.463H41.7754L41.676 151.91H25.7311V159.652H25.2344L58.0183 159.999C58.0183 155.285 54.1439 151.463 49.425 151.463Z" fill="#020404"/>
<path d="M25.7344 151.91H41.6793L41.7786 151.463H25.7344V151.91Z" fill="#020404"/>
<path d="M84.8417 151.463H79.9738V151.91H63.6812V151.463H61.7936V159.652H61.2969L93.1867 159.999C93.1867 155.285 89.4613 151.463 84.8417 151.463Z" fill="#020404"/>
<path d="M79.9723 151.463H63.6797V151.91H79.9723V151.463Z" fill="#020404"/>
<path d="M79.6253 30.3716H45.4505C38.9434 30.3716 33.0323 34.0937 30.2506 39.9994L0 108.535H31.0454C39.4401 108.535 47.0897 103.672 50.7158 96.0788L70.6345 51.91" fill="#020404"/>
<path d="M57.1247 42.6814H56.777C51.8594 42.6814 47.8359 38.6615 47.8359 33.7484V9.48037C47.8359 4.56721 51.8594 0.547363 56.777 0.547363H57.1247C62.0423 0.547363 66.0658 4.56721 66.0658 9.48037V33.7484C66.0658 38.6615 62.0423 42.6814 57.1247 42.6814Z" fill="white"/>
<path d="M57.1214 43.1768H56.7737C51.5581 43.1768 47.3359 38.9585 47.3359 33.7476V9.47957C47.3359 4.26866 51.5581 0.050293 56.7737 0.050293H57.1214C62.3371 0.050293 66.5592 4.26866 66.5592 9.47957V33.7476C66.5592 38.9089 62.3371 43.1768 57.1214 43.1768ZM56.8234 1.04285C52.1542 1.04285 48.3791 4.81456 48.3791 9.47957V33.7476C48.3791 38.4126 52.1542 42.1843 56.8234 42.1843H57.1711C61.8403 42.1843 65.6155 38.4126 65.6155 33.7476V9.47957C65.6155 4.81456 61.8403 1.04285 57.1711 1.04285H56.8234Z" fill="#020404"/>
<path d="M61.9932 36.8238C61.6952 36.8238 61.4965 36.6253 61.4965 36.3276C61.4965 34.8387 60.2547 33.598 58.7645 33.598C57.2743 33.598 56.0325 34.8387 56.0325 36.3276C56.0325 36.6253 55.8338 36.8238 55.5358 36.8238C55.2378 36.8238 55.0391 36.6253 55.0391 36.3276C55.0391 34.2928 56.7279 32.6055 58.7645 32.6055C60.8011 32.6055 62.49 34.2928 62.49 36.3276C62.49 36.6253 62.2416 36.8238 61.9932 36.8238Z" fill="#020404"/>
<path d="M51.8594 15.1355C51.8594 17.468 53.7966 19.4035 56.1312 19.4035H57.8201C60.1547 19.4035 62.0919 17.468 62.0919 15.1355H51.8594Z" fill="#020404"/>
<path d="M63.8341 30.9196C63.8341 28.5871 61.8969 26.6516 59.5623 26.6516H57.8734C55.5388 26.6516 53.6016 28.5871 53.6016 30.9196" fill="white"/>
<path d="M63.8309 31.4151C63.5328 31.4151 63.3341 31.2166 63.3341 30.9188C63.3341 28.8344 61.6453 27.1471 59.559 27.1471H57.8701C55.7839 27.1471 54.095 28.8344 54.095 30.9188C54.095 31.2166 53.8963 31.4151 53.5983 31.4151C53.3003 31.4151 53.1016 31.2166 53.1016 30.9188C53.1016 28.2885 55.2375 26.1545 57.8701 26.1545H59.559C62.1917 26.1545 64.3276 28.2885 64.3276 30.9188C64.3276 31.2166 64.0792 31.4151 63.8309 31.4151Z" fill="#020404"/>
<path d="M62.3359 15.1355C62.3359 17.468 64.2732 19.4035 66.6078 19.4035H68.2967C70.6313 19.4035 72.5685 17.468 72.5685 15.1355H62.3359Z" fill="#020404"/>
<path d="M60.9922 20.4466C63.3765 20.2978 65.5621 19.4045 67.1019 17.9156C68.4431 16.6253 69.1882 15.0372 69.0888 13.4491C68.9895 11.9603 70.0326 10.67 71.3738 10.5707C72.7646 10.4715 73.9071 11.6129 73.9568 13.1514C74.1554 16.4764 72.3176 19.6526 69.7842 22.0844C67.4 24.3176 64.7176 25.6576 61.2902 25.9057C61.2406 25.9057 61.2405 25.9057 61.1909 25.9057" fill="white"/>
<path d="M61.194 26.402C60.9456 26.402 60.6973 26.2035 60.6973 25.9058C60.6973 25.608 60.896 25.4095 61.194 25.4095H61.2933C64.4724 25.211 67.0554 24.0199 69.4893 21.737C72.2213 19.1068 73.6618 16.0795 73.5128 13.201C73.4632 12.5559 73.2148 11.9604 72.7677 11.5633C72.3704 11.2159 71.9233 11.0671 71.4266 11.1167C70.3338 11.1663 69.539 12.2581 69.5887 13.4492C69.688 15.1862 68.9429 16.8735 67.4528 18.2631C65.8136 19.8015 63.5286 20.7445 61.045 20.943C60.7966 20.943 60.5483 20.7445 60.4986 20.4963C60.4489 20.2482 60.6973 20.0001 60.9456 19.9504C63.2306 19.8015 65.2672 18.9579 66.7573 17.5683C67.9992 16.3772 68.6449 14.938 68.5952 13.4988C68.4959 11.7122 69.7377 10.2234 71.3769 10.1241C72.122 10.0745 72.8671 10.3226 73.4135 10.8685C74.0592 11.4144 74.4566 12.2581 74.5063 13.201C74.705 16.3772 73.1651 19.7023 70.1848 22.5311C67.6018 24.9628 64.7208 26.2532 61.343 26.4517C61.2933 26.402 61.2437 26.402 61.194 26.402Z" fill="#020404"/>
<path d="M48.7287 24.8151C46.9405 24.8151 45.5 23.3759 45.5 21.5893C45.5 19.8027 46.9405 18.3635 48.7287 18.3635" fill="white"/>
<path d="M48.7254 25.3106C46.6889 25.3106 45 23.6233 45 21.5885C45 19.5538 46.6889 17.8665 48.7254 17.8665C49.0235 17.8665 49.2222 18.065 49.2222 18.3627C49.2222 18.6605 49.0235 18.859 48.7254 18.859C47.2353 18.859 45.9935 20.0997 45.9935 21.5885C45.9935 23.0774 47.2353 24.3181 48.7254 24.3181C49.0235 24.3181 49.2222 24.5166 49.2222 24.8143C49.2222 25.1121 49.0235 25.3106 48.7254 25.3106Z" fill="#020404"/>
<path d="M61.2458 30.6688H56.1295C55.8315 30.6688 55.6328 30.4703 55.6328 30.1725C55.6328 29.8748 55.8315 29.6763 56.1295 29.6763H61.2458C61.5439 29.6763 61.7425 29.8748 61.7425 30.1725C61.7425 30.4703 61.5439 30.6688 61.2458 30.6688Z" fill="#020404"/>
<path d="M66.7607 52.1094V51.6131H121.301V47.3947V46.4022V33.6975V32.556V30.6702H120.407H119.314H118.172H66.7607V42.3327V42.5808V42.829L62.6875 43.7719V65.1615L118.172 52.6056H66.7607V52.1094Z" fill="#020404"/>
<path d="M143.75 48.239C143.949 48.239 144.098 48.1894 144.247 48.1398V51.1175H164.861V39.7031L162.576 40.3979C162.179 40.5467 161.782 40.646 161.335 40.646C160.142 40.646 158.95 39.9512 158.454 38.8098C158.106 38.0653 158.106 37.2713 158.404 36.5269C158.702 35.7328 159.298 35.1373 160.093 34.7899H160.142L164.861 33.4003V25.5095H144.247V29.5294C144.098 29.4797 143.949 29.4301 143.75 29.4301C143.601 29.4301 143.403 29.4301 143.254 29.4301C141.316 29.5294 139.528 30.0256 138.038 30.9189C135.306 29.6286 131.978 29.2812 128.6 29.8768C126.514 30.2242 124.428 30.9686 122.242 32.0604V33.1522C124.477 32.0108 126.663 31.2167 128.749 30.8693C131.73 30.3234 134.611 30.6212 137.094 31.6137C135.852 32.6063 134.909 33.847 134.362 35.2862C131.134 35.6832 127.756 35.3358 124.676 34.244C124.428 34.1448 124.13 34.2936 124.03 34.5418C123.931 34.7899 124.08 35.0877 124.328 35.1869C127.408 36.2788 130.736 36.6261 134.015 36.2787C133.866 36.9239 133.766 37.6187 133.766 38.3135C133.766 38.7105 133.816 39.1572 133.866 39.5542C130.786 39.8519 127.607 39.5046 124.676 38.4624C124.428 38.3631 124.13 38.512 124.03 38.7601C123.931 39.0083 124.08 39.306 124.328 39.4053C124.477 39.4549 124.626 39.5046 124.775 39.5542C124.825 39.7527 124.925 39.9016 125.123 39.9512C127.209 40.4971 129.345 40.7949 131.481 40.7949C132.326 40.7949 133.22 40.7453 134.064 40.646C134.313 41.6386 134.76 42.6311 135.306 43.4748C131.63 44.1696 127.756 43.9214 124.229 42.6807C123.981 42.5815 123.683 42.7304 123.583 42.9785C123.484 43.2266 123.633 43.5244 123.881 43.6237C124.179 43.7229 124.477 43.8222 124.825 43.9214C124.875 44.0703 124.974 44.1696 125.123 44.1696C127.209 44.7155 129.345 45.0132 131.481 45.0132C133.021 45.0132 134.561 44.8644 136.101 44.5666C136.846 45.4599 137.79 46.2539 138.833 46.8495C138.137 47.1472 137.343 47.3954 136.449 47.6435C132.673 48.5368 128.7 48.4872 124.974 47.445C124.378 47.2961 123.782 47.0976 123.236 46.8991C122.888 46.7998 122.59 46.7006 122.242 46.6013V47.6435C122.491 47.6931 122.689 47.7924 122.938 47.842C123.534 48.0405 124.13 48.239 124.726 48.3879C126.812 48.9338 128.948 49.2316 131.084 49.2316C132.971 49.2316 134.859 49.0331 136.697 48.5864C137.988 48.2887 139.081 47.8917 140.025 47.3954C141.018 47.7924 142.111 48.0405 143.254 48.1398C143.452 48.1894 143.601 48.239 143.75 48.239ZM136.3 38.3135C136.3 37.4202 136.498 36.5765 136.846 35.8321C138.187 35.5343 139.479 35.1373 140.72 34.5914C141.863 34.0951 142.558 34.0455 142.906 34.3929C143.303 34.8395 142.956 35.6832 142.459 36.2787C141.913 36.9239 141.217 37.4202 140.422 37.9165C140.373 37.9165 140.373 37.9661 140.323 37.9661C139.032 38.512 137.74 38.909 136.399 39.2068C136.349 38.909 136.3 38.6113 136.3 38.3135ZM136.598 40.2986C136.796 40.249 136.995 40.249 137.144 40.1993C138.584 39.852 139.777 39.4053 140.82 38.8098C141.913 38.3631 142.558 38.3135 142.856 38.7105C143.254 39.1572 142.906 40.0008 142.409 40.5964C142.012 41.043 141.565 41.44 141.018 41.8371C140.522 41.9363 140.124 42.1348 139.826 42.2341C139.181 42.4822 138.584 42.7304 137.939 42.9289C137.343 42.1348 136.896 41.2415 136.598 40.2986ZM138.982 43.8718C139.926 43.5244 140.77 43.1274 141.465 42.6807C141.962 42.5815 142.26 42.6807 142.459 42.8792C142.856 43.3259 142.509 44.1696 142.012 44.7651C141.813 44.9636 141.664 45.1621 141.416 45.3606C140.571 45.0132 139.727 44.517 138.982 43.8718Z" fill="#020404"/>
<path d="M179.367 30.0254L165.856 34.0949L165.36 34.2438L164.863 34.3927L160.442 35.7326C159.896 35.9808 159.498 36.3778 159.3 36.8741C159.101 37.3703 159.101 37.9162 159.349 38.4125C159.846 39.4547 161.088 39.951 162.181 39.4547H162.23L164.813 38.6607L165.31 38.5118L165.807 38.3629L179.864 34.1445V32.4572C179.566 32.3083 179.367 31.9609 179.367 31.6135C179.367 31.2661 179.566 30.9683 179.864 30.7698V29.9758L180.013 29.8269C179.864 29.8765 179.616 29.9262 179.367 30.0254Z" fill="#020404"/>
<path d="M181.011 28.9331L180.564 29.3798L180.068 29.8761L179.919 30.025V30.7694C179.621 30.9183 179.422 31.2657 179.422 31.613C179.422 31.9604 179.621 32.2582 179.919 32.4567V34.1441L180.316 34.5411L180.713 34.9381L184.19 38.4617V25.6577L181.011 28.9331Z" fill="#060707"/>
<path d="M56.3272 0C51.6579 0 47.8828 3.77171 47.8828 8.43672V11.6129C53.5455 10.7692 57.9664 6.00496 58.2147 0.148883C57.718 0.0496278 57.2213 0 56.6749 0H56.3272V0Z" fill="#020404"/>
<path d="M59.6565 0.793213C63.1335 0.793213 66.0146 4.56493 66.0146 9.22994V12.4061C61.7427 11.5624 58.4643 6.79818 58.2656 0.942096C58.663 0.842841 59.0107 0.793213 59.4081 0.793213H59.6565Z" fill="#020404"/>
</g>
<defs>
<clipPath id="clip0_400_3426">
<rect width="193" height="160" fill="white"/>
</clipPath>
</defs>
</svg>
