<svg width="173" height="83" viewBox="0 0 173 83" fill="none" xmlns="http://www.w3.org/2000/svg">
<path d="M171 26.5L170.014 26.6673L171 26.5ZM71 53L71.9706 52.7593L71 53ZM98.5 33L98.8371 32.0585L98.5 33ZM104 73.5L103.172 72.9386L104 73.5ZM1.08204 63.5915C0.58031 63.8224 0.360702 64.4162 0.591533 64.918L4.35315 73.0942C4.58398 73.5959 5.17784 73.8155 5.67958 73.5847C6.18131 73.3538 6.40092 72.76 6.17009 72.2582L2.82642 64.9905L10.0942 61.6468C10.5959 61.416 10.8155 60.8222 10.5847 60.3204C10.3538 59.8187 9.75997 59.5991 9.25824 59.8299L1.08204 63.5915ZM123.5 1.5C123.392 2.49415 123.392 2.49415 123.392 2.49416C123.392 2.49419 123.393 2.49422 123.393 2.49428C123.394 2.49439 123.396 2.49458 123.398 2.49484C123.403 2.49537 123.41 2.49619 123.42 2.49731C123.44 2.49956 123.471 2.50301 123.511 2.5077C123.592 2.51709 123.714 2.53147 123.873 2.55115C124.192 2.59051 124.661 2.65108 125.261 2.73544C126.461 2.9042 128.183 3.16803 130.26 3.54756C134.418 4.30717 139.987 5.52763 145.655 7.3712C151.331 9.21772 157.054 11.673 161.55 14.8806C166.051 18.0907 169.218 21.9763 170.014 26.6673L171.986 26.3327C171.067 20.9174 167.44 16.6248 162.712 13.2524C157.981 9.87765 152.043 7.34619 146.273 5.46929C140.494 3.58945 134.832 2.34978 130.619 1.58013C128.511 1.19502 126.763 0.926933 125.54 0.754924C124.928 0.668909 124.447 0.606888 124.118 0.56625C123.954 0.545931 123.828 0.530955 123.742 0.520997C123.699 0.516018 123.666 0.512294 123.643 0.509783C123.632 0.508527 123.624 0.507575 123.618 0.506921C123.615 0.506594 123.613 0.506341 123.611 0.506163C123.61 0.506074 123.609 0.505995 123.609 0.50595C123.608 0.50589 123.608 0.505848 123.5 1.5ZM170.014 26.6673C171.603 36.0313 166.97 44.3015 158.691 51.0252C150.407 57.7521 138.603 62.8056 126.283 65.6484C113.963 68.4909 101.237 69.098 91.1412 67.0281C81.0037 64.9495 73.8302 60.2566 71.9706 52.7593L70.0294 53.2407C72.1698 61.8697 80.3322 66.8534 90.7395 68.9873C101.189 71.1298 114.216 70.4852 126.732 67.5972C139.248 64.7095 151.362 59.5536 159.951 52.5778C168.545 45.5987 173.74 36.6729 171.986 26.3327L170.014 26.6673ZM71.9706 52.7593C69.9593 44.6505 72.6127 38.6272 77.5737 35.27C82.5965 31.8708 90.1732 31.0804 98.1629 33.9415L98.8371 32.0585C90.3968 29.0361 82.1227 29.7765 76.4527 33.6136C70.7208 37.4926 67.8393 44.4111 70.0294 53.2407L71.9706 52.7593ZM98.1629 33.9415C102.469 35.4834 105.534 37.7292 107.581 40.4228C109.628 43.1163 110.699 46.3144 110.926 49.8309C111.382 56.8963 108.418 65.2051 103.172 72.9386L104.828 74.0614C110.214 66.1204 113.417 57.3718 112.922 49.7022C112.674 45.8513 111.491 42.2624 109.173 39.2127C106.856 36.163 103.447 33.7093 98.8371 32.0585L98.1629 33.9415ZM103.172 72.9386C99.5528 78.2748 91.66 80.604 81.3485 80.8426C71.1212 81.0794 58.8884 79.2512 47.0842 76.6882C35.2915 74.1277 23.98 70.8458 15.6126 68.2022C11.4302 66.8809 7.98608 65.7198 5.58865 64.8896C4.38999 64.4744 3.45312 64.142 2.81661 63.9137C2.49836 63.7995 2.2552 63.7113 2.09196 63.6519C2.01035 63.6221 1.94871 63.5995 1.90765 63.5845C1.88713 63.5769 1.87174 63.5713 1.86158 63.5675C1.8565 63.5656 1.85273 63.5643 1.85027 63.5633C1.84904 63.5629 1.84818 63.5626 1.84757 63.5623C1.84704 63.5621 1.84684 63.5621 1.5 64.5C1.15316 65.4379 1.15362 65.4381 1.15442 65.4384C1.15513 65.4387 1.15625 65.4391 1.15766 65.4396C1.16048 65.4406 1.16462 65.4422 1.17006 65.4442C1.18095 65.4482 1.19706 65.4541 1.21833 65.4619C1.26086 65.4775 1.324 65.5006 1.40714 65.531C1.57342 65.5916 1.81972 65.6809 2.14122 65.7962C2.78422 66.0269 3.72806 66.3617 4.93414 66.7794C7.34621 67.6148 10.8078 68.7817 15.0101 70.1093C23.4124 72.7639 34.7869 76.0647 46.6599 78.6427C58.5213 81.2181 70.9339 83.0842 81.3948 82.8421C91.7715 82.6019 100.61 80.2791 104.828 74.0614L103.172 72.9386Z" fill="black"/>
</svg>
